<svg id="elDdVGTP6kc1" xmlns="http://www.w3.org/2000/svg" xmlns:xlink="http://www.w3.org/1999/xlink" viewBox="0 0 700 400" shape-rendering="geometricPrecision" text-rendering="geometricPrecision" project-id="796569adf6d44e85b541aefd4c911235" export-id="11d5ad59d0a04196b1742eadeaa28bc1" cached="false" style="background-color:#100227"><defs><linearGradient id="elDdVGTP6kc4-fill" x1="0" y1="0.5" x2="1" y2="0.5" spreadMethod="pad" gradientUnits="objectBoundingBox" gradientTransform="translate(0 0)"><stop id="elDdVGTP6kc4-fill-0" offset="0%" stop-color="#100227"/><stop id="elDdVGTP6kc4-fill-1" offset="32%" stop-color="#291647"/><stop id="elDdVGTP6kc4-fill-2" offset="64%" stop-color="#291647"/><stop id="elDdVGTP6kc4-fill-3" offset="100%" stop-color="#100227"/></linearGradient><linearGradient id="elDdVGTP6kc17-fill" x1="0" y1="103" x2="26.9" y2="103" spreadMethod="pad" gradientUnits="userSpaceOnUse" gradientTransform="translate(0 0)"><stop id="elDdVGTP6kc17-fill-0" offset="0%" stop-color="#a01dae"/><stop id="elDdVGTP6kc17-fill-1" offset="100%" stop-color="rgba(79,38,236,0)"/></linearGradient><linearGradient id="elDdVGTP6kc19-fill" x1="0" y1="8.3" x2="26.5" y2="8.3" spreadMethod="pad" gradientUnits="userSpaceOnUse" gradientTransform="translate(0 0)"><stop id="elDdVGTP6kc19-fill-0" offset="0%" stop-color="#6382b5"/><stop id="elDdVGTP6kc19-fill-1" offset="70%" stop-color="rgba(158,181,216,0.09)"/><stop id="elDdVGTP6kc19-fill-2" offset="100%" stop-color="rgba(185,204,233,0)"/></linearGradient><linearGradient id="elDdVGTP6kc39-fill" x1="1.480687" y1="15.537553" x2="27.980687" y2="15.537553" spreadMethod="pad" gradientUnits="userSpaceOnUse" gradientTransform="translate(0 0)"><stop id="elDdVGTP6kc39-fill-0" offset="0%" stop-color="#6e098a"/><stop id="elDdVGTP6kc39-fill-1" offset="63%" stop-color="rgba(182,30,198,0.16)"/><stop id="elDdVGTP6kc39-fill-2" offset="97%" stop-color="rgba(232,73,123,0)"/><stop id="elDdVGTP6kc39-fill-3" offset="100%" stop-color="rgba(227,65,129,0)"/></linearGradient><linearGradient id="elDdVGTP6kc44-fill" x1="450.2" y1="336.5" x2="450.2" y2="312.3" spreadMethod="pad" gradientUnits="userSpaceOnUse" gradientTransform="translate(0 0)"><stop id="elDdVGTP6kc44-fill-0" offset="0%" stop-color="#fca6d2"/><stop id="elDdVGTP6kc44-fill-1" offset="100%" stop-color="#ffbaba"/></linearGradient><linearGradient id="elDdVGTP6kc45-fill" x1="4.758714" y1="29.483945" x2="26.158714" y2="29.483945" spreadMethod="pad" gradientUnits="userSpaceOnUse" gradientTransform="translate(0 0)"><stop id="elDdVGTP6kc45-fill-0" offset="6.6846%" stop-color="#e99bc8"/><stop id="elDdVGTP6kc45-fill-1" offset="65%" stop-color="rgba(255,199,246,0.35)"/><stop id="elDdVGTP6kc45-fill-2" offset="100%" stop-color="rgba(255,220,253,0)"/></linearGradient><linearGradient id="elDdVGTP6kc47-fill" x1="450.2" y1="336.5" x2="450.2" y2="312.3" spreadMethod="pad" gradientUnits="userSpaceOnUse" gradientTransform="translate(0 0)"><stop id="elDdVGTP6kc47-fill-0" offset="0%" stop-color="#f59d93"/><stop id="elDdVGTP6kc47-fill-1" offset="100%" stop-color="#fbc2aa"/></linearGradient></defs><g transform="matrix(.514166 0 0 0.514166 147.51553-17.028221)"><g id="elDdVGTP6kc3" transform="matrix(2.093634 0.391915-.391915 2.093634-237.085667-561.639335)"><path id="elDdVGTP6kc4" d="M415,493.5c0,5.9-4.8,10.7-10.7,10.7h-16.5c-5.9,0-10.7-4.8-10.7-10.7v-162.5h-.1v-5l17.9-37.4h-.1c.5-1,1.8-1,2.3,0L415,326v167.5Z" transform="matrix(1.05 0 0 1.05-2.291202-27.728611)" opacity="0.53" fill="url(#elDdVGTP6kc4-fill)" stroke-width="0"/><g clip-path="url(#elDdVGTP6kc20)"><g><g id="elDdVGTP6kc7"><rect width="19" height="187.5" rx="0" ry="0" transform="translate(366.4 317.5)" fill="#2691ec" stroke="#100227" stroke-width="2" stroke-miterlimit="10"/><rect width="19" height="187.5" rx="0" ry="0" transform="translate(385.4 317.5)" fill="#2691ec" stroke="#100227" stroke-width="2" stroke-miterlimit="10"/><rect width="19" height="187.5" rx="0" ry="0" transform="translate(404.4 317.5)" fill="#2691ec" stroke="#100227" stroke-width="2" stroke-miterlimit="10"/><rect width="19" height="187.5" rx="0" ry="0" transform="translate(423.3 317.5)" fill="#2691ec" stroke="#100227" stroke-width="2" stroke-miterlimit="10"/><rect width="19" height="187.5" rx="0" ry="0" transform="translate(442.3 317.5)" fill="#2691ec" stroke="#100227" stroke-width="2" stroke-miterlimit="10"/><rect width="19" height="187.5" rx="0" ry="0" transform="translate(461.2 317.5)" fill="#2691ec" stroke="#100227" stroke-width="2" stroke-miterlimit="10"/><rect width="19" height="187.5" rx="0" ry="0" transform="translate(480.2 317.5)" fill="#2691ec" stroke="#100227" stroke-width="2" stroke-miterlimit="10"/><rect width="19" height="187.5" rx="0" ry="0" transform="translate(499.2 317.5)" fill="#2691ec" stroke="#100227" stroke-width="2" stroke-miterlimit="10"/><rect width="19" height="187.5" rx="0" ry="0" transform="translate(518.1 317.5)" fill="#2691ec" stroke="#100227" stroke-width="2" stroke-miterlimit="10"/></g><rect style="mix-blend-mode:multiply" width="26.9" height="206.1" rx="0" ry="0" transform="translate(370 292)" fill="url(#elDdVGTP6kc17-fill)" stroke-width="0"/><path d="M0,0h45.9v17.1h-45.9L0,0Z" transform="translate(373.1 473.1)" fill="#e9edff" stroke-width="0"/><rect style="mix-blend-mode:multiply" width="26.5" height="16.4" rx="0" ry="0" transform="matrix(1 0 0 1.042844 369 473.098594)" fill="url(#elDdVGTP6kc19-fill)" stroke-width="0"/></g><clipPath id="elDdVGTP6kc20"><path d="M377,326h38v167.5c0,5.9-4.8,10.7-10.7,10.7h-16.5c-5.9,0-10.7-4.8-10.7-10.7v-167.5v0h-.1Z" fill="none" stroke-width="0"/></clipPath></g><line x1="376" y1="477.9" x2="416" y2="477.9" fill="none" stroke="#100227" stroke-width="2" stroke-linecap="round" stroke-linejoin="round"/><line x1="376" y1="485" x2="416" y2="485" fill="none" stroke="#100227" stroke-width="2" stroke-linecap="round" stroke-linejoin="round"/><path d="M377.014707,489.574085L415,489.6v8.3c0,8.8-7.2,16-16,16h-6c-8.8,0-16-7.2-16-16l.014707-8.325915v0Z" transform="translate(.08099-.446303)" fill="#ec308c" stroke-width="0"/><g clip-path="url(#elDdVGTP6kc40)"><g id="elDdVGTP6kc26"><g><circle r="2.4" transform="translate(386 497.6)" fill="#100227" stroke-width="0"/><circle r="2.4" transform="translate(406 497.6)" fill="#100227" stroke-width="0"/><path d="M398.6,501.7c-1.3.8-2.6,0-2.6-1.3c0,1.3-1.5,2.2-2.7,1.3" fill="none" stroke="#100226" stroke-width="2" stroke-linecap="round" stroke-linejoin="round"/></g><g transform="translate(56.962445 0)"><circle r="2.4" transform="translate(386 497.6)" fill="#100227" stroke-width="0"/><circle r="2.4" transform="translate(406 497.6)" fill="#100227" stroke-width="0"/><path d="M398.6,501.7c-1.3.8-2.6,0-2.6-1.3c0,1.3-1.5,2.2-2.7,1.3" fill="none" stroke="#100227" stroke-width="2" stroke-linecap="round" stroke-linejoin="round"/></g><g transform="translate(13.665017 0)"><circle r="2.4" transform="translate(486 497.6)" fill="#100227" stroke-width="0"/><circle r="2.4" transform="translate(506 497.6)" fill="#100227" stroke-width="0"/><path d="M498.6,501.7c-1.3.8-2.6,0-2.6-1.3c0,1.3-1.5,2.2-2.7,1.3" fill="none" stroke="#100227" stroke-width="2" stroke-linecap="round" stroke-linejoin="round"/></g></g><rect style="mix-blend-mode:multiply" width="26.6" height="31.1" rx="0" ry="0" transform="translate(368.9 486)" fill="url(#elDdVGTP6kc39-fill)" stroke-width="0"/><clipPath id="elDdVGTP6kc40"><path d="M377.011923,489.572082L415,489.6v8.3c0,8.8-7.2,16-16,16h-6c-8.8,0-16-7.2-16-16l.011923-8.327918v0Z" transform="translate(.08099-.446303)" fill="#e8497b" stroke-width="0"/></clipPath></g><g clip-path="url(#elDdVGTP6kc49)"><g clip-path="url(#elDdVGTP6kc46)"><path id="elDdVGTP6kc44" d="M529.1,286.6c-.2-.5-.7-.8-1.1-.8c0,0-151-1.3-151,.2l-5.6,37.3c0,1.2,6.3,3.1,7.4,3.6l5.9,2.7c.7.3,1.6.4,2.3,0l7.8-3.1c.8-.3,1.7-.3,2.4.1l5.7,2.9c.7.4,1.6.4,2.4.1l8.6-3.1c.7-.3,1.6-.3,2.3-.1l6.5,3.2c.7.3,1.6.4,2.3,0l7.8-3.1c.8-.3,1.7-.3,2.4.1l5.7,2.9c.7.4,1.6.4,2.4.1l8.6-3.2c.7-.3,1.6-.2,2.3,0l6.5,3.2c.7.3,1.6.4,2.3,0l7.8-3.1c.8-.3,1.7-.3,2.4.1l5.7,2.9c.7.4,1.6.4,2.4.1l8.6-3.2c.7-.3,1.6-.2,2.3,0l6.5,3.2c.7.3,1.6.4,2.3,0l7.8-3.1c.8-.3,1.7-.3,2.4.1l5.7,2.9c.7.4,1.6.4,2.4.1l7.8-2.7c1.2-.4,5.82489-2.4,5.82489-3.6L529.1,286v.6Z" fill="url(#elDdVGTP6kc44-fill)" stroke-width="0"/><rect style="mix-blend-mode:multiply" width="26.6" height="57.4" rx="0" ry="0" transform="translate(369.3 280.5)" fill="url(#elDdVGTP6kc45-fill)" stroke-width="0"/><clipPath id="elDdVGTP6kc46"><path id="elDdVGTP6kc47" d="M529.1,286.6c-.2-.5-.7-.8-1.1-.8c0,0-151-1.3-151,.2l-5.6,37.3c0,1.2,6.3,3.1,7.4,3.6l5.9,2.7c.7.3,1.6.4,2.3,0l7.8-3.1c.8-.3,1.7-.3,2.4.1l5.7,2.9c.7.4,1.6.4,2.4.1l8.6-3.1c.7-.3,1.6-.3,2.3-.1l6.5,3.2c.7.3,1.6.4,2.3,0l7.8-3.1c.8-.3,1.7-.3,2.4.1l5.7,2.9c.7.4,1.6.4,2.4.1l8.6-3.2c.7-.3,1.6-.2,2.3,0l6.5,3.2c.7.3,1.6.4,2.3,0l7.8-3.1c.8-.3,1.7-.3,2.4.1l5.7,2.9c.7.4,1.6.4,2.4.1l8.6-3.2c.7-.3,1.6-.2,2.3,0l6.5,3.2c.7.3,1.6.4,2.3,0l7.8-3.1c.8-.3,1.7-.3,2.4.1l5.7,2.9c.7.4,1.6.4,2.4.1l7.8-2.7c1.2-.4,5.824891-2.4,5.824891-3.6L529.1,286v.6Z" fill="url(#elDdVGTP6kc47-fill)" stroke-width="0"/></clipPath></g><path id="elDdVGTP6kc48" d="M393.4,275.8h5.2c6.2,0,11.3,5,11.3,11.3v3.2c0,6.3-5.1,11.5-11.5,11.5h-4.8c-6.3,0-11.5-5.1-11.5-11.5v-3.2c0-6.2,5-11.3,11.3-11.3Z" fill="#2691ec" stroke="#2691ec" stroke-width="2" stroke-linecap="round" stroke-linejoin="round"/><clipPath id="elDdVGTP6kc49"><path d="M394.9,288.6L377,326v5h38v-5l-17.9-37.4c-.5-1-1.8-1-2.3,0h.1Z" fill="none" stroke-width="0"/></clipPath></g></g></g>
<script><![CDATA[
(function(s,i,u,o,c,w,d,t,n,x,e,p,a,b){(a=Array.from(d.querySelectorAll('svg#' + i.root)).filter(n=> !n.svgatorPlayer)[0]||{}).svgatorPlayer={ready:(function(a){b=[];return function(c){return c?(b.push(c),a.svgatorPlayer):b}})(a)};w[o]=w[o]||{};w[o][s]=w[o][s]||[];w[o][s].push(i);e=d.createElementNS(n,t);e.async=true;e.setAttributeNS(x,'href',[u,s,'.','j','s','?','v','=',c].join(''));e.setAttributeNS(null,'src',[u,s,'.','j','s','?','v','=',c].join(''));p=d.getElementsByTagName(t)[0];p.parentNode.insertBefore(e,p);})('91c80d77',{"root":"elDdVGTP6kc1","version":"2024-09-05","animations":[{"elements":{"elDdVGTP6kc3":{"transform":{"data":{"s":{"x":2.13,"y":2.13},"t":{"x":-395.9,"y":-502.061525}},"keys":{"o":[{"t":0,"v":{"x":395.018462,"y":644.652843,"type":"cusp","end":{"x":395.018462,"y":631.892308}},"e":[0.39,0.575,0.565,1]},{"t":1000,"v":{"x":385.400611,"y":595.481489,"type":"cusp","start":{"x":391.460398,"y":605.202518},"end":{"x":372.073021,"y":616.336652}},"e":[0.445,0.05,0.55,0.95]},{"t":2900,"v":{"x":374.488249,"y":694.795206,"type":"cusp","start":{"x":364.143648,"y":670.177841},"end":{"x":382.791376,"y":688.839186}},"e":[0.47,0,0.745,0.715]},{"t":4000,"v":{"x":395.018462,"y":644.652843,"type":"cusp","start":{"x":395.018462,"y":655.26045}}}],"r":[{"t":0,"v":10.602702,"e":[0.445,0.05,0.55,0.95]},{"t":2000,"v":-10.405637,"e":[0.445,0.05,0.55,0.95]},{"t":4000,"v":10.602702}]}}},"elDdVGTP6kc4":{"transform":{"data":{"t":{"x":-395.228849,"y":-492.443508}},"keys":{"o":[{"t":0,"v":{"x":412.699089,"y":489.337072,"type":"cusp","end":{"x":402.888777,"y":495.951251}},"e":[0.445,0.05,0.55,0.95]},{"t":2000,"v":{"x":377.003802,"y":493.782632,"type":"cusp","start":{"x":385.011587,"y":498.388831},"end":{"x":384.909009,"y":497.854849}},"e":[0.445,0.05,0.55,0.95]},{"t":4000,"v":{"x":412.699089,"y":489.337072,"type":"cusp","start":{"x":402.530677,"y":496.422093}}}],"s":[{"t":0,"v":{"x":1.05,"y":1.05},"e":[0.445,0.05,0.55,0.95]},{"t":1000,"v":{"x":1.25,"y":1.1},"e":[0.445,0.05,0.55,0.95]},{"t":2000,"v":{"x":1.06,"y":1.06},"e":[0.445,0.05,0.55,0.95]},{"t":3000,"v":{"x":1.25,"y":1.1},"e":[0.445,0.05,0.55,0.95]},{"t":4000,"v":{"x":1.05,"y":1.05}}]}}},"elDdVGTP6kc7":{"transform":{"data":{"t":{"x":-451.750015,"y":-411.25}},"keys":{"o":[{"t":0,"v":{"x":451.750015,"y":411.25,"type":"corner"}},{"t":4000,"v":{"x":337.825125,"y":411.25,"type":"corner"}}]}}},"elDdVGTP6kc26":{"transform":{"data":{"t":{"x":-438.650009,"y":-501.550034}},"keys":{"o":[{"t":0,"v":{"x":438.650009,"y":501.550034,"type":"corner"}},{"t":4000,"v":{"x":324.725119,"y":501.550034,"type":"corner"}}]}}},"elDdVGTP6kc44":{"transform":{"data":{"t":{"x":-450.249985,"y":-307.570557}},"keys":{"o":[{"t":0,"v":{"x":450.249985,"y":307.570557,"type":"corner"}},{"t":4000,"v":{"x":336.325095,"y":307.570557,"type":"corner"}}]}}},"elDdVGTP6kc47":{"transform":{"data":{"t":{"x":-450.249985,"y":-307.570557}},"keys":{"o":[{"t":0,"v":{"x":450.249985,"y":307.570557,"type":"corner"}},{"t":4000,"v":{"x":336.325095,"y":307.570557,"type":"corner"}}]}}},"elDdVGTP6kc48":{"transform":{"data":{"o":{"x":396,"y":288.799988,"type":"corner"},"t":{"x":-396,"y":-288.799988}},"keys":{"r":[{"t":0,"v":0},{"t":4000,"v":360}]}}}},"s":"MDAA1ZmNiNzJiNQGM1YzJiMWM0PYjliZmJlNzIS4YU44NDgwODWBCODA3YzcyYNjRiOWMyYjViMM2M0YjliZmJTlNzI4YTgxN2VM3MkRiOWM0SHWI1YzJiMUxjCNGI5YmZiZWMDzNzI4YTgwN2GNXNzJiNmI5YKmNiYzcyOGE4DMTdjNzJJYjFPiY2M0YjVjMlVdiZWIxYzRiNITcyOGFiNmIxPYmNjM0ViNTdRjNzJjM2MwYjAVUYjViNEY3MIko4YTgxTDdlTODI3YzcyYjZTjMEhjMzcyOGIE4MTgwODBjZHA|"}],"options":"MDMAxZTllNDU5NGko5N0g4NDk1WUzk3NDU1ZDQN1OTY4Njk1OTRI4ZjhmNDU0ZDjQ1OTZZODY5ONTkyOGZHOGYC0NTVkNTU1OGHEw"},'https://cdn.svgator.com/ply/','__SVGATOR_PLAYER__','2024-09-05',window,document,'script','http://www.w3.org/2000/svg','http://www.w3.org/1999/xlink')
]]></script>
</svg>
