<svg id="eStIskbQXrv1" xmlns="http://www.w3.org/2000/svg" xmlns:xlink="http://www.w3.org/1999/xlink" viewBox="0 0 700 400" shape-rendering="geometricPrecision" text-rendering="geometricPrecision" width="700" height="400" style="background-color:#b962cf">
<style><![CDATA[
#eStIskbQXrv11 {animation: eStIskbQXrv11_s_do 9000ms linear infinite normal forwards}@keyframes eStIskbQXrv11_s_do { 0% {stroke-dashoffset: 330.38} 44.444444% {stroke-dashoffset: 330.38} 50% {stroke-dashoffset: 0} 100% {stroke-dashoffset: 0}} #eStIskbQXrv15 {animation: eStIskbQXrv15_s_do 9000ms linear infinite normal forwards}@keyframes eStIskbQXrv15_s_do { 0% {stroke-dashoffset: 452.93} 50% {stroke-dashoffset: 452.93} 55.555556% {stroke-dashoffset: 0} 100% {stroke-dashoffset: 0}} #eStIskbQXrv19 {animation: eStIskbQXrv19_s_do 9000ms linear infinite normal forwards}@keyframes eStIskbQXrv19_s_do { 0% {stroke-dashoffset: 359.27} 11.111111% {stroke-dashoffset: 359.27;animation-timing-function: cubic-bezier(0.645,0.045,0.355,1)} 14.444444% {stroke-dashoffset: 0} 100% {stroke-dashoffset: 0}} #eStIskbQXrv25 {animation: eStIskbQXrv25_s_do 9000ms linear infinite normal forwards}@keyframes eStIskbQXrv25_s_do { 0% {stroke-dashoffset: 166.36} 13.333333% {stroke-dashoffset: 166.36} 16.666667% {stroke-dashoffset: 0} 100% {stroke-dashoffset: 0}} #eStIskbQXrv29 {animation: eStIskbQXrv29_s_do 9000ms linear infinite normal forwards}@keyframes eStIskbQXrv29_s_do { 0% {stroke-dashoffset: 117.4} 18.888889% {stroke-dashoffset: 117.4;animation-timing-function: cubic-bezier(0.23,1,0.32,1)} 21.111111% {stroke-dashoffset: 0} 100% {stroke-dashoffset: 0}} #eStIskbQXrv33 {animation: eStIskbQXrv33_s_do 9000ms linear infinite normal forwards}@keyframes eStIskbQXrv33_s_do { 0% {stroke-dashoffset: 161.97} 16.666667% {stroke-dashoffset: 161.97} 18.888889% {stroke-dashoffset: 0} 100% {stroke-dashoffset: 0}} #eStIskbQXrv39 {animation: eStIskbQXrv39_s_do 9000ms linear infinite normal forwards}@keyframes eStIskbQXrv39_s_do { 0% {stroke-dashoffset: 166.36} 21.111111% {stroke-dashoffset: 166.36} 23.333333% {stroke-dashoffset: 0} 100% {stroke-dashoffset: 0}} #eStIskbQXrv43 {animation: eStIskbQXrv43_s_do 9000ms linear infinite normal forwards}@keyframes eStIskbQXrv43_s_do { 0% {stroke-dashoffset: 117.4} 25.555556% {stroke-dashoffset: 117.4;animation-timing-function: cubic-bezier(0.23,1,0.32,1)} 27.777778% {stroke-dashoffset: 0} 100% {stroke-dashoffset: 0}} #eStIskbQXrv47 {animation: eStIskbQXrv47_s_do 9000ms linear infinite normal forwards}@keyframes eStIskbQXrv47_s_do { 0% {stroke-dashoffset: 161.97} 23.333333% {stroke-dashoffset: 161.97} 25.555556% {stroke-dashoffset: 0} 100% {stroke-dashoffset: 0}} #eStIskbQXrv52 {animation: eStIskbQXrv52_s_do 9000ms linear infinite normal forwards}@keyframes eStIskbQXrv52_s_do { 0% {stroke-dashoffset: 320.65} 44.444444% {stroke-dashoffset: 320.65;animation-timing-function: cubic-bezier(0.535,0.06,0.79,0.55)} 50% {stroke-dashoffset: 0} 100% {stroke-dashoffset: 0}} #eStIskbQXrv56 {animation: eStIskbQXrv56_s_do 9000ms linear infinite normal forwards}@keyframes eStIskbQXrv56_s_do { 0% {stroke-dashoffset: 251.86} 32.222222% {stroke-dashoffset: 251.86;animation-timing-function: cubic-bezier(0.195,0.695,0.46,0.9)} 35.555556% {stroke-dashoffset: 0} 100% {stroke-dashoffset: 0}} #eStIskbQXrv60 {animation: eStIskbQXrv60_s_do 9000ms linear infinite normal forwards}@keyframes eStIskbQXrv60_s_do { 0% {stroke-dashoffset: 374.32} 27.777778% {stroke-dashoffset: 374.32;animation-timing-function: cubic-bezier(0.835,0.295,0.155,0.685)} 32.222222% {stroke-dashoffset: 0} 100% {stroke-dashoffset: 0}} #eStIskbQXrv65 {animation: eStIskbQXrv65_s_do 9000ms linear infinite normal forwards}@keyframes eStIskbQXrv65_s_do { 0% {stroke-dashoffset: 320.91} 64.444444% {stroke-dashoffset: 320.91;animation-timing-function: cubic-bezier(0.835,0.295,0.155,0.685)} 72.222222% {stroke-dashoffset: 0} 100% {stroke-dashoffset: 0}} #eStIskbQXrv69 {animation: eStIskbQXrv69_s_do 9000ms linear infinite normal forwards}@keyframes eStIskbQXrv69_s_do { 0% {stroke-dashoffset: 185.48} 60% {stroke-dashoffset: 185.48;animation-timing-function: cubic-bezier(0.55,0.085,0.68,0.53)} 64.444444% {stroke-dashoffset: 0} 100% {stroke-dashoffset: 0}} #eStIskbQXrv73 {animation: eStIskbQXrv73_s_do 9000ms linear infinite normal forwards}@keyframes eStIskbQXrv73_s_do { 0% {stroke-dashoffset: 647.43} 34.444444% {stroke-dashoffset: 647.43} 44.444444% {stroke-dashoffset: 0} 100% {stroke-dashoffset: 0}} #eStIskbQXrv75_ts {animation: eStIskbQXrv75_ts__ts 9000ms linear infinite normal forwards}@keyframes eStIskbQXrv75_ts__ts { 0% {transform: translate(415.567639px,254.951846px) rotate(18.542964deg) scale(0,0)} 55.555556% {transform: translate(415.567639px,254.951846px) rotate(18.542964deg) scale(0,0);animation-timing-function: cubic-bezier(0.19,1,0.22,1)} 62.222222% {transform: translate(415.567639px,254.951846px) rotate(18.542964deg) scale(1,0.844959)} 100% {transform: translate(415.567639px,254.951846px) rotate(18.542964deg) scale(1,0.844959)}} #eStIskbQXrv77 {animation: eStIskbQXrv77_s_do 9000ms linear infinite normal forwards}@keyframes eStIskbQXrv77_s_do { 0% {stroke-dashoffset: 28.33} 55.555556% {stroke-dashoffset: 28.33;animation-timing-function: cubic-bezier(0,0.38,0.475,0.99)} 60% {stroke-dashoffset: 0} 100% {stroke-dashoffset: 0}} #eStIskbQXrv82 {animation: eStIskbQXrv82_s_do 9000ms linear infinite normal forwards}@keyframes eStIskbQXrv82_s_do { 0% {stroke-dashoffset: 625.66} 77.777778% {stroke-dashoffset: 625.66} 83.333333% {stroke-dashoffset: 0} 100% {stroke-dashoffset: 0}} #eStIskbQXrv86 {animation: eStIskbQXrv86_s_do 9000ms linear infinite normal forwards}@keyframes eStIskbQXrv86_s_do { 0% {stroke-dashoffset: 629.1} 83.333333% {stroke-dashoffset: 629.1;animation-timing-function: cubic-bezier(0.23,1,0.32,1)} 88.888889% {stroke-dashoffset: 0} 100% {stroke-dashoffset: 0}} #eStIskbQXrv91 {animation: eStIskbQXrv91_s_do 9000ms linear infinite normal forwards}@keyframes eStIskbQXrv91_s_do { 0% {stroke-dashoffset: 182.38} 60% {stroke-dashoffset: 182.38;animation-timing-function: cubic-bezier(0.835,0.295,0.155,0.685)} 66.666667% {stroke-dashoffset: 0} 83.333333% {stroke-dashoffset: 0} 84.444444% {stroke-dashoffset: 182.38} 100% {stroke-dashoffset: 182.38}} #eStIskbQXrv95 {animation: eStIskbQXrv95_s_do 9000ms linear infinite normal forwards}@keyframes eStIskbQXrv95_s_do { 0% {stroke-dashoffset: 190.15} 83.333333% {stroke-dashoffset: 190.15} 84.444444% {stroke-dashoffset: 0;animation-timing-function: cubic-bezier(0.705,0.11,0.845,0.275)} 94.444444% {stroke-dashoffset: 190.15} 100% {stroke-dashoffset: 190.15}} #eStIskbQXrv99 {animation: eStIskbQXrv99_s_do 9000ms linear infinite normal forwards}@keyframes eStIskbQXrv99_s_do { 0% {stroke-dashoffset: 196.29} 48.888889% {stroke-dashoffset: 196.29} 55.555556% {stroke-dashoffset: 0} 56.666667% {stroke-dashoffset: 196.29} 100% {stroke-dashoffset: 196.29}} #eStIskbQXrv103 {animation: eStIskbQXrv103_s_do 9000ms linear infinite normal forwards}@keyframes eStIskbQXrv103_s_do { 0% {stroke-dashoffset: 190.07} 55.555556% {stroke-dashoffset: 190.07} 56.666667% {stroke-dashoffset: 0;animation-timing-function: cubic-bezier(0.95,0.05,0.795,0.035)} 62.222222% {stroke-dashoffset: 190.07} 100% {stroke-dashoffset: 190.07}} #eStIskbQXrv152 {animation: eStIskbQXrv152_s_do 9000ms linear infinite normal forwards}@keyframes eStIskbQXrv152_s_do { 0% {stroke-dashoffset: 320.65} 44.444444% {stroke-dashoffset: 320.65;animation-timing-function: cubic-bezier(0.535,0.06,0.79,0.55)} 50% {stroke-dashoffset: 0} 100% {stroke-dashoffset: 0}} #eStIskbQXrv227_to {animation: eStIskbQXrv227_to__to 9000ms linear infinite normal forwards}@keyframes eStIskbQXrv227_to__to { 0% {transform: translate(408.39408px,283.514536px)} 3.333333% {transform: translate(408.39408px,283.514536px);animation-timing-function: cubic-bezier(0.19,1,0.22,1)} 8.888889% {transform: translate(-292.475674px,865.368669px)} 100% {transform: translate(-292.475674px,865.368669px)}} #eStIskbQXrv233 {animation: eStIskbQXrv233_s_do 9000ms linear infinite normal forwards}@keyframes eStIskbQXrv233_s_do { 0% {stroke-dashoffset: 108.19} 82.222222% {stroke-dashoffset: 108.19;animation-timing-function: cubic-bezier(0.77,0,0.175,1)} 85.555556% {stroke-dashoffset: 0} 100% {stroke-dashoffset: 0}} #eStIskbQXrv237 {animation: eStIskbQXrv237_s_do 9000ms linear infinite normal forwards}@keyframes eStIskbQXrv237_s_do { 0% {stroke-dashoffset: 53.89} 75.555556% {stroke-dashoffset: 53.89;animation-timing-function: cubic-bezier(0,0,0.58,1)} 78.888889% {stroke-dashoffset: 0} 100% {stroke-dashoffset: 0}} #eStIskbQXrv241 {animation: eStIskbQXrv241_s_do 9000ms linear infinite normal forwards}@keyframes eStIskbQXrv241_s_do { 0% {stroke-dashoffset: 107.67} 78.888889% {stroke-dashoffset: 107.67;animation-timing-function: cubic-bezier(0.455,0.03,0.515,0.955)} 82.222222% {stroke-dashoffset: 0} 100% {stroke-dashoffset: 0}} #eStIskbQXrv245 {animation: eStIskbQXrv245_s_do 9000ms linear infinite normal forwards}@keyframes eStIskbQXrv245_s_do { 0% {stroke-dashoffset: 150.42} 66.666667% {stroke-dashoffset: 150.42;animation-timing-function: cubic-bezier(0.835,0.295,0.155,0.685)} 71.111111% {stroke-dashoffset: 0} 100% {stroke-dashoffset: 0}} #eStIskbQXrv249 {animation: eStIskbQXrv249_s_do 9000ms linear infinite normal forwards}@keyframes eStIskbQXrv249_s_do { 0% {stroke-dashoffset: 156.91} 71.111111% {stroke-dashoffset: 156.91;animation-timing-function: cubic-bezier(0.835,0.295,0.155,0.685)} 75.555556% {stroke-dashoffset: 0} 100% {stroke-dashoffset: 0}}
]]></style>
<g transform="matrix(.822354 0 0 0.822354 104.721771-51.561622)"><g transform="translate(-12.999999-4)"><g><g transform="translate(14-15)"><g mask="url(#eStIskbQXrv10)"><path d="M525.333648,228.854673c7.78,3.46-5.873648,29.865327-19.903648,57.585327-5.46,10.77-44,84.85-62.07,91.6v0c-7.82,3.55-27.53,3.5-19.09-46.58c1.58-9.36,10.398833-53.982747,35.763872-53.766874l2.322994-3.995737c-3.919052-2.127486-24.918363-2.416314-42.160009,27.583322C406.346857,328.750711,404,346,405.4,358.11c2.36,16.08,11.83,22.42,18.79,26c5.18,2.65,14.23,2.51,20.73-1.36v0c0,0,21.95-10.66,63.85-94.89c38.72-66.46,16.563648-59.005327,16.563648-59.005327Z" fill="#fff"/><mask id="eStIskbQXrv10" mask-type="alpha" x="-150%" y="-150%" height="400%" width="400%"><path id="eStIskbQXrv11" d="M463.139682,275.471088q-20.650625-11.048813-41.790096,42.856838c-4.433535,13.038082-20.994809,63.024015,14.149561,62.231285c5.284867-.79273,17.96855,3.435165,60.247492-71.345715c15.59036-30.38799,41.217153-80.158985,25.886913-82.60097" transform="translate(.000002 0.000002)" fill="none" stroke="#3f5787" stroke-width="20" stroke-dashoffset="330.38" stroke-dasharray="330.38"/></mask></g></g><g transform="translate(14-15)" mask="url(#eStIskbQXrv14)"><path d="M528.48,275.5c-4.28-10.95-18.22-46.33-.83-43.59c0,0-.58-2.17.25-3.21-40.5-9.1-13.07,63-13.07,63c21,54.26,19.93,81.69,18.72,91-11.12,68.57-84,44.21-75.07-16.79c6.3-43.16,29.56-31.49,29.57-31.51c18.11,10.55,7.5,48.76,7.47,50.74-.07,4.19,2.74,7,6.9,7.33c7.38.63,11.39-3.69,13-10.05c13.39-53.8-25.55-61.66-25.55-61.66-42.52-9.27-37.3,62.94-37.3,62.94c9.08,54.55,51.72,52,65.37,46.12C559.76,411.86,557,348.4,528.48,275.5Z" fill="#fff"/><mask id="eStIskbQXrv14" mask-type="alpha" x="-150%" y="-150%" height="400%" width="400%"><path id="eStIskbQXrv15" d="M528.598036,229.763286q-34.546587-5.827135,1.248672,78.666326c5.410911,16.648958,31.633019,98.645076-18.730078,118.207601-10.405598,2.497343-49.946874,2.497343-54.525337-39.541276-2.081119-19.146302.832448-58.271353,28.719452-57.438905c7.908255,1.248672,35.795259,12.070495,17.481406,66.595832" transform="translate(.000001 0.000001)" fill="none" stroke="#3f5787" stroke-width="25" stroke-dashoffset="452.93" stroke-dasharray="452.93"/></mask></g></g><g mask="url(#eStIskbQXrv18)"><path d="M134,291.73c0,0-13.22,13.36-4.28,19.26c2.58,1.63,10.68,3.06,14.8-19.26c2.46-16.7,9.1-48.63-12-54-9.48-1.52-41.17-1.91-54.13,86.37-1.15,10.16-12.7,90,27.52,103.6c5.69.83,27.838782,6.599011,37.478782-48.910989l1.574092-9.445178c1.094612-6.484739-2.545067-9.353663-3.562874-3.963833c0,0-11.3,61.7-28.06,56-20.61-6-25.57-121,4.88-168.2c5.56-8.43,18-9.8,22.67,5.49c2.886198,11.493669.34726,23.676151-6.89,33.06Z" fill="#fff"/><mask id="eStIskbQXrv18" mask-type="alpha" x="-150%" y="-150%" height="400%" width="400%"><path id="eStIskbQXrv19" d="M129.72,310.99q29.667393-64.143468,0-68.701734c-17.886973.473304-30.146764,16.85285-40.553382,71.877292C85.380187,344.07,79.208029,424.071592,113.339999,424.065796c10.851105-4.935577,17.6029-27.013497,33.757681-77.945932" transform="translate(.000001 0)" fill="none" stroke="#3f5787" stroke-width="25" stroke-dashoffset="359.27" stroke-dasharray="359.27"/></mask></g><g transform="translate(-121.136787 54.523833)"><g><g mask="url(#eStIskbQXrv24)"><path d="M320.52,313.45c-3.79,19.86-11,37.71-16.16,45.78-12.06,17.75-21.13,5-24.51-2.94-5.84-14.65-8.28-21.78-7.38-46.67.91-25.42,11.14-36,11.14-36c4.73-4.84,7.47-4.4,9.73-3.2c5.64,3,5.5,10.78,1.7,24.4-16.42,58.84-6.045599,68.118422-2.05,68.62c11.744811,1.718855,20-26.54,24.22-47.21c1.09-.87,2.2-1.8,3.31-2.78Z" fill="#fff"/><mask id="eStIskbQXrv24" mask-type="alpha" x="-150%" y="-150%" height="400%" width="400%"><path id="eStIskbQXrv25" d="M171.853213,324.1q-20.52,53.323833-9.38,82.6c2.48,7.053833,16.857782,42.457666,36.87-41.926167" transform="translate(121.176787-54.327692)" fill="none" stroke="#3f5787" stroke-width="21" stroke-dashoffset="166.36" stroke-dasharray="166.36"/></mask></g></g><g mask="url(#eStIskbQXrv28)"><path d="M264.69,318.46c0,0,10.46,20,36.39,8.66c9.5-4.57,25.07-15,37.71-34.63c3.83-6.77,0-5.11,0-5.11s-20.94,30.7-44.45,35.52c-4.89.86-24,1.3-26.56-18.51-1.680792,4.523043-2.720862,9.258897-3.09,14.07Z" fill="#fff" stroke-dashoffset="209.21" stroke-dasharray="209.21"/><mask id="eStIskbQXrv28" mask-type="alpha" x="-150%" y="-150%" height="400%" width="400%"><path id="eStIskbQXrv29" d="M140.148234,349.934124q9.986198,50.485781,50.439342,22.070492c7.71407-5.481049,23.954214-19.082171,30.653275-32.683294" transform="translate(120.512221-54.896894)" fill="none" stroke="#3f5787" stroke-width="10" stroke-dashoffset="117.4" stroke-dasharray="117.4"/></mask></g><g mask="url(#eStIskbQXrv32)"><path d="M322.44,283.09c-.37-9.91-3.24-23.69-17.6-29.1-4.21-1.2-34.66-7.61-44.21,32-1.69,9.58-2.21,21.84,3.92,32.37.022275.049043.049057.09591.08.14l.27.45c.09.15.19.3.29.45.039685.072194.083076.142287.13.21c1.221146,1.778059,2.66262,3.394258,4.29,4.81l-.51-14.17c-.18-.49-.35-1-.51-1.51-1.21-7.12-5.942268-42.076147,17.5-50.79c43.232922-15.032028,31.05,58.71,31.05,58.71c1.270946-.809243,2.399473-1.82289,3.34-3c1.664271-10.099927,2.320829-20.340234,1.96-30.57Z" fill="#fff"/><mask id="eStIskbQXrv32" mask-type="alpha" x="-150%" y="-150%" height="400%" width="400%"><path id="eStIskbQXrv33" d="M198.454072,370.641142q11.390096-63.261999-24.592682-61.759181c-4.616995.342-34.503364,1.451971-29.544369,49.67392c1.119131,6.899643,3.811588,12.808828,13.080085,18.446368" transform="translate(119.920543-53.782541)" fill="none" stroke="#3f5787" stroke-width="10" stroke-dashoffset="161.97" stroke-dasharray="161.97"/></mask></g></g><g transform="translate(-48.136787 37.523833)"><g><g mask="url(#eStIskbQXrv38)"><path d="M320.52,313.45c-3.79,19.86-11,37.71-16.16,45.78-12.06,17.75-21.940112,4.989793-25.320112-2.950207C273.981632,342.441166,271.57,334.51,272.47,309.62c.91-25.42,11.14-36,11.14-36c4.73-4.84,7.47-4.4,9.73-3.2c5.64,3,5.5,10.78,1.7,24.4-16.42,58.84-5.720415,67.617494-2.05,68.62c10.893486,2.508061,20-26.54,24.22-47.21c1.09-.87,2.2-1.8,3.31-2.78Z" fill="#fff"/><mask id="eStIskbQXrv38" mask-type="alpha" x="-150%" y="-150%" height="400%" width="400%"><path id="eStIskbQXrv39" d="M171.853213,324.1q-20.52,53.323833-9.38,82.6c2.48,7.053833,16.857782,42.457666,36.87-41.926167" transform="translate(121.176787-54.327692)" fill="none" stroke="#3f5787" stroke-width="21" stroke-dashoffset="166.36" stroke-dasharray="166.36"/></mask></g></g><g mask="url(#eStIskbQXrv42)"><path d="M264.69,318.46c0,0,10.46,20,36.39,8.66c9.5-4.57,25.07-15,37.71-34.63c3.83-6.77,0-5.11,0-5.11s-20.94,30.7-44.45,35.52c-4.89.86-24,1.3-26.56-18.51-1.680792,4.523043-2.720862,9.258897-3.09,14.07Z" fill="#fff" stroke-dashoffset="209.21" stroke-dasharray="209.21"/><mask id="eStIskbQXrv42" mask-type="alpha" x="-150%" y="-150%" height="400%" width="400%"><path id="eStIskbQXrv43" d="M140.148234,349.934124q9.986198,50.485781,50.439342,22.070492c7.71407-5.481049,23.954214-19.082171,30.653275-32.683294" transform="translate(120.512221-54.896894)" fill="none" stroke="#3f5787" stroke-width="10" stroke-dashoffset="117.4" stroke-dasharray="117.4"/></mask></g><g mask="url(#eStIskbQXrv46)"><path d="M322.44,283.09c-.37-9.91-3.24-23.69-17.6-29.1-4.839645-1.834653-34.66-7.61-44.21,32-1.69,9.58-2.21,21.84,3.92,32.37.022275.049043.049057.09591.08.14l.27.45c.09.15.19.3.29.45.039685.072194.083076.142287.13.21c1.221146,1.778059,2.66262,3.394258,4.29,4.81l-.51-14.17c-.18-.49-.35-1-.51-1.51-1.21-7.12-6.667198-42.594447,17.5-50.79c45.19-13.88,31.05,58.71,31.05,58.71c1.270946-.809243,2.399473-1.82289,3.34-3c1.664271-10.099927,2.320829-20.340234,1.96-30.57Z" fill="#fff"/><mask id="eStIskbQXrv46" mask-type="alpha" x="-150%" y="-150%" height="400%" width="400%"><path id="eStIskbQXrv47" d="M198.454072,370.641142q11.390096-63.261999-24.592682-61.759181c-4.616995.342-34.503364,1.451971-29.544369,49.67392c1.119131,6.899643,3.811588,12.808828,13.080085,18.446368" transform="translate(119.920543-53.782541)" fill="none" stroke="#3f5787" stroke-width="10" stroke-dashoffset="161.97" stroke-dasharray="161.97"/></mask></g></g><g transform="translate(63.57635-55.905474)"><g display="none" mask="url(#eStIskbQXrv51)"><path d="M319.89,373.48c0,0-.33,26.1-.5,26.1-.69,2-8.61,41.38-22.75,52.23-4.708378,3.718889-11.101633,4.491021-16.56,2-7.75-3.22-19.08-19-31.25-47.44-.716464-2.342987-.176119-4.889786,1.43-6.74c6-8,30.91-40.9,47.39-77.47c6.24-13.22-.27-15.52-4.87-13.34-11.74,6.27-43.09,51.6-48.75,75.85-.95-2.4-1.23-9.2,2.35-20.31c0,.14,0,.28,0,.41c5-10.92,33.79-59.53,53.34-59.11c6.21.13,10.59,3.54,11.22,9.59c2.8,25-40.35,73.1-45.07,79.48-1.499725,2.343111-1.969825,5.199875-1.3,7.9c6.92,31.55,14.18,42.91,17.9,45.84c4.72,3.72,9.6,3.25,13.75-1.25c7.05-7.17,17.52-34.36,21.87-61.38.55-4.46,1.16-8.57,1.8-12.36Z" transform="translate(0 1.014747)" fill="#fff"/><mask id="eStIskbQXrv51" mask-type="alpha" x="-150%" y="-150%" height="400%" width="400%"><path id="eStIskbQXrv52" d="M301.812933,321.122205q50.797165-89.180873,68.917194-64.812558c1.874486,10.622086-19.927152,53.196919-51.168582,91.936292c4.257281,15.964801,12.771841,49.313494,31.174065,49.274968c7.49623-.316247,13.746227-2.499314,26.867628-35.61523" transform="translate(-63.504426 56.408964)" fill="none" stroke="#3f5787" stroke-width="18" stroke-dashoffset="320.65" stroke-dasharray="320.65"/></mask></g><g mask="url(#eStIskbQXrv55)"><path d="M265.55,285.29c-.493064.250563-.947683.570481-1.35.95.49-1.44,1-2.84,1.47-4.21.469621-.180602.92722-.391031,1.37-.63c82.9-46,102.69-100.21,104.46-112.7c2.28-12.07-8-21.15-25.14-17.24-4.56,1.33-10.23,6.43-14.76,10.52l3.73-13.29c2.582232-1.211299,5.312179-2.078696,8.12-2.58c23.09-4.88,31.92,8.63,32.11,17.53.44,15.76-12.85,66.19-110.01,121.65Z" fill="#fff"/><mask id="eStIskbQXrv55" mask-type="alpha" x="-150%" y="-150%" height="400%" width="400%"><path id="eStIskbQXrv56" d="M380.98612,113.00203q34.892558-38.610298,56.35152-8.933778c2.706417,11.749844,16.94673,20.380336-61.159227,92.444948-12.369846,10.308205-51.287705,35.816544-56.098201,35.816544" transform="translate(-62.594107 52.831724)" fill="none" stroke="#3f5787" stroke-width="15" stroke-dashoffset="251.86" stroke-dasharray="251.86"/></mask></g><g mask="url(#eStIskbQXrv59)"><path d="M244.77,287.24l-.23.66-5.42,15.9c-8.86,29.94-11.53,43.55-13.4,74.92-2.65,44.36-.62,68.28.65,73.38.89,3.58,3.76,5.38,7.51,5.58c2.988837.080405,5.940408-.678273,8.52-2.19c2.045198-1.002634,3.298884-3.124861,3.19-5.4-.11-5.62-6.58-51.59,13.66-137.72c0-.14,19.7-91.28,75.56-154.07l4.07-10.92C294,161.79,256,254.43,244.77,287.24Z" fill="#fff"/><mask id="eStIskbQXrv59" mask-type="alpha" x="-150%" y="-150%" height="400%" width="400%"><path id="eStIskbQXrv60" d="M300.582121,403.006197q-13.05706-81.778427,21.990837-186.234904c18.554769-46.730529,67.346939-155.310287,114.077468-117.513536" transform="translate(-65.285297 56.351522)" fill="none" stroke="#3f5787" stroke-width="30" stroke-dashoffset="374.32" stroke-dasharray="374.32"/></mask></g></g><g transform="translate(-76.35134-87.075946)"><g mask="url(#eStIskbQXrv64)"><path d="M349.91,224.62c-.940285-2.284857-2.648508-4.169914-4.83-5.33v4.13c1.71.53,2.6,2.15,2.91,4.54c3.13,24.26-31.6,56.14-40.79,64.44c0,0-76.5,65.71-135.5,66.82-15.76.29-33.1-7.15-24.51-32.61c1.11-3.3,6.23-10.82,5.65-16.76-.38-5.26-5.84-5.65-9.11-2.62-18.61,17.26-5,57.1,29.09,55.27c55.92.21,130.56-62.18,148.77-80.28c5.92-5.88,34.73-38.17,28.32-57.6Z" transform="translate(-.150622 0.081476)" fill="#fff"/><mask id="eStIskbQXrv64" mask-type="alpha" x="-150%" y="-150%" height="400%" width="400%"><path id="eStIskbQXrv65" d="M267.873873,133.383187q21.388039,20.393247-42.278681,77.593816c-24.372416,18.403661-108.92978,85.054759-154.192839,54.216191-5.968755-8.455736-15.91668-26.859399,4.476566-46.755249" transform="translate(75.106835 88.039139)" fill="none" stroke="#3f5787" stroke-width="20" stroke-dashoffset="320.91" stroke-dasharray="320.91"/></mask></g><g mask="url(#eStIskbQXrv68)"><path d="M348.12,232.91c0,0,.05-17.94-12.66-3.83-10.29,15-37,71.7,12.24,88c9,2.49,22.21,3.83,42.2-2.17l-1.8,5.33c0,0-80.33,22.31-81.67-42.7.43-7.57-1.05-27.68,17.81-50.94c7.47-9.31,24.89-16.09,26.49,2-1.58,2.7-2.61,4.31-2.61,4.31Z" fill="#fff"/><mask id="eStIskbQXrv68" mask-type="alpha" x="-150%" y="-150%" height="400%" width="400%"><path id="eStIskbQXrv69" d="M315.346495,230.837457q-61.683332,11.458957-76.799405-23.161726c-5.11996-12.434189-5.851383-35.352107,13.40942-63.633792c5.363768-7.558036,20.723649-13.165611,21.942687,2.925692" transform="translate(77.220642 86.433657)" fill="none" stroke="#3f5787" stroke-width="15" stroke-dashoffset="185.48" stroke-dasharray="185.48"/></mask></g></g><g mask="url(#eStIskbQXrv72)"><path d="M396.93,222.66l-2.82,4c2.597775.689555,4.420053,3.022561,4.46,5.71-.95,12.45-6.46,20-37.72,48.07-11.08,9.84-20.68,23.36-20.68,23.36-17.81,24.32-18.89,13.14-21.18,7.71-1.8-5.23-3.55-23.77,13.73-71.36c2.06-4.16-4.88-11.78-9.71-4.83-12.73,18.29-16.55,48.72-17.12,53.2-4.35,27-14.82,54.21-21.87,61.38-4.15,4.5-9,5-13.75,1.25-3.72-2.93-11-14.29-17.9-45.84-.669825-2.700125-.199725-5.556889,1.3-7.9c4.72-6.38,47.87-54.51,45.07-79.48-.63-6-5-9.46-11.22-9.59-19.55-.42-48.29,48.19-53.34,59.11c0-.13,0-.27,0-.41-3.58,11.12-3.3,17.92-2.35,20.31c5.66-24.25,37-69.58,48.75-75.85c4.6-2.18,11.11.12,4.87,13.34C269,261.4,244.06,294.3,238.08,302.3c-1.606119,1.850214-2.146464,4.397013-1.43,6.74c12.17,28.45,23.5,44.22,31.25,47.44c5.458367,2.491021,11.851622,1.718889,16.56-2c12.65-9.7,20.32-42.2,22.28-50.41.2,1.81.45,3.51.75,5.08c6.72,27.25,22.41,15.15,29.11,4.42c33.83-49.21,57.64-52.95,63.69-77c1.2-5.68,1.71-11.29-3.36-13.91Z" transform="translate(79.242556 35.924433)" fill="#fff"/><mask id="eStIskbQXrv72" mask-type="alpha" x="-150%" y="-150%" height="400%" width="400%"><path id="eStIskbQXrv73" d="M298.786515,322.873561q52.78686-89.967197,73.828665-74.320727c1.6186,5.934868-7.013935,39.385942-50.716146,91.181155c4.316267,15.646471,19.423205,55.032414,35.609209,51.795213c4.316267-2.158134,17.804604-11.330205,30.213874-68.520752q10.251136-41.544077,21.442953-54.378853-32.773157,77.039257-8.494151,88.36946c4.855802-.539533,9.711602-5.395336,21.041805-17.265072c7.553468-11.869736,19.962736-26.437141,32.91154-36.688277c11.330203-9.711602,46.579426-43.825331,4.33625-47.92606" transform="translate(.000004 0.762288)" fill="none" stroke="#3f5787" stroke-width="20" stroke-dashoffset="647.43" stroke-dasharray="647.43"/></mask></g><g mask="url(#eStIskbQXrv76)"><g id="eStIskbQXrv75_ts" transform="translate(415.567639,254.951846) rotate(18.542964) scale(0,0)"><path d="M-12.260824,0c0-6.771466,8.35342-16.134642,14.779093-10.886101s7.37701,6.470402,7.63152,12.647138-3.378323,10.499787-10.149789,10.499787-12.260824-5.489358-12.260824-12.260824Z" transform="translate(0,0)" fill="#fff" stroke-width="0"/></g><mask id="eStIskbQXrv76" mask-type="alpha" x="-150%" y="-150%" height="400%" width="400%"><path id="eStIskbQXrv77" d="M423.778202,263.91078q-13.48567-11.380971-18.318685-21.358807" transform="translate(0 0.000001)" fill="none" stroke="#3f5787" stroke-width="21" stroke-dashoffset="28.33" stroke-dasharray="28.33"/></mask></g><g transform="translate(304.566952 12.918801)"><g transform="translate(-.83343-.333139)" mask="url(#eStIskbQXrv81)"><path d="M76.23,251.13c0,0-17.36,0-13,29.68c1.84,7.18,3.64,64,138.58,25.47c63.06-16.6,161.87-62,225.7-34.13c23.72,11.23,27.58,50.59-40.94,38.54-40.25-8.88-73.69-28.09-73.69-28.09l-2.35,3.07c0,0,41.09,22.28,69.67,28.84c26.89,6.06,72,10,75.91-14.51c1.27-10.69-1.392319-33.012345-47.522319-40.162345-19.49-2.48-55.931494-7.731452-147.871494,25.638548C155.126187,323.686203,69.6,325.62,76.74,277.94c1.03-9.2,15.26-26.81-.51-26.81Z" transform="matrix(.999041-.043781 0.043781 0.999041-302.568242 192.784364)" fill="#fff"/><mask id="eStIskbQXrv81" mask-type="alpha" x="-150%" y="-150%" height="400%" width="400%"><path id="eStIskbQXrv82" d="M99.390953,443.173538q-26.58592,31.993227-5.407306,57.227321c9.160084,5.4388,29.350973,39.56991,184.786149-21.974405c38.930357-14.312631,95.324923-38.1924,153.371254-27.986451c16.584666,3.827231,34.445076,13.395306,31.893589,35.720818-1.913616,6.697654-7.654463,24.876997-77.820356,12.757434q-36.996562-12.438499-67.614406-26.471679" transform="translate(-304.611567-13.968868)" fill="none" stroke="#3f5787" stroke-width="20" stroke-dashoffset="625.66" stroke-dasharray="625.66"/></mask></g><g mask="url(#eStIskbQXrv85)"><path d="M312.92,282.6l-2.35,3.07c0,0-48.79-27.79-87.49-28.84-63.36-1.87-55.44,49.45-23.46,59.4c69,24.58,209.452583-34.787886,259.085246-42.156649C546.565246,255.483351,558.31,341.51,510.31,331.6c-25.92-8.47-6.19-31.6,2.29-15.88c5.88,10.66,13.54,6.45,16,.9c4.59-8.05-.757206-64.088334-110.797206-29.818334-46,14.48-169.801117,55.017856-224.932794,34.598334-43.552575-15.083338-46.34-90.76,48.53-69.48c13.04,3.46,21.99,3.92,71.52,30.68Z" transform="matrix(.999041-.043781 0.043781 0.999041-302.697613 192.809431)" fill="#fff"/><mask id="eStIskbQXrv85" mask-type="alpha" x="-150%" y="-150%" height="400%" width="400%"><path id="eStIskbQXrv86" d="M329.848874,477.611531q-72.296303-36.39918-114.971204-27.613171c-14.810701,4.016461-30.876547,10.292183-29.119345,34.39095c2.761318,16.818931,7.028807,44.683131,106.436224,32.131689c39.411526-8.53498,97.399187-27.613171,158.399192-49.703708c15.312758-5.271606,74.508174-27.350402,97.420408,18.269494c1.636588,6.750926,2.659455,27.208279-18.207044,23.321382-7.601213-7.508024-11.543453-12.072722-17.145583-20.787146" transform="translate(-306.504817-10.517321)" fill="none" stroke="#3f5787" stroke-width="20" stroke-dashoffset="629.1" stroke-dasharray="629.1"/></mask></g></g><g transform="translate(-42.764346-143.944104)"><g mask="url(#eStIskbQXrv90)"><path d="M344.07,282.24c4.38-26.4,10.19-34.51,26.47-51.43c20.23-21.12,29.87-22.85,31.91-37c1.028298-23.436536-36.601926-23.487634-29.23-6.51c4.412127,6.345106,3.380574,14.498478-3.376801,14.013368-9.28-.32-11.556621-17.264351.056801-26.933368c15.282606-12.718629,35.55-.87,38,13.68c2.06,12.63-3.735475,21.728706-16.615475,31.678706C349.384525,252.408706,349.76,264.76,344.07,282.24Z" transform="matrix(.755924 0.654659-.654659 0.755924 334.866506-64.615202)" fill="#fff"/><mask id="eStIskbQXrv90" mask-type="alpha" x="-150%" y="-150%" height="400%" width="400%"><path id="eStIskbQXrv91" d="M369.585366,228.578487q28.984276-20.623426,77.198502-17.557782c14.492137-1.11478,35.115564-6.967377,28.70558-31.213836-3.901729-10.03302-17.836477-16.443003-28.70558-5.852594-3.623034,3.623033-5.852594,7.803458-5.295204,14.770832" transform="translate(39.922321 148.204782)" fill="none" stroke="#3f5787" stroke-width="20" stroke-dashoffset="182.38" stroke-dasharray="182.38"/></mask></g><g mask="url(#eStIskbQXrv94)"><path d="M344.07,282.24c4.38-26.4,10.19-34.51,26.47-51.43c20.23-21.12,29.87-22.85,31.91-37c1.028298-23.436536-36.601926-23.487634-29.23-6.51c4.412127,6.345106,3.380574,14.498478-3.376801,14.013368-9.28-.32-11.556621-17.264351.056801-26.933368c15.282606-12.718629,35.55-.87,38,13.68c2.06,12.63-3.735475,21.728706-16.615475,31.678706C349.384525,252.408706,349.76,264.76,344.07,282.24Z" transform="matrix(.755924 0.654659-.654659 0.755924 334.866506-64.615202)" fill="#fff"/><mask id="eStIskbQXrv94" mask-type="alpha" x="-150%" y="-150%" height="400%" width="400%"><path id="eStIskbQXrv95" d="M441.698511,187.659786q-.532181-18.448955,19.335924-19.868105c7.273145.354786,18.271561,5.499207,16.320229,26.076887-1.241757,3.902663-6.97011,14.881704-28.612153,14.172128-36.706863-3.157182-53.343779-2.464138-82.613755,23.612749" transform="translate(41.312154 146.75651)" fill="none" stroke="#3f5787" stroke-width="20" stroke-dashoffset="190.15" stroke-dasharray="190.15"/></mask></g><g transform="matrix(.987304 0.15884-.15884 0.987304 133.933902-6.741195)" mask="url(#eStIskbQXrv98)"><path d="M198.557246,342.389191c-4.36-5.44-6.107246-10.059191-8.627246-19.009191-4.783949-26.337812-32.372619-39.046495-46.39-15.51-10.134182,20.504225,11.04688,26.302661,12.638776,13.061167.037417-5.926888,2.997739-7.368731,5.021196-7.50828c3.274297-.494742,7.901973,2.983467,5.420028,10.987113-6.203994,17.877838-29.005781,12.948546-31.535325-2.913479-2.11-14.74,6.655377-24.85354,17.186053-29.475436c26.52-8.52,39.4821,11.239362,41.919272,28.988915c3.74,17.5,10,34.83,38.75,29c0-.01-20.552754,7.599191-34.382754-7.620809Z" transform="translate(15.08988-1.518617)" fill="#fff"/><mask id="eStIskbQXrv98" mask-type="alpha" x="-150%" y="-150%" height="400%" width="400%"><path id="eStIskbQXrv99" d="M223.499187,200.182526q-37.538082,7.73512-43.453173-25.025387c-2.957545-11.147673-5.780981-35.484801-35.697893-33.469672-6.820436,1.240079-21.419188,5.827994-17.864445,25.576564c1.820028,3.640056,5.266285,16.983769,20.143541,12.112456c2.824834-2.328751,6.582856-8.952685,1.053257-19.353598" transform="translate(27.471024 150.126596)" fill="none" stroke="#3f5787" stroke-width="20" stroke-dashoffset="196.29" stroke-dasharray="196.29"/></mask></g><g transform="matrix(.987304 0.15884-.15884 0.987304 133.933902-6.741195)" mask="url(#eStIskbQXrv102)"><path d="M198.557246,342.389191c-4.36-5.44-6.107246-10.059191-8.627246-19.009191-4.783949-26.337812-32.372619-39.046495-46.39-15.51-10.134182,20.504225,11.04688,26.302661,12.638776,13.061167.037417-5.926888,2.997739-7.368731,5.021196-7.50828c3.274297-.494742,7.901973,2.983467,5.420028,10.987113-6.203994,17.877838-29.005781,12.948546-31.535325-2.913479-2.11-14.74,6.655377-24.85354,17.186053-29.475436c26.52-8.52,39.4821,11.239362,41.919272,28.988915c3.74,17.5,10,34.83,38.75,29c0-.01-20.552754,7.599191-34.382754-7.620809Z" transform="translate(15.08988-1.518617)" fill="#fff"/><mask id="eStIskbQXrv102" mask-type="alpha" x="-150%" y="-150%" height="400%" width="400%"><path id="eStIskbQXrv103" d="M150.786763,162.430329q1.194115,13.374076-8.59762,18.389355c-5.492925,1.432937-17.672886,2.149405-16.23995-15.045836.955291-9.314089,10.030556-26.031686,29.852848-23.165812c5.254101,1.67176,18.150531,6.925862,23.16581,28.658736c4.537633,14.807013,6.687038,36.301065,42.271634,28.897558" transform="translate(27.375606 148.017658)" fill="none" stroke="#3f5787" stroke-width="20" stroke-dashoffset="190.07" stroke-dasharray="190.07"/></mask></g></g></g><g mask="url(#eStIskbQXrv226)"><g transform="translate(-12.999999-4)"><g><g transform="translate(14-15)"><g mask="url(#eStIskbQXrv110)"><path d="M525.333648,228.854673c7.78,3.46-5.873648,29.865327-19.903648,57.585327-5.46,10.77-44,84.85-62.07,91.6v0c-7.82,3.55-27.53,3.5-19.09-46.58c1.58-9.36,10.398833-53.982747,35.763872-53.766874l2.322994-3.995737c-3.919052-2.127486-24.918363-2.416314-42.160009,27.583322C406.346857,328.750711,404,346,405.4,358.11c2.36,16.08,11.83,22.42,18.79,26c5.18,2.65,14.23,2.51,20.73-1.36v0c0,0,21.95-10.66,63.85-94.89c38.72-66.46,16.563648-59.005327,16.563648-59.005327Z" fill="#fff"/><mask id="eStIskbQXrv110" mask-type="alpha" x="-150%" y="-150%" height="400%" width="400%"><path d="M463.139682,275.471088q-20.650625-11.048813-41.790096,42.856838c-4.433535,13.038082-20.994809,63.024015,14.149561,62.231285c5.284867-.79273,17.96855,3.435165,60.247492-71.345715c15.59036-30.38799,41.217153-80.158985,25.886913-82.60097" transform="translate(.000002 0.000002)" fill="none" stroke="#3f5787" stroke-width="20" stroke-dasharray="330.38"/></mask></g></g><g transform="translate(14-15)" mask="url(#eStIskbQXrv114)"><path d="M528.48,275.5c-4.28-10.95-18.22-46.33-.83-43.59c0,0-.58-2.17.25-3.21-40.5-9.1-13.07,63-13.07,63c21,54.26,19.93,81.69,18.72,91-11.12,68.57-84,44.21-75.07-16.79c6.3-43.16,29.56-31.49,29.57-31.51c18.11,10.55,7.5,48.76,7.47,50.74-.07,4.19,2.74,7,6.9,7.33c7.38.63,11.39-3.69,13-10.05c13.39-53.8-25.55-61.66-25.55-61.66-42.52-9.27-37.3,62.94-37.3,62.94c9.08,54.55,51.72,52,65.37,46.12C559.76,411.86,557,348.4,528.48,275.5Z" fill="#fff"/><mask id="eStIskbQXrv114" mask-type="alpha" x="-150%" y="-150%" height="400%" width="400%"><path d="M528.598036,229.763286q-34.546587-5.827135,1.248672,78.666326c5.410911,16.648958,31.633019,98.645076-18.730078,118.207601-10.405598,2.497343-49.946874,2.497343-54.525337-39.541276-2.081119-19.146302.832448-58.271353,28.719452-57.438905c7.908255,1.248672,35.795259,12.070495,17.481406,66.595832" transform="translate(.000001 0.000001)" fill="none" stroke="#3f5787" stroke-width="25" stroke-dasharray="452.93"/></mask></g></g><g mask="url(#eStIskbQXrv118)"><path d="M134,291.73c0,0-13.22,13.36-4.28,19.26c2.58,1.63,10.68,3.06,14.8-19.26c2.46-16.7,9.1-48.63-12-54-9.48-1.52-41.17-1.91-54.13,86.37-1.15,10.16-12.7,90,27.52,103.6c5.69.83,27.838782,6.599011,37.478782-48.910989l1.574092-9.445178c1.094612-6.484739-2.545067-9.353663-3.562874-3.963833c0,0-11.3,61.7-28.06,56-20.61-6-25.57-121,4.88-168.2c5.56-8.43,18-9.8,22.67,5.49c2.886198,11.493669.34726,23.676151-6.89,33.06Z" fill="#fff"/><mask id="eStIskbQXrv118" mask-type="alpha" x="-150%" y="-150%" height="400%" width="400%"><path d="M129.72,310.99q29.667393-64.143468,0-68.701734c-17.886973.473304-30.146764,16.85285-40.553382,71.877292C85.380187,344.07,79.208029,424.071592,113.339999,424.065796c10.851105-4.935577,17.6029-27.013497,33.757681-77.945932" transform="translate(.000001 0)" fill="none" stroke="#3f5787" stroke-width="25" stroke-dasharray="359.27"/></mask></g><g transform="translate(-121.136787 54.523833)"><g><g mask="url(#eStIskbQXrv124)"><path d="M320.52,313.45c-3.79,19.86-11,37.71-16.16,45.78-12.06,17.75-21.13,5-24.51-2.94-5.84-14.65-8.28-21.78-7.38-46.67.91-25.42,11.14-36,11.14-36c4.73-4.84,7.47-4.4,9.73-3.2c5.64,3,5.5,10.78,1.7,24.4-16.42,58.84-6.045599,68.118422-2.05,68.62c11.744811,1.718855,20-26.54,24.22-47.21c1.09-.87,2.2-1.8,3.31-2.78Z" fill="#fff"/><mask id="eStIskbQXrv124" mask-type="alpha" x="-150%" y="-150%" height="400%" width="400%"><path d="M171.853213,324.1q-20.52,53.323833-9.38,82.6c2.48,7.053833,16.857782,42.457666,36.87-41.926167" transform="translate(121.176787-54.327692)" fill="none" stroke="#3f5787" stroke-width="21" stroke-dasharray="166.36"/></mask></g></g><g mask="url(#eStIskbQXrv128)"><path d="M264.69,318.46c0,0,10.46,20,36.39,8.66c9.5-4.57,25.07-15,37.71-34.63c3.83-6.77,0-5.11,0-5.11s-20.94,30.7-44.45,35.52c-4.89.86-24,1.3-26.56-18.51-1.680792,4.523043-2.720862,9.258897-3.09,14.07Z" fill="#fff" stroke-dashoffset="209.21" stroke-dasharray="209.21"/><mask id="eStIskbQXrv128" mask-type="alpha" x="-150%" y="-150%" height="400%" width="400%"><path d="M140.148234,349.934124q9.986198,50.485781,50.439342,22.070492c7.71407-5.481049,23.954214-19.082171,30.653275-32.683294" transform="translate(120.512221-54.896894)" fill="none" stroke="#3f5787" stroke-width="10" stroke-dasharray="117.4"/></mask></g><g mask="url(#eStIskbQXrv132)"><path d="M322.44,283.09c-.37-9.91-3.24-23.69-17.6-29.1-4.21-1.2-34.66-7.61-44.21,32-1.69,9.58-2.21,21.84,3.92,32.37.022275.049043.049057.09591.08.14l.27.45c.09.15.19.3.29.45.039685.072194.083076.142287.13.21c1.221146,1.778059,2.66262,3.394258,4.29,4.81l-.51-14.17c-.18-.49-.35-1-.51-1.51-1.21-7.12-5.942268-42.076147,17.5-50.79c43.232922-15.032028,31.05,58.71,31.05,58.71c1.270946-.809243,2.399473-1.82289,3.34-3c1.664271-10.099927,2.320829-20.340234,1.96-30.57Z" fill="#fff"/><mask id="eStIskbQXrv132" mask-type="alpha" x="-150%" y="-150%" height="400%" width="400%"><path d="M198.454072,370.641142q11.390096-63.261999-24.592682-61.759181c-4.616995.342-34.503364,1.451971-29.544369,49.67392c1.119131,6.899643,3.811588,12.808828,13.080085,18.446368" transform="translate(119.920543-53.782541)" fill="none" stroke="#3f5787" stroke-width="10" stroke-dasharray="161.97"/></mask></g></g><g transform="translate(-48.136787 37.523833)"><g><g mask="url(#eStIskbQXrv138)"><path d="M320.52,313.45c-3.79,19.86-11,37.71-16.16,45.78-12.06,17.75-21.940112,4.989793-25.320112-2.950207C273.981632,342.441166,271.57,334.51,272.47,309.62c.91-25.42,11.14-36,11.14-36c4.73-4.84,7.47-4.4,9.73-3.2c5.64,3,5.5,10.78,1.7,24.4-16.42,58.84-5.720415,67.617494-2.05,68.62c10.893486,2.508061,20-26.54,24.22-47.21c1.09-.87,2.2-1.8,3.31-2.78Z" fill="#fff"/><mask id="eStIskbQXrv138" mask-type="alpha" x="-150%" y="-150%" height="400%" width="400%"><path d="M171.853213,324.1q-20.52,53.323833-9.38,82.6c2.48,7.053833,16.857782,42.457666,36.87-41.926167" transform="translate(121.176787-54.327692)" fill="none" stroke="#3f5787" stroke-width="21" stroke-dasharray="166.36"/></mask></g></g><g mask="url(#eStIskbQXrv142)"><path d="M264.69,318.46c0,0,10.46,20,36.39,8.66c9.5-4.57,25.07-15,37.71-34.63c3.83-6.77,0-5.11,0-5.11s-20.94,30.7-44.45,35.52c-4.89.86-24,1.3-26.56-18.51-1.680792,4.523043-2.720862,9.258897-3.09,14.07Z" fill="#fff" stroke-dashoffset="209.21" stroke-dasharray="209.21"/><mask id="eStIskbQXrv142" mask-type="alpha" x="-150%" y="-150%" height="400%" width="400%"><path d="M140.148234,349.934124q9.986198,50.485781,50.439342,22.070492c7.71407-5.481049,23.954214-19.082171,30.653275-32.683294" transform="translate(120.512221-54.896894)" fill="none" stroke="#3f5787" stroke-width="10" stroke-dasharray="117.4"/></mask></g><g mask="url(#eStIskbQXrv146)"><path d="M322.44,283.09c-.37-9.91-3.24-23.69-17.6-29.1-4.839645-1.834653-34.66-7.61-44.21,32-1.69,9.58-2.21,21.84,3.92,32.37.022275.049043.049057.09591.08.14l.27.45c.09.15.19.3.29.45.039685.072194.083076.142287.13.21c1.221146,1.778059,2.66262,3.394258,4.29,4.81l-.51-14.17c-.18-.49-.35-1-.51-1.51-1.21-7.12-6.667198-42.594447,17.5-50.79c45.19-13.88,31.05,58.71,31.05,58.71c1.270946-.809243,2.399473-1.82289,3.34-3c1.664271-10.099927,2.320829-20.340234,1.96-30.57Z" fill="#fff"/><mask id="eStIskbQXrv146" mask-type="alpha" x="-150%" y="-150%" height="400%" width="400%"><path d="M198.454072,370.641142q11.390096-63.261999-24.592682-61.759181c-4.616995.342-34.503364,1.451971-29.544369,49.67392c1.119131,6.899643,3.811588,12.808828,13.080085,18.446368" transform="translate(119.920543-53.782541)" fill="none" stroke="#3f5787" stroke-width="10" stroke-dasharray="161.97"/></mask></g></g><g transform="translate(63.57635-55.905474)"><g display="none" mask="url(#eStIskbQXrv151)"><path d="M319.89,373.48c0,0-.33,26.1-.5,26.1-.69,2-8.61,41.38-22.75,52.23-4.708378,3.718889-11.101633,4.491021-16.56,2-7.75-3.22-19.08-19-31.25-47.44-.716464-2.342987-.176119-4.889786,1.43-6.74c6-8,30.91-40.9,47.39-77.47c6.24-13.22-.27-15.52-4.87-13.34-11.74,6.27-43.09,51.6-48.75,75.85-.95-2.4-1.23-9.2,2.35-20.31c0,.14,0,.28,0,.41c5-10.92,33.79-59.53,53.34-59.11c6.21.13,10.59,3.54,11.22,9.59c2.8,25-40.35,73.1-45.07,79.48-1.499725,2.343111-1.969825,5.199875-1.3,7.9c6.92,31.55,14.18,42.91,17.9,45.84c4.72,3.72,9.6,3.25,13.75-1.25c7.05-7.17,17.52-34.36,21.87-61.38.55-4.46,1.16-8.57,1.8-12.36Z" transform="translate(0 1.014747)" fill="#fff"/><mask id="eStIskbQXrv151" mask-type="alpha" x="-150%" y="-150%" height="400%" width="400%"><path id="eStIskbQXrv152" d="M301.812933,321.122205q50.797165-89.180873,68.917194-64.812558c1.874486,10.622086-19.927152,53.196919-51.168582,91.936292c4.257281,15.964801,12.771841,49.313494,31.174065,49.274968c7.49623-.316247,13.746227-2.499314,26.867628-35.61523" transform="translate(-63.504426 56.408964)" fill="none" stroke="#3f5787" stroke-width="18" stroke-dashoffset="320.65" stroke-dasharray="320.65"/></mask></g><g mask="url(#eStIskbQXrv155)"><path d="M265.55,285.29c-.493064.250563-.947683.570481-1.35.95.49-1.44,1-2.84,1.47-4.21.469621-.180602.92722-.391031,1.37-.63c82.9-46,102.69-100.21,104.46-112.7c2.28-12.07-8-21.15-25.14-17.24-4.56,1.33-10.23,6.43-14.76,10.52l3.73-13.29c2.582232-1.211299,5.312179-2.078696,8.12-2.58c23.09-4.88,31.92,8.63,32.11,17.53.44,15.76-12.85,66.19-110.01,121.65Z" fill="#fff"/><mask id="eStIskbQXrv155" mask-type="alpha" x="-150%" y="-150%" height="400%" width="400%"><path d="M380.98612,113.00203q34.892558-38.610298,56.35152-8.933778c2.706417,11.749844,16.94673,20.380336-61.159227,92.444948-12.369846,10.308205-51.287705,35.816544-56.098201,35.816544" transform="translate(-62.594107 52.831724)" fill="none" stroke="#3f5787" stroke-width="15" stroke-dasharray="251.86"/></mask></g><g mask="url(#eStIskbQXrv159)"><path d="M244.77,287.24l-.23.66-5.42,15.9c-8.86,29.94-11.53,43.55-13.4,74.92-2.65,44.36-.62,68.28.65,73.38.89,3.58,3.76,5.38,7.51,5.58c2.988837.080405,5.940408-.678273,8.52-2.19c2.045198-1.002634,3.298884-3.124861,3.19-5.4-.11-5.62-6.58-51.59,13.66-137.72c0-.14,19.7-91.28,75.56-154.07l4.07-10.92C294,161.79,256,254.43,244.77,287.24Z" fill="#fff"/><mask id="eStIskbQXrv159" mask-type="alpha" x="-150%" y="-150%" height="400%" width="400%"><path d="M300.582121,403.006197q-13.05706-81.778427,21.990837-186.234904c18.554769-46.730529,67.346939-155.310287,114.077468-117.513536" transform="translate(-65.285297 56.351522)" fill="none" stroke="#3f5787" stroke-width="30" stroke-dasharray="374.32"/></mask></g></g><g transform="translate(-76.35134-87.075946)"><g mask="url(#eStIskbQXrv164)"><path d="M349.91,224.62c-.940285-2.284857-2.648508-4.169914-4.83-5.33v4.13c1.71.53,2.6,2.15,2.91,4.54c3.13,24.26-31.6,56.14-40.79,64.44c0,0-76.5,65.71-135.5,66.82-15.76.29-33.1-7.15-24.51-32.61c1.11-3.3,6.23-10.82,5.65-16.76-.38-5.26-5.84-5.65-9.11-2.62-18.61,17.26-5,57.1,29.09,55.27c55.92.21,130.56-62.18,148.77-80.28c5.92-5.88,34.73-38.17,28.32-57.6Z" fill="#fff"/><mask id="eStIskbQXrv164" mask-type="alpha" x="-150%" y="-150%" height="400%" width="400%"><path d="M267.873873,133.383187q21.388039,20.393247-42.278681,77.593816c-24.372416,18.403661-108.92978,85.054759-154.192839,54.216191-5.968755-8.455736-15.91668-26.859399,4.476566-46.755249" transform="translate(75.106835 88.039139)" fill="none" stroke="#3f5787" stroke-width="20" stroke-dasharray="320.91"/></mask></g><g mask="url(#eStIskbQXrv168)"><path d="M348.12,232.91c0,0,.05-17.94-12.66-3.83-10.29,15-37,71.7,12.24,88c9,2.49,22.21,3.83,42.2-2.17l-1.8,5.33c0,0-80.33,22.31-81.67-42.7.43-7.57-1.05-27.68,17.81-50.94c7.47-9.31,24.89-16.09,26.49,2-1.58,2.7-2.61,4.31-2.61,4.31Z" fill="#fff"/><mask id="eStIskbQXrv168" mask-type="alpha" x="-150%" y="-150%" height="400%" width="400%"><path d="M315.346495,230.837457q-61.683332,11.458957-76.799405-23.161726c-5.11996-12.434189-5.851383-35.352107,13.40942-63.633792c5.363768-7.558036,20.723649-13.165611,21.942687,2.925692" transform="translate(77.220642 86.433657)" fill="none" stroke="#3f5787" stroke-width="15" stroke-dasharray="185.48"/></mask></g></g><g mask="url(#eStIskbQXrv172)"><path d="M396.93,222.66l-2.82,4c2.597775.689555,4.420053,3.022561,4.46,5.71-.95,12.45-6.46,20-37.72,48.07-11.08,9.84-20.68,23.36-20.68,23.36-17.81,24.32-18.89,13.14-21.18,7.71-1.8-5.23-3.55-23.77,13.73-71.36c2.06-4.16-4.88-11.78-9.71-4.83-12.73,18.29-16.55,48.72-17.12,53.2-4.35,27-14.82,54.21-21.87,61.38-4.15,4.5-9,5-13.75,1.25-3.72-2.93-11-14.29-17.9-45.84-.669825-2.700125-.199725-5.556889,1.3-7.9c4.72-6.38,47.87-54.51,45.07-79.48-.63-6-5-9.46-11.22-9.59-19.55-.42-48.29,48.19-53.34,59.11c0-.13,0-.27,0-.41-3.58,11.12-3.3,17.92-2.35,20.31c5.66-24.25,37-69.58,48.75-75.85c4.6-2.18,11.11.12,4.87,13.34C269,261.4,244.06,294.3,238.08,302.3c-1.606119,1.850214-2.146464,4.397013-1.43,6.74c12.17,28.45,23.5,44.22,31.25,47.44c5.458367,2.491021,11.851622,1.718889,16.56-2c12.65-9.7,20.32-42.2,22.28-50.41.2,1.81.45,3.51.75,5.08c6.72,27.25,22.41,15.15,29.11,4.42c33.83-49.21,57.64-52.95,63.69-77c1.2-5.68,1.71-11.29-3.36-13.91Z" transform="translate(79.242556 35.924433)" fill="#fff"/><mask id="eStIskbQXrv172" mask-type="alpha" x="-150%" y="-150%" height="400%" width="400%"><path d="M298.786515,322.873561q52.78686-89.967197,73.828665-74.320727c1.6186,5.934868-7.013935,39.385942-50.716146,91.181155c4.316267,15.646471,19.423205,55.032414,35.609209,51.795213c4.316267-2.158134,17.804604-11.330205,30.213874-68.520752q10.251136-41.544077,21.442953-54.378853-32.773157,77.039257-8.494151,88.36946c4.855802-.539533,9.711602-5.395336,21.041805-17.265072c7.553468-11.869736,19.962736-26.437141,32.91154-36.688277c11.330203-9.711602,46.579426-43.825331,4.33625-47.92606" transform="translate(.000004 0.762288)" fill="none" stroke="#3f5787" stroke-width="20" stroke-dasharray="647.43"/></mask></g><g mask="url(#eStIskbQXrv176)"><path d="M-12.260824,0c0-6.771466,8.35342-16.134642,14.779093-10.886101s7.37701,6.470402,7.63152,12.647138-3.378323,10.499787-10.149789,10.499787-12.260824-5.489358-12.260824-12.260824Z" transform="matrix(.948085 0.318016-.26871 0.801093 415.567639 254.951846)" fill="#fff" stroke-width="0"/><mask id="eStIskbQXrv176" mask-type="alpha" x="-150%" y="-150%" height="400%" width="400%"><path d="M423.778202,263.91078q-13.48567-11.380971-18.318685-21.358807" transform="translate(0 0.000001)" fill="none" stroke="#3f5787" stroke-width="21" stroke-dasharray="28.33"/></mask></g><g transform="translate(304.566952 12.918801)"><g transform="translate(-.83343-.333139)" mask="url(#eStIskbQXrv181)"><path d="M76.23,251.13c0,0-17.36,0-13,29.68c1.84,7.18,3.64,64,138.58,25.47c63.06-16.6,161.87-62,225.7-34.13c23.72,11.23,27.58,50.59-40.94,38.54-40.25-8.88-73.69-28.09-73.69-28.09l-2.35,3.07c0,0,41.09,22.28,69.67,28.84c26.89,6.06,72,10,75.91-14.51c1.27-10.69-1.392319-33.012345-47.522319-40.162345-19.49-2.48-55.931494-7.731452-147.871494,25.638548C155.126187,323.686203,69.6,325.62,76.74,277.94c1.03-9.2,15.26-26.81-.51-26.81Z" transform="matrix(.999041-.043781 0.043781 0.999041-302.568242 192.784364)" fill="#fff"/><mask id="eStIskbQXrv181" mask-type="alpha" x="-150%" y="-150%" height="400%" width="400%"><path d="M99.390953,443.173538q-26.58592,31.993227-5.407306,57.227321c9.160084,5.4388,29.350973,39.56991,184.786149-21.974405c38.930357-14.312631,95.324923-38.1924,153.371254-27.986451c16.584666,3.827231,34.445076,13.395306,31.893589,35.720818-1.913616,6.697654-7.654463,24.876997-77.820356,12.757434q-36.996562-12.438499-67.614406-26.471679" transform="translate(-304.611567-13.968868)" fill="none" stroke="#3f5787" stroke-width="20" stroke-dasharray="625.66"/></mask></g><g mask="url(#eStIskbQXrv185)"><path d="M312.92,282.6l-2.35,3.07c0,0-48.79-27.79-87.49-28.84-63.36-1.87-55.44,49.45-23.46,59.4c69,24.58,209.452583-34.787886,259.085246-42.156649C546.565246,255.483351,558.31,341.51,510.31,331.6c-25.92-8.47-6.19-31.6,2.29-15.88c5.88,10.66,13.54,6.45,16,.9c4.59-8.05-.757206-64.088334-110.797206-29.818334-46,14.48-169.801117,55.017856-224.932794,34.598334-43.552575-15.083338-46.34-90.76,48.53-69.48c13.04,3.46,21.99,3.92,71.52,30.68Z" transform="matrix(.999041-.043781 0.043781 0.999041-302.697613 192.809431)" fill="#fff"/><mask id="eStIskbQXrv185" mask-type="alpha" x="-150%" y="-150%" height="400%" width="400%"><path d="M329.848874,477.611531q-72.296303-36.39918-114.971204-27.613171c-14.810701,4.016461-30.876547,10.292183-29.119345,34.39095c2.761318,16.818931,7.028807,44.683131,106.436224,32.131689c39.411526-8.53498,97.399187-27.613171,158.399192-49.703708c15.312758-5.271606,74.508174-27.350402,97.420408,18.269494c1.636588,6.750926,2.659455,27.208279-18.207044,23.321382-7.601213-7.508024-11.543453-12.072722-17.145583-20.787146" transform="translate(-306.504817-10.517321)" fill="none" stroke="#3f5787" stroke-width="20" stroke-dasharray="629.1"/></mask></g></g><g transform="translate(-42.764346-143.944104)"><g mask="url(#eStIskbQXrv190)"><path d="M344.07,282.24c4.38-26.4,10.19-34.51,26.47-51.43c20.23-21.12,29.87-22.85,31.91-37c1.028298-23.436536-36.601926-23.487634-29.23-6.51c4.412127,6.345106,3.380574,14.498478-3.376801,14.013368-9.28-.32-11.556621-17.264351.056801-26.933368c15.282606-12.718629,35.55-.87,38,13.68c2.06,12.63-3.735475,21.728706-16.615475,31.678706C349.384525,252.408706,349.76,264.76,344.07,282.24Z" transform="matrix(.755924 0.654659-.654659 0.755924 334.866506-64.615202)" fill="#fff"/><mask id="eStIskbQXrv190" mask-type="alpha" x="-150%" y="-150%" height="400%" width="400%"><path d="M369.585366,228.578487q28.984276-20.623426,77.198502-17.557782c14.492137-1.11478,35.115564-6.967377,28.70558-31.213836-3.901729-10.03302-17.836477-16.443003-28.70558-5.852594-3.623034,3.623033-5.852594,7.803458-5.295204,14.770832" transform="translate(39.922321 148.204782)" fill="none" stroke="#3f5787" stroke-width="20" stroke-dashoffset="182.38" stroke-dasharray="182.38"/></mask></g><g mask="url(#eStIskbQXrv194)"><path d="M344.07,282.24c4.38-26.4,10.19-34.51,26.47-51.43c20.23-21.12,29.87-22.85,31.91-37c1.028298-23.436536-36.601926-23.487634-29.23-6.51c4.412127,6.345106,3.380574,14.498478-3.376801,14.013368-9.28-.32-11.556621-17.264351.056801-26.933368c15.282606-12.718629,35.55-.87,38,13.68c2.06,12.63-3.735475,21.728706-16.615475,31.678706C349.384525,252.408706,349.76,264.76,344.07,282.24Z" transform="matrix(.755924 0.654659-.654659 0.755924 334.866506-64.615202)" fill="#fff"/><mask id="eStIskbQXrv194" mask-type="alpha" x="-150%" y="-150%" height="400%" width="400%"><path d="M441.698511,187.659786q-.532181-18.448955,19.335924-19.868105c7.273145.354786,18.271561,5.499207,16.320229,26.076887-1.241757,3.902663-6.031389,17.384591-27.673432,16.675015-16.497623-.354787-54.2825-4.967025-83.552476,21.109862" transform="translate(41.312154 146.75651)" fill="none" stroke="#3f5787" stroke-width="20" stroke-dashoffset="190.15" stroke-dasharray="190.15"/></mask></g><g mask="url(#eStIskbQXrv198)"><path d="M198.557246,342.389191c-4.36-5.44-6.107246-10.059191-8.627246-19.009191-4.783949-26.337812-32.372619-39.046495-46.39-15.51-10.134182,20.504225,11.04688,26.302661,12.638776,13.061167.037417-5.926888,2.997739-7.368731,5.021196-7.50828c3.274297-.494742,7.901973,2.983467,5.420028,10.987113-6.203994,17.877838-29.005781,12.948546-31.535325-2.913479-2.11-14.74,6.655377-24.85354,17.186053-29.475436c26.52-8.52,39.4821,11.239362,41.919272,28.988915c3.74,17.5,10,34.83,38.75,29c0-.01-20.552754,7.599191-34.382754-7.620809Z" transform="translate(30.240502-5.600093)" fill="#fff"/><mask id="eStIskbQXrv198" mask-type="alpha" x="-150%" y="-150%" height="400%" width="400%"><path d="M223.499187,200.182526q-37.538082,7.73512-43.453173-25.025387c-2.957545-11.147673-5.780981-35.484801-35.697893-33.469672-6.820436,1.240079-21.419188,5.827994-17.864445,25.576564c1.820028,3.640056,5.266285,16.983769,20.143541,12.112456c2.824834-2.328751,6.582856-8.952685,1.053257-19.353598" transform="translate(41.471024 145.126596)" fill="none" stroke="#3f5787" stroke-width="20" stroke-dashoffset="196.29" stroke-dasharray="196.29"/></mask></g><g mask="url(#eStIskbQXrv202)"><path d="M198.557246,342.389191c-4.36-5.44-6.107246-10.059191-8.627246-19.009191-4.783949-26.337812-32.372619-39.046495-46.39-15.51-10.134182,20.504225,11.04688,26.302661,12.638776,13.061167.037417-5.926888,2.997739-7.368731,5.021196-7.50828c3.274297-.494742,7.901973,2.983467,5.420028,10.987113-6.203994,17.877838-29.005781,12.948546-31.535325-2.913479-2.11-14.74,6.655377-24.85354,17.186053-29.475436c26.52-8.52,39.4821,11.239362,41.919272,28.988915c3.74,17.5,10,34.83,38.75,29c0-.01-20.552754,7.599191-34.382754-7.620809Z" transform="translate(30.240502-5.600093)" fill="#fff"/><mask id="eStIskbQXrv202" mask-type="alpha" x="-150%" y="-150%" height="400%" width="400%"><path d="M150.786763,162.430329q1.194115,13.374076-8.59762,18.389355c-5.492925,1.432937-17.672886,2.149405-16.23995-15.045836.955291-9.314089,10.030556-26.031686,29.852848-23.165812c5.254101,1.67176,18.150531,6.925862,23.16581,28.658736c4.537633,14.807013,6.687038,36.301065,42.271634,28.897558" transform="translate(42.375606 143.017658)" fill="none" stroke="#3f5787" stroke-width="20" stroke-dashoffset="190.07" stroke-dasharray="190.07"/></mask></g></g><g transform="matrix(.875057 0.000177-.000177 0.875057-95.235378-41.926265)"><g><g mask="url(#eStIskbQXrv208)"><path d="M225.08,254.56c0,0-3.91,5.3-1.5,8.2.67.64,2,4.27,9.87-2.29s25.68-22.45,42.65-28.3c7.75-2.25,23.3-7,34.69-.43c1.56.86,3,2.14,2.52-1.06-.3-1.16-6.07-15.49-27.86-12.15-1.21.27-15.33,2.38-34.46,16.77-9.62,6.86-19.21,9.9-25.91,19.26Z" transform="translate(0 1.142783)" fill="#fff"/><mask id="eStIskbQXrv208" mask-type="alpha" x="-150%" y="-150%" height="400%" width="400%"><path d="M68.342074,191.853403q63.670806-60.912493,92.724064-31.634752" transform="translate(153.199839 73.871705)" fill="none" stroke="#3f5787" stroke-width="12" stroke-dasharray="108.19"/></mask></g><g mask="url(#eStIskbQXrv212)"><path d="M309.703527,296.899981c0,0,14.741938-20.12465,22.702727-35.394467C334.822067,256.226518,334.65,250.28,328.99,247.71l-1.11,4.66c0,0,4-.19,3.39,5.2-.5,3.54-1.182883,7.166995-16.08,26.75-4.283827,5.302306-6.59355,8.535913-6.59355,8.535913Z" transform="matrix(.997531-.070227 0.070227 0.997531-16.569125 12.392448)" fill="#fff"/><mask id="eStIskbQXrv212" mask-type="alpha" x="-150%" y="-150%" height="400%" width="400%"><path d="M148.374008,211.989996q14.711913-25.873492,19.685805-36.076346c1.065095-2.875753.852075-8.840279-5.325472-9.585849" transform="translate(165.044794 72.122683)" fill="none" stroke="#3f5787" stroke-width="5" stroke-dasharray="53.89"/></mask></g><g mask="url(#eStIskbQXrv216)"><path d="M275.07308,259.921479c0,0-9.164136-.251239-12.584136,24.778761-.58,6.46-2.629796,21.079494,5.000204,23.709494.9.2,5.209636,1.415437,15.239636-12.314563c4.194497-5.977846,7.65-13.78,9.08-17.18.19.33.063871,8.274033-7.917288,20.318323-4,5.23-14.606135,22.41824-25.656135,10.98824-1.28-1.19-8.304612-12.355643-2.835721-38.282241c2.37777-9.226019,8.979144-20.314322,20.009144-16.554322-.101467,3.521266-.335704,4.536308-.335704,4.536308Z" transform="translate(54.000193-18.841549)" fill="#fff"/><mask id="eStIskbQXrv216" mask-type="alpha" x="-150%" y="-150%" height="400%" width="400%"><path d="M167.240966,163.184434q-14.418554-4.226127-17.872173,25.995675c-.129554,6.99592-.916606,24.549933,9.912949,24.549936c3.512288.58538,14.488188-1.170762,22.976213-32.049626" transform="translate(162.564339 77.496425)" fill="none" stroke="#3f5787" stroke-width="10" stroke-dasharray="107.67"/></mask></g><g mask="url(#eStIskbQXrv220)"><path d="M261.17,240.09c0,0-14.93,28-16.57,55.37c0,1.92-.51,9,5.57,11c.351919.108283,13.086768,7.999799,24.334938-25.190687c1.217163-3.591539,2.099027-7.811347,3.25335-12.387749C278.217084,264.835745,286.86,242.09,286.86,242.09s2.58-6.33-1.54-7c-1.68-.29-2.42.12-5.87,9.72-6.42,15.7-8,28.82-18.45,49.88-2.39,3.83-4.91,4-6.62,3-1.24-.95-.72-4.64,1-11.45c1.57-6.28,13.5-40.46,13.5-40.46s3.2-7.73-2.45-9.27c-.85-.11-3.43-.26-5.26,3.58Z" transform="translate(0 1.142783)" fill="#fff"/><mask id="eStIskbQXrv220" mask-type="alpha" x="-150%" y="-150%" height="400%" width="400%"><path d="M113.619086,156.042739q-25.06836,64.649981-17.481883,68.44322c9.687899,2.325096,19.57038-22.782086,35.458535-66.958908" transform="translate(154.512447 78.677598)" fill="none" stroke="#3f5787" stroke-width="12" stroke-dasharray="150.42"/></mask></g><g mask="url(#eStIskbQXrv224)"><path d="M312.308635,290.273768C302.438635,308.103768,295.38,305.08,293.91,304.65c-10.71-3.85-1.72-39.2-1.36-41.2-2.66-.4-6,12.54-8.66,23.07-3.28,13.73-5.92,13.12-6.84,13.26-4.73-.19-6.236673-4.858829-7.056673-13.898829l4.983251-9.17967c1.512023,1.561633,5.455568-8.684444,5.605568-8.984444C286.687767,252.869292,290.75,252.39,294.38,251.59c13.18-1.64,8.7,13.62,6.07,27.21-3.85,17.27-3.64,20.19-2.48,20.74c4.598455,2.156355,11.770769-11.302818,11.770769-11.302818Z" transform="translate(2.285566-5.713915)" fill="#fff"/><mask id="eStIskbQXrv224" mask-type="alpha" x="-150%" y="-150%" height="400%" width="400%"><path d="M112.793491,204.176782c1.783135,3.94166,1.448228,7.70496,5.349405,8.915673c1.438888.446552,3.632972-7.350322,4.035507-11.637295c1.876997-19.9899,10.757678-26.437284,15.578984-22.429974c7.601785,22.805362-10.980355,35.756563.197934,43.034104c3.463616,1.010222,7.596444-5.577085,13.657775-16.256572" transform="translate(160.711393 73.197242)" fill="none" stroke="#3f5787" stroke-width="15" stroke-dasharray="156.91"/></mask></g></g></g></g><mask id="eStIskbQXrv226" mask-type="alpha" x="-150%" y="-150%" height="400%" width="400%"><g id="eStIskbQXrv227_to" transform="translate(408.39408,283.514536)"><path d="M312.32,86.62l10.33-9.91C247.57,115.59,192.23,182,114,210.66l-27-.58C49.49,226.15,18.36,262.64,-2.55,296C-13,312.64,13.11,360.51,13.11,360.51c3.18,10.22,13,27.31,23,30.92c10.19-3.17,27.39-19.68,40.66-5.86c3.3,3.45-.13,6.74-3.58,10.05c13.25,13.8,29.43,51.32,26,54.62c3.18,10.22,2.41,50.75,5.57,60.94-.38,20.28,80.29,42.31,104,39.45c13.51.29,16.57,17.27,26.5,27.61c3.58-10,17-3,20.52-13.08c3.33,3.46,27.28-12.9,37.61-22.82c0,0,.13-6.75,10.45-16.65c3.45-3.31.12-6.77-3.18-10.21l6.63,6.9c-3.18-10.21,10.33-9.92,10.45-16.69l6.64,6.91c.24-13.51,13.76-13.21,17.33-23.26l6.63,6.91c3.44-3.31,6.88-6.61,10.18-3.16l6.64,6.91c6.75.14,7-13.38,13.64-6.47l-6.63-6.91C386,473.4,399.62,467,413.25,460.5c40.78-12.62,68.58-52.57,92.94-89.2c3.44-3.3.25-13.52-9.81-17.11l10.33-9.91c6.88-6.61-6.51-13.67.37-20.28c38.53-70.12,110.17-105.73,155.3-168.94-17.07,9.79-34,12.79-44.48,29.45-3.31-3.45-9.93-10.35-13.37-7-24,16.37-41.45,46.39-65,42.49-6.75-.13-20.12-7.2-30.46,2.72l10.34-9.92-9.94-10.35c-17.08,9.78-37.62,22.84-54.69,32.61l-9.93-10.34-6.88,6.6c-30.09-17.57,11.09-50.46,25-70.44L449.68,147l-6.88,6.61-6.63-6.9L494.7,90.59l-13.78,13.22c-3.31-3.44-6.64-6.91-10.07-3.61c13.77-13.2,34.31-26.27,41.44-46.39.13-6.75-13.25-13.81-26.88-7.35L457.86,72.9L451.24,66c6.89-6.61,20.52-13.08,24.1-23.13.12-6.77-16.83-3.75-16.7-10.5c3.45-3.31,6.89-6.62,7-13.38-10.31,9.92-20.76,26.59-34.41,33.01-6.74-.14-13.52-.3-20.13-7.19-13.89,20-37.6,22.82-64.49,15.47-10.07-3.57-23.96,16.43-34.29,26.34Z" transform="rotate(0.10427) scale(1.537455,1.537455) translate(-328.681964,-298.615)" fill="#5f5f5f"/></g></mask></g><g transform="matrix(.875057 0.000177-.000177 0.875057-108.235378-45.926265)"><g><g mask="url(#eStIskbQXrv232)"><path d="M225.08,254.56c0,0-3.91,5.3-1.5,8.2.67.64,2,4.27,9.87-2.29s25.68-22.45,42.65-28.3c7.75-2.25,23.3-7,34.69-.43c1.56.86,3,2.14,2.52-1.06-.3-1.16-6.07-15.49-27.86-12.15-1.21.27-15.33,2.38-34.46,16.77-9.62,6.86-19.21,9.9-25.91,19.26Z" transform="translate(0 1.142783)" fill="#fff"/><mask id="eStIskbQXrv232" mask-type="alpha" x="-150%" y="-150%" height="400%" width="400%"><path id="eStIskbQXrv233" d="M68.342074,191.853403q63.670806-60.912493,92.724064-31.634752" transform="translate(153.199839 73.871705)" fill="none" stroke="#3f5787" stroke-width="12" stroke-dashoffset="108.19" stroke-dasharray="108.19"/></mask></g><g mask="url(#eStIskbQXrv236)"><path d="M309.703527,296.899981c0,0,14.741938-20.12465,22.702727-35.394467c2.415813-5.278996,2.528069-11.077729-3.131931-13.647729l-1.144084,4.547895c0,0,3.749761-.22568,3.139761,5.16432-.5,3.54-1.182883,7.166995-16.08,26.75-4.283827,5.302306-6.59355,8.535913-6.59355,8.535913Z" transform="matrix(.997531-.070227 0.070227 0.997531-16.569125 12.392448)" fill="#fff"/><mask id="eStIskbQXrv236" mask-type="alpha" x="-150%" y="-150%" height="400%" width="400%"><path id="eStIskbQXrv237" d="M148.374008,211.989996q14.711913-25.873492,19.685805-36.076346c1.065095-2.875753.852075-8.840279-5.325472-9.585849" transform="translate(165.044794 72.122683)" fill="none" stroke="#3f5787" stroke-width="5" stroke-dashoffset="53.89" stroke-dasharray="53.89"/></mask></g><g mask="url(#eStIskbQXrv240)"><path d="M275.07308,259.921479c0,0-9.164136-.251239-12.584136,24.778761-.58,6.46-2.629796,21.079494,5.000204,23.709494.9.2,5.209636,1.415437,15.239636-12.314563c4.194497-5.977846,7.65-13.78,9.08-17.18.19.33.063871,8.274033-7.917288,20.318323-4,5.23-14.606135,22.41824-25.656135,10.98824-1.28-1.19-8.304612-12.355643-2.835721-38.282241c2.37777-9.226019,8.979144-20.314322,20.009144-16.554322-.101467,3.521266-.335704,4.536308-.335704,4.536308Z" transform="translate(54.000193-18.841549)" fill="#fff"/><mask id="eStIskbQXrv240" mask-type="alpha" x="-150%" y="-150%" height="400%" width="400%"><path id="eStIskbQXrv241" d="M167.240966,163.184434q-14.418554-4.226127-17.872173,25.995675c-.129554,6.99592-.916606,24.549933,9.912949,24.549936c3.512288.58538,14.488188-1.170762,22.976213-32.049626" transform="translate(162.564339 77.496425)" fill="none" stroke="#3f5787" stroke-width="10" stroke-dashoffset="107.67" stroke-dasharray="107.67"/></mask></g><g mask="url(#eStIskbQXrv244)"><path d="M261.17,240.09c0,0-14.93,28-16.57,55.37c0,1.92-.51,9,5.57,11c.351919.108283,13.086768,7.999799,24.334938-25.190687c1.217163-3.591539,2.099027-7.811347,3.25335-12.387749C278.217084,264.835745,286.86,242.09,286.86,242.09s2.58-6.33-1.54-7c-1.68-.29-2.42.12-5.87,9.72-6.42,15.7-8,28.82-18.45,49.88-2.39,3.83-4.91,4-6.62,3-1.24-.95-.72-4.64,1-11.45c1.57-6.28,13.5-40.46,13.5-40.46s3.2-7.73-2.45-9.27c-.85-.11-3.43-.26-5.26,3.58Z" transform="translate(0 1.142783)" fill="#fff"/><mask id="eStIskbQXrv244" mask-type="alpha" x="-150%" y="-150%" height="400%" width="400%"><path id="eStIskbQXrv245" d="M113.619086,156.042739q-25.06836,64.649981-17.481883,68.44322c9.687899,2.325096,19.57038-22.782086,35.458535-66.958908" transform="translate(154.512447 78.677598)" fill="none" stroke="#3f5787" stroke-width="12" stroke-dashoffset="150.42" stroke-dasharray="150.42"/></mask></g><g mask="url(#eStIskbQXrv248)"><path d="M312.308635,290.273768C302.438635,308.103768,295.38,305.08,293.91,304.65c-10.71-3.85-1.72-39.2-1.36-41.2-2.66-.4-6,12.54-8.66,23.07-3.28,13.73-5.92,13.12-6.84,13.26-4.73-.19-6.236673-4.858829-7.056673-13.898829l4.983251-9.17967c1.512023,1.561633,5.455568-8.684444,5.605568-8.984444C286.687767,252.869292,290.75,252.39,294.38,251.59c13.18-1.64,8.7,13.62,6.07,27.21-3.85,17.27-3.64,20.19-2.48,20.74c4.598455,2.156355,11.770769-11.302818,11.770769-11.302818Z" transform="translate(2.285566-5.713915)" fill="#fff"/><mask id="eStIskbQXrv248" mask-type="alpha" x="-150%" y="-150%" height="400%" width="400%"><path id="eStIskbQXrv249" d="M112.793491,204.176782c1.783135,3.94166,1.403191,8.125101,5.304368,9.335814c1.438888.446552,3.678009-7.770463,4.080544-12.057436c1.876997-19.9899,10.757678-26.437284,15.578984-22.429974c7.601785,22.805362-10.980355,35.756563.197934,43.034104c3.463616,1.010222,7.596444-5.577085,13.657775-16.256572" transform="translate(160.711393 73.197242)" fill="none" stroke="#3f5787" stroke-width="15" stroke-dashoffset="156.91" stroke-dasharray="156.91"/></mask></g></g></g></g></svg>
