<svg id="eLgMdxqwO0s1" xmlns="http://www.w3.org/2000/svg" xmlns:xlink="http://www.w3.org/1999/xlink" viewBox="0 0 700 200" shape-rendering="geometricPrecision" text-rendering="geometricPrecision" width="700" height="200"><style><![CDATA[#eLgMdxqwO0s6_to {animation: eLgMdxqwO0s6_to__to 6000ms linear infinite normal forwards}@keyframes eLgMdxqwO0s6_to__to { 0% {transform: translate(400px,527.94px)} 13.333333% {transform: translate(400px,527.94px);animation-timing-function: cubic-bezier(0.23,1,0.32,1)} 20% {transform: translate(284.124574px,474.440293px);animation-timing-function: cubic-bezier(0.23,1,0.32,1)} 30% {transform: translate(284.124574px,474.440293px);animation-timing-function: cubic-bezier(0.23,1,0.32,1)} 80% {transform: translate(284.124574px,474.440293px);animation-timing-function: cubic-bezier(0.23,1,0.32,1)} 83.333333% {transform: translate(400px,527.94px)} 100% {transform: translate(400px,527.94px)}} #eLgMdxqwO0s22_to {animation: eLgMdxqwO0s22_to__to 6000ms linear infinite normal forwards}@keyframes eLgMdxqwO0s22_to__to { 0% {transform: translate(400px,459.968486px);animation-timing-function: cubic-bezier(0.23,1,0.32,1)} 6.666667% {transform: translate(400px,459.968486px);animation-timing-function: cubic-bezier(0.23,1,0.32,1)} 16.666667% {transform: translate(400px,340.006589px);animation-timing-function: cubic-bezier(0.23,1,0.32,1)} 20% {transform: translate(400px,340.006589px);animation-timing-function: cubic-bezier(0.23,1,0.32,1)} 30% {transform: translate(398.125595px,527.94px);animation-timing-function: cubic-bezier(0.23,1,0.32,1)} 56.666667% {transform: translate(398.125595px,527.94px);animation-timing-function: cubic-bezier(0.23,1,0.32,1)} 66.666667% {transform: translate(398.125595px,340.01px);animation-timing-function: cubic-bezier(0.23,1,0.32,1)} 70% {transform: translate(289.31px,293.149884px);animation-timing-function: cubic-bezier(0.23,1,0.32,1)} 80% {transform: translate(284.12456px,406.998127px);animation-timing-function: cubic-bezier(0.23,1,0.32,1)} 83.333333% {transform: translate(400px,459.968486px)} 100% {transform: translate(400px,459.968486px)}} #eLgMdxqwO0s38_to {animation: eLgMdxqwO0s38_to__to 6000ms linear infinite normal forwards}@keyframes eLgMdxqwO0s38_to__to { 0% {transform: translate(400px,391.364405px);animation-timing-function: cubic-bezier(0.23,1,0.32,1)} 3.333333% {transform: translate(400px,391.364405px);animation-timing-function: cubic-bezier(0.23,1,0.32,1)} 13.333333% {transform: translate(400px,271.402508px);animation-timing-function: cubic-bezier(0.23,1,0.32,1)} 23.333333% {transform: translate(400px,271.402508px);animation-timing-function: cubic-bezier(0.23,1,0.32,1)} 33.333333% {transform: translate(398.125595px,459.95px);animation-timing-function: cubic-bezier(0.23,1,0.32,1)} 43.333333% {transform: translate(400px,340.87px);animation-timing-function: cubic-bezier(0.23,1,0.32,1)} 46.666667% {transform: translate(511.62307px,361.710301px);animation-timing-function: cubic-bezier(0.23,1,0.32,1)} 56.666667% {transform: translate(511.161778px,581.675672px);animation-timing-function: cubic-bezier(0.23,1,0.32,1)} 83.333333% {transform: translate(511.161778px,581.675672px);animation-timing-function: cubic-bezier(0.23,1,0.32,1)} 91.666667% {transform: translate(511.62307px,361.710301px);animation-timing-function: cubic-bezier(0.23,1,0.32,1)} 95% {transform: translate(400px,340.87px);animation-timing-function: cubic-bezier(0.23,1,0.32,1)} 100% {transform: translate(400px,391.364405px)}} #eLgMdxqwO0s55_to {animation: eLgMdxqwO0s55_to__to 6000ms linear infinite normal forwards}@keyframes eLgMdxqwO0s55_to__to { 0% {offset-distance: 0%;animation-timing-function: cubic-bezier(0.19,1,0.22,1)} 8.333333% {offset-distance: 16.666667%;animation-timing-function: cubic-bezier(0.19,1,0.22,1)} 21.666667% {offset-distance: 33.333333%;animation-timing-function: cubic-bezier(0.19,1,0.22,1)} 33.333333% {offset-distance: 50%;animation-timing-function: cubic-bezier(0.19,1,0.22,1)} 41.666667% {offset-distance: 66.666667%;animation-timing-function: cubic-bezier(0.19,1,0.22,1)} 55% {offset-distance: 83.333333%;animation-timing-function: cubic-bezier(0.19,1,0.22,1)} 66.666667% {offset-distance: 100%} 100% {offset-distance: 100%}} #eLgMdxqwO0s55_tr {animation: eLgMdxqwO0s55_tr__tr 6000ms linear infinite normal forwards}@keyframes eLgMdxqwO0s55_tr__tr { 0% {transform: rotate(1deg)} 8.333333% {transform: rotate(1deg);animation-timing-function: cubic-bezier(0.19,1,0.22,1)} 21.666667% {transform: rotate(15deg);animation-timing-function: cubic-bezier(0.19,1,0.22,1)} 33.333333% {transform: rotate(1deg);animation-timing-function: cubic-bezier(0.19,1,0.22,1)} 41.666667% {transform: rotate(1deg);animation-timing-function: cubic-bezier(0.19,1,0.22,1)} 55% {transform: rotate(-15deg);animation-timing-function: cubic-bezier(0.19,1,0.22,1)} 66.666667% {transform: rotate(1deg)} 100% {transform: rotate(1deg)}} #eLgMdxqwO0s71_to {animation: eLgMdxqwO0s71_to__to 6000ms linear infinite normal forwards}@keyframes eLgMdxqwO0s71_to__to { 0% {offset-distance: 0%;animation-timing-function: cubic-bezier(0.19,1,0.22,1)} 8.333333% {offset-distance: 16.666667%;animation-timing-function: cubic-bezier(0.19,1,0.22,1)} 21.666667% {offset-distance: 33.333333%;animation-timing-function: cubic-bezier(0.19,1,0.22,1)} 33.333333% {offset-distance: 50%;animation-timing-function: cubic-bezier(0.19,1,0.22,1)} 41.666667% {offset-distance: 66.666667%;animation-timing-function: cubic-bezier(0.19,1,0.22,1)} 55% {offset-distance: 83.333333%;animation-timing-function: cubic-bezier(0.19,1,0.22,1)} 66.666667% {offset-distance: 100%} 100% {offset-distance: 100%}} #eLgMdxqwO0s71_tr {animation: eLgMdxqwO0s71_tr__tr 6000ms linear infinite normal forwards}@keyframes eLgMdxqwO0s71_tr__tr { 0% {transform: rotate(1deg)} 8.333333% {transform: rotate(1deg);animation-timing-function: cubic-bezier(0.19,1,0.22,1)} 21.666667% {transform: rotate(-15deg);animation-timing-function: cubic-bezier(0.19,1,0.22,1)} 33.333333% {transform: rotate(1deg);animation-timing-function: cubic-bezier(0.19,1,0.22,1)} 41.666667% {transform: rotate(1deg);animation-timing-function: cubic-bezier(0.19,1,0.22,1)} 55% {transform: rotate(15deg);animation-timing-function: cubic-bezier(0.19,1,0.22,1)} 66.666667% {transform: rotate(1deg)} 100% {transform: rotate(1deg)}} #eLgMdxqwO0s87_to {animation: eLgMdxqwO0s87_to__to 6000ms linear infinite normal forwards}@keyframes eLgMdxqwO0s87_to__to { 0% {offset-distance: 0%;animation-timing-function: cubic-bezier(0.19,1,0.22,1)} 8.333333% {offset-distance: 16.666667%;animation-timing-function: cubic-bezier(0.19,1,0.22,1)} 21.666667% {offset-distance: 33.333333%;animation-timing-function: cubic-bezier(0.19,1,0.22,1)} 33.333333% {offset-distance: 50%;animation-timing-function: cubic-bezier(0.19,1,0.22,1)} 41.666667% {offset-distance: 66.666667%;animation-timing-function: cubic-bezier(0.19,1,0.22,1)} 55% {offset-distance: 83.333333%;animation-timing-function: cubic-bezier(0.19,1,0.22,1)} 66.666667% {offset-distance: 100%} 100% {offset-distance: 100%}} #eLgMdxqwO0s87_tr {animation: eLgMdxqwO0s87_tr__tr 6000ms linear infinite normal forwards}@keyframes eLgMdxqwO0s87_tr__tr { 0% {transform: rotate(361deg)} 8.333333% {transform: rotate(361deg);animation-timing-function: cubic-bezier(0.19,1,0.22,1)} 21.666667% {transform: rotate(375deg);animation-timing-function: cubic-bezier(0.19,1,0.22,1)} 33.333333% {transform: rotate(361deg);animation-timing-function: cubic-bezier(0.19,1,0.22,1)} 41.666667% {transform: rotate(361deg);animation-timing-function: cubic-bezier(0.19,1,0.22,1)} 55% {transform: rotate(345deg);animation-timing-function: cubic-bezier(0.19,1,0.22,1)} 66.666667% {transform: rotate(361deg)} 100% {transform: rotate(361deg)}} #eLgMdxqwO0s104_to {animation: eLgMdxqwO0s104_to__to 6000ms linear infinite normal forwards}@keyframes eLgMdxqwO0s104_to__to { 0% {transform: translate(456.767611px,362.399967px)} 8.333333% {transform: translate(456.767611px,362.399967px);animation-timing-function: cubic-bezier(0.445,0.05,0.55,0.95)} 16.666667% {transform: translate(456.767611px,232.003279px);animation-timing-function: cubic-bezier(0.445,0.05,0.55,0.95)} 25% {transform: translate(456.767611px,362.399967px)} 43.333333% {transform: translate(456.767611px,362.399967px);animation-timing-function: cubic-bezier(0.445,0.05,0.55,0.95)} 51.666667% {transform: translate(456.767611px,232.003279px);animation-timing-function: cubic-bezier(0.445,0.05,0.55,0.95)} 60% {transform: translate(456.767611px,362.399967px)} 78.333333% {transform: translate(456.767611px,362.399967px);animation-timing-function: cubic-bezier(0.445,0.05,0.55,0.95)} 86.666667% {transform: translate(456.767611px,232.003279px);animation-timing-function: cubic-bezier(0.445,0.05,0.55,0.95)} 95% {transform: translate(456.767611px,362.399967px)} 100% {transform: translate(456.767611px,362.399967px)}} #eLgMdxqwO0s120_to {animation: eLgMdxqwO0s120_to__to 6000ms linear infinite normal forwards}@keyframes eLgMdxqwO0s120_to__to { 0% {transform: translate(345.501304px,416.858457px)} 3.333333% {transform: translate(345.501304px,416.858457px);animation-timing-function: cubic-bezier(0.445,0.05,0.55,0.95)} 11.666667% {transform: translate(345.501304px,286.461769px);animation-timing-function: cubic-bezier(0.445,0.05,0.55,0.95)} 20% {transform: translate(345.501304px,416.858457px)} 38.333333% {transform: translate(345.501304px,416.858457px);animation-timing-function: cubic-bezier(0.445,0.05,0.55,0.95)} 46.666667% {transform: translate(345.501304px,286.461769px);animation-timing-function: cubic-bezier(0.445,0.05,0.55,0.95)} 55% {transform: translate(345.501304px,416.858457px)} 73.333333% {transform: translate(345.501304px,416.858457px);animation-timing-function: cubic-bezier(0.445,0.05,0.55,0.95)} 81.666667% {transform: translate(345.501304px,286.461769px);animation-timing-function: cubic-bezier(0.445,0.05,0.55,0.95)} 90% {transform: translate(345.501304px,416.858457px)} 100% {transform: translate(345.501304px,416.858457px)}} #eLgMdxqwO0s136_to {animation: eLgMdxqwO0s136_to__to 6000ms linear infinite normal forwards}@keyframes eLgMdxqwO0s136_to__to { 0% {transform: translate(232.468008px,470.864098px);animation-timing-function: cubic-bezier(0.445,0.05,0.55,0.95)} 8.333333% {transform: translate(232.468008px,340.46741px);animation-timing-function: cubic-bezier(0.445,0.05,0.55,0.95)} 16.666667% {transform: translate(232.468008px,470.864098px)} 33.333333% {transform: translate(232.468008px,470.864098px);animation-timing-function: cubic-bezier(0.445,0.05,0.55,0.95)} 41.666667% {transform: translate(232.468008px,340.46741px);animation-timing-function: cubic-bezier(0.445,0.05,0.55,0.95)} 50% {transform: translate(232.468008px,470.864098px)} 68.333333% {transform: translate(232.468008px,470.864098px);animation-timing-function: cubic-bezier(0.445,0.05,0.55,0.95)} 76.666667% {transform: translate(232.468008px,340.46741px);animation-timing-function: cubic-bezier(0.445,0.05,0.55,0.95)} 85% {transform: translate(232.468008px,470.864098px)} 100% {transform: translate(232.468008px,470.864098px)}}]]></style><rect id="eLgMdxqwO0s2" width="145.348659" height="145.348659" rx="25.76" ry="25.76" transform="matrix(1 0 0 1 60 27.325671)" fill="rgb(241,245,255)" stroke="none" stroke-width="0"/><rect id="eLgMdxqwO0s3" width="145.348659" height="145.348659" rx="25.76" ry="25.76" transform="matrix(1 0 0 1 277.325671 27.325671)" fill="rgb(241,245,255)" stroke="none" stroke-width="0"/><rect id="eLgMdxqwO0s4" width="145.348659" height="145.348659" rx="25.76" ry="25.76" transform="matrix(1 0 0 1 494.651341 27.325672)" fill="rgb(241,245,255)" stroke="none" stroke-width="0"/><g id="eLgMdxqwO0s5" transform="matrix(0.214424 0 0 0.214424 46.886348 3.567457)"><g id="eLgMdxqwO0s6_to" transform="translate(400,527.94)"><g id="eLgMdxqwO0s6" transform="scale(0.351569,0.351569) translate(-398,-397)"><polygon id="eLgMdxqwO0s7" points="80.987754,285.896172 80.987754,473.005795 400.5,627.857448 399.956519,427.956342" fill="rgb(241,103,173)" stroke="rgb(216,78,148)" stroke-width="6" stroke-linejoin="round" stroke-miterlimit="10"/><polygon id="eLgMdxqwO0s8" points="400.5,427.468588 712.522131,285.896172 715.5,476.85394 399.956519,627.857448" fill="rgb(216,78,148)" stroke="rgb(216,78,148)" stroke-width="6" stroke-linejoin="round" stroke-miterlimit="10"/><path id="eLgMdxqwO0s9" d="M80.987754,285.896172L398,129.522266L712.522131,282.345427L400.5,436.674249Z" fill="rgb(255,120,188)" stroke="rgb(216,78,148)" stroke-width="6" stroke-linejoin="round" stroke-miterlimit="10"/><g id="eLgMdxqwO0s10"><path id="eLgMdxqwO0s11" d="M468.5,315.5C468.5,349.5,478.5,384.5,400.5,384.5C319.5,384.5,330.5,349.5,330.5,315.5" fill="rgb(216,78,148)" stroke="rgb(216,78,148)" stroke-width="6" stroke-miterlimit="10"/><ellipse id="eLgMdxqwO0s12" rx="69" ry="31" transform="matrix(1 0 0 1 399.5 315.5)" fill="rgb(255,120,188)" stroke="rgb(216,78,148)" stroke-width="6" stroke-miterlimit="10"/></g><g id="eLgMdxqwO0s13"><path id="eLgMdxqwO0s14" d="M627.6,235C627.6,268.8,637.5,303.5,560,303.5C479.5,303.5,490.5,268.7,490.5,235" fill="rgb(216,78,148)" stroke="rgb(216,78,148)" stroke-width="6" stroke-miterlimit="10"/><ellipse id="eLgMdxqwO0s15" rx="68.5" ry="30.8" transform="matrix(1 0 0 1 559 235)" fill="rgb(255,120,188)" stroke="rgb(216,78,148)" stroke-width="6" stroke-miterlimit="10"/></g><g id="eLgMdxqwO0s16"><path id="eLgMdxqwO0s17" d="M307.4,234.7C307.4,268.4,317.3,303,240.1,303C159.9,303,170.8,268.4,170.8,234.7" fill="rgb(216,78,148)" stroke="rgb(216,78,148)" stroke-width="6" stroke-miterlimit="10"/><ellipse id="eLgMdxqwO0s18" rx="68.3" ry="30.7" transform="matrix(1 0 0 1 239.1 234.7)" fill="rgb(255,120,188)" stroke="rgb(216,78,148)" stroke-width="6" stroke-miterlimit="10"/></g><g id="eLgMdxqwO0s19"><path id="eLgMdxqwO0s20" d="M466.8,159.7C466.8,192.8,476.6,227,400.5,227C321.5,227,332.2,192.9,332.2,159.7" fill="rgb(216,78,148)" stroke="rgb(216,78,148)" stroke-width="6" stroke-miterlimit="10"/><ellipse id="eLgMdxqwO0s21" rx="67.3" ry="30.2" transform="matrix(1 0 0 1 399.5 159.7)" fill="rgb(255,120,188)" stroke="rgb(216,78,148)" stroke-width="6" stroke-miterlimit="10"/></g></g></g><g id="eLgMdxqwO0s22_to" transform="translate(400,459.968486)"><g id="eLgMdxqwO0s22" transform="scale(0.351569,0.351569) translate(-398,-397)"><polygon id="eLgMdxqwO0s23" points="81.208576,285.408418 81.5,477.837772 398.708576,628.50636 400.177341,427.468588" fill="rgb(77,146,213)" stroke="rgb(59,116,170)" stroke-width="6" stroke-linejoin="round" stroke-miterlimit="10"/><polygon id="eLgMdxqwO0s24" points="400.5,427.468588 712.522131,282.345427 712.522131,475.683199 398,628.50636" fill="rgb(59,116,170)" stroke="rgb(59,116,170)" stroke-width="6" stroke-linejoin="round" stroke-miterlimit="10"/><path id="eLgMdxqwO0s25" d="M81.5,284.5L398,129.522266L712.522131,282.345427L398,435.168588Z" fill="rgb(92,155,213)" stroke="rgb(59,116,170)" stroke-width="6" stroke-linejoin="round" stroke-miterlimit="10"/><g id="eLgMdxqwO0s26"><path id="eLgMdxqwO0s27" d="M468.5,315.5C468.5,349.5,478.5,384.5,400.5,384.5C319.5,384.5,330.5,349.5,330.5,315.5" fill="rgb(59,116,170)" stroke="rgb(59,116,170)" stroke-width="6" stroke-miterlimit="10"/><ellipse id="eLgMdxqwO0s28" rx="69" ry="31" transform="matrix(1 0 0 1 399.5 315.5)" fill="rgb(92,155,213)" stroke="rgb(59,116,170)" stroke-width="6" stroke-miterlimit="10"/></g><g id="eLgMdxqwO0s29"><path id="eLgMdxqwO0s30" d="M627.6,235C627.6,268.8,637.5,303.5,560,303.5C479.5,303.5,490.5,268.7,490.5,235" fill="rgb(59,116,170)" stroke="rgb(59,116,170)" stroke-width="6" stroke-miterlimit="10"/><ellipse id="eLgMdxqwO0s31" rx="68.5" ry="30.8" transform="matrix(1 0 0 1 559 235)" fill="rgb(92,155,213)" stroke="rgb(59,116,170)" stroke-width="6" stroke-miterlimit="10"/></g><g id="eLgMdxqwO0s32"><path id="eLgMdxqwO0s33" d="M307.4,234.7C307.4,268.4,317.3,303,240.1,303C159.9,303,170.8,268.4,170.8,234.7" fill="rgb(59,116,170)" stroke="rgb(59,116,170)" stroke-width="6" stroke-miterlimit="10"/><ellipse id="eLgMdxqwO0s34" rx="68.3" ry="30.7" transform="matrix(1 0 0 1 239.1 234.7)" fill="rgb(92,155,213)" stroke="rgb(59,116,170)" stroke-width="6" stroke-miterlimit="10"/></g><g id="eLgMdxqwO0s35"><path id="eLgMdxqwO0s36" d="M466.8,159.7C466.8,192.8,476.6,227,400.5,227C321.5,227,332.2,192.9,332.2,159.7" fill="rgb(59,116,170)" stroke="rgb(59,116,170)" stroke-width="6" stroke-miterlimit="10"/><ellipse id="eLgMdxqwO0s37" rx="67.3" ry="30.2" transform="matrix(1 0 0 1 399.5 159.7)" fill="rgb(92,155,213)" stroke="rgb(59,116,170)" stroke-width="6" stroke-miterlimit="10"/></g></g></g><g id="eLgMdxqwO0s38_to" transform="translate(400,391.364405)"><g id="eLgMdxqwO0s38" transform="scale(0.351569,0.351569) translate(-398,-397)"><polygon id="eLgMdxqwO0s39" points="81.5,284.5 81.5,478.147016 397.011065,632.971404 399.468765,427.468588" fill="rgb(111,211,138)" stroke="rgb(73,170,99)" stroke-width="6" stroke-linejoin="round" stroke-miterlimit="10"/><polygon id="eLgMdxqwO0s40" points="400.5,427.468588 712.522131,282.345427 712.52213,478.147016 398,632.971404" fill="rgb(73,170,99)" stroke="rgb(73,170,99)" stroke-width="6" stroke-linejoin="round" stroke-miterlimit="10"/><path id="eLgMdxqwO0s41" d="M81.5,284.5L398,129.522266L712.52213,282.345427L398,435.168588Z" fill="rgb(137,220,160)" stroke="rgb(73,170,99)" stroke-width="6" stroke-linejoin="round" stroke-miterlimit="10"/><g id="eLgMdxqwO0s42"><path id="eLgMdxqwO0s43" d="M468.5,315.5C468.5,349.5,478.5,384.5,400.5,384.5C319.5,384.5,330.5,349.5,330.5,315.5" fill="rgb(73,170,99)" stroke="rgb(73,170,99)" stroke-width="6" stroke-miterlimit="10"/><ellipse id="eLgMdxqwO0s44" rx="69" ry="31" transform="matrix(1 0 0 1 399.5 315.5)" fill="rgb(137,220,160)" stroke="rgb(73,170,99)" stroke-width="6" stroke-miterlimit="10"/></g><g id="eLgMdxqwO0s45"><path id="eLgMdxqwO0s46" d="M627.6,235C627.6,268.8,637.5,303.5,560,303.5C479.5,303.5,490.5,268.7,490.5,235" transform="matrix(1 0 0 1 -1.713135 0)" fill="rgb(73,170,99)" stroke="rgb(73,170,99)" stroke-width="6" stroke-miterlimit="10"/><ellipse id="eLgMdxqwO0s47" rx="68.5" ry="30.8" transform="matrix(1 0 0 1 557.286865 235)" fill="rgb(137,220,160)" stroke="rgb(73,170,99)" stroke-width="6" stroke-miterlimit="10"/></g><g id="eLgMdxqwO0s48"><path id="eLgMdxqwO0s49" d="M307.4,234.7C307.4,268.4,317.3,303,240.1,303C159.9,303,170.8,268.4,170.8,234.7" fill="rgb(73,170,99)" stroke="rgb(73,170,99)" stroke-width="6" stroke-miterlimit="10"/><ellipse id="eLgMdxqwO0s50" rx="68.3" ry="30.7" transform="matrix(1 0 0 1 239.1 234.7)" fill="rgb(137,220,160)" stroke="rgb(73,170,99)" stroke-width="6" stroke-miterlimit="10"/></g><g id="eLgMdxqwO0s51"><path id="eLgMdxqwO0s52" d="M466.8,159.7C466.8,192.8,476.6,227,400.5,227C321.5,227,332.2,192.9,332.2,159.7" transform="matrix(1 0 0 1 0.027206 0)" fill="rgb(73,170,99)" stroke="rgb(73,170,99)" stroke-width="6" stroke-miterlimit="10"/><ellipse id="eLgMdxqwO0s53" rx="67.3" ry="30.2" transform="matrix(1 0 0 1 399.5 159.7)" fill="rgb(137,220,160)" stroke="rgb(73,170,99)" stroke-width="6" stroke-miterlimit="10"/></g></g></g></g><g id="eLgMdxqwO0s54" transform="matrix(0.224198 0 0 0.224198 260.658719 3.18478)"><g id="eLgMdxqwO0s55_to" style="offset-path:path('M400,527.94L400,527.94C413.849871,536.586386,442.32577,583.70916,438.067577,601.820734C443.863461,583.573886,442.613746,543.54397,437.488093,527.94C437.756099,527.770553,437.468399,527.917359,437.488093,527.94C426.650268,535.786907,397.09314,583.856384,399.465593,601.669061C399.204591,601.566543,395.615522,540.346999,400,527.94');offset-rotate:0deg"><g id="eLgMdxqwO0s55_tr" transform="rotate(1)"><g id="eLgMdxqwO0s55" transform="scale(0.351569,0.351569) translate(-398,-397)"><polygon id="eLgMdxqwO0s56" points="80.987754,285.896172 80.987754,473.005795 400.5,627.857448 399.956519,427.956342" fill="rgb(241,103,173)" stroke="rgb(216,78,148)" stroke-width="6" stroke-linejoin="round" stroke-miterlimit="10"/><polygon id="eLgMdxqwO0s57" points="400.5,427.468588 712.522131,285.896172 715.5,476.85394 399.956519,627.857448" fill="rgb(216,78,148)" stroke="rgb(216,78,148)" stroke-width="6" stroke-linejoin="round" stroke-miterlimit="10"/><path id="eLgMdxqwO0s58" d="M80.987754,285.896172L398,129.522266L712.522131,282.345427L400.5,436.674249Z" fill="rgb(255,120,188)" stroke="rgb(216,78,148)" stroke-width="6" stroke-linejoin="round" stroke-miterlimit="10"/><g id="eLgMdxqwO0s59"><path id="eLgMdxqwO0s60" d="M468.5,315.5C468.5,349.5,478.5,384.5,400.5,384.5C319.5,384.5,330.5,349.5,330.5,315.5" fill="rgb(216,78,148)" stroke="rgb(216,78,148)" stroke-width="6" stroke-miterlimit="10"/><ellipse id="eLgMdxqwO0s61" rx="69" ry="31" transform="matrix(1 0 0 1 399.5 315.5)" fill="rgb(255,120,188)" stroke="rgb(216,78,148)" stroke-width="6" stroke-miterlimit="10"/></g><g id="eLgMdxqwO0s62"><path id="eLgMdxqwO0s63" d="M627.6,235C627.6,268.8,637.5,303.5,560,303.5C479.5,303.5,490.5,268.7,490.5,235" fill="rgb(216,78,148)" stroke="rgb(216,78,148)" stroke-width="6" stroke-miterlimit="10"/><ellipse id="eLgMdxqwO0s64" rx="68.5" ry="30.8" transform="matrix(1 0 0 1 559 235)" fill="rgb(255,120,188)" stroke="rgb(216,78,148)" stroke-width="6" stroke-miterlimit="10"/></g><g id="eLgMdxqwO0s65"><path id="eLgMdxqwO0s66" d="M307.4,234.7C307.4,268.4,317.3,303,240.1,303C159.9,303,170.8,268.4,170.8,234.7" fill="rgb(216,78,148)" stroke="rgb(216,78,148)" stroke-width="6" stroke-miterlimit="10"/><ellipse id="eLgMdxqwO0s67" rx="68.3" ry="30.7" transform="matrix(1 0 0 1 239.1 234.7)" fill="rgb(255,120,188)" stroke="rgb(216,78,148)" stroke-width="6" stroke-miterlimit="10"/></g><g id="eLgMdxqwO0s68"><path id="eLgMdxqwO0s69" d="M466.8,159.7C466.8,192.8,476.6,227,400.5,227C321.5,227,332.2,192.9,332.2,159.7" fill="rgb(216,78,148)" stroke="rgb(216,78,148)" stroke-width="6" stroke-miterlimit="10"/><ellipse id="eLgMdxqwO0s70" rx="67.3" ry="30.2" transform="matrix(1 0 0 1 399.5 159.7)" fill="rgb(255,120,188)" stroke="rgb(216,78,148)" stroke-width="6" stroke-miterlimit="10"/></g></g></g></g><g id="eLgMdxqwO0s71_to" style="offset-path:path('M469.292257,492.348426L469.292257,492.348426C464.87824,410.836151,416.666574,396.37305,315.921873,394.208836C347.707757,403.173254,352.844078,409.509038,374.655235,427.313236Q374.364868,427.13559,374.655235,427.313236C403.312107,413.956563,451.735196,401.142765,538.762154,398.572222L469.292257,492.348426');offset-rotate:0deg"><g id="eLgMdxqwO0s71_tr" transform="rotate(1)"><g id="eLgMdxqwO0s71" transform="scale(0.351569,0.351569) translate(-398,-397)"><polygon id="eLgMdxqwO0s72" points="81.208576,285.408418 81.5,477.837772 398.708576,628.50636 400.177341,427.468588" fill="rgb(77,146,213)" stroke="rgb(59,116,170)" stroke-width="6" stroke-linejoin="round" stroke-miterlimit="10"/><polygon id="eLgMdxqwO0s73" points="400.5,427.468588 712.522131,282.345427 712.522131,475.683199 398,628.50636" fill="rgb(59,116,170)" stroke="rgb(59,116,170)" stroke-width="6" stroke-linejoin="round" stroke-miterlimit="10"/><path id="eLgMdxqwO0s74" d="M81.5,284.5L398,129.522266L712.522131,282.345427L398,435.168588Z" fill="rgb(92,155,213)" stroke="rgb(59,116,170)" stroke-width="6" stroke-linejoin="round" stroke-miterlimit="10"/><g id="eLgMdxqwO0s75"><path id="eLgMdxqwO0s76" d="M468.5,315.5C468.5,349.5,478.5,384.5,400.5,384.5C319.5,384.5,330.5,349.5,330.5,315.5" fill="rgb(59,116,170)" stroke="rgb(59,116,170)" stroke-width="6" stroke-miterlimit="10"/><ellipse id="eLgMdxqwO0s77" rx="69" ry="31" transform="matrix(1 0 0 1 399.5 315.5)" fill="rgb(92,155,213)" stroke="rgb(59,116,170)" stroke-width="6" stroke-miterlimit="10"/></g><g id="eLgMdxqwO0s78"><path id="eLgMdxqwO0s79" d="M627.6,235C627.6,268.8,637.5,303.5,560,303.5C479.5,303.5,490.5,268.7,490.5,235" fill="rgb(59,116,170)" stroke="rgb(59,116,170)" stroke-width="6" stroke-miterlimit="10"/><ellipse id="eLgMdxqwO0s80" rx="68.5" ry="30.8" transform="matrix(1 0 0 1 559 235)" fill="rgb(92,155,213)" stroke="rgb(59,116,170)" stroke-width="6" stroke-miterlimit="10"/></g><g id="eLgMdxqwO0s81"><path id="eLgMdxqwO0s82" d="M307.4,234.7C307.4,268.4,317.3,303,240.1,303C159.9,303,170.8,268.4,170.8,234.7" fill="rgb(59,116,170)" stroke="rgb(59,116,170)" stroke-width="6" stroke-miterlimit="10"/><ellipse id="eLgMdxqwO0s83" rx="68.3" ry="30.7" transform="matrix(1 0 0 1 239.1 234.7)" fill="rgb(92,155,213)" stroke="rgb(59,116,170)" stroke-width="6" stroke-miterlimit="10"/></g><g id="eLgMdxqwO0s84"><path id="eLgMdxqwO0s85" d="M466.8,159.7C466.8,192.8,476.6,227,400.5,227C321.5,227,332.2,192.9,332.2,159.7" fill="rgb(59,116,170)" stroke="rgb(59,116,170)" stroke-width="6" stroke-miterlimit="10"/><ellipse id="eLgMdxqwO0s86" rx="67.3" ry="30.2" transform="matrix(1 0 0 1 399.5 159.7)" fill="rgb(92,155,213)" stroke="rgb(59,116,170)" stroke-width="6" stroke-miterlimit="10"/></g></g></g></g><g id="eLgMdxqwO0s87_to" style="offset-path:path('M407.092425,390.533029L407.092425,390.533029Q419.448507,242.621688,528.841962,239.840923C491.691016,282.486997,469.258859,300.393603,440.397053,390.615921Q440.901768,390.427368,440.397053,390.615921C446.663016,326.148741,442.739821,242.714841,326.407264,240.778301L407.092425,390.533029');offset-rotate:0deg"><g id="eLgMdxqwO0s87_tr" transform="rotate(361)"><g id="eLgMdxqwO0s87" transform="scale(0.351569,0.351569) translate(-398,-397)"><polygon id="eLgMdxqwO0s88" points="81.5,284.5 81.5,478.147016 397.011065,632.971404 399.468765,427.468588" fill="rgb(111,211,138)" stroke="rgb(73,170,99)" stroke-width="6" stroke-linejoin="round" stroke-miterlimit="10"/><polygon id="eLgMdxqwO0s89" points="400.5,427.468588 712.522131,282.345427 712.52213,478.147016 398,632.971404" fill="rgb(73,170,99)" stroke="rgb(73,170,99)" stroke-width="6" stroke-linejoin="round" stroke-miterlimit="10"/><path id="eLgMdxqwO0s90" d="M81.5,284.5L398,129.522266L712.52213,282.345427L398,435.168588Z" fill="rgb(137,220,160)" stroke="rgb(73,170,99)" stroke-width="6" stroke-linejoin="round" stroke-miterlimit="10"/><g id="eLgMdxqwO0s91"><path id="eLgMdxqwO0s92" d="M468.5,315.5C468.5,349.5,478.5,384.5,400.5,384.5C319.5,384.5,330.5,349.5,330.5,315.5" fill="rgb(73,170,99)" stroke="rgb(73,170,99)" stroke-width="6" stroke-miterlimit="10"/><ellipse id="eLgMdxqwO0s93" rx="69" ry="31" transform="matrix(1 0 0 1 399.5 315.5)" fill="rgb(137,220,160)" stroke="rgb(73,170,99)" stroke-width="6" stroke-miterlimit="10"/></g><g id="eLgMdxqwO0s94"><path id="eLgMdxqwO0s95" d="M627.6,235C627.6,268.8,637.5,303.5,560,303.5C479.5,303.5,490.5,268.7,490.5,235" transform="matrix(1 0 0 1 -1.713135 0)" fill="rgb(73,170,99)" stroke="rgb(73,170,99)" stroke-width="6" stroke-miterlimit="10"/><ellipse id="eLgMdxqwO0s96" rx="68.5" ry="30.8" transform="matrix(1 0 0 1 557.286865 235)" fill="rgb(137,220,160)" stroke="rgb(73,170,99)" stroke-width="6" stroke-miterlimit="10"/></g><g id="eLgMdxqwO0s97"><path id="eLgMdxqwO0s98" d="M307.4,234.7C307.4,268.4,317.3,303,240.1,303C159.9,303,170.8,268.4,170.8,234.7" fill="rgb(73,170,99)" stroke="rgb(73,170,99)" stroke-width="6" stroke-miterlimit="10"/><ellipse id="eLgMdxqwO0s99" rx="68.3" ry="30.7" transform="matrix(1 0 0 1 239.1 234.7)" fill="rgb(137,220,160)" stroke="rgb(73,170,99)" stroke-width="6" stroke-miterlimit="10"/></g><g id="eLgMdxqwO0s100"><path id="eLgMdxqwO0s101" d="M466.8,159.7C466.8,192.8,476.6,227,400.5,227C321.5,227,332.2,192.9,332.2,159.7" transform="matrix(1 0 0 1 0.027206 0)" fill="rgb(73,170,99)" stroke="rgb(73,170,99)" stroke-width="6" stroke-miterlimit="10"/><ellipse id="eLgMdxqwO0s102" rx="67.3" ry="30.2" transform="matrix(1 0 0 1 399.5 159.7)" fill="rgb(137,220,160)" stroke="rgb(73,170,99)" stroke-width="6" stroke-miterlimit="10"/></g></g></g></g></g><g id="eLgMdxqwO0s103" transform="matrix(0.226545 0 0 0.226545 489.593142 11.237993)"><g id="eLgMdxqwO0s104_to" transform="translate(456.767611,362.399967)"><g id="eLgMdxqwO0s104" transform="scale(0.351569,0.351569) translate(-398,-397)"><polygon id="eLgMdxqwO0s105" points="80.987754,285.896172 80.987754,473.005795 400.5,627.857448 399.956519,427.956342" fill="rgb(241,103,173)" stroke="rgb(216,78,148)" stroke-width="6" stroke-linejoin="round" stroke-miterlimit="10"/><polygon id="eLgMdxqwO0s106" points="400.5,427.468588 712.522131,285.896172 715.5,476.85394 399.956519,627.857448" fill="rgb(216,78,148)" stroke="rgb(216,78,148)" stroke-width="6" stroke-linejoin="round" stroke-miterlimit="10"/><path id="eLgMdxqwO0s107" d="M80.987754,285.896172L398,129.522266L712.522131,282.345427L400.5,436.674249Z" fill="rgb(255,120,188)" stroke="rgb(216,78,148)" stroke-width="6" stroke-linejoin="round" stroke-miterlimit="10"/><g id="eLgMdxqwO0s108"><path id="eLgMdxqwO0s109" d="M468.5,315.5C468.5,349.5,478.5,384.5,400.5,384.5C319.5,384.5,330.5,349.5,330.5,315.5" fill="rgb(216,78,148)" stroke="rgb(216,78,148)" stroke-width="6" stroke-miterlimit="10"/><ellipse id="eLgMdxqwO0s110" rx="69" ry="31" transform="matrix(1 0 0 1 399.5 315.5)" fill="rgb(255,120,188)" stroke="rgb(216,78,148)" stroke-width="6" stroke-miterlimit="10"/></g><g id="eLgMdxqwO0s111"><path id="eLgMdxqwO0s112" d="M627.6,235C627.6,268.8,637.5,303.5,560,303.5C479.5,303.5,490.5,268.7,490.5,235" fill="rgb(216,78,148)" stroke="rgb(216,78,148)" stroke-width="6" stroke-miterlimit="10"/><ellipse id="eLgMdxqwO0s113" rx="68.5" ry="30.8" transform="matrix(1 0 0 1 559 235)" fill="rgb(255,120,188)" stroke="rgb(216,78,148)" stroke-width="6" stroke-miterlimit="10"/></g><g id="eLgMdxqwO0s114"><path id="eLgMdxqwO0s115" d="M307.4,234.7C307.4,268.4,317.3,303,240.1,303C159.9,303,170.8,268.4,170.8,234.7" fill="rgb(216,78,148)" stroke="rgb(216,78,148)" stroke-width="6" stroke-miterlimit="10"/><ellipse id="eLgMdxqwO0s116" rx="68.3" ry="30.7" transform="matrix(1 0 0 1 239.1 234.7)" fill="rgb(255,120,188)" stroke="rgb(216,78,148)" stroke-width="6" stroke-miterlimit="10"/></g><g id="eLgMdxqwO0s117"><path id="eLgMdxqwO0s118" d="M466.8,159.7C466.8,192.8,476.6,227,400.5,227C321.5,227,332.2,192.9,332.2,159.7" fill="rgb(216,78,148)" stroke="rgb(216,78,148)" stroke-width="6" stroke-miterlimit="10"/><ellipse id="eLgMdxqwO0s119" rx="67.3" ry="30.2" transform="matrix(1 0 0 1 399.5 159.7)" fill="rgb(255,120,188)" stroke="rgb(216,78,148)" stroke-width="6" stroke-miterlimit="10"/></g></g></g><g id="eLgMdxqwO0s120_to" transform="translate(345.501304,416.858457)"><g id="eLgMdxqwO0s120" transform="scale(0.351569,0.351569) translate(-398,-397)"><polygon id="eLgMdxqwO0s121" points="81.208576,285.408418 81.5,477.837772 398.708576,628.50636 400.177341,427.468588" fill="rgb(77,146,213)" stroke="rgb(59,116,170)" stroke-width="6" stroke-linejoin="round" stroke-miterlimit="10"/><polygon id="eLgMdxqwO0s122" points="400.5,427.468588 712.522131,282.345427 712.522131,475.683199 398,628.50636" fill="rgb(59,116,170)" stroke="rgb(59,116,170)" stroke-width="6" stroke-linejoin="round" stroke-miterlimit="10"/><path id="eLgMdxqwO0s123" d="M81.5,284.5L398,129.522266L712.522131,282.345427L398,435.168588Z" fill="rgb(92,155,213)" stroke="rgb(59,116,170)" stroke-width="6" stroke-linejoin="round" stroke-miterlimit="10"/><g id="eLgMdxqwO0s124"><path id="eLgMdxqwO0s125" d="M468.5,315.5C468.5,349.5,478.5,384.5,400.5,384.5C319.5,384.5,330.5,349.5,330.5,315.5" fill="rgb(59,116,170)" stroke="rgb(59,116,170)" stroke-width="6" stroke-miterlimit="10"/><ellipse id="eLgMdxqwO0s126" rx="69" ry="31" transform="matrix(1 0 0 1 399.5 315.5)" fill="rgb(92,155,213)" stroke="rgb(59,116,170)" stroke-width="6" stroke-miterlimit="10"/></g><g id="eLgMdxqwO0s127"><path id="eLgMdxqwO0s128" d="M627.6,235C627.6,268.8,637.5,303.5,560,303.5C479.5,303.5,490.5,268.7,490.5,235" fill="rgb(59,116,170)" stroke="rgb(59,116,170)" stroke-width="6" stroke-miterlimit="10"/><ellipse id="eLgMdxqwO0s129" rx="68.5" ry="30.8" transform="matrix(1 0 0 1 559 235)" fill="rgb(92,155,213)" stroke="rgb(59,116,170)" stroke-width="6" stroke-miterlimit="10"/></g><g id="eLgMdxqwO0s130"><path id="eLgMdxqwO0s131" d="M307.4,234.7C307.4,268.4,317.3,303,240.1,303C159.9,303,170.8,268.4,170.8,234.7" fill="rgb(59,116,170)" stroke="rgb(59,116,170)" stroke-width="6" stroke-miterlimit="10"/><ellipse id="eLgMdxqwO0s132" rx="68.3" ry="30.7" transform="matrix(1 0 0 1 239.1 234.7)" fill="rgb(92,155,213)" stroke="rgb(59,116,170)" stroke-width="6" stroke-miterlimit="10"/></g><g id="eLgMdxqwO0s133"><path id="eLgMdxqwO0s134" d="M466.8,159.7C466.8,192.8,476.6,227,400.5,227C321.5,227,332.2,192.9,332.2,159.7" fill="rgb(59,116,170)" stroke="rgb(59,116,170)" stroke-width="6" stroke-miterlimit="10"/><ellipse id="eLgMdxqwO0s135" rx="67.3" ry="30.2" transform="matrix(1 0 0 1 399.5 159.7)" fill="rgb(92,155,213)" stroke="rgb(59,116,170)" stroke-width="6" stroke-miterlimit="10"/></g></g></g><g id="eLgMdxqwO0s136_to" transform="translate(232.468008,470.864098)"><g id="eLgMdxqwO0s136" transform="scale(0.351569,0.351569) translate(-398,-397)"><polygon id="eLgMdxqwO0s137" points="81.5,284.5 81.5,478.147016 399.5,626.153136 399.468765,427.468588" fill="rgb(111,211,138)" stroke="rgb(73,170,99)" stroke-width="6" stroke-linejoin="round" stroke-miterlimit="10"/><polygon id="eLgMdxqwO0s138" points="400.5,427.468588 712.522131,282.345427 712.52213,478.147016 400.5,626.153136" fill="rgb(73,170,99)" stroke="rgb(73,170,99)" stroke-width="6" stroke-linejoin="round" stroke-miterlimit="10"/><path id="eLgMdxqwO0s139" d="M81.5,284.5L398,129.522266L712.52213,282.345427L398,435.168588Z" fill="rgb(137,220,160)" stroke="rgb(73,170,99)" stroke-width="6" stroke-linejoin="round" stroke-miterlimit="10"/><g id="eLgMdxqwO0s140"><path id="eLgMdxqwO0s141" d="M468.5,315.5C468.5,349.5,478.5,384.5,400.5,384.5C319.5,384.5,330.5,349.5,330.5,315.5" fill="rgb(73,170,99)" stroke="rgb(73,170,99)" stroke-width="6" stroke-miterlimit="10"/><ellipse id="eLgMdxqwO0s142" rx="69" ry="31" transform="matrix(1 0 0 1 399.5 315.5)" fill="rgb(137,220,160)" stroke="rgb(73,170,99)" stroke-width="6" stroke-miterlimit="10"/></g><g id="eLgMdxqwO0s143"><path id="eLgMdxqwO0s144" d="M627.6,235C627.6,268.8,637.5,303.5,560,303.5C479.5,303.5,490.5,268.7,490.5,235" transform="matrix(1 0 0 1 -1.713135 0)" fill="rgb(73,170,99)" stroke="rgb(73,170,99)" stroke-width="6" stroke-miterlimit="10"/><ellipse id="eLgMdxqwO0s145" rx="68.5" ry="30.8" transform="matrix(1 0 0 1 557.286865 235)" fill="rgb(137,220,160)" stroke="rgb(73,170,99)" stroke-width="6" stroke-miterlimit="10"/></g><g id="eLgMdxqwO0s146"><path id="eLgMdxqwO0s147" d="M307.4,234.7C307.4,268.4,317.3,303,240.1,303C159.9,303,170.8,268.4,170.8,234.7" fill="rgb(73,170,99)" stroke="rgb(73,170,99)" stroke-width="6" stroke-miterlimit="10"/><ellipse id="eLgMdxqwO0s148" rx="68.3" ry="30.7" transform="matrix(1 0 0 1 239.1 234.7)" fill="rgb(137,220,160)" stroke="rgb(73,170,99)" stroke-width="6" stroke-miterlimit="10"/></g><g id="eLgMdxqwO0s149"><path id="eLgMdxqwO0s150" d="M466.8,159.7C466.8,192.8,476.6,227,400.5,227C321.5,227,332.2,192.9,332.2,159.7" transform="matrix(1 0 0 1 0.027206 0)" fill="rgb(73,170,99)" stroke="rgb(73,170,99)" stroke-width="6" stroke-miterlimit="10"/><ellipse id="eLgMdxqwO0s151" rx="67.3" ry="30.2" transform="matrix(1 0 0 1 399.5 159.7)" fill="rgb(137,220,160)" stroke="rgb(73,170,99)" stroke-width="6" stroke-miterlimit="10"/></g></g></g></g></svg>