<svg id="eUPkBvubRXe1" xmlns="http://www.w3.org/2000/svg" xmlns:xlink="http://www.w3.org/1999/xlink" viewBox="0 0 700 400" shape-rendering="geometricPrecision" text-rendering="geometricPrecision"><defs><filter id="eUPkBvubRXe4-filter" x="-150%" width="400%" y="-150%" height="400%"><feGaussianBlur id="eUPkBvubRXe4-filter-blur-0" stdDeviation="11.595299,11.595299" result="result"/></filter><filter id="eUPkBvubRXe14-filter" x="-150%" width="400%" y="-150%" height="400%"><feGaussianBlur id="eUPkBvubRXe14-filter-blur-0" stdDeviation="13.478261,13.478261" result="result"/></filter></defs><g transform="matrix(.468743 0 0 0.468743 163.744966-46.711212)"><rect width="1615.072035" height="1214.62874" rx="0" ry="0" transform="translate(-410.186005-80.989282)" fill="#001429" stroke-width="0"/><g id="eUPkBvubRXe4" transform="matrix(2.55114 0 0 2.55114-633.922872-1153.434851)" filter="url(#eUPkBvubRXe4-filter)"><path d="M213.65,657.95c0-29.43,23.76-53.19,53.19-53.19c11.19,0,20.17,5.39,21.83,12.16h.41l-1.38-10.91h.97l4.56,37.3h-.97c-3.32-21.97-14.23-34.26-34.81-34.26-19.2,0-35.09,15.06-35.09,37.58c0,28.87,25.83,60.1,53.46,60.1c13.12,0,19.76-3.45,19.76-14.23c0-21.97-33.16-28.32-58.85-28.32v-.97h61.89v.97h-16.58v.41c5.94,0,17.41,4.56,17.41,26.66v20.86h-.97c0-20.45-5.11-.97-31.64-.97-29.43,0-53.19-23.76-53.19-53.19Z" fill="#e7ff3b"/><path d="M300.83,606.15h31.5v.97h-9.81v.41c2.21.83,2.21,5.67,2.21,9.26v75.98c0,16.3-.28,16.03,12.16,16.03c7.74,0,28.87-5.8,39.37-25.14h.97l-13.26,24.73c-.69,1.24-1.11,1.38-1.8,1.38h-56.78v-.97h9.81v-.41c-2.21-.83-2.21-5.67-2.21-9.26v-75.98c0-16.3.28-16.03-12.16-16.03v-.97Z" fill="#e7ff3b"/><path id="eUPkBvubRXe7" d="M429.04,711.14c-29.43,0-53.19-23.76-53.19-53.19s23.76-53.19,53.19-53.19s53.19,23.76,53.19,53.19-23.76,53.19-53.19,53.19Zm-44.49-64.52c0,28.32,24.87,60.1,54.16,60.1c20.72,0,34.81-16.3,34.81-37.72c0-25.97-23.62-59.96-53.88-59.96-19.48,0-35.09,15.75-35.09,37.58Z" fill="#e7ff3b"/><path d="M533.9,636.96h-.41c0,1.93-.28,5.11-1.11,8.7l-16.16,66.45c-1.8,0-3.32-.69-3.73-2.49l-23.76-88.97c-3.45-12.85-2.76-13.54-14.09-13.54v-.97h31.36v.97h-9.81v.41c.97.28,1.93.69,3.59,7.05l19.62,73.08c.55,2.21.83,3.04.55,4.56h.41l9.81-42.55c2.49-10.78,3.18-15.61-.55-29.01-3.45-12.85-2.76-13.54-14.09-13.54v-.97h31.5v.97h-9.81v.41c.83.55,1.66.14,3.45,7.05l19.62,73.08c.55,2.21.83,3.04.55,4.56h.41l15.06-58.16c7.32-28.04-1.66-26.94-25.14-26.94v-.97h43.66v.97c-11.88,0-10.36-.14-17.41,26.94l-20.31,78.06c-1.8,0-3.45-.69-3.73-2.49L533.9,636.95Z" fill="#e7ff3b"/></g><g id="eUPkBvubRXe9" transform="matrix(2.55114 0 0 2.55114-633.922872-1153.434851)" opacity="0.8"><path d="M213.65,657.95c0-29.43,23.76-53.19,53.19-53.19c11.19,0,20.17,5.39,21.83,12.16h.41l-1.38-10.91h.97l4.56,37.3h-.97c-3.32-21.97-14.23-34.26-34.81-34.26-19.2,0-35.09,15.06-35.09,37.58c0,28.87,25.83,60.1,53.46,60.1c13.12,0,19.76-3.45,19.76-14.23c0-21.97-33.16-28.32-58.85-28.32v-.97h61.89v.97h-16.58v.41c5.94,0,17.41,4.56,17.41,26.66v20.86h-.97c0-20.45-5.11-.97-31.64-.97-29.43,0-53.19-23.76-53.19-53.19Z" fill="#e7ff3b"/><path d="M300.83,606.15h31.5v.97h-9.81v.41c2.21.83,2.21,5.67,2.21,9.26v75.98c0,16.3-.28,16.03,12.16,16.03c7.74,0,28.87-5.8,39.37-25.14h.97l-13.26,24.73c-.69,1.24-1.11,1.38-1.8,1.38h-56.78v-.97h9.81v-.41c-2.21-.83-2.21-5.67-2.21-9.26v-75.98c0-16.3.28-16.03-12.16-16.03v-.97Z" fill="#e7ff3b"/><path id="eUPkBvubRXe12" d="M429.04,711.14c-29.43,0-53.19-23.76-53.19-53.19s23.76-53.19,53.19-53.19s53.19,23.76,53.19,53.19-23.76,53.19-53.19,53.19Zm-44.49-64.52c0,28.32,24.87,60.1,54.16,60.1c20.72,0,34.81-16.3,34.81-37.72c0-25.97-23.62-59.96-53.88-59.96-19.48,0-35.09,15.75-35.09,37.58Z" fill="#e7ff3b"/><path d="M533.9,636.96h-.41c0,1.93-.28,5.11-1.11,8.7l-16.16,66.45c-1.8,0-3.32-.69-3.73-2.49l-23.76-88.97c-3.45-12.85-2.76-13.54-14.09-13.54v-.97h31.36v.97h-9.81v.41c.97.28,1.93.69,3.59,7.05l19.62,73.08c.55,2.21.83,3.04.55,4.56h.41l9.81-42.55c2.49-10.78,3.18-15.61-.55-29.01-3.45-12.85-2.76-13.54-14.09-13.54v-.97h31.5v.97h-9.81v.41c.83.55,1.66.14,3.45,7.05l19.62,73.08c.55,2.21.83,3.04.55,4.56h.41l15.06-58.16c7.32-28.04-1.66-26.94-25.14-26.94v-.97h43.66v.97c-11.88,0-10.36-.14-17.41,26.94l-20.31,78.06c-1.8,0-3.45-.69-3.73-2.49L533.9,636.95Z" fill="#e7ff3b"/></g><g id="eUPkBvubRXe14" transform="matrix(0 0 0 0 460.618233 525.087711)" filter="url(#eUPkBvubRXe14-filter)"><rect width="58.45" height="1" rx="0" ry="0" transform="translate(364.68 525.75)" fill="#cf0" stroke="#cf0" stroke-width="0.5"/><rect width="1" height="58.45" rx="0" ry="0" transform="translate(393.41 497.02)" fill="#cf0" stroke="#cf0" stroke-width="0.5"/><rect width="1" height="29.22" rx="0" ry="0" transform="matrix(.707107-.707107 0.707107 0.707107 383.226992 516.281235)" fill="#cf0" stroke="#cf0" stroke-width="0.5"/><rect width="29.22" height="1" rx="0" ry="0" transform="matrix(.707107-.707107 0.707107 0.707107 383.219921 536.232859)" fill="#cf0" stroke="#cf0" stroke-width="0.5"/></g><g id="eUPkBvubRXe19" transform="matrix(0 0 0 0 460.618233 525.087711)" opacity="0.8"><rect width="58.45" height="1" rx="0" ry="0" transform="translate(364.68 525.75)" fill="#cf0" stroke="#cf0" stroke-width="0.5"/><rect width="1" height="58.45" rx="0" ry="0" transform="translate(393.41 497.02)" fill="#cf0" stroke="#cf0" stroke-width="0.5"/><rect width="1" height="29.22" rx="0" ry="0" transform="matrix(.707107-.707107 0.707107 0.707107 383.226992 516.281235)" fill="#cf0" stroke="#cf0" stroke-width="0.5"/><rect width="29.22" height="1" rx="0" ry="0" transform="matrix(.707107-.707107 0.707107 0.707107 383.219921 536.232859)" fill="#cf0" stroke="#cf0" stroke-width="0.5"/></g></g>
<script><![CDATA[
(function(s,i,u,o,c,w,d,t,n,x,e,p,a,b){(a=Array.from(d.querySelectorAll('svg#' + i.root)).filter(n=> !n.svgatorPlayer)[0]||{}).svgatorPlayer={ready:(function(a){b=[];return function(c){return c?(b.push(c),a.svgatorPlayer):b}})(a)};w[o]=w[o]||{};w[o][s]=w[o][s]||[];w[o][s].push(i);e=d.createElementNS(n,t);e.async=true;e.setAttributeNS(x,'href',[u,s,'.','j','s','?','v','=',c].join(''));e.setAttributeNS(null,'src',[u,s,'.','j','s','?','v','=',c].join(''));p=d.getElementsByTagName(t)[0];p.parentNode.insertBefore(e,p);})('91c80d77',{"root":"eUPkBvubRXe1","version":"2022-05-04","animations":[{"elements":{"eUPkBvubRXe4":{"transform":{"data":{"o":{"x":397.349974,"y":526.325086,"type":"corner"},"t":{"x":-404.240005,"y":-658.435028}},"keys":{"s":[{"t":1400,"v":{"x":2.55114,"y":2.55114}},{"t":1500,"v":{"x":3.248635,"y":3.248635},"e":[0.47,0,0.745,0.715]},{"t":3000,"v":{"x":2.55114,"y":2.55114}}]}},"opacity":[{"t":0,"v":1,"e":[0.19,1,0.22,1]},{"t":600,"v":0.7,"e":[0.445,0.05,0.55,0.95]},{"t":1500,"v":1}],"#filter":{"keys":[{"t":0,"v":[{"type":"blur","value":{"x":11.595299,"y":11.595299}}],"e":[0.19,1,0.22,1]},{"t":300,"v":[{"type":"blur","value":{"x":5,"y":5}}],"e":[0.445,0.05,0.55,0.95]},{"t":800,"v":[{"type":"blur","value":{"x":11.595299,"y":11.595299}}],"e":[0.445,0.05,0.55,0.95]},{"t":1000,"v":[{"type":"blur","value":{"x":5,"y":5}}],"e":[0.755,0.05,0.855,0.06]},{"t":1500,"v":[{"type":"blur","value":{"x":70,"y":70}}],"e":[0.95,0.05,0.795,0.035]},{"t":3500,"v":[{"type":"blur","value":{"x":11.595299,"y":11.595299}}],"e":[0.445,0.05,0.55,0.95]}],"data":{"items":[["blur","eUPkBvubRXe4-filter-blur-0"]]}}},"eUPkBvubRXe7":{"transform":{"data":{"o":{"x":429.040009,"y":657.950012,"type":"corner"},"t":{"x":-429.040009,"y":-657.950012}},"keys":{"r":[{"t":0,"v":0,"e":[0.165,0.84,0.44,1]},{"t":1000,"v":180}]}}},"eUPkBvubRXe9":{"opacity":[{"t":0,"v":0.8,"e":[0.19,1,0.22,1]},{"t":600,"v":1,"e":[0.6,-0.28,0.735,0.045]},{"t":1500,"v":0,"e":[0.265,0.955,0.4,1.28]},{"t":3000,"v":0,"e":[0.95,0.05,0.795,0.035]},{"t":3500,"v":0.8}]},"eUPkBvubRXe12":{"transform":{"data":{"o":{"x":429.040009,"y":657.950012,"type":"corner"},"t":{"x":-429.040009,"y":-657.950012}},"keys":{"r":[{"t":0,"v":0,"e":[0.165,0.84,0.44,1]},{"t":1000,"v":180}]}}},"eUPkBvubRXe14":{"transform":{"data":{"o":{"x":460.618233,"y":525.087711,"type":"corner"},"t":{"x":-393.904999,"y":-526.24498}},"keys":{"r":[{"t":10,"v":0,"e":[0.19,1,0.22,1]},{"t":1000,"v":-360},{"t":1010,"v":-180}],"s":[{"t":0,"v":{"x":0,"y":0},"e":[0.075,0.82,0.165,1]},{"t":300,"v":{"x":2,"y":2},"e":[0.075,0.82,0.165,1]},{"t":500,"v":{"x":0.2,"y":0.2},"e":[0.075,0.82,0.165,1]},{"t":700,"v":{"x":2,"y":2},"e":[0.075,0.82,0.165,1]},{"t":1000,"v":{"x":0,"y":0},"e":[0.68,-0.275,0.825,0.115]}]}},"#filter":{"keys":[{"t":0,"v":[{"type":"blur","value":{"x":13.478261,"y":13.478261}}],"e":[0.19,1,0.22,1]},{"t":300,"v":[{"type":"blur","value":{"x":5,"y":5}}]},{"t":800,"v":[{"type":"blur","value":{"x":12,"y":12}}]},{"t":1000,"v":[{"type":"blur","value":{"x":5,"y":5}}]},{"t":1500,"v":[{"type":"blur","value":{"x":70,"y":70}}],"e":[0.95,0.05,0.795,0.035]},{"t":3500,"v":[{"type":"blur","value":{"x":13.478261,"y":13.478261}}]}],"data":{"items":[["blur","eUPkBvubRXe14-filter-blur-0"]]}}},"eUPkBvubRXe19":{"transform":{"data":{"o":{"x":460.618233,"y":525.087711,"type":"corner"},"t":{"x":-393.904999,"y":-526.24498}},"keys":{"r":[{"t":10,"v":0,"e":[0.19,1,0.22,1]},{"t":1000,"v":-360},{"t":1010,"v":-180}],"s":[{"t":0,"v":{"x":0,"y":0},"e":[0.075,0.82,0.165,1]},{"t":300,"v":{"x":1.5,"y":1.5},"e":[0.075,0.82,0.165,1]},{"t":500,"v":{"x":1,"y":1},"e":[0.075,0.82,0.165,1]},{"t":700,"v":{"x":2,"y":2},"e":[0.075,0.82,0.165,1]},{"t":1000,"v":{"x":0,"y":0},"e":[0.68,-0.275,0.825,0.115]}]}}}},"s":"MDXA1ZGNjNzNiNOWM2YzNiMmM1CYmFjMEliZjcPzOGI4NEc4NjHgxODE3ZDczYJjViYWMzYjZiKNGM1YmFjMGJWmNzNJOGI4MjDdkNzNiYWM1YSjZjM2IyYzViDYWMwYmZjNDcGzOGI4MTdkTDIczYjdCYmFiZRGJkNzM4Ykc4XMjdkSDczUGIQyYmRjNWI2YzLNiZk5iMmM1YBjY3MzhiYjdiCMmJkYzRVYjYV3ZDczRlRjNGGMxYjZiNmI1NLzM4YjgyN2Q3JM2I3YzFjNDcJzOGI4MjgxODUFjZQ|"}],"options":"MDXAxZTk2M2Q4ZUThmN2M4ZDhmHM2Q1NTNkOGUV3ZThkOGE4NzHg3M2Q0NzNkOXGVVN2U4ZDhhGODc4NzNkNTUD0ZDUwUzk4"},'https://cdn.svgator.com/ply/','__SVGATOR_PLAYER__','2022-05-04',window,document,'script','http://www.w3.org/2000/svg','http://www.w3.org/1999/xlink')
]]></script>
</svg>
