<svg id="eyP5Qolczef1" xmlns="http://www.w3.org/2000/svg" xmlns:xlink="http://www.w3.org/1999/xlink" viewBox="0 0 700 400" shape-rendering="geometricPrecision" text-rendering="geometricPrecision" project-id="4da5c516aa3d48b48d66c9b9911e273b" export-id="1e6499d17be344649fe8ce55f330bbfb" cached="false" style="background-color:#091525"><defs><filter id="eyP5Qolczef3-filter" x="-150%" width="400%" y="-150%" height="400%"><feGaussianBlur id="eyP5Qolczef3-filter-blur-0" stdDeviation="20,20" result="result"/></filter><filter id="eyP5Qolczef10-filter" x="-150%" width="400%" y="-150%" height="400%"><feGaussianBlur id="eyP5Qolczef10-filter-blur-0" stdDeviation="5,5" result="result"/></filter><filter id="eyP5Qolczef23-filter" x="-150%" width="400%" y="-150%" height="400%"><feGaussianBlur id="eyP5Qolczef23-filter-blur-0" stdDeviation="2,2" result="result"/></filter><filter id="eyP5Qolczef28-filter" x="-150%" width="400%" y="-150%" height="400%"><feGaussianBlur id="eyP5Qolczef28-filter-blur-0" stdDeviation="20,20" result="result"/></filter><filter id="eyP5Qolczef31-filter" x="-150%" width="400%" y="-150%" height="400%"><feGaussianBlur id="eyP5Qolczef31-filter-blur-0" stdDeviation="5,5" result="result"/></filter><filter id="eyP5Qolczef35-filter" x="-150%" width="400%" y="-150%" height="400%"><feGaussianBlur id="eyP5Qolczef35-filter-blur-0" stdDeviation="2,2" result="result"/></filter></defs><g transform="matrix(.556857 0 0 0.556857 63.86681-80.014548)"><g id="eyP5Qolczef3" transform="matrix(.777285 0 0 0.777285 141.206055 107.940911)" opacity="0" filter="url(#eyP5Qolczef3-filter)"><g transform="translate(25.503594 348.061554)"><path d="M163.7,139.21c13.44,0,24.12,10.38,24.12,24.12c0,6.72-2.44,12.82-7.02,17.4-20.15,19.84-46.71,30.83-74.79,30.83s-54.95-10.99-75.1-30.83c-41.21-41.21-41.21-108.37,0-149.59C51.06,10.99,77.61,0,106.01,0s54.64,10.99,74.79,31.14c4.58,4.58,7.02,10.69,7.02,17.1c0,13.74-10.38,24.12-24.12,24.12-6.41,0-12.82-2.14-17.4-6.72-10.99-11.29-25.64-16.79-40.29-16.79s-29.31,5.5-40.3,16.79c-22.29,22.28-22.29,58.31,0,80.59c10.68,10.68,25.03,16.48,40.3,16.48s29.3-5.8,40.29-16.48c4.58-4.58,10.99-7.02,17.4-7.02Zm16.49,24.11c0-9.16-7.63-16.49-16.79-16.49-4.28,0-8.55,1.53-11.6,4.89-12.21,12.21-28.7,18.93-45.79,18.93-35.72,0-64.72-29-64.72-64.72s28.7-64.72,64.72-64.72c16.48,0,33.28,6.11,45.79,18.93c3.05,3.05,7.32,4.88,11.6,4.88c9.46,0,16.79-7.32,16.79-16.79c0-4.27-1.83-8.55-4.89-11.91-19.23-18.93-44.26-28.7-69.3-28.7s-50.37,9.77-69.61,28.7c-38.15,38.47-38.15,100.75.01,138.91c18.62,18.62,43.35,28.7,69.61,28.7s50.67-10.07,69.3-28.7c3.06-3.05,4.89-7.32,4.89-11.9l-.01-.01Zm-14.04-2.44c1.53,1.22,1.53,3.66,0,5.19-16.48,16.79-38.46,25.04-60.14,25.04s-43.96-8.24-60.45-25.04c-33.28-33.28-33.28-87.31,0-120.58C62.35,28.7,84.03,20.46,106.01,20.46s43.65,8.24,60.14,25.03c1.53,1.53,1.53,3.97,0,5.5s-3.97,1.52-5.49,0C145.7,35.72,125.86,28.4,106.02,28.4s-39.69,7.33-54.95,22.59c-30.22,30.22-30.22,79.37,0,109.9c15.27,14.96,35.11,22.59,54.95,22.59s39.68-7.63,54.64-22.59c1.53-1.53,3.97-1.53,5.49,0v-.01Z" transform="matrix(1.09596 0 0 1.09596 3.212823-14.225497)" fill="#42fffc"/><path d="M283.96,162.71c13.74,0,24.73,10.99,24.73,24.73s-10.99,24.42-24.73,24.42h-58.92c-13.44,0-24.42-10.99-24.42-24.42s10.99-24.73,24.42-24.73h5.19v-113.87h-5.19c-13.44,0-24.42-10.99-24.42-24.42s10.99-24.42,24.42-24.42h58.92c13.74,0,24.73,10.99,24.73,24.42s-10.99,24.42-24.73,24.42h-4.88v113.87h4.88Zm0,41.21c9.46,0,16.79-7.32,16.79-16.48s-7.33-16.79-16.79-16.79h-8.85c-2.14,0-3.66-1.83-3.66-3.97v-121.8c0-2.14,1.53-3.66,3.66-3.66h8.85c9.46,0,16.79-7.63,16.79-16.79s-7.33-16.79-16.79-16.79h-58.92c-9.16,0-16.79,7.63-16.79,16.79s7.63,16.79,16.79,16.79h8.85c2.14,0,3.97,1.53,3.97,3.66v121.81c0,2.14-1.83,3.97-3.97,3.97h-8.85c-9.16,0-16.79,7.33-16.79,16.79s7.63,16.48,16.79,16.48h58.92v-.01Zm0-20.45c2.14,0,3.97,1.83,3.97,3.97s-1.83,3.66-3.97,3.66h-58.92c-2.14,0-3.97-1.53-3.97-3.66s1.83-3.97,3.97-3.97h25.64v-155.08h-25.64c-2.14,0-3.97-1.83-3.97-3.97s1.83-3.97,3.97-3.97h58.92c2.14,0,3.97,1.83,3.97,3.97s-1.83,3.97-3.97,3.97h-25.64v155.08h25.64Z" transform="matrix(1.09596 0 0 1.09596-12.212148-14.239891)" fill="#42fffc"/><path d="M532.14,175.84c3.05,5.8,3.66,12.52,1.83,18.62-2.14,6.1-6.41,11.29-12.21,14.35-3.36,2.14-7.33,3.06-11.3,3.06-2.44,0-4.88-.31-7.32-1.22-6.11-1.83-11.29-6.11-14.35-11.91l-11.6-22.29h-104.1l-11.6,21.98c-4.27,8.24-12.52,13.44-21.67,13.44-3.97,0-7.94-.92-11.29-2.75-11.91-6.41-16.49-21.07-10.38-32.97L402.4,13.13C406.37,5.19,414.61,0,423.77,0s17.71,4.89,21.67,12.82l86.7,163.02Zm-7.02,3.66L438.73,16.49c-2.75-5.5-8.55-8.86-14.65-8.86-6.41.31-12.21,3.66-14.96,9.16L324.86,179.51c-3.97,8.24-.91,18.32,7.33,22.59c2.14,1.22,4.88,1.83,7.32,1.83c6.11,0,12.21-3.36,15.27-8.85l12.52-24.12c.61-1.22,1.83-2.14,3.36-2.14h108.68c1.52,0,2.74.91,3.66,2.14l12.82,24.12c2.75,5.8,8.55,8.85,14.65,8.85c7.33,0,13.74-4.58,15.88-11.6c1.52-4.28.91-8.86-1.22-12.82l-.01-.01Zm-11.29,6.11c.91,1.83.3,3.97-1.53,5.19-1.83.91-4.27.31-5.19-1.53l-17.7-33.28h-129.13l-17.1,32.97c-.61,1.52-1.83,2.14-3.36,2.14-.61,0-1.22,0-1.83-.31-1.83-.91-2.44-3.36-1.53-5.19L420.41,22.59c.91-1.22,2.14-2.14,3.66-2.14c1.22,0,2.74.91,3.36,2.14l86.39,163.02h.01ZM364.24,148.37h121.19L424.07,32.67l-59.83,115.7Zm56.48-81.51c.61-1.22,2.14-1.83,3.36-1.83c1.52,0,2.74.61,3.66,1.83l33.28,62.89c.61,1.22.61,2.75-.3,3.66-.61,1.22-1.83,2.14-3.06,2.14h-65.94c-1.22,0-2.44-.91-3.06-2.14-.91-.91-.91-2.44-.3-3.66l32.36-62.89Zm3.66,10.38l-26.25,50.37h53.12L424.38,77.24Z" transform="matrix(1.09596 0 0 1.09596-28.579851-14.24037)" fill="#42fffc"/><path d="M736.96,105.93c0,58.31-47.62,105.93-105.93,105.93s-105.93-47.63-105.93-105.93s47.62-105.93,105.93-105.93s105.93,47.62,105.93,105.93Zm-7.94,0c0-54.03-43.96-98.3-97.99-98.3s-98.3,44.27-98.3,98.3s44.27,97.99,98.3,97.99s97.99-43.96,97.99-97.99Zm-12.82,0c0,47.01-38.16,85.17-85.17,85.17s-85.48-38.16-85.48-85.17s38.46-85.48,85.48-85.48s85.17,38.47,85.17,85.48Zm-7.63,0c0-42.74-34.8-77.54-77.54-77.54s-77.54,34.8-77.54,77.54s34.8,77.54,77.54,77.54s77.54-34.8,77.54-77.54Zm-12.82,0c0,35.72-29,64.72-64.72,64.72s-64.72-29-64.72-64.72s29-64.72,64.72-64.72s64.72,29,64.72,64.72Zm-7.63,0c0-31.45-25.64-57.09-57.09-57.09s-57.09,25.64-57.09,57.09s25.64,57.09,57.09,57.09s57.09-25.64,57.09-57.09Z" transform="matrix(1.09596 0 0 1.09596-48.329096-14.239891)" fill="#42fffc"/></g></g><g transform="matrix(.777285 0 0 0.777285 145.588286 115.842421)" filter="url(#eyP5Qolczef10-filter)"><g transform="translate(25.503594 348.061554)"><path d="M163.7,139.21c13.44,0,24.12,10.38,24.12,24.12c0,6.72-2.44,12.82-7.02,17.4-20.15,19.84-46.71,30.83-74.79,30.83s-54.95-10.99-75.1-30.83c-41.21-41.21-41.21-108.37,0-149.59C51.06,10.99,77.61,0,106.01,0s54.64,10.99,74.79,31.14c4.58,4.58,7.02,10.69,7.02,17.1c0,13.74-10.38,24.12-24.12,24.12-6.41,0-12.82-2.14-17.4-6.72-10.99-11.29-25.64-16.79-40.29-16.79s-29.31,5.5-40.3,16.79c-22.29,22.28-22.29,58.31,0,80.59c10.68,10.68,25.03,16.48,40.3,16.48s29.3-5.8,40.29-16.48c4.58-4.58,10.99-7.02,17.4-7.02Zm16.49,24.11c0-9.16-7.63-16.49-16.79-16.49-4.28,0-8.55,1.53-11.6,4.89-12.21,12.21-28.7,18.93-45.79,18.93-35.72,0-64.72-29-64.72-64.72s28.7-64.72,64.72-64.72c16.48,0,33.28,6.11,45.79,18.93c3.05,3.05,7.32,4.88,11.6,4.88c9.46,0,16.79-7.32,16.79-16.79c0-4.27-1.83-8.55-4.89-11.91-19.23-18.93-44.26-28.7-69.3-28.7s-50.37,9.77-69.61,28.7c-38.15,38.47-38.15,100.75.01,138.91c18.62,18.62,43.35,28.7,69.61,28.7s50.67-10.07,69.3-28.7c3.06-3.05,4.89-7.32,4.89-11.9l-.01-.01Zm-14.04-2.44c1.53,1.22,1.53,3.66,0,5.19-16.48,16.79-38.46,25.04-60.14,25.04s-43.96-8.24-60.45-25.04c-33.28-33.28-33.28-87.31,0-120.58C62.35,28.7,84.03,20.46,106.01,20.46s43.65,8.24,60.14,25.03c1.53,1.53,1.53,3.97,0,5.5s-3.97,1.52-5.49,0C145.7,35.72,125.86,28.4,106.02,28.4s-39.69,7.33-54.95,22.59c-30.22,30.22-30.22,79.37,0,109.9c15.27,14.96,35.11,22.59,54.95,22.59s39.68-7.63,54.64-22.59c1.53-1.53,3.97-1.53,5.49,0v-.01Z" transform="matrix(1.09596 0 0 1.09596 3.212823-14.225497)" fill="#000102"/><path d="M283.96,162.71c13.74,0,24.73,10.99,24.73,24.73s-10.99,24.42-24.73,24.42h-58.92c-13.44,0-24.42-10.99-24.42-24.42s10.99-24.73,24.42-24.73h5.19v-113.87h-5.19c-13.44,0-24.42-10.99-24.42-24.42s10.99-24.42,24.42-24.42h58.92c13.74,0,24.73,10.99,24.73,24.42s-10.99,24.42-24.73,24.42h-4.88v113.87h4.88Zm0,41.21c9.46,0,16.79-7.32,16.79-16.48s-7.33-16.79-16.79-16.79h-8.85c-2.14,0-3.66-1.83-3.66-3.97v-121.8c0-2.14,1.53-3.66,3.66-3.66h8.85c9.46,0,16.79-7.63,16.79-16.79s-7.33-16.79-16.79-16.79h-58.92c-9.16,0-16.79,7.63-16.79,16.79s7.63,16.79,16.79,16.79h8.85c2.14,0,3.97,1.53,3.97,3.66v121.81c0,2.14-1.83,3.97-3.97,3.97h-8.85c-9.16,0-16.79,7.33-16.79,16.79s7.63,16.48,16.79,16.48h58.92v-.01Zm0-20.45c2.14,0,3.97,1.83,3.97,3.97s-1.83,3.66-3.97,3.66h-58.92c-2.14,0-3.97-1.53-3.97-3.66s1.83-3.97,3.97-3.97h25.64v-155.08h-25.64c-2.14,0-3.97-1.83-3.97-3.97s1.83-3.97,3.97-3.97h58.92c2.14,0,3.97,1.83,3.97,3.97s-1.83,3.97-3.97,3.97h-25.64v155.08h25.64Z" transform="matrix(1.09596 0 0 1.09596-12.212148-14.239891)" fill="#000102"/><path d="M532.14,175.84c3.05,5.8,3.66,12.52,1.83,18.62-2.14,6.1-6.41,11.29-12.21,14.35-3.36,2.14-7.33,3.06-11.3,3.06-2.44,0-4.88-.31-7.32-1.22-6.11-1.83-11.29-6.11-14.35-11.91l-11.6-22.29h-104.1l-11.6,21.98c-4.27,8.24-12.52,13.44-21.67,13.44-3.97,0-7.94-.92-11.29-2.75-11.91-6.41-16.49-21.07-10.38-32.97L402.4,13.13C406.37,5.19,414.61,0,423.77,0s17.71,4.89,21.67,12.82l86.7,163.02Zm-7.02,3.66L438.73,16.49c-2.75-5.5-8.55-8.86-14.65-8.86-6.41.31-12.21,3.66-14.96,9.16L324.86,179.51c-3.97,8.24-.91,18.32,7.33,22.59c2.14,1.22,4.88,1.83,7.32,1.83c6.11,0,12.21-3.36,15.27-8.85l12.52-24.12c.61-1.22,1.83-2.14,3.36-2.14h108.68c1.52,0,2.74.91,3.66,2.14l12.82,24.12c2.75,5.8,8.55,8.85,14.65,8.85c7.33,0,13.74-4.58,15.88-11.6c1.52-4.28.91-8.86-1.22-12.82l-.01-.01Zm-11.29,6.11c.91,1.83.3,3.97-1.53,5.19-1.83.91-4.27.31-5.19-1.53l-17.7-33.28h-129.13l-17.1,32.97c-.61,1.52-1.83,2.14-3.36,2.14-.61,0-1.22,0-1.83-.31-1.83-.91-2.44-3.36-1.53-5.19L420.41,22.59c.91-1.22,2.14-2.14,3.66-2.14c1.22,0,2.74.91,3.36,2.14l86.39,163.02h.01ZM364.24,148.37h121.19L424.07,32.67l-59.83,115.7Zm56.48-81.51c.61-1.22,2.14-1.83,3.36-1.83c1.52,0,2.74.61,3.66,1.83l33.28,62.89c.61,1.22.61,2.75-.3,3.66-.61,1.22-1.83,2.14-3.06,2.14h-65.94c-1.22,0-2.44-.91-3.06-2.14-.91-.91-.91-2.44-.3-3.66l32.36-62.89Zm3.66,10.38l-26.25,50.37h53.12L424.38,77.24Z" transform="matrix(1.09596 0 0 1.09596-28.579851-14.24037)" fill="#000102"/><path d="M736.96,105.93c0,58.31-47.62,105.93-105.93,105.93s-105.93-47.63-105.93-105.93s47.62-105.93,105.93-105.93s105.93,47.62,105.93,105.93Zm-7.94,0c0-54.03-43.96-98.3-97.99-98.3s-98.3,44.27-98.3,98.3s44.27,97.99,98.3,97.99s97.99-43.96,97.99-97.99Zm-12.82,0c0,47.01-38.16,85.17-85.17,85.17s-85.48-38.16-85.48-85.17s38.46-85.48,85.48-85.48s85.17,38.47,85.17,85.48Zm-7.63,0c0-42.74-34.8-77.54-77.54-77.54s-77.54,34.8-77.54,77.54s34.8,77.54,77.54,77.54s77.54-34.8,77.54-77.54Zm-12.82,0c0,35.72-29,64.72-64.72,64.72s-64.72-29-64.72-64.72s29-64.72,64.72-64.72s64.72,29,64.72,64.72Zm-7.63,0c0-31.45-25.64-57.09-57.09-57.09s-57.09,25.64-57.09,57.09s25.64,57.09,57.09,57.09s57.09-25.64,57.09-57.09Z" transform="matrix(1.09596 0 0 1.09596-48.329096-14.239891)" fill="#000102"/></g></g><g transform="matrix(.777285 0 0 0.777285 143.703516 104.773606)"><g transform="translate(25.503594 348.061554)"><path id="eyP5Qolczef19" d="M163.7,139.21c13.44,0,24.12,10.38,24.12,24.12c0,6.72-2.44,12.82-7.02,17.4-20.15,19.84-46.71,30.83-74.79,30.83s-54.95-10.99-75.1-30.83c-41.21-41.21-41.21-108.37,0-149.59C51.06,10.99,77.61,0,106.01,0s54.64,10.99,74.79,31.14c4.58,4.58,7.02,10.69,7.02,17.1c0,13.74-10.38,24.12-24.12,24.12-6.41,0-12.82-2.14-17.4-6.72-10.99-11.29-25.64-16.79-40.29-16.79s-29.31,5.5-40.3,16.79c-22.29,22.28-22.29,58.31,0,80.59c10.68,10.68,25.03,16.48,40.3,16.48s29.3-5.8,40.29-16.48c4.58-4.58,10.99-7.02,17.4-7.02Zm16.49,24.11c0-9.16-7.63-16.49-16.79-16.49-4.28,0-8.55,1.53-11.6,4.89-12.21,12.21-28.7,18.93-45.79,18.93-35.72,0-64.72-29-64.72-64.72s28.7-64.72,64.72-64.72c16.48,0,33.28,6.11,45.79,18.93c3.05,3.05,7.32,4.88,11.6,4.88c9.46,0,16.79-7.32,16.79-16.79c0-4.27-1.83-8.55-4.89-11.91-19.23-18.93-44.26-28.7-69.3-28.7s-50.37,9.77-69.61,28.7c-38.15,38.47-38.15,100.75.01,138.91c18.62,18.62,43.35,28.7,69.61,28.7s50.67-10.07,69.3-28.7c3.06-3.05,4.89-7.32,4.89-11.9l-.01-.01Zm-14.04-2.44c1.53,1.22,1.53,3.66,0,5.19-16.48,16.79-38.46,25.04-60.14,25.04s-43.96-8.24-60.45-25.04c-33.28-33.28-33.28-87.31,0-120.58C62.35,28.7,84.03,20.46,106.01,20.46s43.65,8.24,60.14,25.03c1.53,1.53,1.53,3.97,0,5.5s-3.97,1.52-5.49,0C145.7,35.72,125.86,28.4,106.02,28.4s-39.69,7.33-54.95,22.59c-30.22,30.22-30.22,79.37,0,109.9c15.27,14.96,35.11,22.59,54.95,22.59s39.68-7.63,54.64-22.59c1.53-1.53,3.97-1.53,5.49,0v-.01Z" fill="#184650" stroke="#000" stroke-width="4"/><path id="eyP5Qolczef20" d="M283.96,162.71c13.74,0,24.73,10.99,24.73,24.73s-10.99,24.42-24.73,24.42h-58.92c-13.44,0-24.42-10.99-24.42-24.42s10.99-24.73,24.42-24.73h5.19v-113.87h-5.19c-13.44,0-24.42-10.99-24.42-24.42s10.99-24.42,24.42-24.42h58.92c13.74,0,24.73,10.99,24.73,24.42s-10.99,24.42-24.73,24.42h-4.88v113.87h4.88Zm0,41.21c9.46,0,16.79-7.32,16.79-16.48s-7.33-16.79-16.79-16.79h-8.85c-2.14,0-3.66-1.83-3.66-3.97v-121.8c0-2.14,1.53-3.66,3.66-3.66h8.85c9.46,0,16.79-7.63,16.79-16.79s-7.33-16.79-16.79-16.79h-58.92c-9.16,0-16.79,7.63-16.79,16.79s7.63,16.79,16.79,16.79h8.85c2.14,0,3.97,1.53,3.97,3.66v121.81c0,2.14-1.83,3.97-3.97,3.97h-8.85c-9.16,0-16.79,7.33-16.79,16.79s7.63,16.48,16.79,16.48h58.92v-.01Zm0-20.45c2.14,0,3.97,1.83,3.97,3.97s-1.83,3.66-3.97,3.66h-58.92c-2.14,0-3.97-1.53-3.97-3.66s1.83-3.97,3.97-3.97h25.64v-155.08h-25.64c-2.14,0-3.97-1.83-3.97-3.97s1.83-3.97,3.97-3.97h58.92c2.14,0,3.97,1.83,3.97,3.97s-1.83,3.97-3.97,3.97h-25.64v155.08h25.64Z" fill="#184650" stroke="#000" stroke-width="4"/><path id="eyP5Qolczef21" d="M532.14,175.84c3.05,5.8,3.66,12.52,1.83,18.62-2.14,6.1-6.41,11.29-12.21,14.35-3.36,2.14-7.33,3.06-11.3,3.06-2.44,0-4.88-.31-7.32-1.22-6.11-1.83-11.29-6.11-14.35-11.91l-11.6-22.29h-104.1l-11.6,21.98c-4.27,8.24-12.52,13.44-21.67,13.44-3.97,0-7.94-.92-11.29-2.75-11.91-6.41-16.49-21.07-10.38-32.97L402.4,13.13C406.37,5.19,414.61,0,423.77,0s17.71,4.89,21.67,12.82l86.7,163.02Zm-7.02,3.66L438.73,16.49c-2.75-5.5-8.55-8.86-14.65-8.86-6.41.31-12.21,3.66-14.96,9.16L324.86,179.51c-3.97,8.24-.91,18.32,7.33,22.59c2.14,1.22,4.88,1.83,7.32,1.83c6.11,0,12.21-3.36,15.27-8.85l12.52-24.12c.61-1.22,1.83-2.14,3.36-2.14h108.68c1.52,0,2.74.91,3.66,2.14l12.82,24.12c2.75,5.8,8.55,8.85,14.65,8.85c7.33,0,13.74-4.58,15.88-11.6c1.52-4.28.91-8.86-1.22-12.82l-.01-.01Zm-11.29,6.11c.91,1.83.3,3.97-1.53,5.19-1.83.91-4.27.31-5.19-1.53l-17.7-33.28h-129.13l-17.1,32.97c-.61,1.52-1.83,2.14-3.36,2.14-.61,0-1.22,0-1.83-.31-1.83-.91-2.44-3.36-1.53-5.19L420.41,22.59c.91-1.22,2.14-2.14,3.66-2.14c1.22,0,2.74.91,3.36,2.14l86.39,163.02h.01ZM364.24,148.37h121.19L424.07,32.67l-59.83,115.7Zm56.48-81.51c.61-1.22,2.14-1.83,3.36-1.83c1.52,0,2.74.61,3.66,1.83l33.28,62.89c.61,1.22.61,2.75-.3,3.66-.61,1.22-1.83,2.14-3.06,2.14h-65.94c-1.22,0-2.44-.91-3.06-2.14-.91-.91-.91-2.44-.3-3.66l32.36-62.89Zm3.66,10.38l-26.25,50.37h53.12L424.38,77.24Z" fill="#184650" stroke="#000" stroke-width="4"/><path id="eyP5Qolczef22" d="M736.96,105.93c0,58.31-47.62,105.93-105.93,105.93s-105.93-47.63-105.93-105.93s47.62-105.93,105.93-105.93s105.93,47.62,105.93,105.93Zm-7.94,0c0-54.03-43.96-98.3-97.99-98.3s-98.3,44.27-98.3,98.3s44.27,97.99,98.3,97.99s97.99-43.96,97.99-97.99Zm-12.82,0c0,47.01-38.16,85.17-85.17,85.17s-85.48-38.16-85.48-85.17s38.46-85.48,85.48-85.48s85.17,38.47,85.17,85.48Zm-7.63,0c0-42.74-34.8-77.54-77.54-77.54s-77.54,34.8-77.54,77.54s34.8,77.54,77.54,77.54s77.54-34.8,77.54-77.54Zm-12.82,0c0,35.72-29,64.72-64.72,64.72s-64.72-29-64.72-64.72s29-64.72,64.72-64.72s64.72,29,64.72,64.72Zm-7.63,0c0-31.45-25.64-57.09-57.09-57.09s-57.09,25.64-57.09,57.09s25.64,57.09,57.09,57.09s57.09-25.64,57.09-57.09Z" fill="#184650" stroke="#000" stroke-width="4"/></g><g id="eyP5Qolczef23" transform="translate(25.503604 347.751559)" opacity="0" filter="url(#eyP5Qolczef23-filter)"><path d="M163.7,139.21c13.44,0,24.12,10.38,24.12,24.12c0,6.72-2.44,12.82-7.02,17.4-20.15,19.84-46.71,30.83-74.79,30.83s-54.95-10.99-75.1-30.83c-41.21-41.21-41.21-108.37,0-149.59C51.06,10.99,77.61,0,106.01,0s54.64,10.99,74.79,31.14c4.58,4.58,7.02,10.69,7.02,17.1c0,13.74-10.38,24.12-24.12,24.12-6.41,0-12.82-2.14-17.4-6.72-10.99-11.29-25.64-16.79-40.29-16.79s-29.31,5.5-40.3,16.79c-22.29,22.28-22.29,58.31,0,80.59c10.68,10.68,25.03,16.48,40.3,16.48s29.3-5.8,40.29-16.48c4.58-4.58,10.99-7.02,17.4-7.02Zm16.49,24.11c0-9.16-7.63-16.49-16.79-16.49-4.28,0-8.55,1.53-11.6,4.89-12.21,12.21-28.7,18.93-45.79,18.93-35.72,0-64.72-29-64.72-64.72s28.7-64.72,64.72-64.72c16.48,0,33.28,6.11,45.79,18.93c3.05,3.05,7.32,4.88,11.6,4.88c9.46,0,16.79-7.32,16.79-16.79c0-4.27-1.83-8.55-4.89-11.91-19.23-18.93-44.26-28.7-69.3-28.7s-50.37,9.77-69.61,28.7c-38.15,38.47-38.15,100.75.01,138.91c18.62,18.62,43.35,28.7,69.61,28.7s50.67-10.07,69.3-28.7c3.06-3.05,4.89-7.32,4.89-11.9l-.01-.01Zm-14.04-2.44c1.53,1.22,1.53,3.66,0,5.19-16.48,16.79-38.46,25.04-60.14,25.04s-43.96-8.24-60.45-25.04c-33.28-33.28-33.28-87.31,0-120.58C62.35,28.7,84.03,20.46,106.01,20.46s43.65,8.24,60.14,25.03c1.53,1.53,1.53,3.97,0,5.5s-3.97,1.52-5.49,0C145.7,35.72,125.86,28.4,106.02,28.4s-39.69,7.33-54.95,22.59c-30.22,30.22-30.22,79.37,0,109.9c15.27,14.96,35.11,22.59,54.95,22.59s39.68-7.63,54.64-22.59c1.53-1.53,3.97-1.53,5.49,0v-.01Z" fill="#a6f0ff" stroke-width="0"/><path d="M283.96,162.71c13.74,0,24.73,10.99,24.73,24.73s-10.99,24.42-24.73,24.42h-58.92c-13.44,0-24.42-10.99-24.42-24.42s10.99-24.73,24.42-24.73h5.19v-113.87h-5.19c-13.44,0-24.42-10.99-24.42-24.42s10.99-24.42,24.42-24.42h58.92c13.74,0,24.73,10.99,24.73,24.42s-10.99,24.42-24.73,24.42h-4.88v113.87h4.88Zm0,41.21c9.46,0,16.79-7.32,16.79-16.48s-7.33-16.79-16.79-16.79h-8.85c-2.14,0-3.66-1.83-3.66-3.97v-121.8c0-2.14,1.53-3.66,3.66-3.66h8.85c9.46,0,16.79-7.63,16.79-16.79s-7.33-16.79-16.79-16.79h-58.92c-9.16,0-16.79,7.63-16.79,16.79s7.63,16.79,16.79,16.79h8.85c2.14,0,3.97,1.53,3.97,3.66v121.81c0,2.14-1.83,3.97-3.97,3.97h-8.85c-9.16,0-16.79,7.33-16.79,16.79s7.63,16.48,16.79,16.48h58.92v-.01Zm0-20.45c2.14,0,3.97,1.83,3.97,3.97s-1.83,3.66-3.97,3.66h-58.92c-2.14,0-3.97-1.53-3.97-3.66s1.83-3.97,3.97-3.97h25.64v-155.08h-25.64c-2.14,0-3.97-1.83-3.97-3.97s1.83-3.97,3.97-3.97h58.92c2.14,0,3.97,1.83,3.97,3.97s-1.83,3.97-3.97,3.97h-25.64v155.08h25.64Z" fill="#a6f0ff" stroke-width="0"/><path d="M532.14,175.84c3.05,5.8,3.66,12.52,1.83,18.62-2.14,6.1-6.41,11.29-12.21,14.35-3.36,2.14-7.33,3.06-11.3,3.06-2.44,0-4.88-.31-7.32-1.22-6.11-1.83-11.29-6.11-14.35-11.91l-11.6-22.29h-104.1l-11.6,21.98c-4.27,8.24-12.52,13.44-21.67,13.44-3.97,0-7.94-.92-11.29-2.75-11.91-6.41-16.49-21.07-10.38-32.97L402.4,13.13C406.37,5.19,414.61,0,423.77,0s17.71,4.89,21.67,12.82l86.7,163.02Zm-7.02,3.66L438.73,16.49c-2.75-5.5-8.55-8.86-14.65-8.86-6.41.31-12.21,3.66-14.96,9.16L324.86,179.51c-3.97,8.24-.91,18.32,7.33,22.59c2.14,1.22,4.88,1.83,7.32,1.83c6.11,0,12.21-3.36,15.27-8.85l12.52-24.12c.61-1.22,1.83-2.14,3.36-2.14h108.68c1.52,0,2.74.91,3.66,2.14l12.82,24.12c2.75,5.8,8.55,8.85,14.65,8.85c7.33,0,13.74-4.58,15.88-11.6c1.52-4.28.91-8.86-1.22-12.82l-.01-.01Zm-11.29,6.11c.91,1.83.3,3.97-1.53,5.19-1.83.91-4.27.31-5.19-1.53l-17.7-33.28h-129.13l-17.1,32.97c-.61,1.52-1.83,2.14-3.36,2.14-.61,0-1.22,0-1.83-.31-1.83-.91-2.44-3.36-1.53-5.19L420.41,22.59c.91-1.22,2.14-2.14,3.66-2.14c1.22,0,2.74.91,3.36,2.14l86.39,163.02h.01ZM364.24,148.37h121.19L424.07,32.67l-59.83,115.7Zm56.48-81.51c.61-1.22,2.14-1.83,3.36-1.83c1.52,0,2.74.61,3.66,1.83l33.28,62.89c.61,1.22.61,2.75-.3,3.66-.61,1.22-1.83,2.14-3.06,2.14h-65.94c-1.22,0-2.44-.91-3.06-2.14-.91-.91-.91-2.44-.3-3.66l32.36-62.89Zm3.66,10.38l-26.25,50.37h53.12L424.38,77.24Z" fill="#a6f0ff" stroke-width="0"/><path d="M736.96,105.93c0,58.31-47.62,105.93-105.93,105.93s-105.93-47.63-105.93-105.93s47.62-105.93,105.93-105.93s105.93,47.62,105.93,105.93Zm-7.94,0c0-54.03-43.96-98.3-97.99-98.3s-98.3,44.27-98.3,98.3s44.27,97.99,98.3,97.99s97.99-43.96,97.99-97.99Zm-12.82,0c0,47.01-38.16,85.17-85.17,85.17s-85.48-38.16-85.48-85.17s38.46-85.48,85.48-85.48s85.17,38.47,85.17,85.48Zm-7.63,0c0-42.74-34.8-77.54-77.54-77.54s-77.54,34.8-77.54,77.54s34.8,77.54,77.54,77.54s77.54-34.8,77.54-77.54Zm-12.82,0c0,35.72-29,64.72-64.72,64.72s-64.72-29-64.72-64.72s29-64.72,64.72-64.72s64.72,29,64.72,64.72Zm-7.63,0c0-31.45-25.64-57.09-57.09-57.09s-57.09,25.64-57.09,57.09s25.64,57.09,57.09,57.09s57.09-25.64,57.09-57.09Z" fill="#a6f0ff" stroke-width="0"/></g><g id="eyP5Qolczef28" transform="matrix(1.106276-.083473 0.083473 1.106276 297.539312 589.602332)" opacity="0" filter="url(#eyP5Qolczef28-filter)"><path d="M55.73,2c0,0-57.57,121.2-53.53,180.79c0,0,57.57-131.3,62.62-38.38s-70.7,77.77-40.4,38.38s79.79-58.98,79.79-58.98-1.64,20.1,14.77,11.26s15.91-69.94-19.95.51s69.69-11.87,69.69-11.87s81.31-106.3,46.21-101.51c-35.1,4.8-62.87,150.74-42.17,171.2c20.71,20.45,124.1-161.6,98.73-173.72-25.38-12.12-106.81,271.95-8.33,131.05c0,0,12.88,27.27,37.12-17.42s-41.66-40.53-37.12,24.62c4.55,65.15,51.89-57.57,51.89-57.57s-22.73,53.03-16.67,67.04s38.25-26.13,38.25-26.13" transform="translate(221.229494-67.681434)" fill="none" stroke="#e036ca" stroke-width="11" stroke-linecap="round" stroke-linejoin="round"/></g><g id="eyP5Qolczef30" transform="matrix(.997165-.07524 0.07524 0.997165 350.538682 591.293107)" opacity="0"><path id="eyP5Qolczef31" d="M55.73,2c0,0-57.57,121.2-53.53,180.79c0,0,57.57-131.3,62.62-38.38s-70.7,77.77-40.4,38.38s79.79-58.98,79.79-58.98-1.64,20.1,14.77,11.26s15.91-69.94-19.95.51s69.69-11.87,69.69-11.87s81.31-106.3,46.21-101.51c-35.1,4.8-62.87,150.74-42.17,171.2c20.71,20.45,124.1-161.6,98.73-173.72-25.38-12.12-106.81,271.95-8.33,131.05c0,0,12.88,27.27,37.12-17.42s-41.66-40.53-37.12,24.62c4.55,65.15,51.89-57.57,51.89-57.57s-22.73,53.03-16.67,67.04s38.25-26.13,38.25-26.13" transform="translate(221.229494-67.681434)" filter="url(#eyP5Qolczef31-filter)" fill="none" stroke="#160514" stroke-width="11" stroke-linecap="round" stroke-linejoin="round" stroke-dasharray="1927.58"/></g><g transform="matrix(.997165-.07524 0.07524 0.997165 332.951837 591.293105)"><path id="eyP5Qolczef33" d="M55.73,2c0,0-57.57,121.2-53.53,180.79c0,0,57.57-131.3,62.62-38.38s-70.7,77.77-40.4,38.38s79.79-58.98,79.79-58.98-1.64,20.1,14.77,11.26s15.91-69.94-19.95.51s69.69-11.87,69.69-11.87s81.31-106.3,46.21-101.51c-35.1,4.8-62.87,150.74-42.17,171.2c20.71,20.45,124.1-161.6,98.73-173.72-25.38-12.12-106.81,271.95-8.33,131.05c0,0,12.88,27.27,37.12-17.42s-41.66-40.53-37.12,24.62c4.55,65.15,51.89-57.57,51.89-57.57s-22.73,53.03-16.67,67.04s38.25-26.13,38.25-26.13" transform="translate(221.229494-67.681434)" fill="none" stroke="#e036ca" stroke-width="11" stroke-linecap="round" stroke-linejoin="round" stroke-dashoffset="1927.58" stroke-dasharray="1927.58"/></g><g id="eyP5Qolczef34" transform="matrix(.997165-.07524 0.07524 0.997165 517.381079 219.346215)" opacity="0"><path id="eyP5Qolczef35" d="M55.73,2c0,0-57.57,121.2-53.53,180.79c0,0,57.57-131.3,62.62-38.38s-70.7,77.77-40.4,38.38s79.79-58.98,79.79-58.98-1.64,20.1,14.77,11.26s15.91-69.94-19.95.51s69.69-11.87,69.69-11.87s81.31-106.3,46.21-101.51c-35.1,4.8-62.87,150.74-42.17,171.2c20.71,20.45,124.1-161.6,98.73-173.72-25.38-12.12-106.81,271.95-8.33,131.05c0,0,12.88,27.27,37.12-17.42s-41.66-40.53-37.12,24.62c4.55,65.15,51.89-57.57,51.89-57.57s-22.73,53.03-16.67,67.04s38.25-26.13,38.25-26.13" transform="translate(8.352458 287.056737)" filter="url(#eyP5Qolczef35-filter)" fill="none" stroke="#f4d5f0" stroke-width="5" stroke-linecap="round" stroke-linejoin="round" stroke-dasharray="1927.58"/></g></g></g>
<script><![CDATA[
(function(s,i,u,o,c,w,d,t,n,x,e,p,a,b){(a=Array.from(d.querySelectorAll('svg#' + i.root)).filter(n=> !n.svgatorPlayer)[0]||{}).svgatorPlayer={ready:(function(a){b=[];return function(c){return c?(b.push(c),a.svgatorPlayer):b}})(a)};w[o]=w[o]||{};w[o][s]=w[o][s]||[];w[o][s].push(i);e=d.createElementNS(n,t);e.async=true;e.setAttributeNS(x,'href',[u,s,'.','j','s','?','v','=',c].join(''));e.setAttributeNS(null,'src',[u,s,'.','j','s','?','v','=',c].join(''));p=d.getElementsByTagName(t)[0];p.parentNode.insertBefore(e,p);})('91c80d77',{"root":"eyP5Qolczef1","version":"2024-09-05","animations":[{"elements":{"eyP5Qolczef3":{"opacity":[{"t":0,"v":0,"e":[0.68,-0.55,0.265,1.55]},{"t":600,"v":1,"e":[0.68,-0.55,0.265,1.55]},{"t":1000,"v":0.72,"e":[0.68,-0.55,0.265,1.55]},{"t":1100,"v":1,"e":[0.68,-0.55,0.265,1.55]},{"t":1200,"v":0,"e":[0.68,-0.55,0.265,1.55]},{"t":1300,"v":1,"e":[0.68,-0.55,0.265,1.55]},{"t":1500,"v":1,"e":[0.68,-0.55,0.265,1.55]},{"t":1600,"v":0,"e":[0.68,-0.55,0.265,1.55]},{"t":1700,"v":1,"e":[0.68,-0.55,0.265,1.55]},{"t":1800,"v":0.84,"e":[0.68,-0.55,0.265,1.55]},{"t":1900,"v":1},{"t":5600,"v":1},{"t":5700,"v":0.52},{"t":5800,"v":1},{"t":6300,"v":0,"e":[0.68,-0.55,0.265,1.55]}]},"eyP5Qolczef19":{"fill":[{"t":0,"v":{"t":"c","v":{"r":24,"g":70,"b":80,"a":1}},"e":[0.68,-0.55,0.265,1.55]},{"t":400,"v":{"t":"c","v":{"r":84,"g":200,"b":223,"a":1}},"e":[0.68,-0.55,0.265,1.55]},{"t":1000,"v":{"t":"c","v":{"r":84,"g":200,"b":223,"a":1}},"e":[0.68,-0.55,0.265,1.55]},{"t":1400,"v":{"t":"c","v":{"r":24,"g":70,"b":80,"a":1}},"e":[0.68,-0.55,0.265,1.55]},{"t":1500,"v":{"t":"c","v":{"r":84,"g":200,"b":223,"a":1}},"e":[0.68,-0.55,0.265,1.55]},{"t":1600,"v":{"t":"c","v":{"r":24,"g":70,"b":80,"a":1}},"e":[0.68,-0.55,0.265,1.55]},{"t":1700,"v":{"t":"c","v":{"r":84,"g":200,"b":223,"a":1}},"e":[0.68,-0.55,0.265,1.55]},{"t":2100,"v":{"t":"c","v":{"r":84,"g":200,"b":223,"a":1}},"e":[0.68,-0.55,0.265,1.55]},{"t":2200,"v":{"t":"c","v":{"r":24,"g":70,"b":80,"a":1}},"e":[0.68,-0.55,0.265,1.55]},{"t":2300,"v":{"t":"c","v":{"r":84,"g":200,"b":223,"a":1}}},{"t":5600,"v":{"t":"c","v":{"r":84,"g":200,"b":223,"a":1}},"e":[0.445,0.05,0.55,0.95]},{"t":5700,"v":{"t":"c","v":{"r":24,"g":70,"b":80,"a":1}},"e":[0.445,0.05,0.55,0.95]},{"t":5800,"v":{"t":"c","v":{"r":84,"g":200,"b":223,"a":1}},"e":[0.445,0.05,0.55,0.95]},{"t":6300,"v":{"t":"c","v":{"r":24,"g":70,"b":80,"a":1}},"e":[0.68,-0.55,0.265,1.55]}],"stroke":[{"t":0,"v":{"t":"c","v":{"r":0,"g":0,"b":0,"a":1}},"e":[0.68,-0.55,0.265,1.55]},{"t":400,"v":{"t":"c","v":{"r":62,"g":201,"b":255,"a":1}},"e":[0.68,-0.55,0.265,1.55]},{"t":1000,"v":{"t":"c","v":{"r":62,"g":201,"b":255,"a":1}},"e":[0.68,-0.55,0.265,1.55]},{"t":1400,"v":{"t":"c","v":{"r":0,"g":0,"b":0,"a":1}},"e":[0.68,-0.55,0.265,1.55]},{"t":1500,"v":{"t":"c","v":{"r":62,"g":201,"b":255,"a":1}},"e":[0.68,-0.55,0.265,1.55]},{"t":1600,"v":{"t":"c","v":{"r":0,"g":0,"b":0,"a":1}},"e":[0.68,-0.55,0.265,1.55]},{"t":1700,"v":{"t":"c","v":{"r":62,"g":201,"b":255,"a":1}},"e":[0.68,-0.55,0.265,1.55]},{"t":2100,"v":{"t":"c","v":{"r":62,"g":201,"b":255,"a":1}},"e":[0.68,-0.55,0.265,1.55]},{"t":2200,"v":{"t":"c","v":{"r":0,"g":0,"b":0,"a":1}},"e":[0.68,-0.55,0.265,1.55]},{"t":2300,"v":{"t":"c","v":{"r":62,"g":201,"b":255,"a":1}}},{"t":5600,"v":{"t":"c","v":{"r":62,"g":201,"b":255,"a":1}},"e":[0.445,0.05,0.55,0.95]},{"t":5700,"v":{"t":"c","v":{"r":0,"g":0,"b":0,"a":1}},"e":[0.445,0.05,0.55,0.95]},{"t":5800,"v":{"t":"c","v":{"r":62,"g":201,"b":255,"a":1}},"e":[0.445,0.05,0.55,0.95]},{"t":6300,"v":{"t":"c","v":{"r":0,"g":0,"b":0,"a":1}},"e":[0.68,-0.55,0.265,1.55]}]},"eyP5Qolczef20":{"fill":[{"t":0,"v":{"t":"c","v":{"r":24,"g":70,"b":80,"a":1}},"e":[0.68,-0.55,0.265,1.55]},{"t":400,"v":{"t":"c","v":{"r":84,"g":200,"b":223,"a":1}},"e":[0.68,-0.55,0.265,1.55]},{"t":1000,"v":{"t":"c","v":{"r":84,"g":200,"b":223,"a":1}},"e":[0.68,-0.55,0.265,1.55]},{"t":1400,"v":{"t":"c","v":{"r":24,"g":70,"b":80,"a":1}},"e":[0.68,-0.55,0.265,1.55]},{"t":1500,"v":{"t":"c","v":{"r":84,"g":200,"b":223,"a":1}},"e":[0.68,-0.55,0.265,1.55]},{"t":1600,"v":{"t":"c","v":{"r":24,"g":70,"b":80,"a":1}},"e":[0.68,-0.55,0.265,1.55]},{"t":1700,"v":{"t":"c","v":{"r":84,"g":200,"b":223,"a":1}},"e":[0.68,-0.55,0.265,1.55]},{"t":2100,"v":{"t":"c","v":{"r":84,"g":200,"b":223,"a":1}},"e":[0.68,-0.55,0.265,1.55]},{"t":2200,"v":{"t":"c","v":{"r":24,"g":70,"b":80,"a":1}},"e":[0.68,-0.55,0.265,1.55]},{"t":2300,"v":{"t":"c","v":{"r":84,"g":200,"b":223,"a":1}}},{"t":5600,"v":{"t":"c","v":{"r":84,"g":200,"b":223,"a":1}},"e":[0.445,0.05,0.55,0.95]},{"t":5700,"v":{"t":"c","v":{"r":24,"g":70,"b":80,"a":1}},"e":[0.445,0.05,0.55,0.95]},{"t":5800,"v":{"t":"c","v":{"r":84,"g":200,"b":223,"a":1}},"e":[0.445,0.05,0.55,0.95]},{"t":6300,"v":{"t":"c","v":{"r":24,"g":70,"b":80,"a":1}},"e":[0.68,-0.55,0.265,1.55]}],"stroke":[{"t":0,"v":{"t":"c","v":{"r":0,"g":0,"b":0,"a":1}},"e":[0.68,-0.55,0.265,1.55]},{"t":400,"v":{"t":"c","v":{"r":62,"g":201,"b":255,"a":1}},"e":[0.68,-0.55,0.265,1.55]},{"t":1000,"v":{"t":"c","v":{"r":62,"g":201,"b":255,"a":1}},"e":[0.68,-0.55,0.265,1.55]},{"t":1400,"v":{"t":"c","v":{"r":0,"g":0,"b":0,"a":1}},"e":[0.68,-0.55,0.265,1.55]},{"t":1500,"v":{"t":"c","v":{"r":62,"g":201,"b":255,"a":1}},"e":[0.68,-0.55,0.265,1.55]},{"t":1600,"v":{"t":"c","v":{"r":0,"g":0,"b":0,"a":1}},"e":[0.68,-0.55,0.265,1.55]},{"t":1700,"v":{"t":"c","v":{"r":62,"g":201,"b":255,"a":1}},"e":[0.68,-0.55,0.265,1.55]},{"t":2100,"v":{"t":"c","v":{"r":62,"g":201,"b":255,"a":1}},"e":[0.68,-0.55,0.265,1.55]},{"t":2200,"v":{"t":"c","v":{"r":0,"g":0,"b":0,"a":1}},"e":[0.68,-0.55,0.265,1.55]},{"t":2300,"v":{"t":"c","v":{"r":62,"g":201,"b":255,"a":1}}},{"t":5600,"v":{"t":"c","v":{"r":62,"g":201,"b":255,"a":1}},"e":[0.445,0.05,0.55,0.95]},{"t":5700,"v":{"t":"c","v":{"r":0,"g":0,"b":0,"a":1}},"e":[0.445,0.05,0.55,0.95]},{"t":5800,"v":{"t":"c","v":{"r":62,"g":201,"b":255,"a":1}},"e":[0.445,0.05,0.55,0.95]},{"t":6300,"v":{"t":"c","v":{"r":0,"g":0,"b":0,"a":1}},"e":[0.68,-0.55,0.265,1.55]}]},"eyP5Qolczef21":{"fill":[{"t":0,"v":{"t":"c","v":{"r":24,"g":70,"b":80,"a":1}},"e":[0.68,-0.55,0.265,1.55]},{"t":400,"v":{"t":"c","v":{"r":84,"g":200,"b":223,"a":1}},"e":[0.68,-0.55,0.265,1.55]},{"t":1000,"v":{"t":"c","v":{"r":84,"g":200,"b":223,"a":1}},"e":[0.68,-0.55,0.265,1.55]},{"t":1400,"v":{"t":"c","v":{"r":24,"g":70,"b":80,"a":1}},"e":[0.68,-0.55,0.265,1.55]},{"t":1500,"v":{"t":"c","v":{"r":84,"g":200,"b":223,"a":1}},"e":[0.68,-0.55,0.265,1.55]},{"t":1600,"v":{"t":"c","v":{"r":24,"g":70,"b":80,"a":1}},"e":[0.68,-0.55,0.265,1.55]},{"t":1700,"v":{"t":"c","v":{"r":84,"g":200,"b":223,"a":1}},"e":[0.68,-0.55,0.265,1.55]},{"t":2100,"v":{"t":"c","v":{"r":84,"g":200,"b":223,"a":1}},"e":[0.68,-0.55,0.265,1.55]},{"t":2200,"v":{"t":"c","v":{"r":24,"g":70,"b":80,"a":1}},"e":[0.68,-0.55,0.265,1.55]},{"t":2300,"v":{"t":"c","v":{"r":84,"g":200,"b":223,"a":1}}},{"t":5600,"v":{"t":"c","v":{"r":84,"g":200,"b":223,"a":1}},"e":[0.445,0.05,0.55,0.95]},{"t":5700,"v":{"t":"c","v":{"r":24,"g":70,"b":80,"a":1}},"e":[0.445,0.05,0.55,0.95]},{"t":5800,"v":{"t":"c","v":{"r":84,"g":200,"b":223,"a":1}},"e":[0.445,0.05,0.55,0.95]},{"t":6300,"v":{"t":"c","v":{"r":24,"g":70,"b":80,"a":1}},"e":[0.68,-0.55,0.265,1.55]}],"stroke":[{"t":0,"v":{"t":"c","v":{"r":0,"g":0,"b":0,"a":1}},"e":[0.68,-0.55,0.265,1.55]},{"t":400,"v":{"t":"c","v":{"r":62,"g":201,"b":255,"a":1}},"e":[0.68,-0.55,0.265,1.55]},{"t":1000,"v":{"t":"c","v":{"r":62,"g":201,"b":255,"a":1}},"e":[0.68,-0.55,0.265,1.55]},{"t":1400,"v":{"t":"c","v":{"r":0,"g":0,"b":0,"a":1}},"e":[0.68,-0.55,0.265,1.55]},{"t":1500,"v":{"t":"c","v":{"r":62,"g":201,"b":255,"a":1}},"e":[0.68,-0.55,0.265,1.55]},{"t":1600,"v":{"t":"c","v":{"r":0,"g":0,"b":0,"a":1}},"e":[0.68,-0.55,0.265,1.55]},{"t":1700,"v":{"t":"c","v":{"r":62,"g":201,"b":255,"a":1}},"e":[0.68,-0.55,0.265,1.55]},{"t":2100,"v":{"t":"c","v":{"r":62,"g":201,"b":255,"a":1}},"e":[0.68,-0.55,0.265,1.55]},{"t":2200,"v":{"t":"c","v":{"r":0,"g":0,"b":0,"a":1}},"e":[0.68,-0.55,0.265,1.55]},{"t":2300,"v":{"t":"c","v":{"r":62,"g":201,"b":255,"a":1}}},{"t":5600,"v":{"t":"c","v":{"r":62,"g":201,"b":255,"a":1}},"e":[0.445,0.05,0.55,0.95]},{"t":5700,"v":{"t":"c","v":{"r":0,"g":0,"b":0,"a":1}},"e":[0.445,0.05,0.55,0.95]},{"t":5800,"v":{"t":"c","v":{"r":62,"g":201,"b":255,"a":1}},"e":[0.445,0.05,0.55,0.95]},{"t":6300,"v":{"t":"c","v":{"r":0,"g":0,"b":0,"a":1}},"e":[0.68,-0.55,0.265,1.55]}]},"eyP5Qolczef22":{"fill":[{"t":0,"v":{"t":"c","v":{"r":24,"g":70,"b":80,"a":1}},"e":[0.68,-0.55,0.265,1.55]},{"t":400,"v":{"t":"c","v":{"r":84,"g":200,"b":223,"a":1}},"e":[0.68,-0.55,0.265,1.55]},{"t":1000,"v":{"t":"c","v":{"r":84,"g":200,"b":223,"a":1}},"e":[0.68,-0.55,0.265,1.55]},{"t":1400,"v":{"t":"c","v":{"r":24,"g":70,"b":80,"a":1}},"e":[0.68,-0.55,0.265,1.55]},{"t":1500,"v":{"t":"c","v":{"r":84,"g":200,"b":223,"a":1}},"e":[0.68,-0.55,0.265,1.55]},{"t":1600,"v":{"t":"c","v":{"r":24,"g":70,"b":80,"a":1}},"e":[0.68,-0.55,0.265,1.55]},{"t":1700,"v":{"t":"c","v":{"r":84,"g":200,"b":223,"a":1}},"e":[0.68,-0.55,0.265,1.55]},{"t":2100,"v":{"t":"c","v":{"r":84,"g":200,"b":223,"a":1}},"e":[0.68,-0.55,0.265,1.55]},{"t":2200,"v":{"t":"c","v":{"r":24,"g":70,"b":80,"a":1}},"e":[0.68,-0.55,0.265,1.55]},{"t":2300,"v":{"t":"c","v":{"r":84,"g":200,"b":223,"a":1}}},{"t":5600,"v":{"t":"c","v":{"r":84,"g":200,"b":223,"a":1}},"e":[0.445,0.05,0.55,0.95]},{"t":5700,"v":{"t":"c","v":{"r":24,"g":70,"b":80,"a":1}},"e":[0.445,0.05,0.55,0.95]},{"t":5800,"v":{"t":"c","v":{"r":84,"g":200,"b":223,"a":1}},"e":[0.445,0.05,0.55,0.95]},{"t":6300,"v":{"t":"c","v":{"r":24,"g":70,"b":80,"a":1}},"e":[0.68,-0.55,0.265,1.55]}],"stroke":[{"t":0,"v":{"t":"c","v":{"r":0,"g":0,"b":0,"a":1}},"e":[0.68,-0.55,0.265,1.55]},{"t":400,"v":{"t":"c","v":{"r":62,"g":201,"b":255,"a":1}},"e":[0.68,-0.55,0.265,1.55]},{"t":1000,"v":{"t":"c","v":{"r":62,"g":201,"b":255,"a":1}},"e":[0.68,-0.55,0.265,1.55]},{"t":1400,"v":{"t":"c","v":{"r":0,"g":0,"b":0,"a":1}},"e":[0.68,-0.55,0.265,1.55]},{"t":1500,"v":{"t":"c","v":{"r":62,"g":201,"b":255,"a":1}},"e":[0.68,-0.55,0.265,1.55]},{"t":1600,"v":{"t":"c","v":{"r":0,"g":0,"b":0,"a":1}},"e":[0.68,-0.55,0.265,1.55]},{"t":1700,"v":{"t":"c","v":{"r":62,"g":201,"b":255,"a":1}},"e":[0.68,-0.55,0.265,1.55]},{"t":2100,"v":{"t":"c","v":{"r":62,"g":201,"b":255,"a":1}},"e":[0.68,-0.55,0.265,1.55]},{"t":2200,"v":{"t":"c","v":{"r":0,"g":0,"b":0,"a":1}},"e":[0.68,-0.55,0.265,1.55]},{"t":2300,"v":{"t":"c","v":{"r":62,"g":201,"b":255,"a":1}}},{"t":5600,"v":{"t":"c","v":{"r":62,"g":201,"b":255,"a":1}},"e":[0.445,0.05,0.55,0.95]},{"t":5700,"v":{"t":"c","v":{"r":0,"g":0,"b":0,"a":1}},"e":[0.445,0.05,0.55,0.95]},{"t":5800,"v":{"t":"c","v":{"r":62,"g":201,"b":255,"a":1}},"e":[0.445,0.05,0.55,0.95]},{"t":6300,"v":{"t":"c","v":{"r":0,"g":0,"b":0,"a":1}},"e":[0.68,-0.55,0.265,1.55]}]},"eyP5Qolczef23":{"opacity":[{"t":0,"v":0,"e":[0.68,-0.55,0.265,1.55]},{"t":600,"v":1,"e":[0.68,-0.55,0.265,1.55]},{"t":1000,"v":0.72,"e":[0.68,-0.55,0.265,1.55]},{"t":1100,"v":1,"e":[0.68,-0.55,0.265,1.55]},{"t":1200,"v":0,"e":[0.68,-0.55,0.265,1.55]},{"t":1300,"v":1,"e":[0.68,-0.55,0.265,1.55]},{"t":1500,"v":1,"e":[0.68,-0.55,0.265,1.55]},{"t":1600,"v":0,"e":[0.68,-0.55,0.265,1.55]},{"t":1700,"v":1,"e":[0.68,-0.55,0.265,1.55]},{"t":1800,"v":0.7,"e":[0.68,-0.55,0.265,1.55]},{"t":1900,"v":1},{"t":5600,"v":1},{"t":5700,"v":0.52},{"t":5800,"v":1},{"t":6300,"v":0,"e":[0.68,-0.55,0.265,1.55]}]},"eyP5Qolczef28":{"opacity":[{"t":2600,"v":0,"e":[0.77,0,0.175,1]},{"t":2800,"v":1,"e":[0.77,0,0.175,1]},{"t":3200,"v":1,"e":[0.77,0,0.175,1]},{"t":3300,"v":1,"e":[0.77,0,0.175,1]},{"t":3600,"v":1,"e":[0.77,0,0.175,1]},{"t":3700,"v":1,"e":[0.77,0,0.175,1]},{"t":3800,"v":1,"e":[0.77,0,0.175,1]},{"t":3900,"v":1,"e":[0.77,0,0.175,1]},{"t":4000,"v":1},{"t":4700,"v":1,"e":[0.455,0.03,0.515,0.955]},{"t":5000,"v":0,"e":[0.77,0,0.175,1]}]},"eyP5Qolczef30":{"opacity":[{"t":2600,"v":0,"e":[0.77,0,0.175,1]},{"t":2800,"v":1,"e":[0.77,0,0.175,1]},{"t":3200,"v":1,"e":[0.77,0,0.175,1]},{"t":3300,"v":1,"e":[0.77,0,0.175,1]},{"t":3600,"v":1,"e":[0.77,0,0.175,1]},{"t":3700,"v":1,"e":[0.77,0,0.175,1]},{"t":3800,"v":1,"e":[0.77,0,0.175,1]},{"t":3900,"v":1,"e":[0.77,0,0.175,1]},{"t":4000,"v":1},{"t":4700,"v":1,"e":[0.455,0.03,0.515,0.955]}]},"eyP5Qolczef31":{"stroke-dashoffset":[{"t":4700,"v":0},{"t":5200,"v":-1927.58}]},"eyP5Qolczef33":{"stroke":[{"t":3200,"v":{"t":"c","v":{"r":224,"g":54,"b":202,"a":1}},"e":[0.77,0,0.175,1]},{"t":3300,"v":{"t":"c","v":{"r":122,"g":36,"b":111,"a":1}},"e":[0.77,0,0.175,1]},{"t":3600,"v":{"t":"c","v":{"r":224,"g":54,"b":202,"a":1}},"e":[0.77,0,0.175,1]},{"t":3700,"v":{"t":"c","v":{"r":122,"g":36,"b":111,"a":1}},"e":[0.77,0,0.175,1]},{"t":3800,"v":{"t":"c","v":{"r":224,"g":54,"b":202,"a":1}},"e":[0.77,0,0.175,1]},{"t":3900,"v":{"t":"c","v":{"r":122,"g":36,"b":111,"a":1}},"e":[0.77,0,0.175,1]},{"t":4000,"v":{"t":"c","v":{"r":224,"g":54,"b":202,"a":1}}},{"t":4700,"v":{"t":"c","v":{"r":224,"g":54,"b":202,"a":1}},"e":[0.455,0.03,0.515,0.955]},{"t":5200,"v":{"t":"c","v":{"r":224,"g":54,"b":202,"a":1}},"e":[0.77,0,0.175,1]}],"stroke-dashoffset":[{"t":2000,"v":1927.58,"e":[0.455,0.03,0.515,0.955]},{"t":2700,"v":0},{"t":4700,"v":0,"e":[0.455,0.03,0.515,0.955]},{"t":5200,"v":-1927.58}]},"eyP5Qolczef34":{"opacity":[{"t":2600,"v":0,"e":[0.77,0,0.175,1]},{"t":2900,"v":1,"e":[0.77,0,0.175,1]},{"t":3200,"v":1,"e":[0.77,0,0.175,1]},{"t":3300,"v":1,"e":[0.77,0,0.175,1]},{"t":3600,"v":1,"e":[0.77,0,0.175,1]},{"t":3700,"v":1,"e":[0.77,0,0.175,1]},{"t":3800,"v":1,"e":[0.77,0,0.175,1]},{"t":3900,"v":1,"e":[0.77,0,0.175,1]},{"t":4000,"v":1},{"t":4700,"v":1,"e":[0.455,0.03,0.515,0.955]}]},"eyP5Qolczef35":{"stroke-dashoffset":[{"t":4700,"v":0,"e":[0.455,0.03,0.515,0.955]},{"t":5200,"v":-1927.58}]}},"s":"MDSA1ZDk3M2U4MBDkxOGVPN2Q5DMDg1OGI4YTNLlNTY1MzRjNGOM0YzQ4M2U4MUDg1OGU4MTdmKOTA4NVU4YjhChM2U1NjRkNDCgzZTg1OTA4MYUo4ZTdkOTA4ENThiOGE4ZjNKlNTY0YzQ4M2LU4Mjg1ODg4OLDNlNTY0ZDQ4GM2U3ZDg4OTAU4MU04ZThhN2AQ5MDgxM2U1NVjgyN2Q4ODhmEODE0ODNlOGYE4YzgxODE4MDDNlNTY0ZDQ4MY2U4MjhjOGYzAZTU2STRkNGMR0Yzk5"}],"options":"MDUAxZTgyMjk3YCTdiNjg3OTdiJVTI5NDEyOTdXhSzZhNzk3NjJczVDczMjkzMTzI5N2E2YTc5SNzY3MzczMjkI0MTM5M2M4NAN|"},'https://cdn.svgator.com/ply/','__SVGATOR_PLAYER__','2024-09-05',window,document,'script','http://www.w3.org/2000/svg','http://www.w3.org/1999/xlink')
]]></script>

<style><![CDATA[
@font-face {font-family: 'eyP5Qolczef1:::Montserrat';font-style: normal;font-weight: 700;src: url(https://fonts.gstatic.com/l/font?kit=JTUHjIg1_i6t8kCHKm4532VJOt5-QNFgpCuM70w-e3p069XMTw&skey=7bc19f711c0de8f&v=v26) format('truetype');}
]]></style>
</svg>
