<svg id="e6YfBSFPzjV1" xmlns="http://www.w3.org/2000/svg" xmlns:xlink="http://www.w3.org/1999/xlink" viewBox="0 0 700 400" shape-rendering="geometricPrecision" text-rendering="geometricPrecision" project-id="02f23f6fb3d04aeab19b401831e97be5" export-id="e404ff3ec7f042dbb67a113d8c6a0754" cached="false" style="background-color:#383e4e"><defs><filter id="e6YfBSFPzjV3-filter" x="-150%" width="400%" y="-150%" height="400%"><feGaussianBlur id="e6YfBSFPzjV3-filter-blur-0" stdDeviation="30,30" result="result"/></filter></defs><g transform="matrix(.37279 0 0 0.372791 53.00592-1.80291)"><rect width="693.366926" height="963.753257" rx="0" ry="0" transform="matrix(.935862 0 0 0.937409 492.844127 106.889044)" opacity="0.38" filter="url(#e6YfBSFPzjV3-filter)" stroke-width="0"/><g transform="matrix(1.041715 0 0 1.041715 385.923639-6.590928)"><rect width="646.3" height="898.17" rx="0" ry="0" transform="translate(71.43 76.87)" fill="#292635"/><g transform="translate(.000001 0)"><path d="M109,409.87L136.49,348h14.14l27.75,61.86h-15l-5.50596-13.24h-28.66808L123.7,409.86l-14.7.01Zm44.35367-24.12L143.54,362.1514L133.72633,385.75h19.62734ZM184.83,409.87v-61.87h26.78c4.90728-.12231,9.78467.79796,14.31,2.7c3.78728,1.60622,7.0157,4.29541,9.28,7.73c4.36005,7.37012,4.36005,16.52988,0,23.9-2.26367,3.40439-5.49622,6.05174-9.28,7.6-.04044.0164-.0809.03272-.12139.04897L239.61,409.91h-15.38l-12.03007-17.36043c-.19659-.00157-.39324-.00475-.58993-.00957h-12.38v17.32l-14.4.01Zm25.98-28.68c4.36,0,7.66-.94333,9.9-2.83c2.2882-1.9885,3.52852-4.92319,3.36-7.95.17286-3.01603-1.06936-5.94041-3.36-7.91-2.24-1.84667-5.54-2.77333-9.9-2.78h-11.58v21.47h11.58Zm50.9,28.68v-50.19h-19.79v-11.68h53.9v11.67h-19.82v50.19l-14.29.01Z" fill="#fff"/><path d="M124.37,491.92h33.63v11.49h-47.9v-61.87h46.75v11.46h-32.48v13.38h28.72v11.22h-28.72v14.32Zm62.74,11.49l-26.78-61.87h15.56l18.80987,44.18265L213.8,441.54h14.2l-26.78,61.87h-14.11Zm60.27-11.49h33.67v11.49h-47.9v-61.87h46.75v11.46h-32.52v13.38h28.72v11.22h-28.72v14.32Zm45.07,11.49v-61.87h11.84L335,479.01461v-37.47461h14.14v61.87h-11.8l-30.75-37.52342v37.52342h-14.14Zm84.21,0v-50.2h-19.79v-11.67h53.91v11.67h-19.78v50.2h-14.34Z" fill="#fff"/></g><path d="M525.64,507.81c-.80191.00559-1.59367-.17949-2.31-.54-.70214-.34821-1.2966-.88046-1.72-1.54l.9-1c.36555.5193.83989.9527,1.39,1.27.53457.30894,1.14263.46787,1.76.46c1.8,0,2.71-1.07,2.71-3.21v-8.84h-5.37v-1.31h6.86v10.11c.09549,1.24898-.29098,2.48711-1.08,3.46-.8401.80415-1.97967,1.21788-3.14,1.14Zm15.21,0c-1.62282.08451-3.21052-.49283-4.4-1.6-1.15288-1.30231-1.72998-3.01557-1.6-4.75v-8.36h1.54v8.29c-.11581,1.37642.30322,2.74453,1.17,3.82c1.89892,1.63797,4.71109,1.63797,6.61,0c.86678-1.07547,1.28581-2.44358,1.17-3.82v-8.29h1.5v8.36c.12998,1.73443-.44712,3.44769-1.6,4.75-1.18016,1.11577-2.76866,1.69473-4.39,1.6Zm11.15-.12v-14.59h1.54v13.26h8.17v1.33h-9.71Zm14.62,0v-5.00819L560.78,493.14h1.65l5.005,8.18833L572.44,493.14h1.56l-5.84,9.55722v4.99278h-1.54Zm14.58,0v-1.06l6.06-5.94c.46109-.43593.87965-.91475,1.25-1.43.25163-.35321.44414-.74499.57-1.16.08643-.32655.13343-.66227.14-1c.03691-.76358-.2804-1.50152-.86-2-.74016-.5384-1.64719-.79705-2.56-.73-.77775-.01442-1.55126.11789-2.28.39-.65757.26691-1.24082.6889-1.7,1.23l-1.06-.91c.59253-.68769,1.34442-1.21985,2.19-1.55.95525-.37379,1.97436-.55723,3-.54.87638-.01864,1.74739.14127,2.56.47.68266.28132,1.26708.7579,1.68,1.37.40848.62289.61775,1.35533.6,2.1-.00197.47364-.06927.94475-.2,1.4-.16432.51552-.40355,1.00408-.71,1.45-.44106.61924-.93997,1.19516-1.49,1.72l-4.97832,4.88h7.98832v1.33l-10.2-.02Zm12.57-5v-1.3h5.46v1.3h-5.46Zm10.61,5l5.98747-13.26h-7.46747v2.73h-1.5v-4.06h10.71v1.06L606,507.69h-1.62Zm17.39,4.04v-19.51h1.37v19.51h-1.37Zm10.94-4.04v-1.06l6.07-5.94c.45819-.43871.87651-.91726,1.25-1.43.24811-.35388.43723-.74562.56-1.16.09409-.32521.14453-.66149.15-1c.03753-.76582-.28417-1.50535-.87-2-.73709-.53691-1.64046-.79552-2.55-.73-.78102-.01448-1.55781.11781-2.29.39-.65454.26726-1.23446.68933-1.69,1.23l-1.07-.91c.59253-.68769,1.34442-1.21985,2.19-1.55.95525-.37379,1.97436-.55723,3-.54.87962-.01861,1.75389.14128,2.57.47c1.41371.56101,2.32232,1.94994,2.27,3.47-.00197.47364-.06927.94475-.2,1.4-.16019.51717-.39971,1.00633-.71,1.45-.44106.61924-.93997,1.19516-1.49,1.72l-4.97832,4.88h8.07832v1.33l-10.29-.02Zm18.35.12c-1.06599.01687-2.11203-.28997-3-.88-.90861-.63959-1.62177-1.51892-2.06-2.54-1.00407-2.57215-1.00407-5.42785,0-8c.43823-1.02108,1.15139-1.90041,2.06-2.54c1.82541-1.18185,4.1746-1.18185,6,0c.9123.63821,1.62903,1.51767,2.07,2.54c1.01597,2.5699,1.01597,5.4301,0,8-.44097,1.02233-1.1577,1.90179-2.07,2.54-.8877.59061-1.93392.8975-3,.88Zm0-1.37c.80635.01884,1.59666-.22703,2.25-.7.6758-.51466,1.19515-1.20713,1.5-2c.72029-2.14447.72029-4.46553,0-6.61-.2996-.79576-.81995-1.48957-1.5-2-1.34714-.93449-3.13286-.93449-4.48,0-.69192.50546-1.22319,1.19993-1.53,2-.72029,2.14447-.72029,4.46553,0,6.61.31217.79706.84239,1.49016,1.53,2c.64817.46815,1.43056.71374,2.23.7Zm8.17,1.25v-1.06l6.07-5.94c.45819-.43871.87651-.91726,1.25-1.43.24493-.35573.43379-.74696.56-1.16.09409-.32521.14453-.66149.15-1c.03753-.76582-.28417-1.50535-.87-2-.73709-.53691-1.64046-.79552-2.55-.73-.78107-.0152-1.55799.11712-2.29.39-.65605.26964-1.23869.6912-1.7,1.23l-1.06-.91c.59253-.68769,1.34442-1.21985,2.19-1.55.95525-.37379,1.97436-.55723,3-.54.87963-.01861,1.75389.14128,2.57.47c1.40592.57052,2.31049,1.95328,2.27,3.47-.00197.47364-.06927.94475-.2,1.4-.16019.51717-.39971,1.00633-.71,1.45-.44106.61924-.93997,1.19516-1.49,1.72l-4.97832,4.88h8.04832v1.33l-10.26-.02Zm16.93.12c-1.02266.01339-2.03922-.15942-3-.51-.84734-.28118-1.62236-.7455-2.27-1.36l.73-1.19c.54508.53242,1.19575.94462,1.91,1.21.83456.32622,1.72399.48917,2.62.48.99023.06696,1.97296-.2123,2.78-.79.65393-.50991,1.02541-1.30116,1-2.13.02958-.81867-.32113-1.60501-.95-2.13-.88076-.59749-1.9392-.87621-3-.79h-1v-1.1l4.03805-5.07h-7.45805v-1.33h9.38v1.06l-4.10543,5.15459c1.21445.02675,2.39456.43924,3.36543,1.18541.85868.75635,1.3353,1.85625,1.3,3c.01357.77598-.18712,1.54068-.58,2.21-.42015.6772-1.03302,1.21346-1.76,1.54-.94445.41223-1.97044.60374-3,.56Z" transform="translate(-3 0)" fill="#fff"/><path d="M534.48,477.84c-1.5328.00345-3.05257-.28151-4.48-.84-1.33682-.51159-2.55506-1.29085-3.58-2.29-1.00917-.99067-1.81435-2.16957-2.37-3.47-1.14648-2.804-1.14648-5.946,0-8.75.55907-1.30102,1.36764-2.47989,2.38-3.47c1.0341-.99727,2.25844-1.77608,3.6-2.29c2.92682-1.09949,6.15319-1.09949,9.08,0c1.36589.53864,2.58554,1.39172,3.56,2.49l-2,1.93c-.77361-.82828-1.71438-1.48273-2.76-1.92-1.03987-.41542-2.15023-.62595-3.27-.62-1.14531-.01168-2.28232.19535-3.35.61-.99517.38616-1.903.96757-2.67,1.71-.76018.74336-1.35926,1.63518-1.76,2.62-.83995,2.10946-.83995,4.46054,0,6.57.40074.98481.99982,1.87664,1.76,2.62.767.74242,1.67483,1.32384,2.67,1.71c1.06768.41465,2.20469.62169,3.35.61c1.12088.00766,2.2322-.20645,3.27-.63c1.05241-.43411,1.99516-1.09676,2.76-1.94l2,1.93c-.976,1.10137-2.19477,1.96067-3.56,2.51-1.46843.60499-3.04183.91423-4.63.91Zm16.67-.24h-3.06v-21.41h3.06v9.21h12.29v-9.21h3.06v21.41h-3.06v-9.54h-12.29v9.54Zm22.85,0v-21.41h3.06v21.41h-3.06Zm20.11.24c-1.54088.01583-3.07093-.25897-4.51-.81-1.33682-.51159-2.55506-1.29085-3.58-2.29-1.00917-.99067-1.81435-2.16957-2.37-3.47-1.13377-2.80649-1.13377-5.94351,0-8.75c1.13757-2.65322,3.30258-4.73163,6-5.76c2.92682-1.09949,6.15319-1.09949,9.08,0c1.36895.53827,2.59195,1.39128,3.57,2.49l-2,1.93c-.77209-.82553-1.70899-1.47965-2.75-1.92-1.04306-.41645-2.1569-.62699-3.28-.62-1.14531-.01168-2.28232.19535-3.35.61-.99336.38971-1.90053.97071-2.67,1.71-.76018.74336-1.35926,1.63519-1.76,2.62-.83995,2.10946-.83995,4.46054,0,6.57.40074.98482.99982,1.87664,1.76,2.62.76947.73929,1.67664,1.32029,2.67,1.71c1.06768.41465,2.20469.62168,3.35.61c1.12419.00846,2.23894-.20566,3.28-.63c1.04786-.43714,1.98672-1.09946,2.75-1.94l2,1.93c-.97983,1.10154-2.20187,1.96073-3.57,2.51-1.46688.5952-3.03703.89427-4.62.88Zm9.89-.24l9.69-21.41h3l9.72,21.41h-3.21l-2.34911-5.35h-11.38178L607.12,477.6h-3.12Zm15.77513-7.8L615.16,459.28925L610.54487,469.8h9.23026ZM640,477.84c-1.55403.01752-3.09749-.25725-4.55-.81-2.69994-1.0244-4.8663-3.10411-6-5.76-1.14648-2.804-1.14648-5.946,0-8.75.55916-1.30593,1.37535-2.48602,2.4-3.47c1.04511-.99785,2.27935-1.77648,3.63-2.29c1.46242-.55461,3.01607-.82938,4.58-.81c1.58773-.02093,3.1652.25725,4.65.82c1.37462.52823,2.60235,1.37873,3.58,2.48l-1.9,1.9c-.81291-.82035-1.78661-1.46381-2.86-1.89-1.07126-.39963-2.20667-.59959-3.35-.59-1.16158-.01196-2.31502.19498-3.4.61-1.01399.38413-1.94185.96531-2.73,1.71-.76312.74297-1.36555,1.63472-1.77,2.62-.84015,2.09905-.84015,4.44095,0,6.54.40425.98832,1.00663,1.88337,1.77,2.63.77798.75281,1.69965,1.34118,2.71,1.73c1.08126.41587,2.23159.62286,3.39.61c1.11815.00291,2.22933-.1761,3.29-.53.60993-.21472,1.19044-.50057,1.73-.85045v-7.01955h2.94v8.35l-.04144-.00493.04144.05493c-1.09405.90832-2.35892,1.58836-3.72,2-1.41618.47013-2.89784.71314-4.39.72Zm24.69,0c-1.55153.0157-3.092-.26253-4.54-.82-3.43745-1.35702-5.95424-4.36196-6.68716-7.98416s.41768-7.3692,3.05716-9.95584c1.04024-.99924,2.26685-1.78414,3.61-2.31c2.93256-1.08671,6.15744-1.08671,9.09,0c1.34281.51144,2.56762,1.29055,3.6,2.29c1.02035.98902,1.82697,2.17684,2.37,3.49c1.13363,2.7996,1.13363,5.9304,0,8.73-1.12487,2.66199-3.29434,4.74468-6,5.76-1.43747.5432-2.96339.81447-4.5.8Zm0-2.72c1.13575.01383,2.26334-.19335,3.32-.61.98487-.39243,1.87967-.98102,2.63-1.73.74513-.74782,1.3363-1.63457,1.74-2.61.42822-1.03991.64249-2.15545.63-3.28.01258-1.11485-.20177-2.2206-.63-3.25-.41093-.97453-1.00115-1.86325-1.74-2.62-.74977-.75214-1.64453-1.34412-2.63-1.74-2.1283-.81317-4.48169-.81317-6.61,0-.98852.39568-1.88659.98759-2.64,1.74-1.55697,1.55343-2.41907,3.6708-2.39,5.87-.01249,1.12455.20178,2.24009.63,3.28.82609,1.97766,2.41119,3.54114,4.4,4.34c1.03729.41122,2.1442.61834,3.26.61h.03Z" transform="matrix(1.050952 0 0 1.050952-31.122127-23.788116)" fill="#fff"/><rect width="189.96" height="189.96" rx="0" ry="0" transform="translate(298.98 126.78)" fill="#fff"/><rect width="189.96" height="189.96" rx="0" ry="0" transform="translate(109.448762 537.18)" fill="#1a76f3"/><rect width="189.96" height="189.96" rx="0" ry="0" transform="translate(109.49 727.14)" fill="#fff"/><rect width="189.96" height="189.96" rx="0" ry="0" transform="translate(299.254342 537.18)" fill="#f35654"/><rect width="189.96" height="189.96" rx="0" ry="0" transform="translate(488.937559 537.180564)" fill="#f8bf75"/><rect width="189.96" height="189.96" rx="0" ry="0" transform="translate(299.26 727.118957)" fill="#81d0f7"/><g display="none" mask="url(#e6YfBSFPzjV21)"><path id="e6YfBSFPzjV19" d="M236.148,1043.38022v-.11707h-443.864061l.251891-632.15449h63.5032v63.11372l63.19332-.04.000001,63.151145l63.639709-.009355v63.11372l63.19332-.04v63.71629h63.26348v63.09054h63.48931v63.11372l63.19332-.04v62.058825l.016229,1.082963l63.623481.000002v63.11372l63.19332-.04v63.71629h63.26348v63.17l-189.96-.00002Z" transform="matrix(1.001567 0 0 1.001567 316.744233 315.358071)" fill="#f8bf75"/><path id="e6YfBSFPzjV20" d="M236.148,1043.38022v-.11707h-443.864061l.251891-632.15449h63.5032v63.11372l63.19332-.04.000001,63.151145l63.639709-.009355v63.11372l63.19332-.04v63.71629h63.26348v63.09054h63.48931v63.11372l63.19332-.04v62.058825l.016229,1.082963l63.623481.000002v63.11372l63.19332-.04v63.71629h63.26348v63.17l-189.96-.00002Z" transform="matrix(1.001567 0 0 1.001567 306.480188 306.027121)" fill="none" stroke="#112148" stroke-width="3"/><mask id="e6YfBSFPzjV21" mask-type="luminance" x="-150%" y="-150%" height="400%" width="400%"><rect width="189.96" height="189.96" rx="0" ry="0" transform="translate(109.49 727.14)" fill="#fff"/></mask></g><g mask="url(#e6YfBSFPzjV27)"><g transform="matrix(1.094686 0 0 1.094686-9.871153-82.820096)"><path id="e6YfBSFPzjV25" d="M236.148,1043.38022v-.11707h-443.864061l.251891-632.15449h63.5032v63.11372l63.19332-.04.000001,63.151145l63.639709-.009355v63.11372l63.19332-.04v63.169088l62.850827.134547.412653,63.503195h63.48931v63.11372l63.19332-.04v62.058825l.016229,1.082963l63.623481.000002v63.11372l63.19332-.04v63.71629h63.26348v63.17l-189.96-.00002Z" transform="matrix(1.001567 0 0 1.001567 316.744233 315.358071)" fill="#f8bf75"/><path id="e6YfBSFPzjV26" d="M236.148,1043.38022v-.11707h-443.864061l.251891-632.15449h63.5032v63.11372l63.19332-.04.000001,63.151145l63.639709-.009355v63.11372l63.19332-.04v63.71629h63.26348v63.09054h63.48931v63.11372l63.19332-.04v62.058825l.016229,1.082963l63.623481.000002v63.11372l63.19332-.04v63.71629h63.26348v63.17l-189.96-.00002Z" transform="matrix(1.001567 0 0 1.001567 306.480188 306.027121)" fill="none" stroke="#112148" stroke-width="3"/></g><mask id="e6YfBSFPzjV27" mask-type="luminance" x="-150%" y="-150%" height="400%" width="400%"><rect width="189.96" height="189.96" rx="0" ry="0" transform="translate(109.49 727.14)" fill="#fff"/></mask></g><rect width="189.978184" height="189.978184" rx="0" ry="0" transform="matrix(0-1 1 0 488.94007 917.090652)" fill="#f35654"/><g mask="url(#e6YfBSFPzjV38)"><rect width="189.96" height="189.96" rx="0" ry="0" transform="translate(489.22 537.18)" fill="#f8bf75"/><g transform="translate(.000001 0)"><polygon id="e6YfBSFPzjV33" points="678.8,725.09 488.83,725.09 583.82,630.11 678.8,725.09" transform="translate(0 1.97)" fill="#1a76f3"/><polygon id="e6YfBSFPzjV34" points="678.8,725.09 488.83,725.09 583.82,630.11 678.8,725.09" transform="translate(0 96.72976)" fill="#1a76f3"/><polygon id="e6YfBSFPzjV35" points="678.8,725.09 488.83,725.09 583.82,630.11 678.8,725.09" transform="translate(0 96.72976)" fill="#1a76f3"/><polygon points="678.8,725.09 488.83,725.09 583.82,630.11 678.8,725.09" transform="translate(0 96.72976)" fill="#1a76f3"/><polygon id="e6YfBSFPzjV37" points="678.8,632.09 488.83,632.09 583.82,537.1 678.8,632.09" fill="#1a76f3"/></g><mask id="e6YfBSFPzjV38" mask-type="luminance" x="-150%" y="-150%" height="400%" width="400%"><rect width="189.96" height="189.96" rx="0" ry="0" transform="translate(488.995597 537.18)" fill="#fff"/></mask></g><g clip-path="url(#e6YfBSFPzjV47)"><g><path d="M-94.44,0c0-16.56302,42.282228-29.99,94.44-29.99s94.44,13.42698,94.44,29.99-42.282228,29.99-94.44,29.99-94.44-13.42698-94.44-29.99Z" transform="translate(204.07 631.44)" fill="#81d0f7" stroke="#81d0f7"/><g id="e6YfBSFPzjV43" transform="matrix(1.145717 0 0 1.145717-30.014786-92.039229)"><circle r="40.14" transform="translate(205.98 631.63)" fill="#112148"/><circle r="20.98" transform="translate(205.98 631.63)" fill="#f8bf75"/></g><path id="e6YfBSFPzjV46" d="M-97.068419,0.607236c0-20.659872,44.207695-33.375356,96.365467-33.375356s96.835542,12.207026,96.835542,32.90528-44.67777,33.845432-96.835542,33.845432-96.365467-15.770659-96.365467-33.375356Z" transform="translate(204.07 631.44)" fill="none" stroke="#81d0f7" stroke-width="3"/></g><clipPath id="e6YfBSFPzjV47"><path id="e6YfBSFPzjV48" d="M-94.44,0c0-16.56302,42.282228-29.99,94.44-29.99s94.44,13.42698,94.44,29.99-42.282228,29.99-94.44,29.99-94.44-13.42698-94.44-29.99Z" transform="translate(204.07 631.44)" fill="none"/></clipPath></g><g transform="translate(1.86619-4.665475)" mask="url(#e6YfBSFPzjV63)"><g transform="translate(.014586 0.251104)"><g id="e6YfBSFPzjV51"><circle r="19.62" transform="translate(369.88 804.42)" fill="#1a76f3"/><circle r="19.62" transform="translate(362.88 797.42)" fill="#112148"/></g><g id="e6YfBSFPzjV54" transform="translate(-.5-.5)"><circle r="19.62" transform="translate(423.11 804.42)" fill="#1a76f3"/><circle r="19.62" transform="translate(416.11 797.42)" fill="#112148"/></g><g id="e6YfBSFPzjV57"><circle r="19.62" transform="translate(369.88 857.65)" fill="#1a76f3"/><circle r="19.62" transform="translate(362.88 850.65)" fill="#112148"/></g><g id="e6YfBSFPzjV60"><circle r="19.62" transform="translate(423.11 857.65)" fill="#1a76f3"/><circle r="19.62" transform="translate(416.11 850.65)" fill="#112148"/></g></g><mask id="e6YfBSFPzjV63" mask-type="luminance" x="-150%" y="-150%" height="400%" width="400%"><rect width="189.96" height="189.96" rx="0" ry="0" transform="translate(299.26 727.39)" fill="#fff"/></mask></g><g display="none" mask="url(#e6YfBSFPzjV118)"><g transform="translate(0 0.000001)"><g id="e6YfBSFPzjV67"><circle r="19.62" transform="translate(369.88 804.42)" fill="#1a76f3"/><circle r="19.62" transform="translate(362.88 797.42)" fill="#112148"/></g><g id="e6YfBSFPzjV70"><circle r="19.62" transform="translate(423.11 804.42)" fill="#1a76f3"/><circle r="19.62" transform="translate(416.11 797.42)" fill="#112148"/></g><g id="e6YfBSFPzjV73"><circle r="19.62" transform="translate(369.88 857.65)" fill="#1a76f3"/><circle r="19.62" transform="translate(362.88 850.65)" fill="#112148"/></g><g id="e6YfBSFPzjV76"><circle r="19.62" transform="translate(423.11 857.65)" fill="#1a76f3"/><circle r="19.62" transform="translate(416.11 850.65)" fill="#112148"/></g></g><g transform="translate(-137.921398-142.660143)"><g id="e6YfBSFPzjV80" transform="translate(-5.514626-.919105)"><circle r="19.62" transform="translate(369.88 804.42)" fill="#1a76f3"/><circle r="19.62" transform="translate(362.88 797.42)" fill="#112148"/></g><g id="e6YfBSFPzjV83" transform="translate(-5.514627 0.459552)"><circle r="19.62" transform="translate(423.11 804.42)" fill="#1a76f3"/><circle r="19.62" transform="translate(416.11 797.42)" fill="#112148"/></g><g id="e6YfBSFPzjV86" transform="translate(-2.700315-7.796612)"><circle r="19.62" transform="translate(369.88 857.65)" fill="#1a76f3"/><circle r="19.62" transform="translate(362.88 850.65)" fill="#112148"/></g><g id="e6YfBSFPzjV89" transform="translate(-2.338984-7.016951)"><circle r="19.62" transform="translate(423.11 857.65)" fill="#1a76f3"/><circle r="19.62" transform="translate(416.11 850.65)" fill="#112148"/></g></g><g transform="translate(-137.921398-142.660143)"><g id="e6YfBSFPzjV93" transform="translate(-5.514626-.919105)"><circle r="19.62" transform="translate(369.88 804.42)" fill="#1a76f3"/><circle r="19.62" transform="translate(362.88 797.42)" fill="#112148"/></g><g id="e6YfBSFPzjV96" transform="translate(-5.514627 0.459552)"><circle r="19.62" transform="translate(423.11 804.42)" fill="#1a76f3"/><circle r="19.62" transform="translate(416.11 797.42)" fill="#112148"/></g><g id="e6YfBSFPzjV99" transform="translate(-2.700315-7.796612)"><circle r="19.62" transform="translate(369.88 857.65)" fill="#1a76f3"/><circle r="19.62" transform="translate(362.88 850.65)" fill="#112148"/></g><g id="e6YfBSFPzjV102" transform="translate(-2.338984-7.016951)"><circle r="19.62" transform="translate(423.11 857.65)" fill="#1a76f3"/><circle r="19.62" transform="translate(416.11 850.65)" fill="#112148"/></g></g><g transform="translate(-137.921398-142.660143)"><g transform="translate(-5.514626-.919105)"><circle r="19.62" transform="translate(369.88 804.42)" fill="#1a76f3"/><circle r="19.62" transform="translate(362.88 797.42)" fill="#112148"/></g><g transform="translate(-5.514627 0.459552)"><circle r="19.62" transform="translate(423.11 804.42)" fill="#1a76f3"/><circle r="19.62" transform="translate(416.11 797.42)" fill="#112148"/></g><g transform="translate(-2.700315-7.796612)"><circle r="19.62" transform="translate(369.88 857.65)" fill="#1a76f3"/><circle r="19.62" transform="translate(362.88 850.65)" fill="#112148"/></g><g transform="translate(-2.338984-7.016951)"><circle r="19.62" transform="translate(423.11 857.65)" fill="#1a76f3"/><circle r="19.62" transform="translate(416.11 850.65)" fill="#112148"/></g></g><mask id="e6YfBSFPzjV118" mask-type="luminance" x="-150%" y="-150%" height="400%" width="400%"><rect width="189.96" height="189.96" rx="0" ry="0" transform="translate(299.26 727.39)" fill="#fff"/></mask></g><g mask="url(#e6YfBSFPzjV131)"><g transform="translate(-1.750007 0.000001)"><circle id="e6YfBSFPzjV122" r="19.92" transform="translate(395.33 705.17)" fill="none" stroke="#fff" stroke-width="3" stroke-miterlimit="10"/><circle id="e6YfBSFPzjV123" r="19.92" transform="matrix(0 0 0 0 395.286299 725.114963)" fill="none" stroke="#fff" stroke-width="3" stroke-miterlimit="10"/><circle id="e6YfBSFPzjV124" r="19.92" transform="matrix(0 0 0 0 395.286299 725.114963)" fill="none" stroke="#fff" stroke-width="3" stroke-miterlimit="10"/><circle r="19.92" transform="matrix(0 0 0 0 395.286299 725.114963)" fill="none" stroke="#fff" stroke-width="3" stroke-miterlimit="10"/><circle id="e6YfBSFPzjV128" r="19.92" transform="matrix(3.544919 0 0 3.544919 395.441216 654.411685)" fill="none" stroke="#fff" stroke-miterlimit="10"/><circle id="e6YfBSFPzjV129" r="19.92" transform="matrix(4.676059 0 0 4.676059 395.490647 631.851139)" fill="none" stroke="#fff" stroke-width="0.7" stroke-miterlimit="10"/><circle id="e6YfBSFPzjV130" r="19.92" transform="matrix(2.128765 0 0 2.128765 395.379328 682.656824)" fill="none" stroke="#fff" stroke-width="1.5" stroke-miterlimit="10"/></g><mask id="e6YfBSFPzjV131" mask-type="luminance" x="-150%" y="-150%" height="400%" width="400%"><rect width="189.96" height="189.96" rx="0" ry="0" transform="translate(298.98 537.18)" fill="#fff"/></mask></g><g transform="translate(-.246305-.023972)" mask="url(#e6YfBSFPzjV202)"><g transform="matrix(1.015687 0 0 1.015687-9.535891-13.030478)"><g transform="translate(1.000001 1)"><rect width="18.97" height="95.01" rx="0" ry="0" transform="matrix(0-1 1 0 488.58 745.17)" fill="#f8bf75"/><rect width="18.97" height="95.01" rx="0" ry="0" transform="matrix(0-1 1 0 488.57 782.9)" fill="#f8bf75"/><rect width="18.97" height="95.01" rx="0" ry="0" transform="matrix(0-1 1 0 488.57 820.77)" fill="#f8bf75"/><rect width="18.97" height="95.01" rx="0" ry="0" transform="matrix(0-1 1 0 488.58 858.62)" fill="#f8bf75"/><rect width="18.97" height="95.01" rx="0" ry="0" transform="matrix(0-1 1 0 488.58 896.49)" fill="#f8bf75"/><rect width="18.97" height="95.01" rx="0" ry="0" transform="matrix(0-1 1 0 583.44 764.04)" fill="#f8bf75"/><rect width="18.97" height="95.01" rx="0" ry="0" transform="matrix(0-1 1 0 583.44 801.75)" fill="#f8bf75"/><rect width="18.97" height="95.01" rx="0" ry="0" transform="matrix(0-1 1 0 583.44 839.65)" fill="#f8bf75"/><rect width="18.97" height="95.01" rx="0" ry="0" transform="matrix(0-1 1 0 583.44 877.47)" fill="#f8bf75"/><rect width="18.97" height="95.01" rx="0" ry="0" transform="matrix(0-1 1 0 583.44 915.37)" fill="#f8bf75"/></g><g transform="translate(.999999 152.385604)"><rect width="18.97" height="95.01" rx="0" ry="0" transform="matrix(0-1 1 0 488.58 745.17)" fill="#f8bf75"/><rect width="18.97" height="95.01" rx="0" ry="0" transform="matrix(0-1 1 0 488.57 782.9)" fill="#f8bf75"/><rect width="18.97" height="95.01" rx="0" ry="0" transform="matrix(0-1 1 0 488.57 820.77)" fill="#f8bf75"/><rect width="18.97" height="95.01" rx="0" ry="0" transform="matrix(0-1 1 0 488.58 858.62)" fill="#f8bf75"/><rect width="18.97" height="95.01" rx="0" ry="0" transform="matrix(0-1 1 0 488.58 896.49)" fill="#f8bf75"/><rect width="18.97" height="95.01" rx="0" ry="0" transform="matrix(0-1 1 0 583.44 764.04)" fill="#f8bf75"/><rect width="18.97" height="95.01" rx="0" ry="0" transform="matrix(0-1 1 0 583.44 801.75)" fill="#f8bf75"/><rect width="18.97" height="95.01" rx="0" ry="0" transform="matrix(0-1 1 0 583.44 839.65)" fill="#f8bf75"/><rect width="18.97" height="95.01" rx="0" ry="0" transform="matrix(0-1 1 0 583.44 877.47)" fill="#f8bf75"/><rect width="18.97" height="95.01" rx="0" ry="0" transform="matrix(0-1 1 0 583.44 915.37)" fill="#f8bf75"/></g><g transform="translate(.999999 341.559178)"><rect width="18.97" height="95.01" rx="0" ry="0" transform="matrix(0-1 1 0 488.58 745.17)" fill="#f8bf75"/><rect width="18.97" height="95.01" rx="0" ry="0" transform="matrix(0-1 1 0 488.57 782.9)" fill="#f8bf75"/><rect width="18.97" height="95.01" rx="0" ry="0" transform="matrix(0-1 1 0 488.57 820.77)" fill="#f8bf75"/><rect width="18.97" height="95.01" rx="0" ry="0" transform="matrix(0-1 1 0 488.58 858.62)" fill="#f8bf75"/><rect width="18.97" height="95.01" rx="0" ry="0" transform="matrix(0-1 1 0 488.58 896.49)" fill="#f8bf75"/><rect width="18.97" height="95.01" rx="0" ry="0" transform="matrix(0-1 1 0 583.44 764.04)" fill="#f8bf75"/><rect width="18.97" height="95.01" rx="0" ry="0" transform="matrix(0-1 1 0 583.44 801.75)" fill="#f8bf75"/><rect width="18.97" height="95.01" rx="0" ry="0" transform="matrix(0-1 1 0 583.44 839.65)" fill="#f8bf75"/><rect width="18.97" height="95.01" rx="0" ry="0" transform="matrix(0-1 1 0 583.44 877.47)" fill="#f8bf75"/><rect width="18.97" height="95.01" rx="0" ry="0" transform="matrix(0-1 1 0 583.44 915.37)" fill="#f8bf75"/></g></g><g id="e6YfBSFPzjV168" transform="matrix(1.015687 0 0 1.015687-9.535891-13.030478)"><g transform="translate(1.000001 1)"><rect width="18.97" height="95.01" rx="0" ry="0" transform="matrix(0-1 1 0 488.58 745.17)" fill="#81d0f7"/><rect width="18.97" height="95.01" rx="0" ry="0" transform="matrix(0-1 1 0 488.57 782.9)" fill="#81d0f7"/><rect width="18.97" height="95.01" rx="0" ry="0" transform="matrix(0-1 1 0 488.57 820.77)" fill="#81d0f7"/><rect width="18.97" height="95.01" rx="0" ry="0" transform="matrix(0-1 1 0 488.58 858.62)" fill="#81d0f7"/><rect width="18.97" height="95.01" rx="0" ry="0" transform="matrix(0-1 1 0 488.58 896.49)" fill="#81d0f7"/><rect width="18.97" height="95.01" rx="0" ry="0" transform="matrix(0-1 1 0 583.44 764.04)" fill="#81d0f7"/><rect width="18.97" height="95.01" rx="0" ry="0" transform="matrix(0-1 1 0 583.44 801.75)" fill="#81d0f7"/><rect width="18.97" height="95.01" rx="0" ry="0" transform="matrix(0-1 1 0 583.44 839.65)" fill="#81d0f7"/><rect width="18.97" height="95.01" rx="0" ry="0" transform="matrix(0-1 1 0 583.44 877.47)" fill="#81d0f7"/><rect width="18.97" height="95.01" rx="0" ry="0" transform="matrix(0-1 1 0 583.44 915.37)" fill="#81d0f7"/></g><g transform="translate(.999999 152.385604)"><rect width="18.97" height="95.01" rx="0" ry="0" transform="matrix(0-1 1 0 488.58 745.17)" fill="#81d0f7"/><rect width="18.97" height="95.01" rx="0" ry="0" transform="matrix(0-1 1 0 488.57 782.9)" fill="#81d0f7"/><rect width="18.97" height="95.01" rx="0" ry="0" transform="matrix(0-1 1 0 488.57 820.77)" fill="#81d0f7"/><rect width="18.97" height="95.01" rx="0" ry="0" transform="matrix(0-1 1 0 488.58 858.62)" fill="#81d0f7"/><rect width="18.97" height="95.01" rx="0" ry="0" transform="matrix(0-1 1 0 488.58 896.49)" fill="#81d0f7"/><rect width="18.97" height="95.01" rx="0" ry="0" transform="matrix(0-1 1 0 583.44 764.04)" fill="#81d0f7"/><rect width="18.97" height="95.01" rx="0" ry="0" transform="matrix(0-1 1 0 583.44 801.75)" fill="#81d0f7"/><rect width="18.97" height="95.01" rx="0" ry="0" transform="matrix(0-1 1 0 583.44 839.65)" fill="#81d0f7"/><rect width="18.97" height="95.01" rx="0" ry="0" transform="matrix(0-1 1 0 583.44 877.47)" fill="#81d0f7"/><rect width="18.97" height="95.01" rx="0" ry="0" transform="matrix(0-1 1 0 583.44 915.37)" fill="#81d0f7"/></g><g transform="translate(.999999 341.559178)"><rect width="18.97" height="95.01" rx="0" ry="0" transform="matrix(0-1 1 0 488.58 745.17)" fill="#81d0f7"/><rect width="18.97" height="95.01" rx="0" ry="0" transform="matrix(0-1 1 0 488.57 782.9)" fill="#81d0f7"/><rect width="18.97" height="95.01" rx="0" ry="0" transform="matrix(0-1 1 0 488.57 820.77)" fill="#81d0f7"/><rect width="18.97" height="95.01" rx="0" ry="0" transform="matrix(0-1 1 0 488.58 858.62)" fill="#81d0f7"/><rect width="18.97" height="95.01" rx="0" ry="0" transform="matrix(0-1 1 0 488.58 896.49)" fill="#81d0f7"/><rect width="18.97" height="95.01" rx="0" ry="0" transform="matrix(0-1 1 0 583.44 764.04)" fill="#81d0f7"/><rect width="18.97" height="95.01" rx="0" ry="0" transform="matrix(0-1 1 0 583.44 801.75)" fill="#81d0f7"/><rect width="18.97" height="95.01" rx="0" ry="0" transform="matrix(0-1 1 0 583.44 839.65)" fill="#81d0f7"/><rect width="18.97" height="95.01" rx="0" ry="0" transform="matrix(0-1 1 0 583.44 877.47)" fill="#81d0f7"/><rect width="18.97" height="95.01" rx="0" ry="0" transform="matrix(0-1 1 0 583.44 915.37)" fill="#81d0f7"/></g></g><mask id="e6YfBSFPzjV202" mask-type="luminance" x="-150%" y="-150%" height="400%" width="400%"><rect width="189.96" height="189.96" rx="0" ry="0" transform="matrix(0-1.000182 0.999824 0 489.050629 917.135855)" fill="#fff"/></mask></g><path id="e6YfBSFPzjV204" d="M304.5,126.73c0,0-4.26,49.24,47.35,68.66c32.67,10.89,131,13.41,130.69-36-.19-28.34-57.12-41.47-133.82,35.24C321,222.37,289.35,284.4,322.5,305.71C345.22,318,384.52,292,444.18,212c-16.57,23.2-26,32.22-35,60.61-5.74,17.39-5.2,36.45,7.11,37.87c22.9,1.61,52.51-21.39,75.28-65.12c26.1-50.22,10.43-56.6,10.43-56.6" transform="matrix(1.020476-.029374 0.029374 1.020476-17.473749 6.327419)" fill="none" stroke="#112148" stroke-width="4" stroke-linecap="round" stroke-linejoin="round" stroke-dashoffset="3889.54" stroke-dasharray="972.38582"/><rect width="189.96" height="189.96" rx="0" ry="0" transform="translate(488.913309 126.78)" fill="#f35654"/><g transform="translate(-3.99187-3.818314)" mask="url(#e6YfBSFPzjV211)"><g transform="matrix(1.176401 0 0 1.176401-98.278003-34.394381)"><circle id="e6YfBSFPzjV208" r="38.38" transform="matrix(.493452 0 0 0.493452 583.5 221.350003)" fill="none" stroke="#fff" stroke-width="75"/><circle id="e6YfBSFPzjV209" r="38.38" transform="matrix(0 0 0 0 583.5 221.350006)" fill="none" stroke="#fff" stroke-width="75"/><circle id="e6YfBSFPzjV210" r="38.38" transform="matrix(0 0 0 0 583.5 221.350006)" fill="none" stroke="#fff" stroke-width="75"/></g><mask id="e6YfBSFPzjV211" mask-type="luminance" x="-150%" y="-150%" height="400%" width="400%"><rect width="189.96" height="189.96" rx="0" ry="0" transform="translate(492.708422 130.536764)" fill="#fff"/></mask></g><g mask="url(#e6YfBSFPzjV223)"><g id="e6YfBSFPzjV214"><rect width="189.96" height="189.96" rx="0" ry="0" transform="matrix(4.015464 0 0 1.659921-177.188762 64.100707)" fill="#81d0f7"/><rect width="189.96" height="92.96" rx="0" ry="0" transform="matrix(3.87664 0 0 1.980334-164.038417 221.741966)" fill="#f35654"/><g transform="translate(-8.476494-.083732)"><rect width="42.41" height="42.41" rx="0" ry="0" transform="matrix(.707107-.707107 0.707107 0.707107 134.31746 191.950333)" fill="#fff"/><rect width="42.41" height="42.41" rx="0" ry="0" transform="matrix(.707107-.707107 0.707107 0.707107 229.303296 251.798053)" fill="#112148"/></g><g transform="translate(-198.644202-.083732)"><rect width="42.41" height="42.41" rx="0" ry="0" transform="matrix(.707107-.707107 0.707107 0.707107 134.31746 191.950333)" fill="#fff"/><rect width="42.41" height="42.41" rx="0" ry="0" transform="matrix(.707107-.707107 0.707107 0.707107 229.303296 251.798053)" fill="#112148"/></g></g><mask id="e6YfBSFPzjV223" mask-type="luminance" x="-150%" y="-150%" height="400%" width="400%"><rect width="189.96" height="189.96" rx="0" ry="0" transform="translate(109.22 126.78)" fill="#fff"/></mask></g></g></g>
<script><![CDATA[
(function(s,i,u,o,c,w,d,t,n,x,e,p,a,b){(a=Array.from(d.querySelectorAll('svg#' + i.root)).filter(n=> !n.svgatorPlayer)[0]||{}).svgatorPlayer={ready:(function(a){b=[];return function(c){return c?(b.push(c),a.svgatorPlayer):b}})(a)};w[o]=w[o]||{};w[o][s]=w[o][s]||[];w[o][s].push(i);e=d.createElementNS(n,t);e.async=true;e.setAttributeNS(x,'href',[u,s,'.','j','s','?','v','=',c].join(''));e.setAttributeNS(null,'src',[u,s,'.','j','s','?','v','=',c].join(''));p=d.getElementsByTagName(t)[0];p.parentNode.insertBefore(e,p);})('91c80d77',{"root":"e6YfBSFPzjV1","version":"2024-09-05","animations":[{"elements":{"e6YfBSFPzjV19":{"transform":{"data":{"s":{"x":1.001567,"y":1.001567},"t":{"x":-140.508884,"y":-850.072787}},"keys":{"o":[{"t":0,"v":{"x":457.473294,"y":1166.762922,"type":"corner"}},{"t":500,"v":{"x":394.104985,"y":1103.68911,"type":"corner"}},{"t":1000,"v":{"x":394.104985,"y":1103.68911,"type":"corner","start":{"x":394.104985,"y":1103.68911},"end":{"x":394.104985,"y":1103.68911}}},{"t":1500,"v":{"x":331.190414,"y":1040.774539,"type":"corner","start":{"x":331.190414,"y":1040.774539}}},{"t":2000,"v":{"x":331.190414,"y":1040.774539,"type":"corner","start":{"x":331.190414,"y":1040.774539}}}]}}},"e6YfBSFPzjV20":{"transform":{"data":{"s":{"x":1.001567,"y":1.001567},"t":{"x":-140.508884,"y":-850.072787}},"keys":{"o":[{"t":0,"v":{"x":447.209249,"y":1157.431972,"type":"corner"}},{"t":500,"v":{"x":383.84094,"y":1094.35816,"type":"corner"}},{"t":1000,"v":{"x":383.84094,"y":1094.35816,"type":"corner","start":{"x":383.84094,"y":1094.35816},"end":{"x":383.84094,"y":1094.35816}}},{"t":1500,"v":{"x":320.165682,"y":1030.821208,"type":"corner","start":{"x":320.165682,"y":1030.821208}}},{"t":2000,"v":{"x":320.165682,"y":1030.821208,"type":"corner","start":{"x":320.165682,"y":1030.821208},"end":{"x":320.165682,"y":1030.821208}}}]}}},"e6YfBSFPzjV25":{"transform":{"data":{"s":{"x":1.001567,"y":1.001567},"t":{"x":-140.508884,"y":-850.072787}},"keys":{"o":[{"t":0,"v":{"x":457.473294,"y":1166.762922,"type":"cusp","end":{"x":403.933476,"y":1113.306097}}},{"t":2000,"v":{"x":330.443055,"y":1040.303331,"type":"cusp","start":{"x":361.335481,"y":1071.14787},"end":{"x":288.219376,"y":998.145104}}}]}}},"e6YfBSFPzjV26":{"transform":{"data":{"s":{"x":1.001567,"y":1.001567},"t":{"x":-140.508884,"y":-850.072787}},"keys":{"o":[{"t":0,"v":{"x":447.209249,"y":1157.431972,"type":"cusp","end":{"x":393.408036,"y":1103.9767}}},{"t":2000,"v":{"x":319.931263,"y":1030.972381,"type":"cusp","start":{"x":350.97788,"y":1061.819369},"end":{"x":277.501107,"y":988.815051}}}]}}},"e6YfBSFPzjV33":{"transform":{"data":{"t":{"x":-583.810766,"y":-630.118093}},"keys":{"o":[{"t":0,"v":{"x":583.810766,"y":632.088093,"type":"corner"},"e":[0.075,0.82,0.165,1]},{"t":1000,"v":{"x":583.810766,"y":537.131092,"type":"corner"}}],"s":[{"t":1000,"v":{"x":1,"y":1},"e":[0.075,0.82,0.165,1]},{"t":2000,"v":{"x":0,"y":0}}]}}},"e6YfBSFPzjV34":{"transform":{"data":{"t":{"x":-583.810766,"y":-630.118093}},"keys":{"o":[{"t":0,"v":{"x":583.810766,"y":726.847853,"type":"corner"},"e":[0.075,0.82,0.165,1]},{"t":1000,"v":{"x":583.810766,"y":632.088093,"type":"corner"},"e":[0.075,0.82,0.165,1]},{"t":2000,"v":{"x":583.810766,"y":537.131092,"type":"corner"}}]}}},"e6YfBSFPzjV35":{"transform":{"data":{"t":{"x":-583.810766,"y":-630.118093}},"keys":{"o":[{"t":1000,"v":{"x":583.810766,"y":726.847853,"type":"corner"},"e":[0.075,0.82,0.165,1]},{"t":2000,"v":{"x":583.810766,"y":632.088093,"type":"corner"},"e":[0.39,0.575,0.565,1]}]}}},"e6YfBSFPzjV37":{"transform":{"data":{"o":{"x":583.906928,"y":537.027655,"type":"corner"},"t":{"x":-583.906928,"y":-537.027655}},"keys":{"s":[{"t":0,"v":{"x":1,"y":1},"e":[0.075,0.82,0.165,1]},{"t":1000,"v":{"x":0,"y":0}}]}}},"e6YfBSFPzjV43":{"transform":{"data":{"s":{"x":1.145717,"y":1.145717},"t":{"x":-205.979995,"y":-631.630005}},"keys":{"o":[{"t":0,"v":{"x":205.979996,"y":631.630005,"type":"corner"},"e":[0.075,0.82,0.165,1]},{"t":1000,"v":{"x":256.063371,"y":631.630005,"type":"corner","start":{"x":256.063371,"y":631.630005},"end":{"x":256.063371,"y":631.630005}},"e":[0.075,0.82,0.165,1]},{"t":2000,"v":{"x":205.979996,"y":631.630005,"type":"corner","start":{"x":205.979996,"y":631.630005}},"e":[0.075,0.82,0.165,1]}]}}},"e6YfBSFPzjV46":{"d":[{"t":1530,"v":["M",-97.068419,0.607236,"C",-97.068419,-20.052636,-52.860724,-32.76812,-0.702952,-32.76812,"C",51.454821,-32.76812,96.13259,-20.561094,96.13259,0.13716,"C",96.13259,20.835414,51.45482,33.982592,-0.702952,33.982592,"C",-52.860724,33.982592,-97.068419,18.211933,-97.068419,0.607236,"Z"],"e":[1,1]},{"t":1600,"v":["M",-94.44,0,"C",-91.581079,16.404517,-52.157771,27.064388,0.000001,27.064388,"C",52.157773,27.064388,90.455367,16.131189,94.44,0,"C",94.44,16.56302,52.157772,29.99,0,29.99,"C",-52.157772,29.99,-94.44,16.56302,-94.44,0,"Z"],"e":[1,0]},{"t":1680,"v":["M",-97.068419,0.607236,"C",-97.068419,-20.052636,-52.860724,-32.76812,-0.702952,-32.76812,"C",51.454821,-32.76812,96.13259,-20.561094,96.13259,0.13716,"C",96.13259,20.835414,51.45482,33.982592,-0.702952,33.982592,"C",-52.860724,33.982592,-97.068419,18.211933,-97.068419,0.607236,"Z"],"e":[1,1]}]},"e6YfBSFPzjV48":{"d":[{"t":1530,"v":["M",-94.44,0,"C",-94.44,-16.56302,-52.157772,-29.99,0,-29.99,"C",52.157772,-29.99,94.44,-16.56302,94.44,0,"C",94.44,16.56302,52.157772,29.99,0,29.99,"C",-52.157772,29.99,-94.44,16.56302,-94.44,0,"Z"],"e":[1,1]},{"t":1600,"v":["M",-94.44,0,"C",-93.814445,16.874385,-52.157772,29.971841,0,29.971841,"C",52.157772,29.971841,94.378869,16.134911,94.44,0,"C",88.228759,16.684535,48.169721,26.745368,0.031581,26.733037,"C",-48.106559,26.720732,-85.470429,17.19831,-94.44,0,"Z"],"e":[1,0]},{"t":1680,"v":["M",-94.44,0,"C",-94.44,-16.56302,-52.157772,-29.99,0,-29.99,"C",52.157772,-29.99,94.44,-16.56302,94.44,0,"C",94.44,16.56302,52.157772,29.99,0,29.99,"C",-52.157772,29.99,-94.44,16.56302,-94.44,0,"Z"]}]},"e6YfBSFPzjV51":{"transform":{"data":{"t":{"x":-365.880005,"y":-800.419983}},"keys":{"o":[{"t":0,"v":{"x":365.880005,"y":800.419983,"type":"corner"},"e":[0.075,0.82,0.165,1]},{"t":1000,"v":{"x":395.524567,"y":774.677949,"type":"corner"},"e":[0.075,0.82,0.165,1]},{"t":2000,"v":{"x":365.880005,"y":800.419983,"type":"corner","start":{"x":365.880005,"y":800.419983}},"e":[0.075,0.82,0.165,1]}]}}},"e6YfBSFPzjV54":{"transform":{"data":{"t":{"x":-419.609985,"y":-800.919983}},"keys":{"o":[{"t":0,"v":{"x":419.109985,"y":800.419983,"type":"corner"},"e":[0.075,0.82,0.165,1]},{"t":1000,"v":{"x":445.943396,"y":830.324362,"type":"corner"},"e":[0.075,0.82,0.165,1]},{"t":2000,"v":{"x":419.109985,"y":800.419983,"type":"corner","start":{"x":419.109985,"y":800.419983}},"e":[0.075,0.82,0.165,1]}]}}},"e6YfBSFPzjV57":{"transform":{"data":{"t":{"x":-365.880005,"y":-853.650025}},"keys":{"o":[{"t":0,"v":{"x":365.880005,"y":853.650025,"type":"corner"},"e":[0.075,0.82,0.165,1]},{"t":1000,"v":{"x":338.993205,"y":827.146876,"type":"corner"},"e":[0.075,0.82,0.165,1]},{"t":2000,"v":{"x":365.880005,"y":853.650025,"type":"corner","start":{"x":365.880005,"y":853.650025}},"e":[0.075,0.82,0.165,1]}]}}},"e6YfBSFPzjV60":{"transform":{"data":{"t":{"x":-419.109985,"y":-853.650025}},"keys":{"o":[{"t":0,"v":{"x":419.109985,"y":853.650025,"type":"corner"},"e":[0.075,0.82,0.165,1]},{"t":1000,"v":{"x":395.254622,"y":880.805183,"type":"corner"},"e":[0.075,0.82,0.165,1]},{"t":2000,"v":{"x":419.109985,"y":853.650025,"type":"corner","start":{"x":419.109985,"y":853.650025}},"e":[0.075,0.82,0.165,1]}]}}},"e6YfBSFPzjV67":{"transform":{"data":{"t":{"x":-365.880005,"y":-800.419983}},"keys":{"o":[{"t":0,"v":{"x":365.880005,"y":800.419983,"type":"corner"},"e":[0.6,-0.28,0.735,0.045]},{"t":500,"v":{"x":506.137866,"y":941.355706,"type":"corner"}}]}}},"e6YfBSFPzjV70":{"transform":{"data":{"t":{"x":-419.109985,"y":-800.419983}},"keys":{"o":[{"t":0,"v":{"x":419.109985,"y":800.419983,"type":"corner"},"e":[0.6,-0.28,0.735,0.045]},{"t":480,"v":{"x":560.14397,"y":939.606779,"type":"corner"}}]}}},"e6YfBSFPzjV73":{"transform":{"data":{"t":{"x":-365.880005,"y":-853.650025}},"keys":{"o":[{"t":0,"v":{"x":365.880005,"y":853.650025,"type":"corner"},"e":[0.6,-0.28,0.735,0.045]},{"t":460,"v":{"x":506.703097,"y":994.163883,"type":"corner"}}]}}},"e6YfBSFPzjV76":{"transform":{"data":{"t":{"x":-419.109985,"y":-853.650025}},"keys":{"o":[{"t":0,"v":{"x":419.109985,"y":853.650025,"type":"corner"},"e":[0.6,-0.28,0.735,0.045]},{"t":460,"v":{"x":560.750364,"y":994.829653,"type":"corner"}}]}}},"e6YfBSFPzjV80":{"transform":{"data":{"t":{"x":-365.880005,"y":-800.419983}},"keys":{"o":[{"t":0,"v":{"x":360.365379,"y":799.500878,"type":"corner"},"e":[0.47,0,0.745,0.715]},{"t":650,"v":{"x":503.704973,"y":943.030097,"type":"corner"}},{"t":900,"v":{"x":503.704973,"y":943.030097,"type":"corner"},"e":[0.6,-0.28,0.735,0.045]},{"t":1500,"v":{"x":644.307605,"y":1083.63273,"type":"corner"}}]}}},"e6YfBSFPzjV83":{"transform":{"data":{"t":{"x":-419.109985,"y":-800.419983}},"keys":{"o":[{"t":0,"v":{"x":413.595358,"y":800.879535,"type":"corner"},"e":[0.47,0,0.745,0.715]},{"t":630,"v":{"x":557.08442,"y":943.215135,"type":"corner"}},{"t":900,"v":{"x":557.08442,"y":943.215135,"type":"corner"},"e":[0.6,-0.28,0.735,0.045]},{"t":1480,"v":{"x":698.41368,"y":1084.544396,"type":"corner"}}]}}},"e6YfBSFPzjV86":{"transform":{"data":{"t":{"x":-365.880005,"y":-853.650025}},"keys":{"o":[{"t":0,"v":{"x":363.17969,"y":845.853413,"type":"corner"},"e":[0.47,0,0.745,0.715]},{"t":610,"v":{"x":503.69399,"y":996.292814,"type":"corner"}},{"t":900,"v":{"x":503.69399,"y":996.292814,"type":"corner"},"e":[0.6,-0.28,0.735,0.045]},{"t":1460,"v":{"x":644.296618,"y":1136.895442,"type":"corner"}}]}}},"e6YfBSFPzjV89":{"transform":{"data":{"t":{"x":-419.109985,"y":-853.650025}},"keys":{"o":[{"t":0,"v":{"x":416.771001,"y":846.633074,"type":"corner"},"e":[0.47,0,0.745,0.715]},{"t":610,"v":{"x":557.002517,"y":996.345209,"type":"corner"}},{"t":900,"v":{"x":557.002517,"y":996.345209,"type":"corner"},"e":[0.6,-0.28,0.735,0.045]},{"t":1460,"v":{"x":697.968466,"y":1137.311155,"type":"corner"}}]}}},"e6YfBSFPzjV93":{"transform":{"data":{"t":{"x":-365.880005,"y":-800.419983}},"keys":{"o":[{"t":1000,"v":{"x":360.365379,"y":799.500878,"type":"corner"},"e":[0.47,0,0.745,0.715]},{"t":1700,"v":{"x":503.704973,"y":943.030097,"type":"corner"}},{"t":1900,"v":{"x":503.704973,"y":943.030097,"type":"corner"},"e":[0.6,-0.28,0.735,0.045]},{"t":2500,"v":{"x":644.307605,"y":1083.63273,"type":"corner"}}]}}},"e6YfBSFPzjV96":{"transform":{"data":{"t":{"x":-419.109985,"y":-800.419983}},"keys":{"o":[{"t":1000,"v":{"x":413.595358,"y":800.879535,"type":"corner"},"e":[0.47,0,0.745,0.715]},{"t":1650,"v":{"x":557.08442,"y":943.215135,"type":"corner"}},{"t":1900,"v":{"x":557.08442,"y":943.215135,"type":"corner"},"e":[0.6,-0.28,0.735,0.045]},{"t":2480,"v":{"x":698.41368,"y":1084.544396,"type":"corner"}}]}}},"e6YfBSFPzjV99":{"transform":{"data":{"t":{"x":-365.880005,"y":-853.650025}},"keys":{"o":[{"t":1000,"v":{"x":363.17969,"y":845.853413,"type":"corner"},"e":[0.47,0,0.745,0.715]},{"t":1600,"v":{"x":503.69399,"y":996.292814,"type":"corner"}},{"t":1900,"v":{"x":503.69399,"y":996.292814,"type":"corner"},"e":[0.6,-0.28,0.735,0.045]},{"t":2470,"v":{"x":644.296618,"y":1136.895442,"type":"corner"}}]}}},"e6YfBSFPzjV102":{"transform":{"data":{"t":{"x":-419.109985,"y":-853.650025}},"keys":{"o":[{"t":1000,"v":{"x":416.771001,"y":846.633074,"type":"corner"},"e":[0.47,0,0.745,0.715]},{"t":1600,"v":{"x":557.002517,"y":996.345209,"type":"corner"}},{"t":1900,"v":{"x":557.002517,"y":996.345209,"type":"corner"},"e":[0.6,-0.28,0.735,0.045]},{"t":2470,"v":{"x":697.968466,"y":1137.311155,"type":"corner"}}]}}},"e6YfBSFPzjV122":{"transform":{"data":{"o":{"x":395.286299,"y":725.114963,"type":"corner"},"t":{"x":0.043701,"y":-19.944963}},"keys":{"s":[{"t":0,"v":{"x":1,"y":1},"e":[0.215,0.61,0.355,1]},{"t":1000,"v":{"x":2.128765,"y":2.128765},"e":[0.215,0.61,0.355,1]},{"t":2000,"v":{"x":3.544919,"y":3.544919}}]}},"stroke-width":[{"t":0,"v":3,"e":[0.215,0.61,0.355,1]},{"t":1000,"v":1.5,"e":[0.215,0.61,0.355,1]},{"t":2000,"v":1}]},"e6YfBSFPzjV123":{"transform":{"data":{"o":{"x":395.286299,"y":725.114963,"type":"corner"},"t":{"x":0.043701,"y":-19.944963}},"keys":{"s":[{"t":0,"v":{"x":0,"y":0},"e":[0.215,0.61,0.355,1]},{"t":1000,"v":{"x":1,"y":1},"e":[0.215,0.61,0.355,1]},{"t":2000,"v":{"x":2.128765,"y":2.128765}}]}},"stroke-width":[{"t":990,"v":3,"e":[0.215,0.61,0.355,1]},{"t":2000,"v":1.5}]},"e6YfBSFPzjV124":{"transform":{"data":{"o":{"x":395.286299,"y":725.114963,"type":"corner"},"t":{"x":0.043701,"y":-19.944963}},"keys":{"s":[{"t":1000,"v":{"x":0,"y":0},"e":[0.215,0.61,0.355,1]},{"t":2000,"v":{"x":1,"y":1}}]}}},"e6YfBSFPzjV128":{"transform":{"data":{"o":{"x":395.286299,"y":725.114963,"type":"corner"},"t":{"x":0.043701,"y":-19.944963}},"keys":{"s":[{"t":0,"v":{"x":3.544919,"y":3.544919},"e":[0.215,0.61,0.355,1]},{"t":1000,"v":{"x":4.676059,"y":4.676059},"e":[0.215,0.61,0.355,1]},{"t":2000,"v":{"x":5.906178,"y":5.906178}}]}},"opacity":[{"t":1000,"v":1,"e":[0.175,0.885,0.32,1.275]},{"t":1800,"v":0}],"stroke-width":[{"t":0,"v":1,"e":[0.215,0.61,0.355,1]},{"t":1000,"v":0.7}]},"e6YfBSFPzjV129":{"transform":{"data":{"o":{"x":395.286299,"y":725.114963,"type":"corner"},"t":{"x":0.043701,"y":-19.944963}},"keys":{"s":[{"t":0,"v":{"x":4.676059,"y":4.676059},"e":[0.215,0.61,0.355,1]},{"t":1000,"v":{"x":5.906178,"y":5.906178}}]}},"opacity":[{"t":0,"v":1,"e":[0.175,0.885,0.32,1.275]},{"t":800,"v":0}]},"e6YfBSFPzjV130":{"transform":{"data":{"o":{"x":395.286299,"y":725.114963,"type":"corner"},"t":{"x":0.043701,"y":-19.944963}},"keys":{"s":[{"t":0,"v":{"x":2.128765,"y":2.128765},"e":[0.215,0.61,0.355,1]},{"t":1000,"v":{"x":3.544919,"y":3.544919},"e":[0.215,0.61,0.355,1]},{"t":2000,"v":{"x":4.676059,"y":4.676059}}]}},"stroke-width":[{"t":0,"v":1.5,"e":[0.215,0.61,0.355,1]},{"t":1000,"v":1,"e":[0.215,0.61,0.355,1]},{"t":2000,"v":0.7}]},"e6YfBSFPzjV168":{"transform":{"data":{"s":{"x":1.015687,"y":1.015687},"t":{"x":-584.510009,"y":-992.064606}},"keys":{"o":[{"t":0,"v":{"x":584.143327,"y":994.596645,"type":"corner"},"e":[0.075,0.82,0.165,1]},{"t":1000,"v":{"x":584.143327,"y":975.061296,"type":"corner"},"e":[0.075,0.82,0.165,1]},{"t":2000,"v":{"x":584.143327,"y":956.689402,"type":"corner"},"e":[0.215,0.61,0.355,1]}]}}},"e6YfBSFPzjV204":{"stroke-dashoffset":[{"t":0,"v":3889.54,"e":[0.645,0.045,0.355,1]},{"t":2000,"v":1944.77}]},"e6YfBSFPzjV208":{"transform":{"data":{"o":{"x":583.5,"y":221.350006,"type":"corner"},"t":{"x":0,"y":-0.000006}},"keys":{"s":[{"t":0,"v":{"x":0.493452,"y":0.493452},"e":[0.075,0.82,0.165,1]},{"t":1000,"v":{"x":3.718001,"y":3.718001}}]}},"stroke-width":[{"t":0,"v":75,"e":[0.03,1.405,0.145,0.88]},{"t":400,"v":1}]},"e6YfBSFPzjV209":{"transform":{"data":{"o":{"x":583.5,"y":221.350006,"type":"corner"},"t":{"x":0,"y":-0.000006}},"keys":{"s":[{"t":0,"v":{"x":0,"y":0},"e":[0.075,0.82,0.165,1]},{"t":1000,"v":{"x":0.493452,"y":0.493452},"e":[0.075,0.82,0.165,1]},{"t":2000,"v":{"x":3.718001,"y":3.718001}}]}},"stroke-width":[{"t":1000,"v":75,"e":[0.03,1.405,0.145,0.88]},{"t":1400,"v":1}]},"e6YfBSFPzjV210":{"transform":{"data":{"o":{"x":583.5,"y":221.350006,"type":"corner"},"t":{"x":0,"y":-0.000006}},"keys":{"s":[{"t":1000,"v":{"x":0,"y":0},"e":[0.075,0.82,0.165,1]},{"t":2000,"v":{"x":0.493452,"y":0.493452},"e":[0,0,0.58,1]}]}}},"e6YfBSFPzjV214":{"transform":{"data":{"t":{"x":-204.199997,"y":-234.967255}},"keys":{"o":[{"t":0,"v":{"x":204.199997,"y":234.967255,"type":"corner"},"e":[0.075,0.82,0.165,1]},{"t":1000,"v":{"x":299.506563,"y":234.967255,"type":"corner"},"e":[0.075,0.82,0.165,1]},{"t":2000,"v":{"x":394.813131,"y":234.967255,"type":"corner"}}]}}}},"s":"MDYA1ZGNiNzJiNTGM1YzJiMVhjQNGI5YmZiZTcQyOGE4MjgwODVA4MDdjNzJiNCGI5YzJiNWIzVYzRiOWJmYmUM3MjhhODE3YzXcyYjljNEdiNSWMyYjFjNGI5MYmZiZWMzNzIR4YTgwN2M3MmEI2YjliY2JjNKzI4YTgxSDdjBRzcyYjFUYmNQjNE1iNWMyYmCViMWM0YjU3MEjhhYjZiMWJjHYzNiNTdjNzJGjM2MwSEJiNWEI1YjQ3MjhhOODE3YzcyYjZjEMGMzNzI4YTgWxODA4MGNk"}],"options":"MDLAxZTkyMzk4YCUU4Yjc4ODk4OYk8zOTUxMzkG4YTdhODk4NjDgzODMzOTQzMEzk4YTdhODk4ANjgzODMzOTUDxNDk0Yzk0"},'https://cdn.svgator.com/ply/','__SVGATOR_PLAYER__','2024-09-05',window,document,'script','http://www.w3.org/2000/svg','http://www.w3.org/1999/xlink')
]]></script>
</svg>
