<svg id="ej5Z4pOr6cb1" xmlns="http://www.w3.org/2000/svg" xmlns:xlink="http://www.w3.org/1999/xlink" viewBox="0 0 700 400" shape-rendering="geometricPrecision" text-rendering="geometricPrecision" project-id="e7ebe6b785a145d4a088e10d98e06322" export-id="b0958db61598469387c30a471bdba0e8" cached="false" style="background-color:#fff"><g display="none" transform="matrix(3.203853 0 0 3.203853 55.879096 52.359063)"><g mask="url(#ej5Z4pOr6cb39)"><path id="ej5Z4pOr6cb4" d="M50,28.42C23.11,3.6,-10.83,46.93,50,78.94C110.83,46.93,76.89,3.6,50,28.42Z" transform="matrix(0 0 0 0 45.027546 37.3023)" fill="#f6d1d1"/><g id="ej5Z4pOr6cb5" transform="matrix(.989292 0.145953-.145953 0.989292-7.611459 92.632341)"><path d="M61.09,78.22h17.65v7.7c0,2.209139-1.790861,4-4,4h-9.65c-2.209139,0-4-1.790861-4-4v-7.7Z" fill="#ffa1a1" stroke="#3b3c3d" stroke-linecap="round" stroke-linejoin="round"/><polygon points="78.73,73.61 61.09,73.61 61.09,18.53 69.91,13.54 78.73,18.53 78.73,73.61" fill="#f36f4f" fill-rule="evenodd" stroke-miterlimit="10"/><path d="M61.09,18.53h17.65L72.4,1.73c-.373041-1.061078-1.375257-1.77108-2.5-1.77108s-2.126959.710002-2.5,1.77108Z" fill="#f6f5fa" fill-rule="evenodd"/><path d="M65.28,7.42h9.27L72.4,1.73c-.373041-1.061078-1.375257-1.77108-2.5-1.77108s-2.126959.710002-2.5,1.77108Z" fill="#0d7ef9" fill-rule="evenodd"/><path d="M78.558194,22.850063l.020962,5.852292" fill="none" fill-rule="evenodd" stroke="#3b3c3d" stroke-linecap="round" stroke-linejoin="round"/><path d="M78.58761,31.062781L78.74,73.61h-17.65v-55.08l6.34-16.8c.373041-1.061078,1.375257-1.77108,2.5-1.77108s2.126959.710002,2.5,1.77108l6.34,16.8" fill="none" fill-rule="evenodd" stroke="#3b3c3d" stroke-linecap="round" stroke-linejoin="round"/><g><path d="M78.542274,26.54307l.097903,37.763896" transform="translate(-5.463422 9.139535)" fill="none" fill-rule="evenodd" stroke="#3b3c3d" stroke-linecap="round" stroke-linejoin="round"/><path d="M78.635002,46.372297l.005175,17.934669" transform="translate(-12.084509 9.169844)" fill="none" fill-rule="evenodd" stroke="#3b3c3d" stroke-linecap="round" stroke-linejoin="round"/><path d="M78.609628,19.85438l-.12615,31.48022" transform="translate(-11.998359-.938955)" fill="none" fill-rule="evenodd" stroke="#3b3c3d" stroke-linecap="round" stroke-linejoin="round"/><path d="M78.668199,21.14807l-.089043,7.554285" transform="matrix(.940202 0 0 1-.814916 3.134111)" fill="none" fill-rule="evenodd" stroke="#3b3c3d" stroke-linecap="round" stroke-linejoin="round"/><path d="M78.38486,20.637109l-.008284,2.085741" transform="matrix(.940202 0 0 1-.61745-1.943066)" fill="none" fill-rule="evenodd" stroke="#3b3c3d" stroke-linecap="round" stroke-linejoin="round"/></g><path d="M78.38486,20.637109l.328187.777057" transform="matrix(.940202 0 0 1-3.206918-18.127684)" fill="none" fill-rule="evenodd" stroke="#3b3c3d" stroke-linecap="round" stroke-linejoin="round"/><line x1="61.09" y1="18.53" x2="78.74" y2="18.53" fill="none" stroke="#3b3c3d" stroke-linecap="round" stroke-linejoin="round"/><g id="ej5Z4pOr6cb20"><path d="M71.08,15.52c-.055809.601727-.56069,1.061949-1.165,1.061949s-1.109191-.460222-1.165-1.061949Z" fill="#3b3c3d" fill-rule="evenodd"/><ellipse rx="0.44" ry="0.85" transform="translate(68.31 14.09)" fill="#3b3c3d"/><ellipse rx="0.44" ry="0.85" transform="translate(71.52 14.09)" fill="#3b3c3d"/></g></g><g id="ej5Z4pOr6cb24" transform="matrix(.962913-.269812 0.269812 0.962913 4.856368 105.983367)"><rect width="25.02" height="11.78" rx="0" ry="0" transform="translate(19.52 69.79)" fill="#0d7ef9" stroke="#3b3c3d" stroke-linecap="round" stroke-linejoin="round"/><path d="M11.33,40.83l8.09,24.31h25.22l8.08-24.31c.249558-.753891.169682-1.578062-.22-2.27L34.45,7c-.500138-.866449-1.424564-1.400223-2.425-1.400223s-1.924862.533774-2.425,1.400223l-18,31.54c-.417255.688258-.515742,1.523572-.27,2.29Z" fill="#a8d1fd" stroke-linecap="round" stroke-linejoin="round"/><path d="M48.516329,53.477435L52.72,40.83c.249558-.753891.169682-1.578062-.22-2.27L40.771566,18.053113" fill="none" stroke="#3b3c3d" stroke-linecap="round" stroke-linejoin="round"/><path d="M39.638431,16.07185L34.45,7c-.500138-.866449-1.424564-1.400223-2.425-1.400223s-1.924862.533774-2.425,1.400223l-18,31.54c-.417255.688258-.515742,1.523572-.27,2.29l8.09,24.31h25.22" fill="none" stroke="#3b3c3d" stroke-linecap="round" stroke-linejoin="round"/><path d="M46.436649,59.734495l.922935-2.776804" fill="none" stroke="#3b3c3d" stroke-linecap="round" stroke-linejoin="round"/><path d="M50.263198,63.143003c-1.198878-2.414895-3.469614-8.160976-4.885802-5.776267" transform="translate(-14.233029-48.624126)" fill="none" stroke="#3b3c3d" stroke-linecap="round" stroke-linejoin="round"/><path d="M51.445645,65.355863c0,0-.345788-.609407-.345788-.609407" transform="translate(-14.233029-48.624126)" fill="none" stroke="#3b3c3d" stroke-linecap="round" stroke-linejoin="round"/><path d="M54.863777,75.337576c0,0-3.76392-10.59112-3.76392-10.59112" transform="translate(-33.83484-12.511291)" fill="none" stroke="#3b3c3d" stroke-linecap="round" stroke-linejoin="round"/><circle r="4.92" transform="translate(32.03 39.66)" fill="#3b3c3d"/><line x1="31.877565" y1="13.866972" x2="32.03" y2="34.74" fill="none" stroke="#3b3c3d" stroke-linecap="round" stroke-linejoin="round"/><g id="ej5Z4pOr6cb35"><path d="M33.19,40.56c-.055809.601727-.56069,1.061949-1.165,1.061949s-1.109191-.460222-1.165-1.061949Z" fill="#f6f5fa" fill-rule="evenodd"/><ellipse rx="0.44" ry="0.85" transform="translate(30.42 39.13)" fill="#f6f5fa"/><ellipse rx="0.44" ry="0.85" transform="translate(33.63 39.13)" fill="#f6f5fa"/></g></g><mask id="ej5Z4pOr6cb39" mask-type="luminance" x="-150%" y="-150%" height="400%" width="400%"><rect width="309.242977" height="309.242977" rx="0" ry="0" transform="matrix(.414587 0 0 0.414587-19.120438-32.283199)" fill="#fff" stroke-width="0"/></mask></g><path id="ej5Z4pOr6cb41" d="M137.593617,316.53442h125.742348" transform="translate(-155.48117-220.489482)" opacity="0" fill="none" stroke="#3b3c3d" stroke-dasharray="10,0"/><path id="ej5Z4pOr6cb42" d="M148.928661,315.837852h102.236305" transform="translate(-155.063194-219.792914)" fill="none" stroke="#3b3c3d" stroke-dashoffset="51.12" stroke-dasharray="0,102.24"/></g><g transform="matrix(3.203853 0 0 3.203853 205.879096 52.359063)"><g mask="url(#ej5Z4pOr6cb80)"><path id="ej5Z4pOr6cb45" d="M50,28.42c-35.529223,0-35.529232,50.52,0,50.52s35.529223-50.52,0-50.52Z" transform="matrix(1.3 0 0 1.3-19.972448-27.794386)" fill="#f6d1d1"/><g id="ej5Z4pOr6cb46" transform="matrix(.989292 0.145953-.145953 0.989292-7.611459 92.632341)"><path d="M61.09,78.22h17.65v7.7c0,2.209139-1.790861,4-4,4h-9.65c-2.209139,0-4-1.790861-4-4v-7.7Z" fill="#ffa1a1" stroke="#3b3c3d" stroke-linecap="round" stroke-linejoin="round"/><polygon points="78.73,73.61 61.09,73.61 61.09,18.53 69.91,13.54 78.73,18.53 78.73,73.61" fill="#f36f4f" fill-rule="evenodd" stroke-miterlimit="10"/><path d="M61.09,18.53h17.65L72.4,1.73c-.373041-1.061078-1.375257-1.77108-2.5-1.77108s-2.126959.710002-2.5,1.77108Z" fill="#f6f5fa" fill-rule="evenodd"/><path d="M65.28,7.42h9.27L72.4,1.73c-.373041-1.061078-1.375257-1.77108-2.5-1.77108s-2.126959.710002-2.5,1.77108Z" fill="#0d7ef9" fill-rule="evenodd"/><path d="M78.558194,22.850063l.020962,5.852292" fill="none" fill-rule="evenodd" stroke="#3b3c3d" stroke-linecap="round" stroke-linejoin="round"/><path d="M78.58761,31.062781L78.74,73.61h-17.65v-55.08l6.34-16.8c.373041-1.061078,1.375257-1.77108,2.5-1.77108s2.126959.710002,2.5,1.77108l6.34,16.8" fill="none" fill-rule="evenodd" stroke="#3b3c3d" stroke-linecap="round" stroke-linejoin="round"/><g><path d="M78.542274,26.54307l.097903,37.763896" transform="translate(-5.463422 9.139535)" fill="none" fill-rule="evenodd" stroke="#3b3c3d" stroke-linecap="round" stroke-linejoin="round"/><path d="M78.635002,46.372297l.005175,17.934669" transform="translate(-12.084509 9.169844)" fill="none" fill-rule="evenodd" stroke="#3b3c3d" stroke-linecap="round" stroke-linejoin="round"/><path d="M78.609628,19.85438l-.12615,31.48022" transform="translate(-11.998359-.938955)" fill="none" fill-rule="evenodd" stroke="#3b3c3d" stroke-linecap="round" stroke-linejoin="round"/><path d="M78.668199,21.14807l-.089043,7.554285" transform="matrix(.940202 0 0 1-.814916 3.134111)" fill="none" fill-rule="evenodd" stroke="#3b3c3d" stroke-linecap="round" stroke-linejoin="round"/><path d="M78.38486,20.637109l-.008284,2.085741" transform="matrix(.940202 0 0 1-.61745-1.943066)" fill="none" fill-rule="evenodd" stroke="#3b3c3d" stroke-linecap="round" stroke-linejoin="round"/></g><path d="M78.38486,20.637109l.328187.777057" transform="matrix(.940202 0 0 1-3.206918-18.127684)" fill="none" fill-rule="evenodd" stroke="#3b3c3d" stroke-linecap="round" stroke-linejoin="round"/><line x1="61.09" y1="18.53" x2="78.74" y2="18.53" fill="none" stroke="#3b3c3d" stroke-linecap="round" stroke-linejoin="round"/><g id="ej5Z4pOr6cb61"><path d="M71.08,15.52c-.055809.601727-.56069,1.061949-1.165,1.061949s-1.109191-.460222-1.165-1.061949Z" fill="#3b3c3d" fill-rule="evenodd"/><ellipse rx="0.44" ry="0.85" transform="translate(68.31 14.09)" fill="#3b3c3d"/><ellipse rx="0.44" ry="0.85" transform="translate(71.52 14.09)" fill="#3b3c3d"/></g></g><g id="ej5Z4pOr6cb65" transform="matrix(.962913-.269812 0.269812 0.962913 4.856368 105.983367)"><rect width="25.02" height="11.78" rx="0" ry="0" transform="translate(19.52 69.79)" fill="#0d7ef9" stroke="#3b3c3d" stroke-linecap="round" stroke-linejoin="round"/><path d="M11.33,40.83l8.09,24.31h25.22l8.08-24.31c.249558-.753891.169682-1.578062-.22-2.27L34.45,7c-.500138-.866449-1.424564-1.400223-2.425-1.400223s-1.924862.533774-2.425,1.400223l-18,31.54c-.417255.688258-.515742,1.523572-.27,2.29Z" fill="#a8d1fd" stroke-linecap="round" stroke-linejoin="round"/><path d="M48.516329,53.477435L52.72,40.83c.249558-.753891.169682-1.578062-.22-2.27L40.771566,18.053113" fill="none" stroke="#3b3c3d" stroke-linecap="round" stroke-linejoin="round"/><path d="M39.638431,16.07185L34.45,7c-.500138-.866449-1.424564-1.400223-2.425-1.400223s-1.924862.533774-2.425,1.400223l-18,31.54c-.417255.688258-.515742,1.523572-.27,2.29l8.09,24.31h25.22" fill="none" stroke="#3b3c3d" stroke-linecap="round" stroke-linejoin="round"/><path d="M46.436649,59.734495l.922935-2.776804" fill="none" stroke="#3b3c3d" stroke-linecap="round" stroke-linejoin="round"/><path d="M50.263198,63.143003c-1.198878-2.414895-3.469614-8.160976-4.885802-5.776267" transform="translate(-14.233029-48.624126)" fill="none" stroke="#3b3c3d" stroke-linecap="round" stroke-linejoin="round"/><path d="M51.445645,65.355863c0,0-.345788-.609407-.345788-.609407" transform="translate(-14.233029-48.624126)" fill="none" stroke="#3b3c3d" stroke-linecap="round" stroke-linejoin="round"/><path d="M54.863777,75.337576c0,0-3.76392-10.59112-3.76392-10.59112" transform="translate(-33.83484-12.511291)" fill="none" stroke="#3b3c3d" stroke-linecap="round" stroke-linejoin="round"/><circle r="4.92" transform="translate(32.03 39.66)" fill="#3b3c3d"/><line x1="31.877565" y1="13.866972" x2="32.03" y2="34.74" fill="none" stroke="#3b3c3d" stroke-linecap="round" stroke-linejoin="round"/><g id="ej5Z4pOr6cb76"><path d="M33.19,40.56c-.055809.601727-.56069,1.061949-1.165,1.061949s-1.109191-.460222-1.165-1.061949Z" fill="#f6f5fa" fill-rule="evenodd"/><ellipse rx="0.44" ry="0.85" transform="translate(30.42 39.13)" fill="#f6f5fa"/><ellipse rx="0.44" ry="0.85" transform="translate(33.63 39.13)" fill="#f6f5fa"/></g></g><mask id="ej5Z4pOr6cb80" mask-type="luminance" x="-150%" y="-150%" height="400%" width="400%"><rect width="309.242977" height="309.242977" rx="0" ry="0" transform="matrix(.414587 0 0 0.414587-19.120438-32.283199)" fill="#fff" stroke-width="0"/></mask></g><path id="ej5Z4pOr6cb82" d="M137.593617,316.53442h125.742348" transform="translate(-155.48117-220.489482)" opacity="0" fill="none" stroke="#3b3c3d" stroke-dasharray="7,5"/><path id="ej5Z4pOr6cb83" d="M148.928661,315.837852h102.236305" transform="translate(-155.063194-219.792914)" fill="none" stroke="#3b3c3d" stroke-dashoffset="83.000438" stroke-dasharray="63.765484,38.474516"/></g>
<script><![CDATA[
(function(s,i,u,o,c,w,d,t,n,x,e,p,a,b){(a=Array.from(d.querySelectorAll('svg#' + i.root)).filter(n=> !n.svgatorPlayer)[0]||{}).svgatorPlayer={ready:(function(a){b=[];return function(c){return c?(b.push(c),a.svgatorPlayer):b}})(a)};w[o]=w[o]||{};w[o][s]=w[o][s]||[];w[o][s].push(i);e=d.createElementNS(n,t);e.async=true;e.setAttributeNS(x,'href',[u,s,'.','j','s','?','v','=',c].join(''));e.setAttributeNS(null,'src',[u,s,'.','j','s','?','v','=',c].join(''));p=d.getElementsByTagName(t)[0];p.parentNode.insertBefore(e,p);})('91c80d77',{"root":"ej5Z4pOr6cb1","version":"2024-09-05","animations":[{"elements":{"ej5Z4pOr6cb4":{"transform":{"data":{"o":{"x":45.027546,"y":37.3023,"type":"corner"},"t":{"x":-49.999996,"y":-50.074374}},"keys":{"s":[{"t":200,"v":{"x":0,"y":0},"e":[0.25,0.46,0.45,0.94]},{"t":500,"v":{"x":1.7,"y":1.7},"e":[0.25,0.46,0.45,0.94]},{"t":600,"v":{"x":1.444569,"y":1.444569}},{"t":700,"v":{"x":1.7,"y":1.7},"e":[0.25,0.46,0.45,0.94]},{"t":800,"v":{"x":1.444569,"y":1.444569}}]}}},"ej5Z4pOr6cb5":{"transform":{"data":{"r":8.392453,"t":{"x":-69.929999,"y":-44.939457}},"keys":{"o":[{"t":200,"v":{"x":55.010663,"y":147.29704,"type":"corner"},"e":[0.165,0.84,0.44,1]},{"t":600,"v":{"x":68.087169,"y":55.976984,"type":"corner"}}]}}},"ej5Z4pOr6cb20":{"transform":{"data":{"t":{"x":-69.914993,"y":-14.910974}},"keys":{"o":[{"t":900,"v":{"x":69.914993,"y":14.910974,"type":"corner"}},{"t":1100,"v":{"x":66.974085,"y":15.783368,"type":"corner"}}]}}},"ej5Z4pOr6cb24":{"transform":{"data":{"r":-15.653054,"t":{"x":-32.030059,"y":-43.574999}},"keys":{"o":[{"t":300,"v":{"x":47.455571,"y":139.300226,"type":"corner"},"e":[0.165,0.84,0.44,1]},{"t":700,"v":{"x":24.845608,"y":57.930035,"type":"corner"}}]}}},"ej5Z4pOr6cb35":{"transform":{"data":{"t":{"x":-32.025002,"y":-39.950976}},"keys":{"o":[{"t":1000,"v":{"x":32.025002,"y":39.950976,"type":"corner"}},{"t":1200,"v":{"x":33.211616,"y":38.93188,"type":"corner"}}]}}},"ej5Z4pOr6cb41":{"opacity":[{"t":170,"v":0},{"t":180,"v":1}],"stroke-dashoffset":[{"t":0,"v":0,"e":[0.25,0.46,0.45,0.94]},{"t":300,"v":0}],"stroke-dasharray":[{"t":0,"v":[10,0],"e":[0.25,0.46,0.45,0.94]},{"t":300,"v":[5,10]}]},"ej5Z4pOr6cb42":{"stroke-dashoffset":[{"t":0,"v":51.12,"e":[0.25,0.46,0.45,0.94]},{"t":300,"v":102.236305}],"stroke-dasharray":[{"t":0,"v":[0,102.24],"e":[0.25,0.46,0.45,0.94]},{"t":300,"v":[102.24,0]}]},"ej5Z4pOr6cb45":{"d":[{"t":600,"v":["M",50,28.42,"C",14.470777,28.42,14.470768,78.94,50,78.94,"C",85.529232,78.94,85.529223,28.42,50,28.42,"Z"],"e":[0.47,0,0.745,0.715]},{"t":740,"v":["M",50,28.42,"C",23.11,3.6,-10.83,46.93,50,78.94,"C",110.83,46.93,76.89,3.6,50,28.42,"Z"]}],"transform":{"data":{"o":{"x":45.027545,"y":41.989615,"type":"corner"},"t":{"x":-49.999995,"y":-53.680001}},"keys":{"s":[{"t":0,"v":{"x":1.3,"y":1.3},"e":[0.39,0.575,0.565,1]},{"t":500,"v":{"x":0.8,"y":0.8},"e":[0.47,0,0.745,0.715]},{"t":1000,"v":{"x":1.7,"y":1.7},"e":[0.25,0.46,0.45,0.94]},{"t":1100,"v":{"x":1.444569,"y":1.444569}},{"t":1200,"v":{"x":1.7,"y":1.7},"e":[0.25,0.46,0.45,0.94]},{"t":1300,"v":{"x":1.444569,"y":1.444569}}]}}},"ej5Z4pOr6cb46":{"transform":{"data":{"r":8.392453,"t":{"x":-69.929999,"y":-44.939457}},"keys":{"o":[{"t":200,"v":{"x":55.010663,"y":147.29704,"type":"corner"},"e":[0.175,0.885,0.32,1.275]},{"t":600,"v":{"x":68.087169,"y":55.976984,"type":"corner"}}]}}},"ej5Z4pOr6cb61":{"transform":{"data":{"t":{"x":-69.914993,"y":-14.910974}},"keys":{"o":[{"t":900,"v":{"x":69.914993,"y":14.910974,"type":"corner"}},{"t":1100,"v":{"x":66.974085,"y":15.783368,"type":"corner"}}]}}},"ej5Z4pOr6cb65":{"transform":{"data":{"r":-15.653054,"t":{"x":-32.030059,"y":-43.574999}},"keys":{"o":[{"t":300,"v":{"x":47.455571,"y":139.300226,"type":"corner"},"e":[0.175,0.885,0.32,1.275]},{"t":700,"v":{"x":24.845608,"y":57.930035,"type":"corner"}}]}}},"ej5Z4pOr6cb76":{"transform":{"data":{"t":{"x":-32.025002,"y":-39.950976}},"keys":{"o":[{"t":1000,"v":{"x":32.025002,"y":39.950976,"type":"corner"}},{"t":1200,"v":{"x":33.211616,"y":38.93188,"type":"corner"}}]}}},"ej5Z4pOr6cb82":{"opacity":[{"t":60,"v":0},{"t":70,"v":1}],"stroke-dashoffset":[{"t":0,"v":0,"e":[0.242309,0.527324,0.545453,0.916546]},{"t":190,"v":0}],"stroke-dasharray":[{"t":0,"v":[7,5],"e":[0.242309,0.527324,0.545453,0.916546]},{"t":190,"v":[5,10]}]},"ej5Z4pOr6cb83":{"stroke-dashoffset":[{"t":0,"v":83.000438,"e":[0.242309,0.527324,0.545453,0.916546]},{"t":190,"v":102.236305}],"stroke-dasharray":[{"t":0,"v":[63.765484,38.474516],"e":[0.242309,0.527324,0.545453,0.916546]},{"t":190,"v":[102.24,0]}]}},"s":"MDLA1YzlhNDE4MJzk0WVc5MTgwFOTM4ODhlOGQR0MTU5NTA1MjMU0NGY0YjQxOCDM4ODkxODQ4CMjkzODg4ZThFkNDE1OTUwNGOI0MTg4OTM4NKDkxODA5Mzg4ROGVJOGQ5MjQTxNTk0Zko0YkIM0MTg1ODg4YMjhiNDE1OTUwONGI0MUk4MDhOiOTM4NDkxOGSQ4MDkzODQ0MQTU5OTM5MTk0ESDg0NGI0MTkByOGY4NDg0QTVgzNDE1OTUwNMGJJNDE4NThmGOTI0MTU5NTAB0ZjRmOWM/"}],"options":"MDRAxZTk4M2Y5MXDkxN2U4ZjkxQM2Y1NzNmUTkBwODA4ZjhjODLk4OTNmNDkzZYjkwODA4ZjhjOODk4OTNmNTdPJRzRmNTI5YQF|"},'https://cdn.svgator.com/ply/','__SVGATOR_PLAYER__','2024-09-05',window,document,'script','http://www.w3.org/2000/svg','http://www.w3.org/1999/xlink')
]]></script>
</svg>
