<svg id="etD9P3U0nSc1" xmlns="http://www.w3.org/2000/svg" xmlns:xlink="http://www.w3.org/1999/xlink" viewBox="0 0 700 400" shape-rendering="geometricPrecision" text-rendering="geometricPrecision" style="background-color:#010212"><defs><linearGradient id="etD9P3U0nSc6-stroke" x1="0.615175" y1="0.579868" x2="0.041573" y2="0.250672" spreadMethod="pad" gradientUnits="objectBoundingBox" gradientTransform="translate(0 0)"><stop id="etD9P3U0nSc6-stroke-0" offset="0%" stop-color="#9f013a"/><stop id="etD9P3U0nSc6-stroke-1" offset="100%" stop-color="#ff4689"/></linearGradient><linearGradient id="etD9P3U0nSc10-stroke" x1="1.192317" y1="0.843531" x2="0.255538" y2="0.269322" spreadMethod="pad" gradientUnits="objectBoundingBox" gradientTransform="translate(0 0)"><stop id="etD9P3U0nSc10-stroke-0" offset="0%" stop-color="#f14d88"/><stop id="etD9P3U0nSc10-stroke-1" offset="100%" stop-color="#ffa8c8"/></linearGradient></defs><g id="etD9P3U0nSc2" transform="translate(34.04895-108.600052)"><g id="etD9P3U0nSc3" transform="matrix(.605335 0 0 0.605335 118.047554 101.759965)"><g clip-path="url(#etD9P3U0nSc13)"><g transform="matrix(-1 0 0 1 629.940842 0)" clip-path="url(#etD9P3U0nSc7)"><path id="etD9P3U0nSc6" d="M339.449558,477.360076L216.991041,206.030421" transform="translate(.000001 0.000001)" fill="none" stroke="url(#etD9P3U0nSc6-stroke)" stroke-width="101" stroke-linecap="round" stroke-dashoffset="265" stroke-dasharray="270"/><clipPath id="etD9P3U0nSc7"><rect width="81.667717" height="142.572455" rx="9.65" ry="9.65" transform="matrix(1.3 0 0.466308 1 195.033704 277.157837)" fill="#0e317a" stroke-width="0"/></clipPath></g><g clip-path="url(#etD9P3U0nSc11)"><path id="etD9P3U0nSc10" d="M221.90808,219.307459l116.740589,247.37046" transform="translate(.000001 0.000001)" fill="none" stroke="url(#etD9P3U0nSc10-stroke)" stroke-width="101" stroke-linecap="round" stroke-dashoffset="265" stroke-dasharray="270"/><clipPath id="etD9P3U0nSc11"><rect width="81.667717" height="142.572455" rx="9.65" ry="9.65" transform="matrix(1.3 0 0.466308 1 195.033704 277.157837)" fill="#0e317a" stroke-width="0"/></clipPath></g><clipPath id="etD9P3U0nSc13"><path id="etD9P3U0nSc14" d="M187.615887,260.696216c0,0,8.527063,18.321224,25.581188,54.963674c3.500073,7.520249,7.359313,15.812201,11.577718,24.875855c2.172702,4.668262,4.440683,9.541241,6.803944,14.618936c6.186366,13.292009,13.025632,27.986838,20.517797,44.084486c5.803792,12.47001,11.999375,25.781824,18.58675,39.935441l88.687083-.632046q50.434991-107.576591,50.434991-107.576591c0,0,8.251068-17.599335,8.251068-17.599335s5.163501-11.013619,10.797953-23.031764c6.765413-14.430457,14.209812-30.309173,14.209812-30.309173l-255.448304.670517Z" transform="translate(.000001 0.000002)" fill="#3f5787" stroke-width="1.2"/></clipPath></g><path id="etD9P3U0nSc15" d="M-16.181068,0c0-8.936557,7.244511-16.181068,16.181068-16.181068s16.181068,7.244511,16.181068,16.181068-7.244511,16.181068-16.181068,16.181068-16.181068-7.244511-16.181068-16.181068Z" transform="translate(241.621939 365.879705)" opacity="0" fill="#010212" stroke-width="0"/><path id="etD9P3U0nSc16" d="M-16.648164,0.225866c0-8.936557,7.711607-16.406934,16.648164-16.406934s16.090492,7.457363,17.87733,14.238811-2.128364,17.350148-13.765976,18.845226-20.759518-7.740546-20.759518-16.677103Z" transform="matrix(0 0 0 0 372.899684 351.093985)" fill="#e33272" stroke-width="0"/></g><g clip-path="url(#etD9P3U0nSc31)"><g id="etD9P3U0nSc18" transform="matrix(2.020178 0 0 2.020178 45.441307 286.567137)"><g><path d="M27.43,6.21c5.14,0,9.27,3.66,9.27,8.81s-4.13,8.81-9.24,8.81-9.28-3.63-9.28-8.83s4.13-8.79,9.25-8.79Zm0,14.06c1.370556.001714,2.681732-.559248,3.626944-1.55172s1.441585-2.329437,1.373056-3.69828c0-2.761424-2.238576-5-5-5s-5,2.238576-5,5c-.068826,1.37407.431574,2.715786,1.383369,3.70921s2.270874,1.550767,3.646631,1.54079Z" fill="#fff"/><path d="M39.83,0L44,0v17.56c0,1.85.63,2.31,1.72,2.31.33,0,.63,0,.63,0v3.63c-.437147.063922-.878213.097336-1.32.1-2.31,0-5.19-.6-5.19-5.41Z" fill="#fff"/><path d="M50.07,10.2h-2.18v-3.33h2.27v-4.87h4.1v4.87h3.83v3.33h-3.83v6.53c0,2.78,2.18,3.17,3.33,3.17.254616.0027.508962-.01738.76-.06v3.66c-.42616.071713-.857879.10518-1.29.1-2.34,0-7-.69-7-6.34Z" fill="#fff"/><path d="M62.28,18.42c1.251143,1.152718,2.879251,1.81036,4.58,1.85c1.19,0,2.22-.53,2.22-1.52c0-2.51-8.19-2.18-8.19-7.59c0-3.14,2.81-4.95,6.44-4.95c2.064774-.112319,4.094032.571258,5.67,1.91l-1.55,3.1c-1.163459-.953714-2.625701-1.467092-4.13-1.45-1.09,0-2.14.46-2.14,1.52c0,2.37,8.18,2.08,8.18,7.49c0,2.81-2.44,5-6.43,5-2.41731.042267-4.758517-.84553-6.54-2.48Z" fill="#fff"/><path d="M76.47,6.6h4.19v10c0,2,.53,3.43,2.61,3.43c3,0,4.72-2.67,4.72-5.68v-7.75h4.19v16.83h-4v-1.91c-.000046-.397697.023328-.795051.07-1.19h-.07c-1.127557,2.177742-3.38788,3.532387-5.84,3.5-3.6,0-5.84-1.82-5.84-6.4Z" fill="#fff"/><path d="M96.8,6.6h4.2v16.83h-4.2Z" fill="#fff"/><path d="M106.33,10.2h-2.17v-3.33h2.27v-4.87h4.1v4.87h3.82v3.33h-3.82v6.53c0,2.78,2.17,3.17,3.33,3.17.254616.0027.508962-.01738.76-.06v3.66c-.42616.071713-.857879.10518-1.29.1-2.34,0-7-.69-7-6.34Z" fill="#fff"/><polygon points="3.429988,6.6 -0.990012,6.6 5.45,21.62 7.737627,16.752797 3.429988,6.6" transform="translate(-1.613328 0)" fill="#fff"/><polygon points="12.67,6.6 5.154982,23.43 9.574982,23.43 17.1,6.6 12.67,6.6" fill="#fff"/><path d="M121.17,15.81c-.10807-.957137-.067592-1.925225.12-2.87v0-.08c.037638-.216953.091115-.430859.16-.64v-.09-.14v0c.553291-1.587877,2.079832-2.627224,3.76-2.56.921833-.028629,1.812179.336955,2.447898,1.005128s.956556,1.575605.882102,2.494872h-5.58c-.279017.930867-.330459,1.915119-.15,2.87h9.86c0,0,.1-1.12.1-1.62c0-4.45-2.61-8-7.46-8-5,0-8.55,3.63-8.55,8.81-.051985,2.385472.885978,4.686015,2.591064,6.355105s4.025116,2.55776,6.408936,2.454895c2.466598.016436,4.860097-.836868,6.76-2.41l-1.62-3c-1.376938,1.119962-3.076975,1.76843-4.85,1.85-2.357654.118311-4.45-1.498695-4.93-3.81Z" fill="#fff"/><ellipse id="etD9P3U0nSc30" rx="5.095616" ry="5.095616" transform="matrix(0 0 0 0 99.014482 1.194733)" fill="#f84183" stroke-width="0"/></g></g><clipPath id="etD9P3U0nSc31"><path id="etD9P3U0nSc32" d="M305.192303,279.153304l37.493453,81.311104q-351.444648.108109-351.444648-1.247076t0-80.859377q313.951196,1.24708,313.951195.795349Z" transform="matrix(-1 0 0-1 643.360786 635.660264)" fill="#3f5787" stroke-width="1.2"/></clipPath></g></g>
<script><![CDATA[
(function(s,i,u,o,c,w,d,t,n,x,e,p,a,b){(a=Array.from(d.querySelectorAll('svg#' + i.root)).filter(n=> !n.svgatorPlayer)[0]||{}).svgatorPlayer={ready:(function(a){b=[];return function(c){return c?(b.push(c),a.svgatorPlayer):b}})(a)};w[o]=w[o]||{};w[o][s]=w[o][s]||[];w[o][s].push(i);e=d.createElementNS(n,t);e.async=true;e.setAttributeNS(x,'href',[u,s,'.','j','s','?','v','=',c].join(''));e.setAttributeNS(null,'src',[u,s,'.','j','s','?','v','=',c].join(''));p=d.getElementsByTagName(t)[0];p.parentNode.insertBefore(e,p);})('91c80d77',{"root":"etD9P3U0nSc1","version":"2022-05-04","animations":[{"elements":{"etD9P3U0nSc2":{"transform":{"data":{"t":{"x":-280.548698,"y":-308.600052}},"keys":{"o":[{"t":1700,"v":{"x":314.597648,"y":200,"type":"corner"},"e":[0.51,0.035,0,1.04]},{"t":3400,"v":{"x":341.062034,"y":200,"type":"corner"}}]}}},"etD9P3U0nSc3":{"transform":{"data":{"t":{"x":-346.626877,"y":-341.695251}},"keys":{"o":[{"t":1700,"v":{"x":327.872935,"y":308.60006,"type":"corner"},"e":[0.51,0.035,0,1.04]},{"t":3300,"v":{"x":174.929373,"y":308.600061,"type":"corner"}}],"s":[{"t":1700,"v":{"x":0.605335,"y":0.605335},"e":[0.51,0.035,0,1.04]},{"t":3300,"v":{"x":0.523333,"y":0.523333}}]}}},"etD9P3U0nSc6":{"stroke-dashoffset":[{"t":300,"v":265},{"t":800,"v":0}]},"etD9P3U0nSc10":{"stroke-dashoffset":[{"t":0,"v":265},{"t":500,"v":0}]},"etD9P3U0nSc14":{"d":[{"t":600,"v":["M",187.615887,260.696216,"C",187.615887,260.696216,196.14295,279.01744,213.197075,315.65989,"C",216.697148,323.180139,220.556388,331.472091,224.774793,340.535745,"C",226.947495,345.204007,229.215476,350.076986,231.578737,355.154681,"C",237.765103,368.44669,244.604369,383.141519,252.096534,399.239167,"C",257.900326,411.709177,264.095909,425.020991,270.683284,439.174608,"L",359.370367,438.542562,"Q",409.805358,330.965971,409.805358,330.965971,"C",409.805358,330.965971,418.056426,313.366636,418.056426,313.366636,"C",418.056426,313.366636,423.219927,302.353017,428.854379,290.334872,"C",435.619792,275.904415,443.064191,260.025699,443.064191,260.025699,"L",187.615887,260.696216,"Z"],"e":[0.77,0,0.175,1]},{"t":1300,"v":["M",187.615887,260.696216,"C",187.615887,260.696216,187.11763,263.022941,204.171755,299.665391,"C",207.671828,307.18564,212.283046,315.709001,218.2597,326.68653,"C",229.576245,347.472022,249.262743,336.165262,260.588495,356.929142,"C",270.634327,375.346501,246.826489,391.680014,257.125111,410.324071,"C",266.704514,427.666093,264.095909,425.020991,270.683284,439.174608,"L",359.370367,438.542562,"Q",409.805358,330.965971,409.805358,330.965971,"C",409.805358,330.965971,418.056426,313.366636,418.056426,313.366636,"C",418.056426,313.366636,423.219927,302.353017,428.854379,290.334872,"C",435.619792,275.904415,443.064191,260.025699,443.064191,260.025699,"L",187.615887,260.696216,"Z"],"e":[0.77,0,0.175,1]},{"t":2050,"v":["M",187.615887,260.696216,"C",187.615887,260.696216,195.010468,277.010476,212.064593,313.652926,"C",215.564666,321.173175,219.518262,329.494164,223.957289,338.797968,"C",227.277346,345.488593,231.730975,348.331366,235.218835,355.377338,"C",241.88948,369.312467,244.883197,384.212916,252.727512,400.630083,"C",259.005061,413.711425,264.095909,425.020991,270.683284,439.174608,"L",359.370367,438.542562,"Q",409.805358,330.965971,409.805358,330.965971,"C",409.805358,330.965971,418.056426,313.366636,418.056426,313.366636,"C",418.056426,313.366636,423.219927,302.353017,428.854379,290.334872,"C",435.619792,275.904415,443.064191,260.025699,443.064191,260.025699,"L",187.615887,260.696216,"Z"]},{"t":2140,"v":["M",187.615887,260.696216,"C",187.615887,260.696216,195.236964,277.411869,212.291089,314.054319,"C",215.791162,321.574568,219.725887,329.889749,224.12079,339.145523,"C",227.211376,345.431676,231.227875,348.68049,234.490815,355.332807,"C",241.064605,369.139312,244.827431,383.998637,252.601316,400.3519,"C",258.784114,413.310975,264.095909,425.020991,270.683284,439.174608,"L",359.370367,438.542562,"Q",391.588981,371.64733,406.719478,339.374353,"C",413.928094,327.471973,425.293762,320.036407,426.529917,314.597325,"C",430.703361,296.23417,426.001303,297.153064,428.854379,290.334872,"C",435.006587,275.632518,443.064191,260.025699,443.064191,260.025699,"L",187.615887,260.696216,"Z"]},{"t":2500,"v":["M",187.615887,260.696216,"C",187.615887,260.696216,196.14295,279.01744,213.197075,315.65989,"C",216.697148,323.180139,220.556388,331.472091,224.774793,340.535745,"C",226.947495,345.204007,229.215476,350.076986,231.578737,355.154681,"C",237.765103,368.44669,244.604369,383.141519,252.096534,399.239167,"C",257.900326,411.709177,264.095909,425.020991,270.683284,439.174608,"L",359.370367,438.542562,"Q",409.805358,330.965971,409.805358,330.965971,"C",409.805358,330.965971,418.056426,313.366636,418.056426,313.366636,"C",418.056426,313.366636,423.219927,302.353017,428.854379,290.334872,"C",435.619792,275.904415,443.064191,260.025699,443.064191,260.025699,"L",187.615887,260.696216,"Z"]}]},"etD9P3U0nSc15":{"d":[{"t":1000,"v":["M",-16.181068,0,"C",-16.181068,-8.936557,-8.936557,-16.181068,0,-16.181068,"C",8.936557,-16.181068,16.181068,-8.936557,16.181068,0,"C",16.181068,8.936557,8.936557,16.181068,0,16.181068,"C",-8.936557,16.181068,-16.181068,8.936557,-16.181068,0,"Z"]},{"t":1600,"v":["M",-16.648164,0.225866,"C",-16.648164,-8.710691,-8.936557,-16.181068,0,-16.181068,"C",8.936557,-16.181068,16.090492,-8.723705,17.87733,-1.942257,"C",19.664168,4.839191,15.748966,15.407891,4.111354,16.902969,"C",-7.526258,18.398047,-16.648164,9.162423,-16.648164,0.225866,"Z"]}],"transform":{"keys":{"o":[{"t":970,"v":{"x":241.621939,"y":365.879705,"type":"cusp","end":{"x":270.835348,"y":342.635084}},"e":[0.645,0.045,0.355,1]},{"t":2400,"v":{"x":454.282531,"y":301.67725,"type":"cusp","start":{"x":365.986798,"y":375.559288}}}],"r":[{"t":1000,"v":0,"e":[0.36,0.035,0.355,1]},{"t":2000,"v":-90}],"s":[{"t":960,"v":{"x":1,"y":1},"e":[0.36,0.035,0.355,1]},{"t":1600,"v":{"x":2.132708,"y":2.132708},"e":[0.36,0.035,0.355,1]},{"t":2400,"v":{"x":1,"y":1}}]}},"opacity":[{"t":960,"v":0,"e":[1,0]},{"t":1060,"v":1},{"t":2040,"v":1},{"t":2060,"v":0}]},"etD9P3U0nSc16":{"transform":{"keys":{"o":[{"t":1730,"v":{"x":372.899684,"y":351.093985,"type":"cusp","end":{"x":427.245984,"y":299.85224}},"e":[0.175,0.73,0.355,1]},{"t":3100,"v":{"x":526.100344,"y":231.213949,"type":"cusp","start":{"x":506.656449,"y":286.44616}}}],"r":[{"t":1000,"v":0,"e":[0.36,0.035,0.355,1]},{"t":3500,"v":-180}],"s":[{"t":1930,"v":{"x":0,"y":0},"e":[0.36,0.035,0.355,1]},{"t":2060,"v":{"x":1.431318,"y":1.431318}},{"t":2800,"v":{"x":0,"y":0}}]}}},"etD9P3U0nSc18":{"transform":{"data":{"s":{"x":2.020178,"y":2.020178},"t":{"x":-66.385002,"y":-11.915284}},"keys":{"o":[{"t":1700,"v":{"x":179.550828,"y":310.638132,"type":"corner"},"e":[0.51,0.035,0,1.04]},{"t":3300,"v":{"x":317.327977,"y":310.638132,"type":"corner"}}]}}},"etD9P3U0nSc30":{"transform":{"data":{"o":{"x":99.014482,"y":1.194733,"type":"corner"}},"keys":{"s":[{"t":3000,"v":{"x":0,"y":0}},{"t":3200,"v":{"x":0.694931,"y":0.694931}},{"t":3400,"v":{"x":0.50571,"y":0.50571}}]}}},"etD9P3U0nSc32":{"transform":{"data":{"s":{"x":-1,"y":-1},"t":{"x":-253.017677,"y":-320.088767}},"keys":{"o":[{"t":1700,"v":{"x":390.343109,"y":315.571497,"type":"corner"},"e":[0.51,0.035,0,1.04]},{"t":3300,"v":{"x":240.369296,"y":315.571497,"type":"corner"}}]}}}},"s":"MDVA1ZGQ5ODBjMJmQzZDBiZmQyGYzdjZGNjODAE5ODkzOGU4ZTEhlOGE4MGMyYPzdkMGMzYzFkWMmM3Y2RjY0UQ4MDk4SjhmOGBE4MGM3ZDJjMH2QwYmZDZDJjQN2NkY2NkMTgOwOTg4ZThhODNBjNGM3Y2FjYMTgwOTg4ZjhhEODBSYmZjYVJSkMmMzZDBjY1JBUYmZkMmMzSFzgwOThjNGJmYY2FkMWMzOGED4MGQxY2VjM2XMzYzI4MDk4RODhmOGE4MGM0PY2VkMTgwOTgH4ZjhlOGVkYgF|"}],"options":"MDMAxZUQ4ODJmVSzgwODE2ZTdmFODEyZjQ3MmYR4MDcwN2Y3YzVc5NzkyZjM5MXmY4MEE3MDdmYSzdjNzk3OTJTmNDczZjQyOGNE/"},'https://cdn.svgator.com/ply/','__SVGATOR_PLAYER__','2022-05-04',window,document,'script','http://www.w3.org/2000/svg','http://www.w3.org/1999/xlink')
]]></script>
</svg>
