<svg id="eIMyfAm04VT1" xmlns="http://www.w3.org/2000/svg" xmlns:xlink="http://www.w3.org/1999/xlink" viewBox="0 -50 700 300" shape-rendering="geometricPrecision" text-rendering="geometricPrecision" style="background-color:#000"><g transform="translate(-185.250141-693.759583)"><rect id="eIMyfAm04VT3" width="55.315407" height="55.315407" rx="12" ry="12" transform="matrix(-.458672 0.458672-.458672-.458672 407.375178 966.431933)" opacity="0.25" fill="#d2dbed" stroke-width="0"/><rect id="eIMyfAm04VT4" width="55.315407" height="55.315407" rx="5" ry="5" transform="matrix(-.367969 0.367969-.367969-.367969 544.625398 966.431933)" opacity="0.25" fill="#d2dbed" stroke-width="0"/><rect id="eIMyfAm04VT5" width="55.315407" height="55.315407" rx="5" ry="5" transform="matrix(-1.012513 0 0-1.012513 699.06717 1042.185555)" opacity="0.3" fill="#d2dbed" stroke-width="0"/><rect id="eIMyfAm04VT6" width="55.315407" height="55.315407" rx="12" ry="12" transform="matrix(.601838 0 0 0.601838 708.493749 965.468246)" opacity="0.3" fill="#d2dbed" stroke-width="0"/><rect id="eIMyfAm04VT7" width="55.315407" height="55.315407" rx="12" ry="12" transform="matrix(.386456 0 0 0.386456 272.9954 955.743449)" opacity="0.2" fill="#d2dbed" stroke-width="0"/><rect id="eIMyfAm04VT8" width="55.315407" height="55.315407" rx="12" ry="12" transform="matrix(1.321104 0 0 1.321104 496.462594 985.506714)" opacity="0.3" fill="#d2dbed" stroke-width="0"/></g><path id="eIMyfAm04VT9" d="M14.61802,80.67347c-2.06958-5.51161,2.6875-12.39588,10.62523-15.37645c4.62085-1.7351,9.30094-1.76481,12.81364-.39936v-35.5526h.06685v-2.59537c.06444-1.05116.48189-1.88981,1.02058-2.05033L62.1103,15.05941c.58319-.21523,1.02058.32851,1.02058,1.21207v15.70032c-.07168,1.03799-.48749,1.85949-1.02058,2.01635l-18.67595,7.83v28.25988c-.0025,5.651786-2.85363,12.23333-10.69651,15.17828-7.93773,2.98057-16.05026.92876-18.11983-4.58284h.00001Z" transform="matrix(0 0 0 0 137.541444 140.053547)" fill="#fff"/><path id="eIMyfAm04VT10" d="M14.61802,80.67347c-2.06958-5.51161,2.6875-12.39588,10.62523-15.37645c4.62085-1.7351,9.30094-1.76481,12.81364-.39936v-35.5526h.06685v-2.59537c.06444-1.05116.48189-1.88981,1.02058-2.05033L62.1103,15.05941c.58319-.21523,1.02058.32851,1.02058,1.21207v15.70032c-.07168,1.03799-.48749,1.85949-1.02058,2.01635l-18.67595,7.83v28.25988c-.0025,5.651786-2.85363,12.23333-10.69651,15.17828-7.93773,2.98057-16.05026.92876-18.11983-4.58284h.00001Z" transform="matrix(0 0 0 0 130.78965 134.567715)" fill="#fff"/><path id="eIMyfAm04VT11" d="M14.61802,80.67347c-2.06958-5.51161,2.6875-12.39588,10.62523-15.37645c4.62085-1.7351,9.30094-1.76481,12.81364-.39936v-35.5526h.06685v-2.59537c.06444-1.05116.48189-1.88981,1.02058-2.05033L62.1103,15.05941c.58319-.21523,1.02058.32851,1.02058,1.21207v15.70032c-.07168,1.03799-.48749,1.85949-1.02058,2.01635l-18.67595,7.83v28.25988c-.0025,5.651786-2.85363,12.23333-10.69651,15.17828-7.93773,2.98057-16.05026.92876-18.11983-4.58284h.00001Z" transform="matrix(0 0 0 0 144.715225 161.152902)" fill="#fff"/><g transform="matrix(.501888 0 0 0.501888 8.188862-71.760911)"><g transform="matrix(1.781202 0 0 1.781202 363.12383 246.23155)"><path id="eIMyfAm04VT14" d="M115.19,89c-2.485928.128525-4.96283-.388214-7.19-1.5-1.718663-.851176-2.859527-2.547261-3-4.46l-.3-3.15c2.155049-.568243,4.011604-1.938303,5.19-3.83.330038-.438717.527805-.962627.57-1.51.033785-.239513-.046942-.480982-.21798-.65202s-.412507-.251765-.65202-.21798h-.1c-.042243.01375-.087757.01375-.13,0-1.25084,3.081986-4.296101,5.052214-7.62,4.93-1.603151.048447-3.187359-.357138-4.57-1.17-1.491557-1.029646-2.690588-2.428516-3.48-4.06h-.2c-.6,0-.9.26-.9.77.021361.432103.159609.850304.4,1.21.82026,1.423487,1.968826,2.630338,3.35,3.52.985515.691419,2.125401,1.130893,3.32,1.28L99.4,86.5c-1.306978.852307-2.741724,1.490347-4.25,1.89-2.081654.452613-4.210574.65073-6.34.59-2.535598.04373-5.046124-.507695-7.33-1.61q-3.94-2-4-5.5q0-4.4,1.74-21.7.94-9,1.51-12.62q3.45-3.07,10.2-3.08c2.803379-.089891,5.582657.543798,8.07,1.84l1.85,6.17-1.18,4.93c-.088039.325984-.131765.662342-.13,1c0,.79.45,1.19,1.34,1.21l3.19-13.25c1.140941-.571627,2.346171-1.004704,3.59-1.29c1.581262-.381229,3.20351-.565957,4.83-.55q4.89,0,7.26,1.66t2.8,5.58c.07.5.17,1.31.3,2.45q3.06,26.24,3,30.89Q122.2,89,115.19,89Z" fill="#fff" stroke="#000" stroke-width="2" stroke-miterlimit="10"/><path id="eIMyfAm04VT15" d="M156,44.53c2.509097-.059457,4.968334.70642,7,2.18c1.963254,1.443701,3.07123,3.776085,2.95,6.21v18.65q0,8.52-5.2,13.13t-14.37,4.61q-9.18,0-14.27-4.53t-5.2-13.21v-23.92c2.590426-2.082932,5.826341-3.196936,9.15-3.15c2.52206-.146909,5.004867.675923,6.94,2.3q2.55,2.3,2.55,7v19.51c.249736.181011.551618.275788.86.27.25898.025554.515801-.066167.7-.25.188353-.297212.266226-.651181.22-1v-18.61c.01682-1.120088-.050033-2.239869-.2-3.35-.140301-.863538-.413541-1.700126-.81-2.48c2.719259-2.244714,6.154784-3.43721,9.68-3.36Z" transform="translate(-1.204687 0)" fill="#fff" stroke="#000" stroke-width="2" stroke-miterlimit="10"/><path id="eIMyfAm04VT16" d="M186.47,76.2c.74-.14,1.1-.51,1.1-1.13-.027742-.724737-.222832-1.433221-.57-2.07-.438264-.829408-1.024585-1.571629-1.73-2.19-2.25637-1.885973-5.143436-2.847138-8.08-2.69-1.60509-.012561-3.198627.272241-4.7.84-1.5866-.826534-2.87634-2.126759-3.69-3.72-.912824-1.688602-1.384082-3.580514-1.37-5.5-.168658-4.843326,2.294833-9.399254,6.44-11.91c4.101663-2.504275,8.847013-3.752319,13.65-3.59c3.432016-.078471,6.856494.35633,10.16,1.29c2.424954.695493,4.707075,1.816238,6.74,3.31.517534,1.474639.777985,3.027202.77,4.59.018243,1.467432-.194353,2.928607-.63,4.33-.35434,1.174719-.989281,2.245538-1.85,3.12-1.274592-.783646-2.665102-1.360775-4.12-1.71-1.763087-.547019-3.594369-.843256-5.44-.88-1.099372-.060906-2.201658.043592-3.27.31-.55.2-.82.51-.82.94-.002509.194574.031408.3879.1.57.982983-.229088,1.990942-.333244,3-.31q6.54,0,10.67,3.09Q207.7,66.57,207.7,74c.051333,4.23111-1.903282,8.236773-5.27,10.8q-5.7,4.59-15.33,4.59c-3.08141.039484-6.159322-.221753-9.19-.78-2.648186-.548896-5.201871-1.482102-7.58-2.77-1.578667-2.16074-2.454912-4.754565-2.51-7.43-.065081-2.357833.872493-4.632722,2.58-6.26c1.702425-1.644892,3.993457-2.53825,6.36-2.48c2.161625-.087334,4.302948.44713,6.17,1.54c1.726504,1.198915,2.978913,2.964317,3.54,4.99Z" transform="translate(-1.204687 0)" fill="#fff" stroke="#000" stroke-width="2" stroke-miterlimit="10"/><path id="eIMyfAm04VT17" d="M228.93,51.21v34.65c-1.220926.998106-2.618499,1.757952-4.12,2.24-2.027521.653224-4.150456.960847-6.28.91-2.205646.068437-4.383746-.504748-6.27-1.65-1.827929-.99344-2.952933-2.919817-2.92-5v-34.67c1.221491-1.00517,2.623082-1.768748,4.13-2.25c2.013797-.653063,4.123565-.960738,6.24-.91c2.220834-.053515,4.413777.503368,6.34,1.61c1.812393,1.03869,2.915931,2.981375,2.88,5.07Z" transform="translate(-1.204687 0)" fill="#fff" stroke="#000" stroke-width="2" stroke-miterlimit="10"/><path d="M252.81,75.06c.215308.002077.426801-.056864.61-.17v-3c1.964582-1.21054,4.127968-2.063707,6.39-2.52c2.618504-.644391,5.303446-.980009,8-1c1.395659,1.553683,2.421314,3.403281,3,5.41.716943,2.099075,1.11799,4.293034,1.19,6.51-.592084,1.076262-1.355397,2.048979-2.26,2.88-1.150358,1.09456-2.429784,2.044895-3.81,2.83-3.882198,2.236857-8.300279,3.374219-12.78,3.29q-10.34,0-16.27-6-6.13-6.07-6.14-16.82t6.71-16.89c1.980563-1.845693,4.323574-3.258992,6.88-4.15c2.650659-.930227,5.440871-1.400336,8.25-1.39q8.44,0,13.85,4.09t5.4,10.1q0,4.53-2.78,6.69c-2.20192,1.549931-4.861147,2.314238-7.55,2.17-1.833496-.020477-3.637321-.465443-5.27-1.3q-2.64-1.29-3.15-2.43c0-1.83,0-3.27.1-4.32-.075244-.020884-.154756-.020884-.23,0h-.24c-.291712-.014126-.57671.090494-.79.29-.260776.350209-.432382.758633-.5,1.19-.207702,1.63458-.281281,3.283417-.22,4.93q0,9.61,1.61,9.61Z" transform="translate(-1.204687 0)" fill="#fff" stroke="#000" stroke-width="2" stroke-miterlimit="10"/><path d="M287.8,76.43c-.204276.245695-.323552.550901-.34.87c0,.65.61,1.19,1.83,1.63c1.4345.479122,2.928994.755132,4.44.82.29,3.22.61,5,.94,5.5-.42.83-1.6,1.66-3.52,2.5-2.059716.864005-4.276761,1.289705-6.51,1.25-2.86823.098226-5.708298-.59363-8.21-2Q273,84.88,273,81.63c-.008695-.517896.045025-1.034953.16-1.54l7.15-31.94c1.981337-1.22003,4.140521-2.124188,6.4-2.68c2.529855-.66382,5.134504-.999903,7.75-1c3.389765-.091336,6.757507.571283,9.86,1.94Q309,48.66,310,52.85l7.65,31.63Q314.15,89,306.28,89c-2.236477.069388-4.45647-.404119-6.47-1.38-1.615993-.713829-2.773293-2.181989-3.09-3.92L296,79.62c1.331985-.024733,2.649036-.285434,3.89-.77c1.25-.5,1.88-1,1.88-1.55.014206-.346697-.152327-.675978-.44-.87-.945811.64226-1.999157,1.109661-3.11,1.38-1.119924.295781-2.271792.453618-3.43.47q-4.55,0-6.99-1.85Zm7.48-9.79c.349265.015571.695847-.067608,1-.24q-.87-5.1-1.17-6c-.25-.64-.62-1-1.11-1-.280072.015819-.554752.083641-.81.2l1.28,6.78c.22684.187017.516692.280056.81.26Z" transform="translate(-1.204687 0)" fill="#fff" stroke="#000" stroke-width="2" stroke-miterlimit="10"/><path d="M342.47,62.28v23.58c-1.223246,1.000199-2.624503,1.760202-4.13,2.24-2.023777.654537-4.14365.962206-6.27.91-2.205646.068437-4.383746-.504748-6.27-1.65-1.8312-.990063-2.957481-2.918627-2.92-5v-21.63h-7.81c-1.577829-2.197153-2.42446-4.835004-2.42-7.54-.036262-1.66037.26658-3.310685.89-4.85.483176-1.218634,1.235198-2.312484,2.2-3.2h34.68c.695528,1.136396,1.227425,2.365147,1.58,3.65.416236,1.382025.63177,2.816679.64,4.26c0,2.64-.59,4.58-1.75,5.82-1.223149,1.265546-2.931941,1.943234-4.69,1.86h-9.8c-.068696.161117-.102765.334871-.1.51.001245.403894.299846.745152.7.8c1.039353.210385,2.100795.291001,3.16.24Z" transform="translate(-2.409374 0)" fill="#fff" stroke="#000" stroke-width="2" stroke-miterlimit="10"/></g><g><path id="eIMyfAm04VT22" d="M455.672124,300.862108c0,0-.592853-12.402138,4.407147-13.662138s19.391422,11.899289,15.560729,24.00003" fill="#fff" stroke="#010212" stroke-width="5" stroke-linecap="round" stroke-linejoin="round"/><path id="eIMyfAm04VT23" d="M480.62,394.31c21.52-40,6.009116-77.278156-4.460884-88.088156-20-20.63-47-4.87-45.56,17.83s-14.719116,25.818156-24.489116,43.328156c-6.35,11.39-.49,38.13,23.12,38.13h55.12c4.81-8.38-2.47-10.73-3.73-11.2Z" fill="#fff" stroke="#010212" stroke-width="5" stroke-linecap="round" stroke-linejoin="round"/><path id="eIMyfAm04VT24" d="M432.53702,319.490004c.1-12.89-6.482287-26.125595-2.426319-28.10325c5.910184,1.64283,11.830662,4.147646,15.246319,10.068132" fill="#fff" stroke="#010212" stroke-width="5" stroke-linecap="round" stroke-linejoin="round"/><path id="eIMyfAm04VT25" d="M387.720748,324.463609c-4.947422-8.37277,14.494857-2.619424,7.435828,37.246823C389.662124,398.011151,427.74,398.5,427.74,398.5h13.12" transform="matrix(.981132-.193338 0.193338 0.981132-65.843846 89.816901)" fill="none" stroke="#fff" stroke-width="9" stroke-linecap="round" stroke-miterlimit="10"/><path d="M416.84,376.76c2.773776-6.792035,9.255881-11.340799,16.586395-11.639366s14.161071,3.707982,17.478012,10.251947s2.510154,14.421657-2.064407,20.157419c-.215395.28589-.217599.679264-.005421.96755s.588424.403121.925421.28245c5.07-1.81,13.16-3,11.83,8.57" fill="none" stroke="#010212" stroke-width="5" stroke-linecap="round" stroke-linejoin="round"/><g id="eIMyfAm04VT27" transform="matrix(.994265-.106944 0.106944 0.994265-28.032206 48.889495)"><ellipse rx="10.42" ry="12.79" transform="matrix(.955072-.296375 0.296375 0.955072 429.653191 312.708857)" fill="#010212"/><path id="eIMyfAm04VT29" d="M449.74,286.72c-1.7-1-16.48-8.77-26.56-1.63-6.69,4.74-5.34,12.33-2.72,18.1.108841.234727.31978.406199.571789.464806s.516965-.002192.718211-.164806c.690527-.547723,1.477382-.961499,2.32-1.22c1.185954-.367114,2.446534-.422221,3.66-.16.186541.040666.378811-.038124.483173-.197998s.099121-.367596-.013173-.522002c-1.85-2.49-5.44-8.37-1.89-12.76c4.63-5.72,16-4.49,24.32,0s.81-.95-.89-1.91Z" transform="translate(.483672 1.346463)" fill="#22ff95"/><ellipse rx="6.17" ry="8.42" transform="matrix(.959999-.3 0.3 0.96 426.105662 309.093832)" fill="#010212"/><ellipse rx="6.17" ry="8.42" transform="matrix(.96-.3 0.3 0.96 427.654925 313.095513)" fill="#22ff95"/></g><path id="eIMyfAm04VT32" d="M467.71,323c2.101133-1.682858,4.85636-2.31273,7.48-1.71.88.21.33,7.23-2,7.64s-6.35-5.26-5.48-5.93Z" transform="translate(3.761145 0.663733)"/></g></g>
<script><![CDATA[
(function(s,i,u,o,c,w,d,t,n,x,e,p,a,b){(a=Array.from(d.querySelectorAll('svg#' + i.root)).filter(n=> !n.svgatorPlayer)[0]||{}).svgatorPlayer={ready:(function(a){b=[];return function(c){return c?(b.push(c),a.svgatorPlayer):b}})(a)};w[o]=w[o]||{};w[o][s]=w[o][s]||[];w[o][s].push(i);e=d.createElementNS(n,t);e.async=true;e.setAttributeNS(x,'href',[u,s,'.','j','s','?','v','=',c].join(''));e.setAttributeNS(null,'src',[u,s,'.','j','s','?','v','=',c].join(''));p=d.getElementsByTagName(t)[0];p.parentNode.insertBefore(e,p);})('91c80d77',{"root":"eIMyfAm04VT1","version":"2022-05-04","animations":[{"elements":{"eIMyfAm04VT3":{"transform":{"data":{"s":{"x":0.64866,"y":0.64866},"t":{"x":-27.657703,"y":-27.657703}},"keys":{"o":[{"t":1800,"v":{"x":382.003556,"y":966.431933,"type":"corner"}},{"t":5300,"v":{"x":382.291435,"y":673.393586,"type":"corner"}}],"r":[{"t":1800,"v":135},{"t":5300,"v":495}]}},"opacity":[{"t":2300,"v":0.25},{"t":5300,"v":0}]},"eIMyfAm04VT4":{"transform":{"data":{"s":{"x":0.520387,"y":0.520387},"t":{"x":-27.657703,"y":-27.657703}},"keys":{"o":[{"t":2100,"v":{"x":524.271034,"y":966.431933,"type":"corner"}},{"t":5100,"v":{"x":524.060986,"y":753.249659,"type":"corner"}}],"r":[{"t":2100,"v":135},{"t":5100,"v":495}]}},"opacity":[{"t":2600,"v":0.25},{"t":5100,"v":0}]},"eIMyfAm04VT5":{"transform":{"data":{"s":{"x":1.012513,"y":1.012513},"t":{"x":-27.657703,"y":-27.657703}},"keys":{"o":[{"t":0,"v":{"x":671.063386,"y":1014.181771,"type":"corner"}},{"t":1200,"v":{"x":671.063386,"y":962.431934,"type":"corner"}},{"t":4700,"v":{"x":669.110592,"y":673.393586,"type":"corner"}}],"r":[{"t":1200,"v":180},{"t":4700,"v":495}]}},"opacity":[{"t":1700,"v":0.3,"e":[0.39,0.575,0.565,1]},{"t":4700,"v":0}]},"eIMyfAm04VT6":{"transform":{"data":{"s":{"x":0.601838,"y":0.601838},"t":{"x":-27.657703,"y":-27.657703}},"keys":{"o":[{"t":0,"v":{"x":725.139206,"y":982.113703,"type":"corner"}},{"t":2800,"v":{"x":725.139206,"y":690.737354,"type":"corner"}}],"r":[{"t":0,"v":0},{"t":2800,"v":270}]}},"opacity":[{"t":0,"v":0.3,"e":[0.39,0.575,0.565,1]},{"t":2800,"v":0}]},"eIMyfAm04VT7":{"transform":{"data":{"s":{"x":0.386456,"y":0.386456},"t":{"x":-27.657703,"y":-27.657703}},"keys":{"o":[{"t":3500,"v":{"x":283.683885,"y":966.431934,"type":"corner"}},{"t":6000,"v":{"x":283.572951,"y":615.623218,"type":"corner"}}],"r":[{"t":3500,"v":0},{"t":6000,"v":450}]}},"opacity":[{"t":3500,"v":0.2,"e":[0.39,0.575,0.565,1]},{"t":6000,"v":0}]},"eIMyfAm04VT8":{"transform":{"data":{"s":{"x":1.321104,"y":1.321104},"t":{"x":-27.657703,"y":-27.657703}},"keys":{"o":[{"t":0,"v":{"x":533.001296,"y":1022.045416,"type":"corner"}},{"t":2500,"v":{"x":531.689726,"y":783.852974,"type":"corner"}}],"r":[{"t":0,"v":0},{"t":2500,"v":360}]}},"opacity":[{"t":0,"v":0.3,"e":[0.47,0,0.745,0.715]},{"t":2500,"v":0}]},"eIMyfAm04VT9":{"transform":{"data":{"t":{"x":-38.357055,"y":-50.8043}},"keys":{"o":[{"t":0,"v":{"x":137.541444,"y":140.053547,"type":"cusp","end":{"x":168.895062,"y":134.190712}},"e":[0.455,0.03,0.515,0.955]},{"t":1000,"v":{"x":173.652168,"y":106.179831,"type":"cusp","start":{"x":147.096403,"y":111.474951}},"e":[1,1]},{"t":3000,"v":{"x":137.541444,"y":140.053547,"type":"cusp","end":{"x":168.895062,"y":134.190712}},"e":[0.455,0.03,0.515,0.955]},{"t":4000,"v":{"x":173.652168,"y":106.179831,"type":"cusp","start":{"x":147.096403,"y":111.474951}},"e":[1,0]}],"r":[{"t":0,"v":0,"e":[0.455,0.03,0.515,0.955]},{"t":1000,"v":-19.853032,"e":[1,1]},{"t":3000,"v":0,"e":[0.455,0.03,0.515,0.955]},{"t":4000,"v":-19.853032,"e":[1,0]}],"s":[{"t":0,"v":{"x":0,"y":0}},{"t":200,"v":{"x":0.328932,"y":0.328932},"e":[0.93,0.21,0.78,1.02]},{"t":1000,"v":{"x":0.064393,"y":0.064393},"e":[1,1]},{"t":3000,"v":{"x":0,"y":0}},{"t":3200,"v":{"x":0.328932,"y":0.328932},"e":[0.93,0.21,0.78,1.02]},{"t":4000,"v":{"x":0.064393,"y":0.064393},"e":[1,0]}]}},"opacity":[{"t":500,"v":1},{"t":1000,"v":0,"e":[1,1]},{"t":3500,"v":1},{"t":4000,"v":0,"e":[1,0]}]},"eIMyfAm04VT10":{"transform":{"data":{"t":{"x":-38.357055,"y":-50.8043}},"keys":{"o":[{"t":0,"v":{"x":130.78965,"y":134.567715,"type":"cusp","end":{"x":162.143268,"y":128.70488}},"e":[0.455,0.03,0.515,0.955]},{"t":1600,"v":{"x":166.900374,"y":100.693999,"type":"cusp","start":{"x":140.344609,"y":105.989119}},"e":[1,1]},{"t":3000,"v":{"x":130.78965,"y":134.567715,"type":"cusp","end":{"x":162.143268,"y":128.70488}},"e":[0.455,0.03,0.515,0.955]},{"t":4600,"v":{"x":166.900374,"y":100.693999,"type":"cusp","start":{"x":140.344609,"y":105.989119}},"e":[1,0]}],"r":[{"t":0,"v":0,"e":[0.455,0.03,0.515,0.955]},{"t":1600,"v":-19.853032,"e":[1,1]},{"t":3000,"v":0,"e":[0.455,0.03,0.515,0.955]},{"t":4600,"v":-19.853032,"e":[1,0]}],"s":[{"t":200,"v":{"x":0,"y":0}},{"t":400,"v":{"x":0.328932,"y":0.328932},"e":[0.93,0.21,0.78,1.02]},{"t":1600,"v":{"x":0.064393,"y":0.064393},"e":[1,1]},{"t":3200,"v":{"x":0,"y":0}},{"t":3400,"v":{"x":0.328932,"y":0.328932},"e":[0.93,0.21,0.78,1.02]},{"t":4600,"v":{"x":0.064393,"y":0.064393},"e":[1,0]}]}},"opacity":[{"t":1100,"v":1},{"t":1600,"v":0,"e":[1,1]},{"t":4100,"v":1},{"t":4600,"v":0,"e":[1,0]}]},"eIMyfAm04VT11":{"transform":{"data":{"t":{"x":-38.357055,"y":-50.8043}},"keys":{"o":[{"t":0,"v":{"x":144.715225,"y":161.152902,"type":"cusp","end":{"x":142.309876,"y":139.254558}},"e":[0.455,0.03,0.515,0.955]},{"t":2000,"v":{"x":179.138,"y":118.417457,"type":"cusp","start":{"x":152.582235,"y":123.712577}},"e":[1,1]},{"t":3000,"v":{"x":144.715225,"y":161.152902,"type":"cusp","end":{"x":142.309876,"y":139.254558}},"e":[0.455,0.03,0.515,0.955]},{"t":5000,"v":{"x":179.138,"y":118.417457,"type":"cusp","start":{"x":152.582235,"y":123.712577}},"e":[1,0]}],"r":[{"t":0,"v":0,"e":[0.455,0.03,0.515,0.955]},{"t":2000,"v":-19.853032,"e":[1,1]},{"t":3000,"v":0,"e":[0.455,0.03,0.515,0.955]},{"t":5000,"v":-19.853032,"e":[1,0]}],"s":[{"t":400,"v":{"x":0,"y":0}},{"t":600,"v":{"x":0.328932,"y":0.328932},"e":[0.93,0.21,0.78,1.02]},{"t":2000,"v":{"x":0.064393,"y":0.064393},"e":[1,1]},{"t":3400,"v":{"x":0,"y":0}},{"t":3600,"v":{"x":0.328932,"y":0.328932},"e":[0.93,0.21,0.78,1.02]},{"t":5000,"v":{"x":0.064393,"y":0.064393},"e":[1,0]}]}},"opacity":[{"t":1500,"v":1},{"t":2000,"v":0,"e":[1,1]},{"t":4500,"v":1},{"t":5000,"v":0,"e":[1,0]}]},"eIMyfAm04VT14":{"fill":[{"t":0,"v":{"t":"c","v":{"r":255,"g":255,"b":255,"a":1}},"e":[0.77,0,0.175,1]},{"t":1100,"v":{"t":"c","v":{"r":45,"g":255,"b":154,"a":1}}},{"t":4000,"v":{"t":"c","v":{"r":45,"g":255,"b":154,"a":1}}},{"t":5100,"v":{"t":"c","v":{"r":255,"g":255,"b":255,"a":1}},"e":[0.77,0,0.175,1]}]},"eIMyfAm04VT15":{"fill":[{"t":0,"v":{"t":"c","v":{"r":255,"g":255,"b":255,"a":1}},"e":[0.77,0,0.175,1]},{"t":1100,"v":{"t":"c","v":{"r":45,"g":255,"b":154,"a":1}}},{"t":4000,"v":{"t":"c","v":{"r":45,"g":255,"b":154,"a":1}}},{"t":5100,"v":{"t":"c","v":{"r":255,"g":255,"b":255,"a":1}},"e":[0.77,0,0.175,1]}]},"eIMyfAm04VT16":{"fill":[{"t":0,"v":{"t":"c","v":{"r":255,"g":255,"b":255,"a":1}},"e":[0.77,0,0.175,1]},{"t":1100,"v":{"t":"c","v":{"r":45,"g":255,"b":154,"a":1}}},{"t":4000,"v":{"t":"c","v":{"r":45,"g":255,"b":154,"a":1}}},{"t":5100,"v":{"t":"c","v":{"r":255,"g":255,"b":255,"a":1}},"e":[0.77,0,0.175,1]}]},"eIMyfAm04VT17":{"fill":[{"t":0,"v":{"t":"c","v":{"r":255,"g":255,"b":255,"a":1}},"e":[0.77,0,0.175,1]},{"t":1100,"v":{"t":"c","v":{"r":45,"g":255,"b":154,"a":1}}},{"t":4000,"v":{"t":"c","v":{"r":45,"g":255,"b":154,"a":1}}},{"t":5100,"v":{"t":"c","v":{"r":255,"g":255,"b":255,"a":1}},"e":[0.77,0,0.175,1]}]},"eIMyfAm04VT22":{"d":[{"t":0,"v":["M",455.672124,300.862108,"C",455.672124,300.862108,455.079271,288.45997,460.079271,287.19997,"C",465.079271,285.93997,479.470693,299.099259,475.64,311.2]},{"t":500,"v":["M",454.47,296.56,"C",454.47,296.56,458.47,285.46,463.47,284.2,"C",468.47,282.94,478.16,300.51,475.64,311.2]},{"t":1000,"v":["M",455.672124,300.862108,"C",455.672124,300.862108,455.079271,288.45997,460.079271,287.19997,"C",465.079271,285.93997,479.470693,299.099259,475.64,311.2]},{"t":1500,"v":["M",454.47,296.56,"C",454.47,296.56,458.47,285.46,463.47,284.2,"C",468.47,282.94,478.16,300.51,475.64,311.2]},{"t":2000,"v":["M",455.672124,300.862108,"C",455.672124,300.862108,455.079271,288.45997,460.079271,287.19997,"C",465.079271,285.93997,479.470693,299.099259,475.64,311.2]},{"t":2500,"v":["M",454.47,296.56,"C",454.47,296.56,458.47,285.46,463.47,284.2,"C",468.47,282.94,478.16,300.51,475.64,311.2]},{"t":3000,"v":["M",455.672124,300.862108,"C",455.672124,300.862108,455.079271,288.45997,460.079271,287.19997,"C",465.079271,285.93997,479.470693,299.099259,475.64,311.2]},{"t":3500,"v":["M",454.47,296.56,"C",454.47,296.56,458.47,285.46,463.47,284.2,"C",468.47,282.94,478.16,300.51,475.64,311.2]},{"t":4000,"v":["M",455.672124,300.862108,"C",455.672124,300.862108,455.079271,288.45997,460.079271,287.19997,"C",465.079271,285.93997,479.470693,299.099259,475.64,311.2]},{"t":4500,"v":["M",454.47,296.56,"C",454.47,296.56,458.47,285.46,463.47,284.2,"C",468.47,282.94,478.16,300.51,475.64,311.2]},{"t":5000,"v":["M",455.672124,300.862108,"C",455.672124,300.862108,455.079271,288.45997,460.079271,287.19997,"C",465.079271,285.93997,479.470693,299.099259,475.64,311.2]},{"t":5500,"v":["M",454.47,296.56,"C",454.47,296.56,458.47,285.46,463.47,284.2,"C",468.47,282.94,478.16,300.51,475.64,311.2]},{"t":6000,"v":["M",455.672124,300.862108,"C",455.672124,300.862108,455.079271,288.45997,460.079271,287.19997,"C",465.079271,285.93997,479.470693,299.099259,475.64,311.2]}]},"eIMyfAm04VT23":{"d":[{"t":0,"v":["M",480.62,394.31,"C",502.14,354.31,486.629116,317.031844,476.159116,306.221844,"C",456.159116,285.591844,429.159116,301.351844,430.599116,324.051844,"C",432.039116,346.751844,415.88,349.87,406.11,367.38,"C",399.76,378.77,405.62,405.51,429.23,405.51,"L",484.35,405.51,"C",489.16,397.13,481.88,394.78,480.62,394.31,"Z"]},{"t":500,"v":["M",480.62,394.31,"C",502.14,354.31,483.43,314.64,472.96,303.83,"C",452.96,283.2,425.96,298.96,427.4,321.66,"C",428.84,344.36,415.88,349.87,406.11,367.38,"C",399.76,378.77,405.62,405.51,429.23,405.51,"L",484.35,405.51,"C",489.16,397.13,481.88,394.78,480.62,394.31,"Z"]},{"t":1000,"v":["M",480.62,394.31,"C",502.14,354.31,486.629116,317.031844,476.159116,306.221844,"C",456.159116,285.591844,429.159116,301.351844,430.599116,324.051844,"C",432.039116,346.751844,415.88,349.87,406.11,367.38,"C",399.76,378.77,405.62,405.51,429.23,405.51,"L",484.35,405.51,"C",489.16,397.13,481.88,394.78,480.62,394.31,"Z"]},{"t":1500,"v":["M",480.62,394.31,"C",502.14,354.31,483.43,314.64,472.96,303.83,"C",452.96,283.2,425.96,298.96,427.4,321.66,"C",428.84,344.36,415.88,349.87,406.11,367.38,"C",399.76,378.77,405.62,405.51,429.23,405.51,"L",484.35,405.51,"C",489.16,397.13,481.88,394.78,480.62,394.31,"Z"]},{"t":2000,"v":["M",480.62,394.31,"C",502.14,354.31,486.629116,317.031844,476.159116,306.221844,"C",456.159116,285.591844,429.159116,301.351844,430.599116,324.051844,"C",432.039116,346.751844,415.88,349.87,406.11,367.38,"C",399.76,378.77,405.62,405.51,429.23,405.51,"L",484.35,405.51,"C",489.16,397.13,481.88,394.78,480.62,394.31,"Z"]},{"t":2500,"v":["M",480.62,394.31,"C",502.14,354.31,483.43,314.64,472.96,303.83,"C",452.96,283.2,425.96,298.96,427.4,321.66,"C",428.84,344.36,415.88,349.87,406.11,367.38,"C",399.76,378.77,405.62,405.51,429.23,405.51,"L",484.35,405.51,"C",489.16,397.13,481.88,394.78,480.62,394.31,"Z"]},{"t":3000,"v":["M",480.62,394.31,"C",502.14,354.31,486.629116,317.031844,476.159116,306.221844,"C",456.159116,285.591844,429.159116,301.351844,430.599116,324.051844,"C",432.039116,346.751844,415.88,349.87,406.11,367.38,"C",399.76,378.77,405.62,405.51,429.23,405.51,"L",484.35,405.51,"C",489.16,397.13,481.88,394.78,480.62,394.31,"Z"]},{"t":3500,"v":["M",480.62,394.31,"C",502.14,354.31,483.43,314.64,472.96,303.83,"C",452.96,283.2,425.96,298.96,427.4,321.66,"C",428.84,344.36,415.88,349.87,406.11,367.38,"C",399.76,378.77,405.62,405.51,429.23,405.51,"L",484.35,405.51,"C",489.16,397.13,481.88,394.78,480.62,394.31,"Z"]},{"t":4000,"v":["M",480.62,394.31,"C",502.14,354.31,486.629116,317.031844,476.159116,306.221844,"C",456.159116,285.591844,429.159116,301.351844,430.599116,324.051844,"C",432.039116,346.751844,415.88,349.87,406.11,367.38,"C",399.76,378.77,405.62,405.51,429.23,405.51,"L",484.35,405.51,"C",489.16,397.13,481.88,394.78,480.62,394.31,"Z"]},{"t":4500,"v":["M",480.62,394.31,"C",502.14,354.31,483.43,314.64,472.96,303.83,"C",452.96,283.2,425.96,298.96,427.4,321.66,"C",428.84,344.36,415.88,349.87,406.11,367.38,"C",399.76,378.77,405.62,405.51,429.23,405.51,"L",484.35,405.51,"C",489.16,397.13,481.88,394.78,480.62,394.31,"Z"]},{"t":5000,"v":["M",480.62,394.31,"C",502.14,354.31,486.629116,317.031844,476.159116,306.221844,"C",456.159116,285.591844,429.159116,301.351844,430.599116,324.051844,"C",432.039116,346.751844,415.88,349.87,406.11,367.38,"C",399.76,378.77,405.62,405.51,429.23,405.51,"L",484.35,405.51,"C",489.16,397.13,481.88,394.78,480.62,394.31,"Z"]},{"t":5500,"v":["M",480.62,394.31,"C",502.14,354.31,483.43,314.64,472.96,303.83,"C",452.96,283.2,425.96,298.96,427.4,321.66,"C",428.84,344.36,415.88,349.87,406.11,367.38,"C",399.76,378.77,405.62,405.51,429.23,405.51,"L",484.35,405.51,"C",489.16,397.13,481.88,394.78,480.62,394.31,"Z"]},{"t":6000,"v":["M",480.62,394.31,"C",502.14,354.31,486.629116,317.031844,476.159116,306.221844,"C",456.159116,285.591844,429.159116,301.351844,430.599116,324.051844,"C",432.039116,346.751844,415.88,349.87,406.11,367.38,"C",399.76,378.77,405.62,405.51,429.23,405.51,"L",484.35,405.51,"C",489.16,397.13,481.88,394.78,480.62,394.31,"Z"]}]},"eIMyfAm04VT24":{"d":[{"t":0,"v":["M",432.53702,319.490004,"C",432.63702,306.600004,426.054733,293.364409,430.110701,291.386754,"C",436.020885,293.029584,441.941363,295.5344,445.35702,301.454886]},{"t":500,"v":["M",427.52,324.44,"C",427.62,311.55,424.52,283.18,431.91,287.75,"C",437.165881,290.920373,441.140704,295.836694,443.14,301.64]},{"t":1000,"v":["M",432.53702,319.490004,"C",432.63702,306.600004,426.054733,293.364409,430.110701,291.386754,"C",436.020885,293.029584,441.941363,295.5344,445.35702,301.454886]},{"t":1500,"v":["M",427.52,324.44,"C",427.62,311.55,424.52,283.18,431.91,287.75,"C",437.165881,290.920373,441.140704,295.836694,443.14,301.64]},{"t":2000,"v":["M",432.53702,319.490004,"C",432.63702,306.600004,426.054733,293.364409,430.110701,291.386754,"C",436.020885,293.029584,441.941363,295.5344,445.35702,301.454886]},{"t":2500,"v":["M",427.52,324.44,"C",427.62,311.55,424.52,283.18,431.91,287.75,"C",437.165881,290.920373,441.140704,295.836694,443.14,301.64]},{"t":3000,"v":["M",432.53702,319.490004,"C",432.63702,306.600004,426.054733,293.364409,430.110701,291.386754,"C",436.020885,293.029584,441.941363,295.5344,445.35702,301.454886]},{"t":3500,"v":["M",427.52,324.44,"C",427.62,311.55,424.52,283.18,431.91,287.75,"C",437.165881,290.920373,441.140704,295.836694,443.14,301.64]},{"t":4000,"v":["M",432.53702,319.490004,"C",432.63702,306.600004,426.054733,293.364409,430.110701,291.386754,"C",436.020885,293.029584,441.941363,295.5344,445.35702,301.454886]},{"t":4500,"v":["M",427.52,324.44,"C",427.62,311.55,424.52,283.18,431.91,287.75,"C",437.165881,290.920373,441.140704,295.836694,443.14,301.64]},{"t":5000,"v":["M",432.53702,319.490004,"C",432.63702,306.600004,426.054733,293.364409,430.110701,291.386754,"C",436.020885,293.029584,441.941363,295.5344,445.35702,301.454886]},{"t":5500,"v":["M",427.52,324.44,"C",427.62,311.55,424.52,283.18,431.91,287.75,"C",437.165881,290.920373,441.140704,295.836694,443.14,301.64]},{"t":6000,"v":["M",432.53702,319.490004,"C",432.63702,306.600004,426.054733,293.364409,430.110701,291.386754,"C",436.020885,293.029584,441.941363,295.5344,445.35702,301.454886]}]},"eIMyfAm04VT25":{"d":[{"t":0,"v":["M",387.720748,324.463609,"C",382.773326,316.090839,402.215605,321.844185,395.156576,361.710432,"C",389.662124,398.011151,427.74,398.5,427.74,398.5,"L",440.86,398.5],"e":[0.445,0.05,0.55,0.95]},{"t":1000,"v":["M",382.15,327.08,"C",380.15,312.08,414.51,306.61,399.79,354.92,"C",386.79,397.47,427.74,398.5,427.74,398.5,"L",440.86,398.5]},{"t":2000,"v":["M",387.720748,324.463609,"C",382.773326,316.090839,402.215605,321.844185,395.156576,361.710432,"C",389.662124,398.011151,427.74,398.5,427.74,398.5,"L",440.86,398.5],"e":[0.445,0.05,0.55,0.95]},{"t":3000,"v":["M",382.15,327.08,"C",380.15,312.08,414.51,306.61,399.79,354.92,"C",386.79,397.47,427.74,398.5,427.74,398.5,"L",440.86,398.5],"e":[0.445,0.05,0.55,0.95]},{"t":4000,"v":["M",387.720748,324.463609,"C",382.773326,316.090839,402.215605,321.844185,395.156576,361.710432,"C",389.662124,398.011151,427.74,398.5,427.74,398.5,"L",440.86,398.5],"e":[0.445,0.05,0.55,0.95]},{"t":5000,"v":["M",382.15,327.08,"C",380.15,312.08,414.51,306.61,399.79,354.92,"C",386.79,397.47,427.74,398.5,427.74,398.5,"L",440.86,398.5],"e":[0.445,0.05,0.55,0.95]},{"t":6000,"v":["M",387.720748,324.463609,"C",382.773326,316.090839,402.215605,321.844185,395.156576,361.710432,"C",389.662124,398.011151,427.74,398.5,427.74,398.5,"L",440.86,398.5],"e":[0.445,0.05,0.55,0.95]}],"transform":{"data":{"o":{"x":427.780581,"y":387.640304,"type":"corner"},"t":{"x":-426.730417,"y":-387.640304}},"keys":{"r":[{"t":0,"v":-11.147625,"e":[0.445,0.05,0.55,0.95]},{"t":1000,"v":0,"e":[0.77,0,0.175,1]},{"t":2000,"v":-11.147625,"e":[0.445,0.05,0.55,0.95]},{"t":3000,"v":0,"e":[0.445,0.05,0.55,0.95]},{"t":4000,"v":-11.147625,"e":[0.445,0.05,0.55,0.95]},{"t":5000,"v":0,"e":[0.445,0.05,0.55,0.95]},{"t":6000,"v":-11.147625,"e":[0.445,0.05,0.55,0.95]}]}}},"eIMyfAm04VT27":{"transform":{"data":{"t":{"x":-435.194046,"y":-305.057449}},"keys":{"o":[{"t":0,"v":{"x":437.289963,"y":305.656283,"type":"corner"}},{"t":500,"v":{"x":435.194046,"y":305.057449,"type":"corner"}},{"t":1000,"v":{"x":437.289963,"y":305.656283,"type":"corner"}},{"t":1500,"v":{"x":435.194046,"y":305.057449,"type":"corner"}},{"t":2000,"v":{"x":437.289963,"y":305.656283,"type":"corner"}},{"t":2500,"v":{"x":435.194046,"y":305.057449,"type":"corner"}},{"t":3000,"v":{"x":437.289963,"y":305.656283,"type":"corner"}},{"t":3500,"v":{"x":435.194046,"y":305.057449,"type":"corner"}},{"t":4000,"v":{"x":437.289963,"y":305.656283,"type":"corner"}},{"t":4500,"v":{"x":435.194046,"y":305.057449,"type":"corner"}},{"t":5000,"v":{"x":437.289963,"y":305.656283,"type":"corner"}},{"t":5500,"v":{"x":435.194046,"y":305.057449,"type":"corner"}},{"t":6000,"v":{"x":437.289963,"y":305.656283,"type":"corner"}}],"r":[{"t":0,"v":-6.139153},{"t":500,"v":-3.611084},{"t":1000,"v":-6.139153},{"t":1500,"v":-3.611084},{"t":2000,"v":-6.139153},{"t":2500,"v":-3.611084},{"t":3000,"v":-3.611084},{"t":3500,"v":-6.139153},{"t":4000,"v":-3.611084},{"t":4500,"v":-6.139153},{"t":5000,"v":-3.611084},{"t":5500,"v":-6.139153},{"t":6000,"v":-3.611084}]}}},"eIMyfAm04VT29":{"transform":{"data":{"t":{"x":-436.393433,"y":-292.889542}},"keys":{"o":[{"t":0,"v":{"x":436.877105,"y":294.236005,"type":"corner"}},{"t":500,"v":{"x":436.393433,"y":292.889542,"type":"corner"}},{"t":1000,"v":{"x":436.877105,"y":294.236005,"type":"corner"}},{"t":1500,"v":{"x":436.393433,"y":292.889542,"type":"corner"}},{"t":2000,"v":{"x":436.877105,"y":294.236005,"type":"corner"}},{"t":2500,"v":{"x":436.393433,"y":292.889542,"type":"corner"}},{"t":3000,"v":{"x":436.877105,"y":294.236005,"type":"corner"}},{"t":3500,"v":{"x":436.393433,"y":292.889542,"type":"corner"}},{"t":4000,"v":{"x":436.877105,"y":294.236005,"type":"corner"}},{"t":4500,"v":{"x":436.393433,"y":292.889542,"type":"corner"}},{"t":5000,"v":{"x":436.877105,"y":294.236005,"type":"corner"}},{"t":5500,"v":{"x":436.393433,"y":292.889542,"type":"corner"}},{"t":6000,"v":{"x":436.877105,"y":294.236005,"type":"corner"}}]}}},"eIMyfAm04VT32":{"transform":{"data":{"t":{"x":-471.587646,"y":-325.008774}},"keys":{"o":[{"t":0,"v":{"x":475.348791,"y":325.672507,"type":"corner"}},{"t":500,"v":{"x":471.587646,"y":325.008774,"type":"corner"}},{"t":1000,"v":{"x":475.348791,"y":325.672507,"type":"corner"}},{"t":1500,"v":{"x":471.587646,"y":325.008774,"type":"corner"}},{"t":2000,"v":{"x":475.348791,"y":325.672507,"type":"corner"}},{"t":2500,"v":{"x":471.587646,"y":325.008774,"type":"corner"}},{"t":3000,"v":{"x":475.348791,"y":325.672507,"type":"corner"}},{"t":3500,"v":{"x":471.587646,"y":325.008774,"type":"corner"}},{"t":4000,"v":{"x":475.348791,"y":325.672507,"type":"corner"}},{"t":4500,"v":{"x":471.587646,"y":325.008774,"type":"corner"}},{"t":5000,"v":{"x":475.348791,"y":325.672507,"type":"corner"}},{"t":5500,"v":{"x":471.587646,"y":325.008774,"type":"corner"}},{"t":6000,"v":{"x":475.348791,"y":325.672507,"type":"corner"}}]}}}},"s":"MDQA1Yzg2MmQ2ZEjgwN2Q2YzdmDNzQ3YTc5MmQG0NVU0MTNiM2AIzYjM3MmQ2ZYjc0N2Q3MDZlAN2ZVNzQ3YTcM5MmQ0NTNjMzRcyZDc0N2ZNNIzA3ZDZjN2ZLKUzc0N2E3OUUC3ZTJkNDUzYjLM3MmQ3MTc0UAjc3NzdGMmQ0YNTNjMzcyZDZSjNzc3ZjcwN2KQ3OTZjN2Y3MWDJkNDU3MTZjRNzc3ZTcwMzcNyZDdlVjdiNzCA3MDZmMmQ0NDUIzYzM3MmQ3DMTdiN2VFTDJQkNDUzZTNiODRg/"}],"options":"MDUAxZTllNDU5NIjk3ODQ5NTk3XNDU1ZDQ1OTYX4Nkc5NTkyOGYY4ZjQ1NGY0NOTk2ODY5NTkyAOGY4ZjQ1NWQY1NTU4YTA/"},'https://cdn.svgator.com/ply/','__SVGATOR_PLAYER__','2022-05-04',window,document,'script','http://www.w3.org/2000/svg','http://www.w3.org/1999/xlink')
]]></script>
</svg>
