<svg id="eOyg3jLTB4k1" xmlns="http://www.w3.org/2000/svg" xmlns:xlink="http://www.w3.org/1999/xlink" viewBox="0 0 700 400" shape-rendering="geometricPrecision" text-rendering="geometricPrecision" style="background-color:transparent">
<style><![CDATA[
#eOyg3jLTB4k11 {animation: eOyg3jLTB4k11_s_do 1500ms linear infinite normal forwards}@keyframes eOyg3jLTB4k11_s_do { 0% {stroke-dashoffset: 1095} 100% {stroke-dashoffset: 0}} #eOyg3jLTB4k12 {animation: eOyg3jLTB4k12_s_do 1500ms linear infinite normal forwards}@keyframes eOyg3jLTB4k12_s_do { 0% {stroke-dashoffset: 1095} 100% {stroke-dashoffset: 0}} #eOyg3jLTB4k13 {animation: eOyg3jLTB4k13_s_do 1500ms linear infinite normal forwards}@keyframes eOyg3jLTB4k13_s_do { 0% {stroke-dashoffset: 1095} 100% {stroke-dashoffset: 0}} #eOyg3jLTB4k16 {animation: eOyg3jLTB4k16_s_do 1500ms linear infinite normal forwards}@keyframes eOyg3jLTB4k16_s_do { 0% {stroke-dashoffset: 0} 100% {stroke-dashoffset: 2404}} #eOyg3jLTB4k17 {animation: eOyg3jLTB4k17_s_do 1500ms linear infinite normal forwards}@keyframes eOyg3jLTB4k17_s_do { 0% {stroke-dashoffset: 0} 100% {stroke-dashoffset: 2404}} #eOyg3jLTB4k18 {animation: eOyg3jLTB4k18_s_do 1500ms linear infinite normal forwards}@keyframes eOyg3jLTB4k18_s_do { 0% {stroke-dashoffset: 0} 100% {stroke-dashoffset: 2404}} #eOyg3jLTB4k21 {animation: eOyg3jLTB4k21_s_do 1500ms linear infinite normal forwards}@keyframes eOyg3jLTB4k21_s_do { 0% {stroke-dashoffset: 0} 100% {stroke-dashoffset: 1183}} #eOyg3jLTB4k22 {animation: eOyg3jLTB4k22_s_do 1500ms linear infinite normal forwards}@keyframes eOyg3jLTB4k22_s_do { 0% {stroke-dashoffset: 0} 100% {stroke-dashoffset: 1183}} #eOyg3jLTB4k23 {animation: eOyg3jLTB4k23_s_do 1500ms linear infinite normal forwards}@keyframes eOyg3jLTB4k23_s_do { 0% {stroke-dashoffset: 0} 100% {stroke-dashoffset: 1183}} #eOyg3jLTB4k26 {animation: eOyg3jLTB4k26_s_do 1500ms linear infinite normal forwards}@keyframes eOyg3jLTB4k26_s_do { 0% {stroke-dashoffset: 600} 100% {stroke-dashoffset: 0}} #eOyg3jLTB4k27 {animation: eOyg3jLTB4k27_s_do 1500ms linear infinite normal forwards}@keyframes eOyg3jLTB4k27_s_do { 0% {stroke-dashoffset: 600} 100% {stroke-dashoffset: 0}} #eOyg3jLTB4k28 {animation: eOyg3jLTB4k28_s_do 1500ms linear infinite normal forwards}@keyframes eOyg3jLTB4k28_s_do { 0% {stroke-dashoffset: 600} 100% {stroke-dashoffset: 0}}
]]></style>
<rect width="400" height="400" rx="0" ry="0" transform="translate(150 0)" stroke-width="0"/><g transform="matrix(.201154 0 0 0.201154 138.7883-11.2117)"><g><rect width="500" height="500" rx="8" ry="8" transform="matrix(1.56 0 0 1.56 1140 1140)" fill="#1f1f20"/><rect width="500" height="500" rx="8" ry="8" transform="matrix(1.56 0 0 1.56 180 1139.999999)" fill="#1f1f20"/><rect width="500" height="500" rx="8" ry="8" transform="matrix(1.56 0 0 1.56 1140 180)" fill="#1f1f20"/><rect width="500" height="500" rx="8" ry="8" transform="matrix(1.56 0 0 1.56 180 180)" fill="#1f1f20"/></g><g transform="translate(0 0.000001)"><path d="M13,75.43c29.59,90.49,141.33,90.49,169.38,0c25.62-82.54-107.18-83.17-79.09,0c30.55,90.49,195.21,90.49,220.83,0c23.75-83.9-105.93-82.87-78.9.89c28.92,89.6,138.19,89.6,167.78-.89" transform="translate(1317 1451.999289)" opacity="0.15" fill="none" stroke="#5e5e5e" stroke-width="26" stroke-linecap="round" stroke-linejoin="round"/><path id="eOyg3jLTB4k11" d="M13,75.43c29.59,90.49,141.33,90.49,169.38,0c25.62-82.54-107.18-83.17-79.09,0c30.55,90.49,195.21,90.49,220.83,0c23.75-83.9-105.93-82.87-78.9.89c28.92,89.6,138.19,89.6,167.78-.89" transform="translate(1317 1451.999289)" fill="none" stroke="#f8bb2f" stroke-width="26" stroke-linecap="round" stroke-linejoin="round" stroke-dashoffset="1095" stroke-dasharray="350,745"/><path id="eOyg3jLTB4k12" d="M13,75.43c29.59,90.49,141.33,90.49,169.38,0c25.62-82.54-107.18-83.17-79.09,0c30.55,90.49,195.21,90.49,220.83,0c23.75-83.9-105.93-82.87-78.9.89c28.92,89.6,138.19,89.6,167.78-.89" transform="translate(1317 1451.999289)" fill="none" stroke="#f88e4f" stroke-width="26" stroke-linecap="round" stroke-linejoin="round" stroke-dashoffset="1095" stroke-dasharray="200,895"/><path id="eOyg3jLTB4k13" d="M13,75.43c29.59,90.49,141.33,90.49,169.38,0c25.62-82.54-107.18-83.17-79.09,0c30.55,90.49,195.21,90.49,220.83,0c23.75-83.9-105.93-82.87-78.9.89c28.92,89.6,138.19,89.6,167.78-.89" transform="translate(1317 1451.999289)" fill="none" stroke="#f85b65" stroke-width="26" stroke-linecap="round" stroke-linejoin="round" stroke-dashoffset="1095" stroke-dasharray="50,1045"/></g><g><path d="M265.18,86.91c0-40.819366,33.090634-73.91,73.91-73.91s73.91,33.090634,73.91,73.91-33.090634,73.91-73.91,73.91h-252.18C46.090634,160.82,13,127.729366,13,86.91s33.090634-73.91,73.91-73.91s73.91,33.090634,73.91,73.91v252.18c0,40.819366-33.090634,73.91-73.91,73.91s-73.91-33.090634-73.91-73.91s33.090634-73.91,73.91-73.91h252.18c40.819366,0,73.91,33.090634,73.91,73.91s-33.090634,73.91-73.91,73.91-73.91-33.090634-73.91-73.91v-252.18" transform="translate(357 1317)" opacity="0.15" fill="none" stroke="#5e5e5e" stroke-width="26" stroke-linecap="round" stroke-linejoin="round"/><path id="eOyg3jLTB4k16" d="M265.18,86.91c0-40.819366,33.090634-73.91,73.91-73.91s73.91,33.090634,73.91,73.91-33.090634,73.91-73.91,73.91h-252.18C46.090634,160.82,13,127.729366,13,86.91s33.090634-73.91,73.91-73.91s73.91,33.090634,73.91,73.91v252.18c0,40.819366-33.090634,73.91-73.91,73.91s-73.91-33.090634-73.91-73.91s33.090634-73.91,73.91-73.91h252.18c40.819366,0,73.91,33.090634,73.91,73.91s-33.090634,73.91-73.91,73.91-73.91-33.090634-73.91-73.91v-252.18" transform="translate(357 1317)" fill="none" stroke="#9338ff" stroke-width="26" stroke-linecap="round" stroke-linejoin="round" stroke-dasharray="550,1854"/><path id="eOyg3jLTB4k17" d="M265.18,86.91c0-40.819366,33.090634-73.91,73.91-73.91s73.91,33.090634,73.91,73.91-33.090634,73.91-73.91,73.91h-252.18C46.090634,160.82,13,127.729366,13,86.91s33.090634-73.91,73.91-73.91s73.91,33.090634,73.91,73.91v252.18c0,40.819366-33.090634,73.91-73.91,73.91s-73.91-33.090634-73.91-73.91s33.090634-73.91,73.91-73.91h252.18c40.819366,0,73.91,33.090634,73.91,73.91s-33.090634,73.91-73.91,73.91-73.91-33.090634-73.91-73.91v-252.18" transform="translate(357 1317)" fill="none" stroke="#c342ff" stroke-width="26" stroke-linecap="round" stroke-linejoin="round" stroke-dasharray="250,2154"/><path id="eOyg3jLTB4k18" d="M265.18,86.91c0-40.819366,33.090634-73.91,73.91-73.91s73.91,33.090634,73.91,73.91-33.090634,73.91-73.91,73.91h-252.18C46.090634,160.82,13,127.729366,13,86.91s33.090634-73.91,73.91-73.91s73.91,33.090634,73.91,73.91v252.18c0,40.819366-33.090634,73.91-73.91,73.91s-73.91-33.090634-73.91-73.91s33.090634-73.91,73.91-73.91h252.18c40.819366,0,73.91,33.090634,73.91,73.91s-33.090634,73.91-73.91,73.91-73.91-33.090634-73.91-73.91v-252.18" transform="translate(357 1317)" fill="none" stroke="#ff75ff" stroke-width="26" stroke-linecap="round" stroke-linejoin="round" stroke-dasharray="100,2304"/></g><g><path d="M240,57.83c23.194436-38.586743,70.662578-55.068304,112.778985-39.158343s66.831519,59.659585,58.720338,103.944202-46.728038,76.434341-91.749323,76.384141C268.25,199,241,147.68,213,106c-28.63-42.69-55.25-93-106.75-93-44.873366.107559-83.270456,32.24212-91.282643,76.394531s16.645793,87.729361,58.620214,103.596892s89.293186-.500153,112.492429-38.911423" transform="translate(1316.534983 463.990189)" opacity="0.15" fill="none" stroke="#5e5e5e" stroke-width="26" stroke-linecap="round" stroke-linejoin="round"/><path id="eOyg3jLTB4k21" d="M240,57.83c23.194436-38.586743,70.662578-55.068304,112.778985-39.158343s66.831519,59.659585,58.720338,103.944202-46.728038,76.434341-91.749323,76.384141C268.25,199,241,147.68,213,106c-28.63-42.69-55.25-93-106.75-93-44.873366.107559-83.270456,32.24212-91.282643,76.394531s16.645793,87.729361,58.620214,103.596892s89.293186-.500153,112.492429-38.911423" transform="translate(1316.534983 463.990189)" fill="none" stroke="#1e91ff" stroke-width="26" stroke-linecap="round" stroke-linejoin="round" stroke-dasharray="450,733"/><path id="eOyg3jLTB4k22" d="M240,57.83c23.194436-38.586743,70.662578-55.068304,112.778985-39.158343s66.831519,59.659585,58.720338,103.944202-46.728038,76.434341-91.749323,76.384141C268.25,199,241,147.68,213,106c-28.63-42.69-55.25-93-106.75-93-44.873366.107559-83.270456,32.24212-91.282643,76.394531s16.645793,87.729361,58.620214,103.596892s89.293186-.500153,112.492429-38.911423" transform="translate(1316.534983 463.990189)" fill="none" stroke="#25caff" stroke-width="26" stroke-linecap="round" stroke-linejoin="round" stroke-dasharray="250,933"/><path id="eOyg3jLTB4k23" d="M240,57.83c23.194436-38.586743,70.662578-55.068304,112.778985-39.158343s66.831519,59.659585,58.720338,103.944202-46.728038,76.434341-91.749323,76.384141C268.25,199,241,147.68,213,106c-28.63-42.69-55.25-93-106.75-93-44.873366.107559-83.270456,32.24212-91.282643,76.394531s16.645793,87.729361,58.620214,103.596892s89.293186-.500153,112.492429-38.911423" transform="translate(1316.534983 463.990189)" fill="none" stroke="#7bfff2" stroke-width="26" stroke-linecap="round" stroke-linejoin="round" stroke-dasharray="50,1133"/></g><g><path d="M13,17c8.6,5.91,11.27,16.46,17.12,24.53C36.91,50.87,48.06,54.8,58.25,48C72.2,38.78,76.72,9.92,98,13.85c20.06,3.7,20.11,33.34,40.55,37.49c22.81,4.64,24.85-29.76,42.06-36.75c26.73-10.85,29.24,37.48,53.9,36.47c21-.87,22.31-29.87,40.37-36.35c23.7-8.52,27,26,42.22,34.55c21.74,12.2,31.52-19.7,43.49-30.6c7-6.38,16.51-6.87,24.21-1.14c7.85,5.85,11.29,15.59,16.9,23.25c2.94,4,6.59,7.52,11.32,9.37" transform="translate(357 538.016178)" opacity="0.15" fill="none" stroke="#5e5e5e" stroke-width="26" stroke-linecap="round" stroke-linejoin="round"/><path id="eOyg3jLTB4k26" d="M13,17c8.6,5.91,11.27,16.46,17.12,24.53C36.91,50.87,48.06,54.8,58.25,48C72.2,38.78,76.72,9.92,98,13.85c20.06,3.7,20.11,33.34,40.55,37.49c22.81,4.64,24.85-29.76,42.06-36.75c26.73-10.85,29.24,37.48,53.9,36.47c21-.87,22.31-29.87,40.37-36.35c23.7-8.52,27,26,42.22,34.55c21.74,12.2,31.52-19.7,43.49-30.6c7-6.38,16.51-6.87,24.21-1.14c7.85,5.85,11.29,15.59,16.9,23.25c2.94,4,6.59,7.52,11.32,9.37" transform="translate(357 538.016178)" fill="none" stroke="#eaff80" stroke-width="26" stroke-linecap="round" stroke-linejoin="round" stroke-dashoffset="600" stroke-dasharray="350,250"/><path id="eOyg3jLTB4k27" d="M13,17c8.6,5.91,11.27,16.46,17.12,24.53C36.91,50.87,48.06,54.8,58.25,48C72.2,38.78,76.72,9.92,98,13.85c20.06,3.7,20.11,33.34,40.55,37.49c22.81,4.64,24.85-29.76,42.06-36.75c26.73-10.85,29.24,37.48,53.9,36.47c21-.87,22.31-29.87,40.37-36.35c23.7-8.52,27,26,42.22,34.55c21.74,12.2,31.52-19.7,43.49-30.6c7-6.38,16.51-6.87,24.21-1.14c7.85,5.85,11.29,15.59,16.9,23.25c2.94,4,6.59,7.52,11.32,9.37" transform="translate(357 538.016178)" fill="none" stroke="#c3e806" stroke-width="26" stroke-linecap="round" stroke-linejoin="round" stroke-dashoffset="600" stroke-dasharray="200,400"/><path id="eOyg3jLTB4k28" d="M13,17c8.6,5.91,11.27,16.46,17.12,24.53C36.91,50.87,48.06,54.8,58.25,48C72.2,38.78,76.72,9.92,98,13.85c20.06,3.7,20.11,33.34,40.55,37.49c22.81,4.64,24.85-29.76,42.06-36.75c26.73-10.85,29.24,37.48,53.9,36.47c21-.87,22.31-29.87,40.37-36.35c23.7-8.52,27,26,42.22,34.55c21.74,12.2,31.52-19.7,43.49-30.6c7-6.38,16.51-6.87,24.21-1.14c7.85,5.85,11.29,15.59,16.9,23.25c2.94,4,6.59,7.52,11.32,9.37" transform="translate(357 538.016178)" fill="none" stroke="#8ecc06" stroke-width="26" stroke-linecap="round" stroke-linejoin="round" stroke-dashoffset="600" stroke-dasharray="100,500"/></g></g></svg>
