<svg id="eYAuJFnRt3y1" xmlns="http://www.w3.org/2000/svg" xmlns:xlink="http://www.w3.org/1999/xlink" viewBox="0 0 700 400" shape-rendering="geometricPrecision" text-rendering="geometricPrecision" project-id="1365f419715d45e4a665beaab91e9c5d" export-id="274e62712c5642b28db991a7a484f76d" cached="false" style="background-color:#23193e"><g transform="matrix(.32945 0 0 0.32945 170.744781-110.494913)"><g id="eYAuJFnRt3y3" transform="matrix(.844674 0 0 0.844674 83.878358 151.706207)"><g id="eYAuJFnRt3y4" transform="translate(187.770002-108.380033)"><polygon points="352.212172,1065.097574 352.32,1195.3 464.93,1130.28 464.93,1000.24 352.212172,1065.097574" fill="#37b1ff" stroke-width="0"/><polygon points="352.26,1065.13 352.32,1195.3 239.71,1130.28 239.65,1000.11 352.26,1065.13" fill="#338fe3" stroke-width="0"/><polygon points="239.65,1000.1 352.249335,1065.209064 464.93,1000.24 352.26,935.08 239.65,1000.1" fill="#3edffb" stroke-width="0"/></g><g id="eYAuJFnRt3y8" transform="translate(187.659934 108.600061)"><polygon points="352.183029,848.321057 352.34,978.51 464.95,913.49 464.95,783.45 352.183029,848.321057" fill="#37b1ff" stroke-width="0"/><polygon points="352.28,848.34 352.34,978.51 239.73,913.49 239.67,783.32 352.28,848.34" fill="#338fe3" stroke-width="0"/><polygon points="239.67,783.31 352.28,848.33 464.95,783.45 352.28,718.29 239.67,783.31" fill="#3edffb" stroke-width="0"/></g><g id="eYAuJFnRt3y12" transform="translate(187.789983 325.040016)"><polygon points="351.745881,632.344229 352.27,761.88 464.88,696.86 464.88,566.82 351.745881,632.344229" fill="#37b1ff" stroke-width="0"/><polygon points="352.081744,632.084894 352.27,761.88 239.66,696.86 239.6,566.69 352.081744,632.084894" fill="#338fe3" stroke-width="0"/><polygon points="239.6,566.68 352.014404,632.308721 464.88,566.82 352.21,501.66 239.6,566.68" fill="#3edffb" stroke-width="0"/></g><g id="eYAuJFnRt3y16" transform="translate(0-216.760014)"><polygon points="539.871161,1173.40812 540,1303.56 652.61,1238.54 652.61,1108.5 539.871161,1173.40812" fill="#37b1ff" stroke-width="0"/><polygon points="539.965873,1173.408121 540,1303.56 427.39,1238.54 427.33,1108.37 539.965873,1173.408121" fill="#338fe3" stroke-width="0"/><polygon points="427.33,1108.36 539.94,1173.38 652.61,1108.5 539.94,1043.33 427.33,1108.36" fill="#3edffb" stroke-width="0"/></g><g><polygon points="539.804509,956.728454 540,1086.93 652.61,1021.91 652.61,891.87 539.804509,956.728454" fill="#37b1ff" stroke-width="0"/><polygon points="540.204085,956.900499 540,1086.93 427.39,1021.91 427.33,891.74 540.204085,956.900499" fill="#338fe3" stroke-width="0"/><polygon points="427.33,891.73 539.94,956.75 652.61,891.87 539.94,826.7 427.33,891.73" fill="#3edffb" stroke-width="0"/></g><g id="eYAuJFnRt3y24" transform="translate(0 216.774994)"><polygon points="539.935493,739.897568 540,870.09 652.61,805.07 652.61,675.03 539.935493,739.897568" fill="#37b1ff" stroke-width="0"/><polygon points="539.987975,739.897569 540,870.09 427.39,805.07 427.33,674.9 539.987975,739.897569" fill="#338fe3" stroke-width="0"/><polygon points="427.33,674.89 539.94,739.91 652.61,675.03 539.94,609.86 427.33,674.89" fill="#3edffb" stroke-width="0"/></g><g id="eYAuJFnRt3y28" transform="translate(-187.730054-325.27998)"><polygon points="727.555325,1282.028541 727.73,1412.2 840.34,1347.18 840.34,1217.14 727.555325,1282.028541" fill="#37b1ff" stroke-width="0"/><polygon points="727.67,1282.04 727.73,1412.2 615.12,1347.18 615.06,1217.01 727.67,1282.04" fill="#338fe3" stroke-width="0"/><polygon points="615.06,1217 727.555324,1282.191924 840.34,1217.14 727.67,1151.98 615.06,1217" fill="#3edffb" stroke-width="0"/></g><g id="eYAuJFnRt3y32" transform="translate(-187.730027-108.399976)"><polygon points="727.596037,1065.183769 727.73,1195.32 840.34,1130.3 840.34,1000.26 727.596037,1065.183769" fill="#37b1ff" stroke-width="0"/><polygon points="727.67,1065.15 727.73,1195.32 615.12,1130.3 615.06,1000.13 727.67,1065.15" fill="#338fe3" stroke-width="0"/><polygon points="615.06,1000.12 727.644257,1065.231989 840.34,1000.26 727.67,935.1 615.06,1000.12" fill="#3edffb" stroke-width="0"/></g><g id="eYAuJFnRt3y36" transform="translate(-187.730093 108.420068)"><polygon points="727.666384,848.690019 727.73,978.7 840.34,913.67 840.34,783.63 727.666384,848.690019" fill="#37b1ff" stroke-width="0"/><polygon points="727.67,848.53 727.73,978.7 615.12,913.67 615.06,783.5 727.67,848.53" fill="#338fe3" stroke-width="0"/><polygon points="615.06,783.49 727.723519,848.690016 840.34,783.63 727.67,718.47 615.06,783.49" fill="#3edffb" stroke-width="0"/></g></g><g id="eYAuJFnRt3y40" transform="matrix(.854701 0 0 0.854701 78.34822 127.911068)" opacity="0"><g clip-path="url(#eYAuJFnRt3y46)"><g id="eYAuJFnRt3y42" transform="translate(375.37 216.740022)"><polygon points="427.39,1273.12 427.39,1143.07 540,1078.05 540,1208.09 427.39,1273.12" fill="#338fe3" stroke-width="0"/><polygon points="427.39,1273.12 427.39,1143.07 52.02,926.34 52.02,1056.38 427.39,1273.12" fill="#338fe3" stroke-width="0"/><polygon points="52.02,926.34 164.63,861.31 540,1078.05 427.39,1143.07 52.02,926.34" fill="#3edffb" stroke-width="0"/></g><clipPath id="eYAuJFnRt3y46"><path d="M52.020001,1056.38L427.39,1273.08l113.195362-195.03L164.630001,858.315556L50.077382,926.34l1.942619,130.04Z" transform="translate(.000002 0)" fill="#3f5787" stroke-width="3.84"/></clipPath></g><g clip-path="url(#eYAuJFnRt3y53)"><g id="eYAuJFnRt3y49" transform="translate(.000001 0)"><polygon points="652.61,1273.08 652.58,1143.08 1027.98,926.34 1027.98,1056.38 652.61,1273.08" fill="#37b1ff" stroke-width="0"/><polygon points="652.59,1273.1 652.58,1143.08 539.97,1078.05 539.97,1208.1 652.59,1273.1" fill="#37b1ff" stroke-width="0"/><polygon points="539.97,1078.05 915.37,861.31 1027.98,926.34 652.58,1143.08 539.97,1078.05" fill="#3edffb" stroke-width="0"/></g><clipPath id="eYAuJFnRt3y53"><path d="M650.836304,1274.107608L1030.33815,1056.38L1027.98,926.34L915.369999,861.31l-487.15502,281.609734l222.621325,131.187874Z" transform="translate(-.853132 0.853132)" fill="#3f5787" stroke-width="3.84"/></clipPath></g><g clip-path="url(#eYAuJFnRt3y64)"><g id="eYAuJFnRt3y60" transform="translate(0 476.82002)"><polygon points="539.900526,731.31785 539.778853,1338.445675 652.61,1273.12 652.61,666.25 539.900526,731.31785" fill="#37b1ff" stroke-width="0"/><polygon points="540,731.27 540,1338.1 427.39,1273.08 427.39,666.25 540,731.27" fill="#338fe3" stroke-width="0"/><polygon points="427.39,666.25 540,731.27 652.61,666.25 540,601.23 427.39,666.25" fill="#3edffb" stroke-width="0"/></g><clipPath id="eYAuJFnRt3y64"><path d="M540.000001,601.23L427.39,666.25l-.000001,606.87L540,1338.1l112.61-64.98-.030001-606.87-112.579998-65.02Z" transform="translate(.000003 0)" fill="#3f5787" stroke-width="3.84"/></clipPath></g></g></g><g display="none" transform="matrix(.845359 0 0 0.845359 84.515538 256.60921)" opacity="0"><g clip-path="url(#eYAuJFnRt3y77)"><g transform="translate(336.759989 175.024408)"><g><polygon points="202.17,804.15213 202.17,1143.07 314.78,1078.05 314.78,739.13213 202.17,804.15213" fill="#ffbfc9" stroke-width="0"/><polygon points="202.17,800.603343 202.17,1143.07 89.56,1078.05 89.56,735.583343 202.17,800.603343" fill="#f44748" stroke-width="0"/><polygon points="89.56,774.62 202.17,839.64 314.78,774.62 202.17,709.6 89.56,774.62" transform="translate(0-39.036657)" fill="#f8f5f6" stroke-width="0"/></g><g transform="translate(-.000001-223.261608)"><polygon points="202.17,1023.865 202.17,1143.07 314.78,1078.05 314.78,958.845 202.17,1023.865" fill="#ffbfc9" stroke-width="0"/><polygon points="202.17,1023.865 202.17,1143.07 89.56,1078.05 89.56,958.845 202.17,1023.865" fill="#f44748" stroke-width="0"/><polygon points="89.56,774.62 202.17,839.64 314.78,774.62 202.17,709.6 89.56,774.62" transform="translate(0 184.225)" fill="#f8f5f6" stroke-width="0"/></g></g><clipPath id="eYAuJFnRt3y77"><path d="M540,441.697321l-112.589986,65.02v554.597279l112.61,65.235858l112.61-65.235858v-554.597279L540,441.697321Z" fill="#3f5787" stroke-width="3.84"/></clipPath></g></g>
<script><![CDATA[
(function(s,i,u,o,c,w,d,t,n,x,e,p,a,b){(a=Array.from(d.querySelectorAll('svg#' + i.root)).filter(n=> !n.svgatorPlayer)[0]||{}).svgatorPlayer={ready:(function(a){b=[];return function(c){return c?(b.push(c),a.svgatorPlayer):b}})(a)};w[o]=w[o]||{};w[o][s]=w[o][s]||[];w[o][s].push(i);e=d.createElementNS(n,t);e.async=true;e.setAttributeNS(x,'href',[u,s,'.','j','s','?','v','=',c].join(''));e.setAttributeNS(null,'src',[u,s,'.','j','s','?','v','=',c].join(''));p=d.getElementsByTagName(t)[0];p.parentNode.insertBefore(e,p);})('91c80d77',{"root":"eYAuJFnRt3y1","version":"2024-09-05","animations":[{"elements":{"eYAuJFnRt3y3":{"opacity":[{"t":4000,"v":1,"e":[1,0]},{"t":4100,"v":0},{"t":7100,"v":0}]},"eYAuJFnRt3y4":{"transform":{"data":{"t":{"x":-352.289994,"y":-1065.190033}},"keys":{"o":[{"t":0,"v":{"x":540.059996,"y":956.81,"type":"corner"}},{"t":500,"v":{"x":352.289994,"y":848.329996,"type":"corner"}},{"t":1000,"v":{"x":352.289994,"y":848.329996,"type":"corner"}},{"t":1500,"v":{"x":352.289994,"y":1065.190033,"type":"corner"}},{"t":2000,"v":{"x":352.289994,"y":1065.190033,"type":"corner"}},{"t":2500,"v":{"x":352.289994,"y":848.329996,"type":"corner"}},{"t":3600,"v":{"x":352.289994,"y":848.329996,"type":"corner"}},{"t":4100,"v":{"x":540.059996,"y":956.81,"type":"corner"}}]}}},"eYAuJFnRt3y8":{"transform":{"data":{"t":{"x":-352.310005,"y":-848.399994}},"keys":{"o":[{"t":200,"v":{"x":539.969939,"y":957.000055,"type":"corner"}},{"t":700,"v":{"x":352.310005,"y":848.399994,"type":"corner"}},{"t":1200,"v":{"x":352.310005,"y":848.399994,"type":"corner"}},{"t":1700,"v":{"x":352.310005,"y":848.399994,"type":"corner"}},{"t":2200,"v":{"x":352.310005,"y":848.399994,"type":"corner"}},{"t":2700,"v":{"x":352.310005,"y":848.399994,"type":"corner"}},{"t":3600,"v":{"x":352.310005,"y":848.399994,"type":"corner"}},{"t":4100,"v":{"x":539.969939,"y":956.75,"type":"corner"}}]}}},"eYAuJFnRt3y12":{"transform":{"data":{"t":{"x":-352.240005,"y":-631.770004}},"keys":{"o":[{"t":200,"v":{"x":540.029988,"y":956.81002,"type":"corner"}},{"t":700,"v":{"x":352.240006,"y":848.4,"type":"corner"}},{"t":1000,"v":{"x":352.240006,"y":848.4,"type":"corner"}},{"t":1500,"v":{"x":352.240006,"y":631.770005,"type":"corner"}},{"t":2000,"v":{"x":352.240006,"y":631.770005,"type":"corner"}},{"t":2500,"v":{"x":352.240006,"y":848.4,"type":"corner"}},{"t":3400,"v":{"x":352.240006,"y":848.4,"type":"corner"}},{"t":3900,"v":{"x":540.029988,"y":956.81002,"type":"corner"}}]}}},"eYAuJFnRt3y16":{"transform":{"data":{"t":{"x":-539.969986,"y":-1173.445007}},"keys":{"o":[{"t":1000,"v":{"x":539.969986,"y":956.684993,"type":"corner"}},{"t":1500,"v":{"x":539.969986,"y":1173.445008,"type":"corner"}},{"t":2000,"v":{"x":539.969986,"y":1173.445008,"type":"corner"}},{"t":2500,"v":{"x":539.969986,"y":1173.445008,"type":"corner"}},{"t":3000,"v":{"x":539.969986,"y":1173.445008,"type":"corner"}},{"t":3400,"v":{"x":539.969986,"y":956.684993,"type":"corner"}}]}}},"eYAuJFnRt3y24":{"transform":{"data":{"t":{"x":-539.969986,"y":-739.975006}},"keys":{"o":[{"t":1000,"v":{"x":539.969986,"y":956.75,"type":"corner"}},{"t":1500,"v":{"x":539.969986,"y":739.975006,"type":"corner"}},{"t":2000,"v":{"x":539.969986,"y":739.975006,"type":"corner"}},{"t":2500,"v":{"x":539.969986,"y":739.975006,"type":"corner"}},{"t":3000,"v":{"x":539.969986,"y":739.975006,"type":"corner"}},{"t":3400,"v":{"x":539.969986,"y":956.75,"type":"corner"}}]}}},"eYAuJFnRt3y28":{"transform":{"data":{"t":{"x":-727.700012,"y":-1282.089965}},"keys":{"o":[{"t":0,"v":{"x":539.969958,"y":956.809985,"type":"corner"}},{"t":500,"v":{"x":727.700013,"y":1065.210014,"type":"corner"}},{"t":1000,"v":{"x":727.700013,"y":1065.210014,"type":"corner"}},{"t":1500,"v":{"x":727.700013,"y":1282.089966,"type":"corner"}},{"t":2000,"v":{"x":727.700013,"y":1282.089966,"type":"corner"}},{"t":2500,"v":{"x":727.700013,"y":1065.210014,"type":"corner"}},{"t":3400,"v":{"x":727.700013,"y":1065.210014,"type":"corner"}},{"t":3900,"v":{"x":539.969958,"y":956.809985,"type":"corner"}}]}}},"eYAuJFnRt3y32":{"transform":{"data":{"t":{"x":-727.700012,"y":-1065.209961}},"keys":{"o":[{"t":200,"v":{"x":539.969985,"y":956.809985,"type":"corner"}},{"t":700,"v":{"x":727.700013,"y":1065.209961,"type":"corner"}},{"t":1200,"v":{"x":727.700013,"y":1065.209961,"type":"corner"}},{"t":1700,"v":{"x":727.700013,"y":1064.209961,"type":"corner"}},{"t":2200,"v":{"x":727.700013,"y":1065.209961,"type":"corner"}},{"t":2700,"v":{"x":727.700013,"y":1065.209961,"type":"corner"}},{"t":3600,"v":{"x":727.700013,"y":1065.209961,"type":"corner"}},{"t":4100,"v":{"x":539.969985,"y":956.809985,"type":"corner"}}]}}},"eYAuJFnRt3y36":{"transform":{"data":{"t":{"x":-727.700012,"y":-848.584991}},"keys":{"o":[{"t":0,"v":{"x":539.969919,"y":957.005059,"type":"corner"}},{"t":200,"v":{"x":615.061957,"y":1000.251035,"type":"corner"}},{"t":500,"v":{"x":727.700013,"y":1065.119999,"type":"corner"}},{"t":1000,"v":{"x":727.700013,"y":1065.119999,"type":"corner"}},{"t":1500,"v":{"x":727.700013,"y":848.584992,"type":"corner"}},{"t":2000,"v":{"x":727.700013,"y":848.584992,"type":"corner"}},{"t":2500,"v":{"x":727.700013,"y":1065.119999,"type":"corner"}},{"t":3600,"v":{"x":727.700013,"y":1065.119999,"type":"corner"}},{"t":4100,"v":{"x":539.969919,"y":957.005059,"type":"corner"}}]}}},"eYAuJFnRt3y40":{"opacity":[{"t":4000,"v":0,"e":[1,0]},{"t":4100,"v":1},{"t":7100,"v":1,"e":[1,0]}]},"eYAuJFnRt3y42":{"transform":{"data":{"t":{"x":-296.010005,"y":-1067.214996}},"keys":{"o":[{"t":4100,"v":{"x":671.380005,"y":1283.955018,"type":"corner"},"e":[0.39,0.575,0.565,1]},{"t":5100,"v":{"x":296.010006,"y":1067.214996,"type":"corner"},"e":[0.47,0,0.745,0.715]},{"t":6100,"v":{"x":671.380005,"y":1283.955018,"type":"corner"}},{"t":7100,"v":{"x":671.380005,"y":1283.955018,"type":"corner"}}]}}},"eYAuJFnRt3y49":{"transform":{"data":{"t":{"x":-783.974975,"y":-1067.204987}},"keys":{"o":[{"t":4100,"v":{"x":783.974976,"y":1067.204987,"type":"corner"},"e":[0.39,0.575,0.565,1]},{"t":5100,"v":{"x":408.604995,"y":1283.944989,"type":"corner"},"e":[0.47,0,0.745,0.715]},{"t":6100,"v":{"x":408.604995,"y":1283.944989,"type":"corner"},"e":[0.47,0,0.745,0.715]},{"t":7100,"v":{"x":783.404014,"y":1067.547564,"type":"corner"}}]}}},"eYAuJFnRt3y60":{"transform":{"data":{"t":{"x":-540,"y":-904.664978}},"keys":{"o":[{"t":5100,"v":{"x":540,"y":1381.484998,"type":"corner"},"e":[0.47,0,0.745,0.715]},{"t":6100,"v":{"x":540,"y":904.664978,"type":"corner"},"e":[0.47,0,0.745,0.715]},{"t":7100,"v":{"x":540,"y":1381.484998,"type":"corner"}}]}}}},"s":"MDUA1Zjg0MmI2ZBDdlN2I2YTdkGNzI3ODc3MmIF0MzQwRDNhMzOkzOVMzNTJiNDmQ3MjdiNmU2VYzdkNzI3OFIB3NzJiNDMzYTLM1MmI3MjdkTOzZlN2I2YTdkNNzJYNzg3NzdJjMmI0MzM5MzFUyYjZmNzI3NUUg3NTJiNDMzVYTM1MmI2YTcM1N2Q2ZTdiNzIc2YTdkNmUyYLjQzNmY2YTc1ON2NRNmUzNTJKiN2M3OTZlNmEVSNmQyYjQzMI2EzNzNjMzUyQYjZmNzk3YzJJiNDMzYTM5SlUIzOTg2"}],"options":"MDTAxZThlMzU4NLjg3NzQ4NTg3PMzU0ZDM1ODYK3Njg1ODI3ZjLdmMzUzZjM1OJDY3Njg1ODI3YZjdmMzU0ZDQE1NDg5MA|"},'https://cdn.svgator.com/ply/','__SVGATOR_PLAYER__','2024-09-05',window,document,'script','http://www.w3.org/2000/svg','http://www.w3.org/1999/xlink')
]]></script>
</svg>
