<svg id="erSV8eWsgKI1" xmlns="http://www.w3.org/2000/svg" xmlns:xlink="http://www.w3.org/1999/xlink" viewBox="0 0 700 400" shape-rendering="geometricPrecision" text-rendering="geometricPrecision"><g transform="translate(0-4.292114)"><rect width="279.936232" height="279.936232" rx="15" ry="15" transform="matrix(1.091659 0 0 1.091659 28.06598 51.494655)" fill="#202223" stroke-width="0"/><rect width="279.936232" height="279.936232" rx="15" ry="15" transform="matrix(1.092421 0 0 1.092421 366.3836 51.388001)" fill="#202223" stroke-width="0"/></g><g transform="matrix(.527524 0 0 0.527524 65.978081-31.435793)"><g transform="matrix(.739683 0 0 0.739683 14.288145 218.966302)"><ellipse id="erSV8eWsgKI8" rx="99.503644" ry="12.736466" transform="matrix(.933394 0 0 0.933394 257.866916 566.6714)" opacity="0.4" stroke-width="0"/><g transform="translate(-12.373635 119.611817)"><path id="erSV8eWsgKI10" d="M578.585943,656.969553L560,817.51v0c-6.134999,5.892293-36.2,19.84117-87,19.84117s-81.194994-13.948877-89.86-19.84117v0c0,0-16.599199-164.115069-16.599199-164.115069s35.959199-23.304931,35.959199-23.304931c45.58146-23.065459,93.309392-21.57936,137.12.2l38.965943,26.679553Z" transform="translate(-200.558845-381.77078)" fill="#b22509" stroke="#000" stroke-miterlimit="10"/><g transform="translate(-200.63385-383.651195)"><g id="erSV8eWsgKI12" transform="translate(.000003 7.838357)"><g id="erSV8eWsgKI13" transform="translate(.00002 0.000003)"><g clip-path="url(#erSV8eWsgKI18)"><g><polygon points="394.3,802 349.92,547.81 367.44,538.53 380.11,542.58 424.49,796.77 394.3,802" fill="#ffcd34"/><rect width="26.91" height="310.38" rx="0" ry="0" transform="matrix(.985821-.167801 0.167801 0.985821 366.615783 530.656853)" fill="#fc9a1a" stroke-width="0.839419" stroke-miterlimit="10"/></g><clipPath id="erSV8eWsgKI18"><polygon points="394.3,802 349.92,547.81 367.44,538.53 380.11,542.58 424.49,796.77 394.3,802" fill="none" stroke="#000" stroke-width="0.932373" stroke-miterlimit="10"/></clipPath></g><polygon points="394.3,802 349.92,547.81 367.44,538.53 380.11,542.58 424.49,796.77 394.3,802" fill="none" stroke="#000" stroke-width="0.932373" stroke-miterlimit="10"/></g><g id="erSV8eWsgKI21" transform="translate(.000003 0.000009)"><g clip-path="url(#erSV8eWsgKI26)"><g><polygon points="395.85,749.78 381.4,492.14 399.88,484.97 411.99,490.46 426.44,748.1 395.85,749.78" fill="#fddb74"/><rect width="26.91" height="310.38" rx="0" ry="0" transform="matrix(.998657-.051813 0.051813 0.998657 399.983294 477.032275)" fill="#f49b0f" stroke-width="0.839419" stroke-miterlimit="10"/></g><clipPath id="erSV8eWsgKI26"><polygon points="395.85,749.78 381.4,492.14 399.88,484.97 411.99,490.46 426.44,748.1 395.85,749.78" fill="none" stroke="#000" stroke-width="0.932373" stroke-miterlimit="10"/></clipPath></g><polygon points="395.85,749.78 381.4,492.14 399.88,484.97 411.99,490.46 426.44,748.1 395.85,749.78" fill="none" stroke="#000" stroke-width="0.932373" stroke-miterlimit="10"/></g><g id="erSV8eWsgKI29" transform="translate(.000014 0.000002)"><g clip-path="url(#erSV8eWsgKI34)"><g><polygon points="420.6,741.06 405.503853,517.137292 427.3,508.33 440.03,513.05 452.92,739.31 420.6,741.06" fill="#ffcd34"/><rect width="28.43" height="272.59" rx="0" ry="0" transform="matrix(.998657-.051813 0.051813 0.998657 427.47726 501.35606)" fill="#f49b0f" stroke-width="0.808583" stroke-miterlimit="10"/></g><clipPath id="erSV8eWsgKI34"><polygon points="420.6,741.06 403.077693,512.937585 427.3,508.33 440.03,513.05 452.92,739.31 420.6,741.06" fill="none" stroke="#000" stroke-width="0.898123" stroke-miterlimit="10"/></clipPath></g><polygon points="420.6,741.06 405.216464,516.90539 427.3,508.33 440.03,513.05 452.92,739.31 420.6,741.06" fill="none" stroke="#000" stroke-width="0.898123" stroke-miterlimit="10"/></g><g id="erSV8eWsgKI37" transform="translate(.000001 0.000002)"><g clip-path="url(#erSV8eWsgKI42)"><g><polygon points="518.34,777.47 566.03,523.87 585.69,521.34 596.13,529.57 548.44,783.17 518.34,777.47" fill="#ffcd34"/><rect width="26.91" height="310.38" rx="0" ry="0" transform="matrix(.981992 0.188924-.188924 0.981992 587.710534 513.650578)" fill="#f49b0f" stroke-width="0.839419" stroke-miterlimit="10"/></g><clipPath id="erSV8eWsgKI42"><polygon points="518.34,777.47 566.03,523.87 585.69,521.34 596.13,529.57 548.44,783.17 518.34,777.47" fill="none" stroke="#000" stroke-width="0.932373" stroke-miterlimit="10"/></clipPath></g><polygon points="518.34,777.47 566.03,523.87 585.69,521.34 596.13,529.57 548.44,783.17 518.34,777.47" fill="none" stroke="#000" stroke-width="0.932373" stroke-miterlimit="10"/></g><g id="erSV8eWsgKI45" transform="translate(4.000002 0.000002)"><g clip-path="url(#erSV8eWsgKI50)"><g><polygon points="505.47,748.11 519.35,490.44 538.51,485.35 549.94,492.13 536.06,749.8 505.47,748.11" fill="#ffcd34"/><rect width="26.91" height="310.38" rx="0" ry="0" transform="matrix(.998312 0.058087-.058087 0.998312 539.428244 477.513386)" fill="#f49b0f" stroke-width="0.839419" stroke-miterlimit="10"/></g><clipPath id="erSV8eWsgKI50"><polygon points="505.47,748.11 519.35,490.44 538.51,485.35 549.94,492.13 536.06,749.8 505.47,748.11" fill="none" stroke="#000" stroke-width="0.932373" stroke-miterlimit="10"/></clipPath></g><polygon points="505.47,748.11 519.35,490.44 538.51,485.35 549.94,492.13 536.06,749.8 505.47,748.11" fill="none" stroke="#000" stroke-width="0.932373" stroke-miterlimit="10"/></g><g id="erSV8eWsgKI53" transform="matrix(.999507-.031387 0.031387 0.999507-14.162501 16.660761)"><g clip-path="url(#erSV8eWsgKI58)"><g><polygon points="508.12,807.32 528.92,550.12 548.21,545.54 559.45,552.63 538.65,809.83 508.12,807.32" fill="#ffcd34"/><rect width="26.91" height="310.38" rx="0" ry="0" transform="matrix(.99639 0.084895-.084895 0.99639 549.345504 537.72229)" fill="#f49b0f" stroke-width="0.839419" stroke-miterlimit="10"/></g><clipPath id="erSV8eWsgKI58"><polygon points="508.12,807.32 528.92,550.12 548.21,545.54 559.45,552.63 538.65,809.83 508.12,807.32" fill="none" stroke="#000" stroke-width="0.932373" stroke-miterlimit="10"/></clipPath></g><polygon points="508.12,807.32 528.92,550.12 548.21,545.54 559.45,552.63 538.65,809.83 508.12,807.32" fill="none" stroke="#000" stroke-width="0.932373" stroke-miterlimit="10"/></g><g id="erSV8eWsgKI61" transform="translate(0 0.000004)"><g clip-path="url(#erSV8eWsgKI66)"><g><polygon points="487.2,775.27 486.6,517.23 505.44,511.07 517.23,517.2 517.84,775.24 487.2,775.27" fill="#ffcd34"/><rect width="26.91" height="310.38" rx="0" ry="0" transform="matrix(.999998 0.00192-.00192 0.999998 505.942924 503.169902)" fill="#f49b0f" stroke-width="0.839419" stroke-miterlimit="10"/></g><clipPath id="erSV8eWsgKI66"><polygon points="487.2,775.27 486.6,517.23 505.44,511.07 517.23,517.2 517.84,775.24 487.2,775.27" fill="none" stroke="#000" stroke-width="0.932373" stroke-miterlimit="10"/></clipPath></g><polygon points="487.2,775.27 486.6,517.23 505.44,511.07 517.23,517.2 517.84,775.24 487.2,775.27" fill="none" stroke="#000" stroke-width="0.932373" stroke-miterlimit="10"/></g><g id="erSV8eWsgKI69" transform="translate(.000006 0.000003)"><g clip-path="url(#erSV8eWsgKI74)"><g><polygon points="437.7,731.57 437.09,473.53 455.93,467.36 467.73,473.5 468.33,731.54 437.7,731.57" fill="#fddb74"/><rect width="26.91" height="310.38" rx="0" ry="0" transform="matrix(.999998 0.00192-.00192 0.999998 456.426919 459.474923)" fill="#fc9a1a" stroke-width="0.839419" stroke-miterlimit="10"/></g><clipPath id="erSV8eWsgKI74"><polygon points="437.7,731.57 437.09,473.53 455.93,467.36 467.73,473.5 468.33,731.54 437.7,731.57" fill="none" stroke="#000" stroke-width="0.932373" stroke-miterlimit="10"/></clipPath></g><polygon points="437.7,731.57 437.09,473.53 455.93,467.36 467.73,473.5 468.33,731.54 437.7,731.57" fill="none" stroke="#000" stroke-width="0.932373" stroke-miterlimit="10"/></g><g id="erSV8eWsgKI77" transform="translate(.000002 0.000009)"><g clip-path="url(#erSV8eWsgKI82)"><g><polygon points="440.19,749.84 460.81,492.62 491.16,488.13 503.63,495.32 483.01,752.54 440.19,749.84" fill="#ffcd34"/><rect width="29.72" height="310.38" rx="0" ry="0" transform="matrix(.996419 0.084547-.084547 0.996419 492.396359 480.27014)" fill="#f49b0f" stroke-width="0.882132" stroke-miterlimit="10"/></g><clipPath id="erSV8eWsgKI82"><polygon points="444.74,749.8 465.36,492.58 491.16,488.13 503.63,495.32 483.01,752.54 444.74,749.8" fill="none" stroke="#000" stroke-width="0.979816" stroke-miterlimit="10"/></clipPath></g><polygon points="444.74,749.8 465.36,492.58 491.16,488.13 503.63,495.32 483.01,752.54 444.74,749.8" fill="none" stroke="#000" stroke-width="0.979816" stroke-miterlimit="10"/></g><g id="erSV8eWsgKI85" transform="matrix(.952437 0.304736-.304736 0.952437 252.248955-140.198535)"><g clip-path="url(#erSV8eWsgKI90)"><g><polygon points="480.293544,822.23312 445.378314,568.945698 471.47,556.98 485.91,561.78 511,818.6 480.293544,822.23312" fill="#fddb74"/><rect width="31.77" height="310.38" rx="0" ry="0" transform="matrix(.988968-.09157 0.092277 0.996602 468.043127 549.859815)" fill="#fc9a1a" stroke-width="0.912058" stroke-miterlimit="10"/></g><clipPath id="erSV8eWsgKI90"><polygon points="479.651747,819.636312 446.326657,568.933914 468.965212,559.431833 485.91,561.78 511,818.6 479.651747,819.636312" fill="none" stroke="#000" stroke-width="1.01306" stroke-miterlimit="10"/></clipPath></g><polygon points="479.680014,821.959121 446.500914,568.875142 469.012799,559.533599 486.157502,561.698303 510.350571,818.207106 479.680014,821.959121" fill="none" stroke="#000" stroke-width="1.01306" stroke-miterlimit="10"/></g></g><g id="erSV8eWsgKI93" transform="translate(.000007 0.000001)"><g id="erSV8eWsgKI94" transform="translate(.000004-.945018)"><path d="M583.6,642.76L564,817.51v0c-.81,8.81-40.2,25-91,25s-94.05-16.17-94.86-25v0L358.62,642.76l43.88-12.67c17.25,49.4,124.71,45.38,137.12.2l43.98,12.47Z" transform="translate(.80858 0)" fill="#f2340f" stroke="#000" stroke-miterlimit="10"/><g mask="url(#erSV8eWsgKI98)"><rect id="erSV8eWsgKI97" width="37.432857" height="200.29009" rx="0" ry="0" transform="matrix(.751093-.104818 0.225801 1.618022 343.368934 608.909988)" opacity="0.4" fill="#fff" stroke-width="0"/><mask id="erSV8eWsgKI98" mask-type="luminance" x="-150%" y="-150%" height="400%" width="400%"><path d="M583.6,642.76L564,817.51v0c-.81,8.81-40.2,25-91,25s-94.05-16.17-94.86-25v0L358.62,642.76l43.88-12.67c17.25,49.4,124.71,45.38,137.12.2l43.98,12.47Z" transform="translate(.80858 0)" fill="#f2340f" stroke="#000" stroke-miterlimit="10"/></mask></g><path d="M583.174385,641.659687l-2.956965,26.512028L551.87,661.49c-6.48,5.55-30.09,32.37-80.92,32.37s-70.29-23.58-79.07-32.37l-28.172529,8.212935-3.012368-27.16589l37.794783-10.223002c26.423114,46.571248,126.425806,42.900921,145.480731,0q.019694-.044339,39.203768,9.345644Z" transform="translate(0 6.896375)" fill="#ffe0de" stroke-width="0.939835" stroke-miterlimit="10"/><g transform="translate(0 6.049187)"><path id="erSV8eWsgKI102" d="M-5.13,0c0-2.833221,2.296779-5.13,5.13-5.13s5.13,2.296779,5.13,5.13-2.296779,5.13-5.13,5.13-5.13-2.296779-5.13-5.13Z" transform="translate(479.58 727.27)" stroke="#000" stroke-linecap="round" stroke-linejoin="round"/><path id="erSV8eWsgKI103" d="M-5.13,0c0-2.833221,2.296779-5.13,5.13-5.13s5.13,2.296779,5.13,5.13-2.296779,5.13-5.13,5.13-5.13-2.296779-5.13-5.13Z" transform="translate(459.49 727.27)" stroke="#000" stroke-linecap="round" stroke-linejoin="round"/><path d="M431.46,737.75c0,0,33.07,26.16,76.81,0" fill="none" stroke="#000" stroke-width="2" stroke-linecap="round" stroke-miterlimit="10"/><path d="M507.64,731.23c0,0-3,8.25,6.56,8.25" fill="none" stroke="#000" stroke-width="2" stroke-linecap="round" stroke-miterlimit="10"/><path d="M432.31,731.23c0,0,3,8.25-6.56,8.25" fill="none" stroke="#000" stroke-width="2" stroke-linecap="round" stroke-miterlimit="10"/></g></g></g></g></g></g><g transform="matrix(.52512 0 0 0.52512 576.354158 199.654966)"><ellipse id="erSV8eWsgKI108" rx="93.06" ry="13.4" transform="matrix(1.382633 0 0 1 538.859184 810.27)" opacity="0.4" fill="#191a1b"/><g display="none" transform="translate(19.732002 39.921263)"><g><path d="M-158.79,0c0-16.546451,71.092705-29.96,158.79-29.96s158.79,13.413549,158.79,29.96-71.092705,39.96-158.79,39.96-158.79-23.413549-158.79-39.96Z" transform="translate(518.47 678.05)" fill="#c97100"/><g mask="url(#erSV8eWsgKI116)"><path d="M359.68,678.05c0,0,0,92.57,166.61,92.57c139.43,0,149.52-81.27,151-92.57-2.78,5.6-5.16,25-155.41,29.66-53.64,0-151.5-5.24-162.2-29.66Z" fill="#f8a200"/><path d="M352.458427,668.102961c0,0,2.892993,66.943662,109.519947,77.462603c97.683001,2.593354,160.822208-20.97881,177.112208-77.65881c49.48-15.32,77.244635-41.82679,77.244635-41.82679s-3.455217,167.970036-222.315217,161.860036C388,781.81,356.963419,767.66807,352.458427,668.102961Z" fill="#e28c03"/><mask id="erSV8eWsgKI116" mask-type="alpha" x="-150%" y="-150%" height="400%" width="400%"><path d="M359.68,678.05c0,0,0,92.57,166.61,92.57c139.43,0,149.52-81.27,151-92.57-2.78,5.6-5.16,25-155.41,29.66-53.64,0-151.5-5.24-162.2-29.66Z"/></mask></g><path d="M677.26,677.76c0,.1-3.76,92.86-151,92.86-166.61,0-166.61-92.76-166.61-92.86c0-16.55,71.1-30,158.79-30s158.82,13.45,158.82,30Z" fill="none" stroke="#242424" stroke-miterlimit="10"/></g><g id="erSV8eWsgKI119" transform="translate(1.670555 10.240626)"><path d="M-158.52,0c0-13.564113,70.971821-24.56,158.52-24.56s158.52,10.995887,158.52,24.56-54.140141,32.765971-163.78743,29.751277-153.25257-16.187164-153.25257-29.751277Z" transform="translate(518.89 642.88)" fill="#8f0119"/><g clip-path="url(#erSV8eWsgKI125)"><g><path d="M363.81,637.78c-14.14,9.14-17.55,32.71.64,46.43c13.48,8.4,32.09,19,154.44,19c84.56-1.39,137-6.18,155.53-19.85c13.07-10.32,15.15-35-.46-45.58c9.76,8.28-14,29.66-155.07,28.44-114.81-1.48-166.89-12.79-155.08-28.44Z" fill="#810010"/><path d="M347.85,655.44c0,0-4.89,23,36.85,31.61c129.07,16.56,333,10.32,292.7-58.48c24.13,19,28.53,63.63-3.06,81.06s-199.48,35.79-281.68,14.64c-36.39-3.15-54.39-44.9-44.81-68.83Z" fill="#700013"/></g><clipPath id="erSV8eWsgKI125"><path d="M363.81,637.78c-14.14,9.14-17.55,32.71.64,46.43c13.48,8.4,32.09,19,154.44,19c84.56-1.39,137-6.18,155.53-19.85c13.07-10.32,15.15-35-.46-45.58c9.76,8.28-14,29.66-155.07,28.44-114.81-1.48-166.89-12.79-155.08-28.44Z" fill="none"/></clipPath></g><path d="M674.42,683.36c-18.52,13.66-71,18.46-155.53,19.85-122.34,0-141-10.6-154.44-19-18.09-13.65-14.81-37.05-.86-46.28v0c14.82-11.18,78.71-19.59,155.28-19.59s140.51,8.42,155.29,19.61v0c15.39,10.74,13.26,35.14.26,45.41Z" fill="none" stroke="#242424" stroke-miterlimit="10"/></g><g id="erSV8eWsgKI128" transform="matrix(.999995 0.003228-.003228 0.999995 1.658844 11.305707)"><g><ellipse rx="164.87" ry="29.31" transform="translate(520.79 636.4)" fill="#c78700"/><path d="M357,633.14c0,0-9.65,15-6.71,32.57c1.92,10.5,14.05,5.09,26.23,0c7-1.88,12.81-2.65,22.43,4.46s19.87,17.37,63.45,13.53c30.76-3.85,42.94-20.51,73.06-9c12.6,6.09,16,1.28,25.64-6.41c4.68-3.22,14.1-3.85,28.2,6.41c11.54,10.25,21.58,28.74,46.57-8.39c3.85-4.45,8.83-8.13,19.72-5.52c6.63,2,12,4,18.31,11.34c5.13,5.77,10.9,16.38,12.66-6.45c1.69-22-1-30.44-1-30.44s9.44,25.37-149.07,30.31c-41.39-.19-183.98-3.22-179.49-32.41Z" fill="#f5c100"/></g><path d="M357.55,637.81c2.64,4.56,6,18.86,121.5,26.2-11.74,5.62-37.79,25.49-72.51,1.7-14.81-8-27.51-14.9-37.66-10.19-13.79,8-15.51,13.4-16.47-.83.110276-5.995171,1.890283-11.840797,5.14-16.88Z" fill="#ffde83"/><path d="M672.18,654.29c6.61.86,7.85,1.53,8.91,13.4.28,5.94,3,9.44,3.47-10.22c0-12.18-.515809-17.605077-.515809-17.605077s-3.776881,5.155487-16.242432,9.628141C660.687134,652.201641,672.18,654.29,672.18,654.29Z" fill="#ffde83"/><path d="M686.5,665.7c-1.75,22.84-7.51,12.22-12.64,6.46-6.380908-8.15-27.789847-19.55193-38.03-5.83-25,37.13-35,18.64-46.57,8.39-14.1-10.26-23.463174-10.71-28.2-6.41-9.62,7.69-13,12.5-25.64,6.41-30.12-11.54-42.3,5.13-73.06,9-65.656167,7.602683-61.118822-27.372678-85.89-17.99-12.18,5.09-24.3,10.5-26.22,0q-2.63-15.66,6.7-32.57c9.12-14.65,79-26,163.85-26c88.94,0,161.41,12.52,164.74,28.18c0,0,2.54,9.95.96,30.36Z" fill="none" stroke="#242424" stroke-miterlimit="10"/></g><g id="erSV8eWsgKI135" transform="matrix(.999894 0.014574-.014574 0.999894-70.585337 267.851046)"><path d="M598.41,359l.29,10.93c.32,12.26-37.32,23.18-84.1,24.43s-85-7.66-85.27-19.92l-.3-10.93c-.32-12.26,37.32-23.18,84.1-24.43s84.95,7.62,85.28,19.92Z" fill="#e41a1d"/><ellipse rx="84.72" ry="22.18" transform="matrix(.999648-.026526 0.026526 0.999648 513.700425 361.235967)" fill="#c20f17"/><path d="M499.15366,358.91287c-.04834-1.8219,6.3931-3.4708,14.38737-3.68294s14.5141,1.09284,14.56244,2.91474-6.3931,3.4708-14.38737,3.68294-14.5141-1.09284-14.56244-2.91474ZM453.65,351.37c30.1-2.54,44.15,5.41,44.18,7.23c1,3.82-35.64,13.69-46.69,12.06-23.9-4.14-15.3-17.08,2.51-19.29Zm30.06,26.3c-7.21-7.42,21.11-14.56,32.14-14.28c11.25,0,25.54,9.88,21.17,13.77-5.19,4.92-48.25,5.39-53.31.51Zm79.76-5.76c-12.21-1.22-34.33-10.11-30.41-13.67c4.22-3.36,30.44-7.73,52.08-5.63c21.57,2.5-3.44,20.97-21.67,19.3Zm-84.68-26.79c2.65-2.95,39.91-5.49,42.07-3.53c2.3,1.49-1.24,10.37-14.65,11.62-10.21-.03-30.78-4.67-27.42-8.09ZM524.66,354c0,0-3.08-1.07-.73-5.06c2.16-2.84,2.55-6.67,10.72-7.11c8.08,0,21.42,1.35,25.68,3c6.83,3.32-26.17,12.22-35.67,9.17Z" fill="#921a1b"/><path d="M598.4,359l.3,10.92c.32,12.26-37.32,23.18-84.11,24.43s-84.94-7.67-85.27-19.92L429,363.46c-.01323-.979462.191726-1.949588.6-2.84v0c7.930721-16.33,60.75-21,83.48-21.57c46.78-1.21,79.72,7.4,84.53,17.1v0c.476182.877746.746339,1.852362.79,2.85Z" fill="none" stroke="#242424" stroke-miterlimit="10"/></g><g id="erSV8eWsgKI141" transform="matrix(.999894 0.014574-.017681 1.213025 92.265114 185.313658)"><path d="M598.41,359l.29,10.93c.32,12.26-37.32,23.18-84.1,24.43s-85-7.66-85.27-19.92l-.3-10.93c-.32-12.26,37.32-23.18,84.1-24.43s84.95,7.62,85.28,19.92Z" fill="#e41a1d"/><ellipse rx="84.72" ry="22.18" transform="matrix(.999648-.026526 0.026526 0.999648 513.700425 361.235967)" fill="#c20f17"/><path d="M499.15366,358.91287c-.04834-1.8219,6.3931-3.4708,14.38737-3.68294s14.5141,1.09284,14.56244,2.91474-6.3931,3.4708-14.38737,3.68294-14.5141-1.09284-14.56244-2.91474ZM453.65,351.37c30.1-2.54,44.15,5.41,44.18,7.23c1,3.82-35.64,13.69-46.69,12.06-23.9-4.14-15.3-17.08,2.51-19.29Zm30.06,26.3c-7.21-7.42,21.11-14.56,32.14-14.28c11.25,0,25.54,9.88,21.17,13.77-5.19,4.92-48.25,5.39-53.31.51Zm79.76-5.76c-12.21-1.22-34.33-10.11-30.41-13.67c4.22-3.36,30.44-7.73,52.08-5.63c21.57,2.5-3.44,20.97-21.67,19.3Zm-84.68-26.79c2.65-2.95,39.91-5.49,42.07-3.53c2.3,1.49-1.24,10.37-14.65,11.62-10.21-.03-30.78-4.67-27.42-8.09ZM524.66,354c0,0-3.08-1.07-.73-5.06c2.16-2.84,2.55-6.67,10.72-7.11c8.08,0,21.42,1.35,25.68,3c6.83,3.32-26.17,12.22-35.67,9.17Z" fill="#921a1b"/><path d="M598.4,359l.3,10.92c.32,12.26-37.32,23.18-84.11,24.43s-84.94-7.67-85.27-19.92L429,363.46c-.01323-.979462.191726-1.949588.6-2.84v0c7.930721-16.33,60.75-21,83.48-21.57c46.78-1.21,79.72,7.4,84.53,17.1v0c.476182.877746.746339,1.852362.79,2.85Z" fill="none" stroke="#242424" stroke-miterlimit="10"/></g><g id="erSV8eWsgKI147" transform="translate(-1.387269 13.381639)"><g transform="translate(.150356-.012033)"><path d="M691.78,632.24c-3.63,6.75-7.46-3-14.53-1.2-7.81,2,.24,9.25-5.89,19.79-3.31,5.68-21,11-40.59-3.83-6-4.53-10.3,1.12-11.76,5.1-2.82,7.67-9.42,11.54-22.08,13-19,2.23-26.4-7.81-35.53-13s-14.74-8.54-18.6,4.44-11.19,10.63-14.11,3.71c-2.37-5.63-4.21-10.62-8.64-5.93-9.32,10.64-18.23,17.06-31.48,18.55-27.09,3.71-37.63-14.84-51.28-22.25s-27.15-3.71-49,4.44c-51.66,14.78-36.87-13.44-33.74-21.2c2.28-5.65,0-5.56-3-8.62-9.32-10.67,20.19-19.83,21.45-20.24-4.75,2.93-7.32,6.06-7.32,9.31c0,16.55,66.42,30,148.36,30s148.35-13.41,148.35-30c0-4.19-4.26-8.18-12-11.8c36.06.74,43.61,19.05,41.39,29.73Z" fill="#97b800"/><path d="M665.623278,614.834806c0,16.64-73.51321,31.467728-155.90321,31.467728s-145.894344-14.397757-145.894344-31.037757c0-3.27,4.164276-7.194777,8.944276-10.144777c19.51-12,75.64-20.75,141.82-20.75c61.5,0,114.31,7.52,137.13,18.25v0c7.76,3.64,13.903278,7.994806,13.903278,12.214806Z" fill="#899928"/></g><path d="M397.37,595.86c6.50786.18878,26.37237,1.61698,52.6344,3.98291c3.74172-6.00937,42.47278-11.91186,74.21882-11.65465-20.56126.15421-45.53124,4.03801-66.07184,12.40001c15.39168,1.42937,32.56938,3.1433,50.31077,5.08879c13.0032-8.97227,33.50639-13.73783,70.21785-7.95704-24.66462-2.12695-53.99585-.50466-62.18489,8.8497c37.30306,4.20084,76.25941,9.37458,105.77489,15.0403-27.81756-4.4061-67.98312-8.96646-107.02742-12.92218-.32733,4.51341,4.76516,12.89225,14.30742,20.85218-19.65875-13.25763-21.61442-19.97442-21.77542-21.60293-17.81107-1.77686-35.20548-3.41642-50.88491-4.84551-2.91918,13.76897,3.56068,20.81872,12.82033,28.21844-23.03-12.97-20.36-28.9-20.36-28.9l5.59154.50428c-36.58712-3.32429-63.36154-5.46428-63.36154-5.46428s2.42-.68,5.79-1.59v-.00002Zm126.85322-7.67175c6.41404-.04811,12.39907.26672,17.68678.92175-5.40624-.57924-11.40998-.87089-17.68678-.92175Z" transform="translate(0 0.000001)" fill="#7d8904"/><path d="M691.79,631.58c-3.64,6.75-7.47-3-14.54-1.2-7.81,2,.24,9.25-5.9,19.79-3.3,5.68-21,11-40.58-3.83-6-4.53-10.3,1.12-11.76,5.1-2.82,7.67-9.41,11.54-22.08,13-19,2.23-26.4-7.81-35.52-13s-14.74-8.54-18.61,4.44-11.19,10.63-14.11,3.71c-2.37-5.63-4.21-10.62-8.65-5.93-9.31,10.64-18.22,17.06-31.47,18.55-27.09,3.71-37.63-14.84-51.27-22.25s-27.16-3.71-49,4.44c-51.66,14.78-36.88-13.44-33.74-21.2c2.29-5.65,0-5.56-3-8.62-9.09-10.36,18.35-19.28,21.21-20.17c19.56-12,75.65-20.72,141.78-20.72c61.41,0,114.15,7.5,137,18.2c35.07,1.11,42.38,19.11,40.24,29.69Z" transform="translate(-.035339 0.233488)" fill="none" stroke="#242424" stroke-width="0.973897" stroke-miterlimit="10"/></g><g id="erSV8eWsgKI153" transform="matrix(.975245 0 0 0.867852 9.170555 92.372424)"><g><ellipse rx="158.52" ry="24.56" transform="translate(522.14 582.77)" fill="#810010"/><path d="M367.06,577.66c-14.13,9.14-17.55,32.72.64,46.43c13.48,8.4,32.1,19,154.44,19c84.56-1.38,137-6.18,155.53-19.84c13.07-10.33,15.15-35-.45-45.59c9.75,8.28-14,29.66-155.08,28.44-114.81-1.47-166.89-12.79-155.08-28.44Z" fill="#8f0119"/></g><path d="M357.46,589.29c0,0,1.8,11.09,8.63,7.27c3.31-1.71,8-1.27,11.74,5.49c2.3,5.27,5.56,9.74,12,5.27c5.27-3.89,14.29-4,21.32,3.06c3.51,3,10,9.85,15.45,5.33c4.85-3.7,11.9-9.3,24-2.55c4.29,1.78,8.76,9.61,21.44,3.32c7.54-4.47,17.88-8.3,27.32-2.17c8.05,4.59,10.09,12.89,25.66,4.72c13-7.75,22.69-11.89,35.88-3.19c8,4.72,18.76,6.64,28.85-1c6.51-5.41,16-10.2,26.17-5.24c5.66,2.86,6.53,6,15.7-1.15c10-8.68,18.66-7.58,24.13-3.57c5.07,4,7.6-2.64,10.34-5.36s9.26-8.56,12.38-5c2.54,2.05,6.48-2.18,7.85-5.23c2.34,3.63,2.87,16.42-1.45,24.9-3.12,2.29-6.21,2.6-9.72.5-3.32-2.1-5.87,3.27-9.57,6.89s-6.43-.71-13.28-3.83c-5.3-2.41-13.8,5.38-15.83,7.41-6.89,6.89-16.47,7.84-23.47,1.91-7-4.77-10.08-3.19-18.89,3.83-8.17,6.42-26.41,6.94-40.85,1-9.57-3.43-12.65-4.13-25.92.64-10.93,3.63-14.87,6.48-31.66-1.53-8.78-3.81-15.61-5-24-.79s-14.81,6.66-23.62,1c-8-5.37-12.31-7.33-19.14-3.32-6.45,3.24-17.21,1.51-25.41-4.22-7.22-5.15-8-8.17-14.81-4.59-4.68,2.67-8.25,4.9-13.91.89-2.15-2.29-3.8-9.58-8.48-6.34-1.37.95-4,3.25-9.31-3.24-1.38-4.65-3.42-11.28.46-21.11Z" fill="#a34040" stroke="#242424" stroke-miterlimit="10"/><path d="M677.67,623.24c-18.52,13.67-71,18.47-155.53,19.86-122.34,0-141-10.61-154.44-19-18.09-13.65-14.81-37.05-.86-46.28c0,0,0,0,0,0c14.82-11.19,78.71-19.59,155.28-19.59s140.51,8.42,155.29,19.61c15.39,10.74,13.26,35.16.26,45.4Z" fill="none" stroke="#242424" stroke-miterlimit="10"/></g><g id="erSV8eWsgKI159" transform="translate(.090331-45.782927)"><g><ellipse rx="164.87" ry="29.31" transform="translate(520.79 636.4)" fill="#c78700"/><path d="M357,633.14c0,0-9.65,15-6.71,32.57c1.92,10.5,14.05,5.09,26.23,0c7-1.88,12.81-2.65,22.43,4.46s19.87,17.37,63.45,13.53c30.76-3.85,42.94-20.51,73.06-9c12.6,6.09,16,1.28,25.64-6.41c4.68-3.22,14.1-3.85,28.2,6.41c11.54,10.25,21.58,28.74,46.57-8.39c3.85-4.45,8.83-8.13,19.72-5.52c6.63,2,12,4,18.31,11.34c5.13,5.77,10.9,16.38,12.66-6.45c1.69-22-1-30.44-1-30.44s9.44,25.37-149.07,30.31c-41.39-.19-183.98-3.22-179.49-32.41Z" fill="#f5c100"/></g><path d="M357.55,637.81c2.64,4.56,6,18.86,121.5,26.2-11.74,5.62-37.79,25.49-72.51,1.7-14.81-8-27.51-14.9-37.66-10.19-13.79,8-15.51,13.4-16.47-.83.110276-5.995171,1.890283-11.840797,5.14-16.88Z" fill="#ffde83"/><path d="M672.18,654.29c6.61.86,7.85,1.53,8.91,13.4.28,5.94,3,9.44,3.47-10.22c0-12.18-.68705-17.242793-.68705-17.242793s-3.638588,4.799071-16.344191,9.300948C658.383751,652.58367,672.18,654.29,672.18,654.29Z" fill="#ffde83"/><path d="M686.5,665.7c-1.75,22.84-7.51,12.22-12.64,6.46-6.380908-8.15-27.789847-19.55193-38.03-5.83-25,37.13-35,18.64-46.57,8.39-14.1-10.26-23.463174-10.71-28.2-6.41-9.62,7.69-13,12.5-25.64,6.41-30.12-11.54-42.3,5.13-73.06,9-65.656167,7.602683-61.118822-27.372678-85.89-17.99-12.18,5.09-24.3,10.5-26.22,0q-2.63-15.66,6.7-32.57c9.12-14.65,79-26,163.85-26c88.94,0,161.41,12.52,164.74,28.18c0,0,2.54,9.95.96,30.36Z" fill="none" stroke="#242424" stroke-miterlimit="10"/></g><g id="erSV8eWsgKI166" transform="matrix(.998631 0.052305-.052305 0.998631 102.893855 189.11352)"><path d="M598.41,359l.29,10.93c.32,12.26-37.32,23.18-84.1,24.43s-85-7.66-85.27-19.92l-.3-10.93c-.32-12.26,37.32-23.18,84.1-24.43s84.95,7.62,85.28,19.92Z" fill="#e41a1d"/><ellipse rx="84.72" ry="22.18" transform="matrix(.999648-.026526 0.026526 0.999648 513.700425 361.235967)" fill="#c20f17"/><path d="M499.15366,358.91287c-.04834-1.8219,6.3931-3.4708,14.38737-3.68294s14.5141,1.09284,14.56244,2.91474-6.3931,3.4708-14.38737,3.68294-14.5141-1.09284-14.56244-2.91474ZM453.65,351.37c30.1-2.54,44.15,5.41,44.18,7.23c1,3.82-35.64,13.69-46.69,12.06-23.9-4.14-15.3-17.08,2.51-19.29Zm30.06,26.3c-7.21-7.42,21.11-14.56,32.14-14.28c11.25,0,25.54,9.88,21.17,13.77-5.19,4.92-48.25,5.39-53.31.51Zm79.76-5.76c-12.21-1.22-34.33-10.11-30.41-13.67c4.22-3.36,30.44-7.73,52.08-5.63c21.57,2.5-3.44,20.97-21.67,19.3Zm-84.68-26.79c2.65-2.95,39.91-5.49,42.07-3.53c2.3,1.49-1.24,10.37-14.65,11.62-10.21-.03-30.78-4.67-27.42-8.09ZM524.66,354c0,0-3.08-1.07-.73-5.06c2.16-2.84,2.55-6.67,10.72-7.11c8.08,0,21.42,1.35,25.68,3c6.83,3.32-26.17,12.22-35.67,9.17Z" fill="#921a1b"/><path d="M598.4,359l.3,10.92c.32,12.26-37.32,23.18-84.11,24.43s-84.94-7.67-85.27-19.92L429,363.46c-.01323-.979462.191726-1.949588.6-2.84v0c7.930721-16.33,60.75-21,83.48-21.57c46.78-1.21,79.72,7.4,84.53,17.1v0c.476182.877746.746339,1.852362.79,2.85Z" fill="none" stroke="#242424" stroke-miterlimit="10"/></g><g id="erSV8eWsgKI172" transform="matrix(.999894 0.014574-.014574 0.999894-62.977299 217.302644)"><path d="M598.41,359l.29,10.93c.32,12.26-37.32,23.18-84.1,24.43s-85-7.66-85.27-19.92l-.3-10.93c-.32-12.26,37.32-23.18,84.1-24.43s84.95,7.62,85.28,19.92Z" fill="#e41a1d"/><ellipse rx="84.72" ry="22.18" transform="matrix(.999648-.026526 0.026526 0.999648 513.700425 361.235967)" fill="#c20f2f"/><path d="M499.15366,358.91287c-.04834-1.8219,6.3931-3.4708,14.38737-3.68294s14.5141,1.09284,14.56244,2.91474-6.3931,3.4708-14.38737,3.68294-14.5141-1.09284-14.56244-2.91474ZM453.65,351.37c30.1-2.54,44.15,5.41,44.18,7.23c1,3.82-35.64,13.69-46.69,12.06-23.9-4.14-15.3-17.08,2.51-19.29Zm30.06,26.3c-7.21-7.42,21.11-14.56,32.14-14.28c11.25,0,25.54,9.88,21.17,13.77-5.19,4.92-48.25,5.39-53.31.51Zm79.76-5.76c-12.21-1.22-34.33-10.11-30.41-13.67c4.22-3.36,30.44-7.73,52.08-5.63c21.57,2.5-3.44,20.97-21.67,19.3Zm-84.68-26.79c2.65-2.95,39.91-5.49,42.07-3.53c2.3,1.49-1.24,10.37-14.65,11.62-10.21-.03-30.78-4.67-27.42-8.09ZM524.66,354c0,0-3.08-1.07-.73-5.06c2.16-2.84,2.55-6.67,10.72-7.11c8.08,0,21.42,1.35,25.68,3c6.83,3.32-26.17,12.22-35.67,9.17Z" fill="#970e2e"/><path d="M598.4,359l.3,10.92c.32,12.26-37.32,23.18-84.11,24.43s-84.94-7.67-85.27-19.92L429,363.46c-.01323-.979462.191726-1.949588.6-2.84v0c7.930721-16.33,60.75-21,83.48-21.57c46.78-1.21,79.72,7.4,84.53,17.1v0c.476182.877746.746339,1.852362.79,2.85Z" fill="none" stroke="#242424" stroke-miterlimit="10"/></g><g id="erSV8eWsgKI178" transform="translate(29.495834 263.306944)"><g mask="url(#erSV8eWsgKI182)"><path d="M331.18,310.67c0,0,12.28-132.8,158.82-132.8c141,2.7,158.06,128.32,158.8,132.8.77,4.89-9.88,28-167.47,29.91-73.97,0-152.33-11.79-150.15-29.91Z" fill="#f8a200" stroke-miterlimit="10"/><path d="M613.485829,221.936875c46.896782,121.839678-246.897762,138.851256-290.264636,82.391685-1.54,30.73-2.699178,48.585204-2.699178,48.585204l421.023013,1.113514c0,0-8.214545-104.714865-16.703761-174.949918-.050588-.418537-111.355438,42.859515-111.355438,42.859515Z" transform="translate(-3-5)" fill="#e28c03"/><mask id="erSV8eWsgKI182" mask-type="alpha" x="-150%" y="-150%" height="400%" width="400%"><path d="M331.719138,310.457184C331.719138,310.457184,344.6,178.45,490,178.45c140,2.67,157.760945,127.557184,158.490945,132.007184C649.260945,315.317184,637.85,338.1,481.42,339.95C408,340,329.509138,328.447184,331.719138,310.457184Z"/></mask></g><path d="M374.57,274.61c-5.27,10.75-7.8,23.54-9.42,30.87-1.79,8.11-12.94,6.05-12.06-4c1.57-14.77,9.65-31,9.65-31c5.99-9.82,16.64-3.58,11.83,4.13Zm1.68-30.1c0,0,12.16-23.67,41.94-39.27c15.92-8.69,18.45-5.17,20.73-2.74c1.73,2.36,1.33,5.34-7.29,9.86-24.38,12.81-32.31,22.38-44.62,38.14-4.68,6.15-16.71,4.03-10.76-5.99Z" transform="translate(.000001 0.000001)" fill="#f7d29c"/><path d="M331.18,310.67c0,0,12.28-132.8,158.82-132.8c141,2.7,158.06,128.32,158.8,132.8.77,4.89-9.852714,27.302336-167.442714,29.212336C407.387286,339.882336,329,328.79,331.18,310.67Z" fill="none" stroke="#242424" stroke-miterlimit="10"/><g transform="translate(.000001 0)"><circle id="erSV8eWsgKI187" r="4.47" transform="translate(460.09 214.55)" fill="#ddd" stroke="#242424" stroke-width="0.850394" stroke-miterlimit="10"/><circle id="erSV8eWsgKI188" r="4.47" transform="translate(505.310945 229.75)" fill="#ddd" stroke="#242424" stroke-width="0.850394" stroke-miterlimit="10"/><circle id="erSV8eWsgKI189" r="4.47" transform="translate(533.58 204.16)" fill="#ddd" stroke="#242424" stroke-width="0.850394" stroke-miterlimit="10"/><circle id="erSV8eWsgKI190" r="4.47" transform="translate(463.020007 249.477937)" fill="#ddd" stroke="#242424" stroke-width="0.850394" stroke-miterlimit="10"/><circle id="erSV8eWsgKI191" r="4.47" transform="translate(505.310945 265.57135)" fill="#ddd" stroke="#242424" stroke-width="0.850394" stroke-miterlimit="10"/><circle id="erSV8eWsgKI192" r="4.47" transform="translate(540.713038 246.41)" fill="#ddd" stroke="#242424" stroke-width="0.850394" stroke-miterlimit="10"/><circle id="erSV8eWsgKI193" r="4.47" transform="translate(580.377111 247.63)" fill="#ddd" stroke="#242424" stroke-width="0.850394" stroke-miterlimit="10"/><circle id="erSV8eWsgKI194" r="4.47" transform="translate(428.26 238.69)" fill="#ddd" stroke="#242424" stroke-width="0.850394" stroke-miterlimit="10"/><circle id="erSV8eWsgKI195" r="4.47" transform="translate(441.29 282.06)" fill="#ddd" stroke="#242424" stroke-width="0.850394" stroke-miterlimit="10"/><circle id="erSV8eWsgKI196" r="4.47" transform="translate(567.27 220.83)" fill="#ddd" stroke="#242424" stroke-width="0.850394" stroke-miterlimit="10"/><circle id="erSV8eWsgKI197" r="4.47" transform="translate(494.49 192.52)" fill="#ddd" stroke="#242424" stroke-width="0.850394" stroke-miterlimit="10"/></g></g></g><g transform="matrix(1.079068 0 0 1.079068-35.585666-23.154833)"><ellipse id="erSV8eWsgKI199" rx="93.06" ry="13.4" transform="matrix(1.382633 0 0 1 538.859184 810.27)" opacity="0.4" fill="#151819"/><g id="erSV8eWsgKI201" transform="translate(19.732002 39.921263)"><g><path d="M-158.79,0c0-16.546451,71.092705-29.96,158.79-29.96s158.79,13.413549,158.79,29.96-71.092705,39.96-158.79,39.96-158.79-23.413549-158.79-39.96Z" transform="translate(518.47 678.05)" fill="#c97100"/><g mask="url(#erSV8eWsgKI116)"><path d="M359.68,678.05c0,0,0,92.57,166.61,92.57c139.43,0,149.52-81.27,151-92.57-2.78,5.6-5.16,25-155.41,29.66-53.64,0-151.5-5.24-162.2-29.66Z" fill="#f8a200"/><path d="M352.458427,668.102961c0,0,2.892993,66.943662,109.519947,77.462603c97.683001,2.593354,160.822208-20.97881,177.112208-77.65881c49.48-15.32,77.244635-41.82679,77.244635-41.82679s-3.455217,167.970036-222.315217,161.860036C388,781.81,356.963419,767.66807,352.458427,668.102961Z" fill="#e28c03"/><mask mask-type="alpha" x="-150%" y="-150%" height="400%" width="400%"><path d="M359.68,678.05c0,0,0,92.57,166.61,92.57c139.43,0,149.52-81.27,151-92.57-2.78,5.6-5.16,25-155.41,29.66-53.64,0-151.5-5.24-162.2-29.66Z"/></mask></g><path d="M677.26,677.76c0,.1-3.76,92.86-151,92.86-166.61,0-166.61-92.76-166.61-92.86c0-16.55,71.1-30,158.79-30s158.82,13.45,158.82,30Z" fill="none" stroke="#242424" stroke-miterlimit="10"/></g><g id="erSV8eWsgKI210" transform="translate(1.670555 10.240626)"><path d="M-158.52,0c0-13.564113,70.971821-24.56,158.52-24.56s158.52,10.995887,158.52,24.56-54.140141,32.765971-163.78743,29.751277-153.25257-16.187164-153.25257-29.751277Z" transform="translate(518.89 642.88)" fill="#8f0119"/><g clip-path="url(#erSV8eWsgKI216)"><g><path d="M363.81,637.78c-14.14,9.14-17.55,32.71.64,46.43c13.48,8.4,32.09,19,154.44,19c84.56-1.39,137-6.18,155.53-19.85c13.07-10.32,15.15-35-.46-45.58c9.76,8.28-14,29.66-155.07,28.44-114.81-1.48-166.89-12.79-155.08-28.44Z" fill="#810010"/><path d="M347.85,655.44c0,0-4.89,23,36.85,31.61c129.07,16.56,333,10.32,292.7-58.48c24.13,19,28.53,63.63-3.06,81.06s-199.48,35.79-281.68,14.64c-36.39-3.15-54.39-44.9-44.81-68.83Z" fill="#700013"/></g><clipPath id="erSV8eWsgKI216"><path d="M363.81,637.78c-14.14,9.14-17.55,32.71.64,46.43c13.48,8.4,32.09,19,154.44,19c84.56-1.39,137-6.18,155.53-19.85c13.07-10.32,15.15-35-.46-45.58c9.76,8.28-14,29.66-155.07,28.44-114.81-1.48-166.89-12.79-155.08-28.44Z" fill="none"/></clipPath></g><path d="M674.42,683.36c-18.52,13.66-71,18.46-155.53,19.85-122.34,0-141-10.6-154.44-19-18.09-13.65-14.81-37.05-.86-46.28v0c14.82-11.18,78.71-19.59,155.28-19.59s140.51,8.42,155.29,19.61v0c15.39,10.74,13.26,35.14.26,45.41Z" fill="none" stroke="#242424" stroke-miterlimit="10"/></g><g id="erSV8eWsgKI219" transform="matrix(.999995 0.003228-.003228 0.999995 1.658844 11.305707)"><g><ellipse rx="164.87" ry="29.31" transform="translate(520.79 636.4)" fill="#c78700"/><path d="M357,633.14c0,0-9.65,15-6.71,32.57c1.92,10.5,14.05,5.09,26.23,0c7-1.88,12.81-2.65,22.43,4.46s19.87,17.37,63.45,13.53c30.76-3.85,42.94-20.51,73.06-9c12.6,6.09,16,1.28,25.64-6.41c4.68-3.22,14.1-3.85,28.2,6.41c11.54,10.25,21.58,28.74,46.57-8.39c3.85-4.45,8.83-8.13,19.72-5.52c6.63,2,12,4,18.31,11.34c5.13,5.77,10.9,16.38,12.66-6.45c1.69-22-1-30.44-1-30.44s9.44,25.37-149.07,30.31c-41.39-.19-183.98-3.22-179.49-32.41Z" fill="#f5c100"/></g><path d="M357.55,637.81c2.64,4.56,6,18.86,121.5,26.2-11.74,5.62-37.79,25.49-72.51,1.7-14.81-8-27.51-14.9-37.66-10.19-13.79,8-15.51,13.4-16.47-.83.110276-5.995171,1.890283-11.840797,5.14-16.88Z" fill="#ffde83"/><path d="M672.18,654.29c6.61.86,7.85,1.53,8.91,13.4.28,5.94,3,9.44,3.47-10.22c0-12.18-.515809-17.605077-.515809-17.605077s-3.776881,5.155487-16.242432,9.628141C660.687134,652.201641,672.18,654.29,672.18,654.29Z" fill="#ffde83"/><path d="M686.5,665.7c-1.75,22.84-7.51,12.22-12.64,6.46-6.380908-8.15-27.789847-19.55193-38.03-5.83-25,37.13-35,18.64-46.57,8.39-14.1-10.26-23.463174-10.71-28.2-6.41-9.62,7.69-13,12.5-25.64,6.41-30.12-11.54-42.3,5.13-73.06,9-65.656167,7.602683-61.118822-27.372678-85.89-17.99-12.18,5.09-24.3,10.5-26.22,0q-2.63-15.66,6.7-32.57c9.12-14.65,79-26,163.85-26c88.94,0,161.41,12.52,164.74,28.18c0,0,2.54,9.95.96,30.36Z" fill="none" stroke="#242424" stroke-miterlimit="10"/></g><g id="erSV8eWsgKI226" transform="matrix(.999894 0.014574-.014574 0.999894-70.585337 267.851046)"><path d="M598.41,359l.29,10.93c.32,12.26-37.32,23.18-84.1,24.43s-85-7.66-85.27-19.92l-.3-10.93c-.32-12.26,37.32-23.18,84.1-24.43s84.95,7.62,85.28,19.92Z" fill="#e41a1d"/><ellipse rx="84.72" ry="22.18" transform="matrix(.999648-.026526 0.026526 0.999648 513.700425 361.235967)" fill="#c20f17"/><path d="M499.15366,358.91287c-.04834-1.8219,6.3931-3.4708,14.38737-3.68294s14.5141,1.09284,14.56244,2.91474-6.3931,3.4708-14.38737,3.68294-14.5141-1.09284-14.56244-2.91474ZM453.65,351.37c30.1-2.54,44.15,5.41,44.18,7.23c1,3.82-35.64,13.69-46.69,12.06-23.9-4.14-15.3-17.08,2.51-19.29Zm30.06,26.3c-7.21-7.42,21.11-14.56,32.14-14.28c11.25,0,25.54,9.88,21.17,13.77-5.19,4.92-48.25,5.39-53.31.51Zm79.76-5.76c-12.21-1.22-34.33-10.11-30.41-13.67c4.22-3.36,30.44-7.73,52.08-5.63c21.57,2.5-3.44,20.97-21.67,19.3Zm-84.68-26.79c2.65-2.95,39.91-5.49,42.07-3.53c2.3,1.49-1.24,10.37-14.65,11.62-10.21-.03-30.78-4.67-27.42-8.09ZM524.66,354c0,0-3.08-1.07-.73-5.06c2.16-2.84,2.55-6.67,10.72-7.11c8.08,0,21.42,1.35,25.68,3c6.83,3.32-26.17,12.22-35.67,9.17Z" fill="#921a1b"/><path d="M598.4,359l.3,10.92c.32,12.26-37.32,23.18-84.11,24.43s-84.94-7.67-85.27-19.92L429,363.46c-.01323-.979462.191726-1.949588.6-2.84v0c7.930721-16.33,60.75-21,83.48-21.57c46.78-1.21,79.72,7.4,84.53,17.1v0c.476182.877746.746339,1.852362.79,2.85Z" fill="none" stroke="#242424" stroke-miterlimit="10"/></g><g id="erSV8eWsgKI232" transform="matrix(.999894 0.014574-.017681 1.213025 92.265114 185.313658)"><path d="M598.41,359l.29,10.93c.32,12.26-37.32,23.18-84.1,24.43s-85-7.66-85.27-19.92l-.3-10.93c-.32-12.26,37.32-23.18,84.1-24.43s84.95,7.62,85.28,19.92Z" fill="#e41a1d"/><ellipse rx="84.72" ry="22.18" transform="matrix(.999648-.026526 0.026526 0.999648 513.700425 361.235967)" fill="#c20f17"/><path d="M499.15366,358.91287c-.04834-1.8219,6.3931-3.4708,14.38737-3.68294s14.5141,1.09284,14.56244,2.91474-6.3931,3.4708-14.38737,3.68294-14.5141-1.09284-14.56244-2.91474ZM453.65,351.37c30.1-2.54,44.15,5.41,44.18,7.23c1,3.82-35.64,13.69-46.69,12.06-23.9-4.14-15.3-17.08,2.51-19.29Zm30.06,26.3c-7.21-7.42,21.11-14.56,32.14-14.28c11.25,0,25.54,9.88,21.17,13.77-5.19,4.92-48.25,5.39-53.31.51Zm79.76-5.76c-12.21-1.22-34.33-10.11-30.41-13.67c4.22-3.36,30.44-7.73,52.08-5.63c21.57,2.5-3.44,20.97-21.67,19.3Zm-84.68-26.79c2.65-2.95,39.91-5.49,42.07-3.53c2.3,1.49-1.24,10.37-14.65,11.62-10.21-.03-30.78-4.67-27.42-8.09ZM524.66,354c0,0-3.08-1.07-.73-5.06c2.16-2.84,2.55-6.67,10.72-7.11c8.08,0,21.42,1.35,25.68,3c6.83,3.32-26.17,12.22-35.67,9.17Z" fill="#921a1b"/><path d="M598.4,359l.3,10.92c.32,12.26-37.32,23.18-84.11,24.43s-84.94-7.67-85.27-19.92L429,363.46c-.01323-.979462.191726-1.949588.6-2.84v0c7.930721-16.33,60.75-21,83.48-21.57c46.78-1.21,79.72,7.4,84.53,17.1v0c.476182.877746.746339,1.852362.79,2.85Z" fill="none" stroke="#242424" stroke-miterlimit="10"/></g><g id="erSV8eWsgKI238" transform="translate(-1.387269 13.381639)"><g transform="translate(.150356-.012033)"><path d="M691.78,632.24c-3.63,6.75-7.46-3-14.53-1.2-7.81,2,.24,9.25-5.89,19.79-3.31,5.68-21,11-40.59-3.83-6-4.53-10.3,1.12-11.76,5.1-2.82,7.67-9.42,11.54-22.08,13-19,2.23-26.4-7.81-35.53-13s-14.74-8.54-18.6,4.44-11.19,10.63-14.11,3.71c-2.37-5.63-4.21-10.62-8.64-5.93-9.32,10.64-18.23,17.06-31.48,18.55-27.09,3.71-37.63-14.84-51.28-22.25s-27.15-3.71-49,4.44c-51.66,14.78-36.87-13.44-33.74-21.2c2.28-5.65,0-5.56-3-8.62-9.32-10.67,20.19-19.83,21.45-20.24-4.75,2.93-7.32,6.06-7.32,9.31c0,16.55,66.42,30,148.36,30s148.35-13.41,148.35-30c0-4.19-4.26-8.18-12-11.8c36.06.74,43.61,19.05,41.39,29.73Z" fill="#97b800"/><path d="M665.623278,614.834806c0,16.64-73.51321,31.467728-155.90321,31.467728s-145.894344-14.397757-145.894344-31.037757c0-3.27,4.164276-7.194777,8.944276-10.144777c19.51-12,75.64-20.75,141.82-20.75c61.5,0,114.31,7.52,137.13,18.25v0c7.76,3.64,13.903278,7.994806,13.903278,12.214806Z" fill="#899928"/></g><path d="M397.37,595.86c6.50786.18878,26.37237,1.61698,52.6344,3.98291c3.74172-6.00937,42.47278-11.91186,74.21882-11.65465-20.56126.15421-45.53124,4.03801-66.07184,12.40001c15.39168,1.42937,32.56938,3.1433,50.31077,5.08879c13.0032-8.97227,33.50639-13.73783,70.21785-7.95704-24.66462-2.12695-53.99585-.50466-62.18489,8.8497c37.30306,4.20084,76.25941,9.37458,105.77489,15.0403-27.81756-4.4061-67.98312-8.96646-107.02742-12.92218-.32733,4.51341,4.76516,12.89225,14.30742,20.85218-19.65875-13.25763-21.61442-19.97442-21.77542-21.60293-17.81107-1.77686-35.20548-3.41642-50.88491-4.84551-2.91918,13.76897,3.56068,20.81872,12.82033,28.21844-23.03-12.97-20.36-28.9-20.36-28.9l5.59154.50428c-36.58712-3.32429-63.36154-5.46428-63.36154-5.46428s2.42-.68,5.79-1.59v-.00002Zm126.85322-7.67175c6.41404-.04811,12.39907.26672,17.68678.92175-5.40624-.57924-11.40998-.87089-17.68678-.92175Z" transform="translate(0 0.000001)" fill="#7d8904"/><path d="M691.79,631.58c-3.64,6.75-7.47-3-14.54-1.2-7.81,2,.24,9.25-5.9,19.79-3.3,5.68-21,11-40.58-3.83-6-4.53-10.3,1.12-11.76,5.1-2.82,7.67-9.41,11.54-22.08,13-19,2.23-26.4-7.81-35.52-13s-14.74-8.54-18.61,4.44-11.19,10.63-14.11,3.71c-2.37-5.63-4.21-10.62-8.65-5.93-9.31,10.64-18.22,17.06-31.47,18.55-27.09,3.71-37.63-14.84-51.27-22.25s-27.16-3.71-49,4.44c-51.66,14.78-36.88-13.44-33.74-21.2c2.29-5.65,0-5.56-3-8.62-9.09-10.36,18.35-19.28,21.21-20.17c19.56-12,75.65-20.72,141.78-20.72c61.41,0,114.15,7.5,137,18.2c35.07,1.11,42.38,19.11,40.24,29.69Z" transform="translate(-.035339 0.233488)" fill="none" stroke="#242424" stroke-width="0.973897" stroke-miterlimit="10"/></g><g id="erSV8eWsgKI244" transform="matrix(.975245 0 0 0.867852 9.170555 92.372424)"><g><ellipse rx="158.52" ry="24.56" transform="translate(522.14 582.77)" fill="#810010"/><path d="M367.06,577.66c-14.13,9.14-17.55,32.72.64,46.43c13.48,8.4,32.1,19,154.44,19c84.56-1.38,137-6.18,155.53-19.84c13.07-10.33,15.15-35-.45-45.59c9.75,8.28-14,29.66-155.08,28.44-114.81-1.47-166.89-12.79-155.08-28.44Z" fill="#8f0119"/></g><path d="M357.46,589.29c0,0,1.8,11.09,8.63,7.27c3.31-1.71,8-1.27,11.74,5.49c2.3,5.27,5.56,9.74,12,5.27c5.27-3.89,14.29-4,21.32,3.06c3.51,3,10,9.85,15.45,5.33c4.85-3.7,11.9-9.3,24-2.55c4.29,1.78,8.76,9.61,21.44,3.32c7.54-4.47,17.88-8.3,27.32-2.17c8.05,4.59,10.09,12.89,25.66,4.72c13-7.75,22.69-11.89,35.88-3.19c8,4.72,18.76,6.64,28.85-1c6.51-5.41,16-10.2,26.17-5.24c5.66,2.86,6.53,6,15.7-1.15c10-8.68,18.66-7.58,24.13-3.57c5.07,4,7.6-2.64,10.34-5.36s9.26-8.56,12.38-5c2.54,2.05,6.48-2.18,7.85-5.23c2.34,3.63,2.87,16.42-1.45,24.9-3.12,2.29-6.21,2.6-9.72.5-3.32-2.1-5.87,3.27-9.57,6.89s-6.43-.71-13.28-3.83c-5.3-2.41-13.8,5.38-15.83,7.41-6.89,6.89-16.47,7.84-23.47,1.91-7-4.77-10.08-3.19-18.89,3.83-8.17,6.42-26.41,6.94-40.85,1-9.57-3.43-12.65-4.13-25.92.64-10.93,3.63-14.87,6.48-31.66-1.53-8.78-3.81-15.61-5-24-.79s-14.81,6.66-23.62,1c-8-5.37-12.31-7.33-19.14-3.32-6.45,3.24-17.21,1.51-25.41-4.22-7.22-5.15-8-8.17-14.81-4.59-4.68,2.67-8.25,4.9-13.91.89-2.15-2.29-3.8-9.58-8.48-6.34-1.37.95-4,3.25-9.31-3.24-1.38-4.65-3.42-11.28.46-21.11Z" fill="#a34040" stroke="#242424" stroke-miterlimit="10"/><path d="M677.67,623.24c-18.52,13.67-71,18.47-155.53,19.86-122.34,0-141-10.61-154.44-19-18.09-13.65-14.81-37.05-.86-46.28c0,0,0,0,0,0c14.82-11.19,78.71-19.59,155.28-19.59s140.51,8.42,155.29,19.61c15.39,10.74,13.26,35.16.26,45.4Z" fill="none" stroke="#242424" stroke-miterlimit="10"/></g><g id="erSV8eWsgKI250" transform="translate(.090331-45.782927)"><g><ellipse rx="164.87" ry="29.31" transform="translate(520.79 636.4)" fill="#c78700"/><path d="M357,633.14c0,0-9.65,15-6.71,32.57c1.92,10.5,14.05,5.09,26.23,0c7-1.88,12.81-2.65,22.43,4.46s19.87,17.37,63.45,13.53c30.76-3.85,42.94-20.51,73.06-9c12.6,6.09,16,1.28,25.64-6.41c4.68-3.22,14.1-3.85,28.2,6.41c11.54,10.25,21.58,28.74,46.57-8.39c3.85-4.45,8.83-8.13,19.72-5.52c6.63,2,12,4,18.31,11.34c5.13,5.77,10.9,16.38,12.66-6.45c1.69-22-1-30.44-1-30.44s9.44,25.37-149.07,30.31c-41.39-.19-183.98-3.22-179.49-32.41Z" fill="#f5c100"/></g><path d="M357.55,637.81c2.64,4.56,6,18.86,121.5,26.2-11.74,5.62-37.79,25.49-72.51,1.7-14.81-8-27.51-14.9-37.66-10.19-13.79,8-15.51,13.4-16.47-.83.110276-5.995171,1.890283-11.840797,5.14-16.88Z" fill="#ffde83"/><path d="M672.18,654.29c6.61.86,7.85,1.53,8.91,13.4.28,5.94,3,9.44,3.47-10.22c0-12.18-.68705-17.242793-.68705-17.242793s-3.638588,4.799071-16.344191,9.300948C658.383751,652.58367,672.18,654.29,672.18,654.29Z" fill="#ffde83"/><path d="M686.5,665.7c-1.75,22.84-7.51,12.22-12.64,6.46-6.380908-8.15-27.789847-19.55193-38.03-5.83-25,37.13-35,18.64-46.57,8.39-14.1-10.26-23.463174-10.71-28.2-6.41-9.62,7.69-13,12.5-25.64,6.41-30.12-11.54-42.3,5.13-73.06,9-65.656167,7.602683-61.118822-27.372678-85.89-17.99-12.18,5.09-24.3,10.5-26.22,0q-2.63-15.66,6.7-32.57c9.12-14.65,79-26,163.85-26c88.94,0,161.41,12.52,164.74,28.18c0,0,2.54,9.95.96,30.36Z" fill="none" stroke="#242424" stroke-miterlimit="10"/></g><g id="erSV8eWsgKI257" transform="matrix(.998631 0.052305-.052305 0.998631 102.893855 189.11352)"><path d="M598.41,359l.29,10.93c.32,12.26-37.32,23.18-84.1,24.43s-85-7.66-85.27-19.92l-.3-10.93c-.32-12.26,37.32-23.18,84.1-24.43s84.95,7.62,85.28,19.92Z" fill="#e41a1d"/><ellipse rx="84.72" ry="22.18" transform="matrix(.999648-.026526 0.026526 0.999648 513.700425 361.235967)" fill="#c20f17"/><path d="M499.15366,358.91287c-.04834-1.8219,6.3931-3.4708,14.38737-3.68294s14.5141,1.09284,14.56244,2.91474-6.3931,3.4708-14.38737,3.68294-14.5141-1.09284-14.56244-2.91474ZM453.65,351.37c30.1-2.54,44.15,5.41,44.18,7.23c1,3.82-35.64,13.69-46.69,12.06-23.9-4.14-15.3-17.08,2.51-19.29Zm30.06,26.3c-7.21-7.42,21.11-14.56,32.14-14.28c11.25,0,25.54,9.88,21.17,13.77-5.19,4.92-48.25,5.39-53.31.51Zm79.76-5.76c-12.21-1.22-34.33-10.11-30.41-13.67c4.22-3.36,30.44-7.73,52.08-5.63c21.57,2.5-3.44,20.97-21.67,19.3Zm-84.68-26.79c2.65-2.95,39.91-5.49,42.07-3.53c2.3,1.49-1.24,10.37-14.65,11.62-10.21-.03-30.78-4.67-27.42-8.09ZM524.66,354c0,0-3.08-1.07-.73-5.06c2.16-2.84,2.55-6.67,10.72-7.11c8.08,0,21.42,1.35,25.68,3c6.83,3.32-26.17,12.22-35.67,9.17Z" fill="#921a1b"/><path d="M598.4,359l.3,10.92c.32,12.26-37.32,23.18-84.11,24.43s-84.94-7.67-85.27-19.92L429,363.46c-.01323-.979462.191726-1.949588.6-2.84v0c7.930721-16.33,60.75-21,83.48-21.57c46.78-1.21,79.72,7.4,84.53,17.1v0c.476182.877746.746339,1.852362.79,2.85Z" fill="none" stroke="#242424" stroke-miterlimit="10"/></g><g id="erSV8eWsgKI263" transform="matrix(.999894 0.014574-.014574 0.999894-62.977299 217.302644)"><path d="M598.41,359l.29,10.93c.32,12.26-37.32,23.18-84.1,24.43s-85-7.66-85.27-19.92l-.3-10.93c-.32-12.26,37.32-23.18,84.1-24.43s84.95,7.62,85.28,19.92Z" fill="#e41a1d"/><ellipse rx="84.72" ry="22.18" transform="matrix(.999648-.026526 0.026526 0.999648 513.700425 361.235967)" fill="#c20f2f"/><path d="M499.15366,358.91287c-.04834-1.8219,6.3931-3.4708,14.38737-3.68294s14.5141,1.09284,14.56244,2.91474-6.3931,3.4708-14.38737,3.68294-14.5141-1.09284-14.56244-2.91474ZM453.65,351.37c30.1-2.54,44.15,5.41,44.18,7.23c1,3.82-35.64,13.69-46.69,12.06-23.9-4.14-15.3-17.08,2.51-19.29Zm30.06,26.3c-7.21-7.42,21.11-14.56,32.14-14.28c11.25,0,25.54,9.88,21.17,13.77-5.19,4.92-48.25,5.39-53.31.51Zm79.76-5.76c-12.21-1.22-34.33-10.11-30.41-13.67c4.22-3.36,30.44-7.73,52.08-5.63c21.57,2.5-3.44,20.97-21.67,19.3Zm-84.68-26.79c2.65-2.95,39.91-5.49,42.07-3.53c2.3,1.49-1.24,10.37-14.65,11.62-10.21-.03-30.78-4.67-27.42-8.09ZM524.66,354c0,0-3.08-1.07-.73-5.06c2.16-2.84,2.55-6.67,10.72-7.11c8.08,0,21.42,1.35,25.68,3c6.83,3.32-26.17,12.22-35.67,9.17Z" fill="#970e2e"/><path d="M598.4,359l.3,10.92c.32,12.26-37.32,23.18-84.11,24.43s-84.94-7.67-85.27-19.92L429,363.46c-.01323-.979462.191726-1.949588.6-2.84v0c7.930721-16.33,60.75-21,83.48-21.57c46.78-1.21,79.72,7.4,84.53,17.1v0c.476182.877746.746339,1.852362.79,2.85Z" fill="none" stroke="#242424" stroke-miterlimit="10"/></g><g id="erSV8eWsgKI269" transform="translate(29.495834 263.306944)"><g mask="url(#erSV8eWsgKI182)"><path d="M331.18,310.67c0,0,12.28-132.8,158.82-132.8c141,2.7,158.06,128.32,158.8,132.8.77,4.89-9.88,28-167.47,29.91-73.97,0-152.33-11.79-150.15-29.91Z" fill="#f8a200" stroke-miterlimit="10"/><path d="M613.485829,221.936875c46.896782,121.839678-246.897762,138.851256-290.264636,82.391685-1.54,30.73-2.699178,48.585204-2.699178,48.585204l421.023013,1.113514c0,0-8.214545-104.714865-16.703761-174.949918-.050588-.418537-111.355438,42.859515-111.355438,42.859515Z" transform="translate(-3-5)" fill="#e28c03"/><mask mask-type="alpha" x="-150%" y="-150%" height="400%" width="400%"><path d="M331.719138,310.457184C331.719138,310.457184,344.6,178.45,490,178.45c140,2.67,157.760945,127.557184,158.490945,132.007184C649.260945,315.317184,637.85,338.1,481.42,339.95C408,340,329.509138,328.447184,331.719138,310.457184Z"/></mask></g><path d="M374.57,274.61c-5.27,10.75-7.8,23.54-9.42,30.87-1.79,8.11-12.94,6.05-12.06-4c1.57-14.77,9.65-31,9.65-31c5.99-9.82,16.64-3.58,11.83,4.13Zm1.68-30.1c0,0,12.16-23.67,41.94-39.27c15.92-8.69,18.45-5.17,20.73-2.74c1.73,2.36,1.33,5.34-7.29,9.86-24.38,12.81-32.31,22.38-44.62,38.14-4.68,6.15-16.71,4.03-10.76-5.99Z" transform="translate(.000001 0.000001)" fill="#f7d29c"/><path d="M331.18,310.67c0,0,12.28-132.8,158.82-132.8c141,2.7,158.06,128.32,158.8,132.8.77,4.89-9.852714,27.302336-167.442714,29.212336C407.387286,339.882336,329,328.79,331.18,310.67Z" fill="none" stroke="#242424" stroke-miterlimit="10"/><g transform="translate(.000001 0)"><circle id="erSV8eWsgKI278" r="4.47" transform="translate(460.09 214.55)" fill="#ddd" stroke="#242424" stroke-width="0.850394" stroke-miterlimit="10"/><circle id="erSV8eWsgKI279" r="4.47" transform="translate(505.310945 229.75)" fill="#ddd" stroke="#242424" stroke-width="0.850394" stroke-miterlimit="10"/><circle id="erSV8eWsgKI280" r="4.47" transform="translate(533.58 204.16)" fill="#ddd" stroke="#242424" stroke-width="0.850394" stroke-miterlimit="10"/><circle id="erSV8eWsgKI281" r="4.47" transform="translate(463.020007 249.477937)" fill="#ddd" stroke="#242424" stroke-width="0.850394" stroke-miterlimit="10"/><circle id="erSV8eWsgKI282" r="4.47" transform="translate(505.310945 265.57135)" fill="#ddd" stroke="#242424" stroke-width="0.850394" stroke-miterlimit="10"/><circle id="erSV8eWsgKI283" r="4.47" transform="translate(540.713038 246.41)" fill="#ddd" stroke="#242424" stroke-width="0.850394" stroke-miterlimit="10"/><circle id="erSV8eWsgKI284" r="4.47" transform="translate(580.377111 247.63)" fill="#ddd" stroke="#242424" stroke-width="0.850394" stroke-miterlimit="10"/><circle id="erSV8eWsgKI285" r="4.47" transform="translate(428.26 238.69)" fill="#ddd" stroke="#242424" stroke-width="0.850394" stroke-miterlimit="10"/><circle id="erSV8eWsgKI286" r="4.47" transform="translate(441.29 282.06)" fill="#ddd" stroke="#242424" stroke-width="0.850394" stroke-miterlimit="10"/><circle id="erSV8eWsgKI287" r="4.47" transform="translate(567.27 220.83)" fill="#ddd" stroke="#242424" stroke-width="0.850394" stroke-miterlimit="10"/><circle id="erSV8eWsgKI288" r="4.47" transform="translate(494.49 192.52)" fill="#ddd" stroke="#242424" stroke-width="0.850394" stroke-miterlimit="10"/></g></g></g></g></g></g>
<script><![CDATA[
(function(s,i,u,o,c,w,d,t,n,x,e,p,a,b){(a=Array.from(d.querySelectorAll('svg#' + i.root)).filter(n=> !n.svgatorPlayer)[0]||{}).svgatorPlayer={ready:(function(a){b=[];return function(c){return c?(b.push(c),a.svgatorPlayer):b}})(a)};w[o]=w[o]||{};w[o][s]=w[o][s]||[];w[o][s].push(i);e=d.createElementNS(n,t);e.async=true;e.setAttributeNS(x,'href',[u,s,'.','j','s','?','v','=',c].join(''));e.setAttributeNS(null,'src',[u,s,'.','j','s','?','v','=',c].join(''));p=d.getElementsByTagName(t)[0];p.parentNode.insertBefore(e,p);})('91c80d77',{"root":"erSV8eWsgKI1","version":"2022-05-04","animations":[{"elements":{"erSV8eWsgKI8":{"transform":{"data":{"o":{"x":257.866916,"y":566.6714,"type":"corner"}},"keys":{"s":[{"t":100,"v":{"x":0.933394,"y":0.933394},"e":[0.175,0.885,0.32,1.275]},{"t":500,"v":{"x":0.643861,"y":0.643861}},{"t":600,"v":{"x":0.643861,"y":0.643861},"e":[0.175,0.885,0.32,1.275]},{"t":1000,"v":{"x":0.933394,"y":0.933394}}]}},"opacity":[{"t":90,"v":0.4,"e":[0.175,0.885,0.32,1.275]},{"t":500,"v":0.2},{"t":600,"v":0.2,"e":[0.175,0.885,0.32,1.275]},{"t":1000,"v":0.4}]},"erSV8eWsgKI10":{"transform":{"data":{"t":{"x":-471.109985,"y":-736.300018}},"keys":{"o":[{"t":100,"v":{"x":270.55114,"y":354.529238,"type":"corner"},"e":[0.175,0.885,0.32,1.275]},{"t":600,"v":{"x":270.551154,"y":288.61325,"type":"corner"},"e":[0.175,0.885,0.32,1.275]},{"t":1000,"v":{"x":270.55114,"y":354.529238,"type":"corner","start":{"x":270.55114,"y":354.529238},"end":{"x":270.55114,"y":354.529238}},"e":[0.175,0.885,0.32,1.275]}],"s":[{"t":0,"v":{"x":1,"y":1}},{"t":200,"v":{"x":1,"y":0.938424},"e":[0.175,0.885,0.32,1.275]},{"t":600,"v":{"x":0.86775,"y":1},"e":[0.175,0.885,0.32,1.275]},{"t":1000,"v":{"x":1,"y":0.938424}},{"t":1200,"v":{"x":1,"y":1}}]}}},"erSV8eWsgKI12":{"transform":{"data":{"t":{"x":-483.336868,"y":-858.142253}},"keys":{"o":[{"t":100,"v":{"x":483.336871,"y":865.98061,"type":"corner"},"e":[0.175,0.885,0.32,1.275]},{"t":600,"v":{"x":482.336871,"y":817.292905,"type":"corner"}},{"t":1000,"v":{"x":483.336871,"y":865.98061,"type":"corner","start":{"x":483.336871,"y":865.98061},"end":{"x":483.336871,"y":865.98061}}}]}}},"erSV8eWsgKI13":{"transform":{"data":{"t":{"x":-405.921019,"y":-801.999998}},"keys":{"o":[{"t":100,"v":{"x":405.921039,"y":802.000001,"type":"corner"},"e":[0.175,0.885,0.32,1.275]},{"t":700,"v":{"x":405.921039,"y":692.468635,"type":"corner"},"e":[0.075,0.82,0.165,1]},{"t":1100,"v":{"x":405.921039,"y":802.000001,"type":"corner","start":{"x":405.921039,"y":802.000001},"end":{"x":405.921039,"y":802.000001}},"e":[0.175,0.885,0.32,1.275]}],"r":[{"t":100,"v":0,"e":[0.175,0.885,0.32,1.275]},{"t":500,"v":-2.797841},{"t":1100,"v":0}]}}},"erSV8eWsgKI21":{"transform":{"data":{"t":{"x":-413.420221,"y":-749.78}},"keys":{"o":[{"t":100,"v":{"x":413.420224,"y":749.780009,"type":"corner"},"e":[0.175,0.885,0.32,1.275]},{"t":700,"v":{"x":413.420221,"y":674.002144,"type":"corner"},"e":[0.175,0.885,0.32,1.275]},{"t":1100,"v":{"x":413.420224,"y":749.780009,"type":"corner","start":{"x":413.420224,"y":749.780009},"end":{"x":413.420224,"y":749.780009}}}],"r":[{"t":100,"v":0,"e":[0.175,0.885,0.32,1.275]},{"t":500,"v":-3.021292,"e":[0.175,0.885,0.32,1.275]},{"t":1100,"v":0,"e":[0.175,0.885,0.32,1.275]}]}}},"erSV8eWsgKI29":{"transform":{"data":{"t":{"x":-431.313606,"y":-741.059998}},"keys":{"o":[{"t":100,"v":{"x":431.31362,"y":741.06,"type":"corner"},"e":[0.175,0.885,0.32,1.275]},{"t":700,"v":{"x":429.740461,"y":622.979101,"type":"corner"},"e":[0.175,0.885,0.32,1.275]},{"t":1100,"v":{"x":431.31362,"y":741.06,"type":"corner","start":{"x":431.31362,"y":741.06},"end":{"x":431.31362,"y":741.06}}}],"r":[{"t":100,"v":0,"e":[0.175,0.885,0.32,1.275]},{"t":500,"v":1.600926},{"t":1100,"v":0}]}}},"erSV8eWsgKI37":{"transform":{"data":{"t":{"x":-530.413727,"y":-775.270002}},"keys":{"o":[{"t":100,"v":{"x":530.413728,"y":775.270004,"type":"corner","start":{"x":530.413728,"y":775.270004},"end":{"x":530.413728,"y":775.270004}},"e":[0.175,0.885,0.32,1.275]},{"t":700,"v":{"x":528.288979,"y":670.635014,"type":"corner"},"e":[0.175,0.885,0.32,1.275]},{"t":1100,"v":{"x":530.413728,"y":775.270004,"type":"corner","start":{"x":530.413728,"y":775.270004}},"e":[0.175,0.885,0.32,1.275]}],"r":[{"t":100,"v":0},{"t":500,"v":6.594218},{"t":1100,"v":0}]}}},"erSV8eWsgKI45":{"transform":{"data":{"t":{"x":-517.230884,"y":-749.799998}},"keys":{"o":[{"t":100,"v":{"x":521.230886,"y":749.8,"type":"corner"},"e":[0.175,0.885,0.32,1.275]},{"t":700,"v":{"x":509.226743,"y":660.439749,"type":"corner"},"e":[0.175,0.885,0.32,1.275]},{"t":1100,"v":{"x":521.230886,"y":749.8,"type":"corner","start":{"x":521.230886,"y":749.8},"end":{"x":521.230886,"y":749.8}},"e":[0.175,0.885,0.32,1.275]}],"r":[{"t":100,"v":0,"e":[0.175,0.885,0.32,1.275]},{"t":500,"v":5.438417},{"t":1100,"v":0}]}}},"erSV8eWsgKI53":{"transform":{"data":{"t":{"x":-518.11284,"y":-809.829998}},"keys":{"o":[{"t":100,"v":{"x":529.112842,"y":809.83,"type":"corner"},"e":[0.175,0.885,0.32,1.275]},{"t":700,"v":{"x":518.112842,"y":685.72448,"type":"corner"},"e":[0.175,0.885,0.32,1.275]},{"t":1100,"v":{"x":529.112842,"y":809.83,"type":"corner","start":{"x":529.112842,"y":809.83},"end":{"x":529.112842,"y":809.83}},"e":[0.175,0.885,0.32,1.275]}],"r":[{"t":100,"v":-1.798612,"e":[0.175,0.885,0.32,1.275]},{"t":500,"v":6.612082},{"t":1100,"v":-1.798612,"e":[0.175,0.885,0.32,1.275]}]}}},"erSV8eWsgKI61":{"transform":{"data":{"t":{"x":-501.413543,"y":-773.579916}},"keys":{"o":[{"t":100,"v":{"x":501.413543,"y":773.57992,"type":"corner"},"e":[0.175,0.885,0.32,1.275]},{"t":700,"v":{"x":501.413543,"y":635.57992,"type":"corner"},"e":[0.175,0.885,0.32,1.275]},{"t":1100,"v":{"x":501.413543,"y":773.57992,"type":"corner","start":{"x":501.413543,"y":773.57992},"end":{"x":501.413543,"y":773.57992}}}],"r":[{"t":100,"v":0,"e":[0.175,0.885,0.32,1.275]},{"t":500,"v":-3.44595},{"t":1100,"v":0}]}}},"erSV8eWsgKI69":{"transform":{"data":{"t":{"x":-445.226306,"y":-731.569997}},"keys":{"o":[{"t":100,"v":{"x":445.226312,"y":731.57,"type":"corner"},"e":[0.175,0.885,0.32,1.275]},{"t":700,"v":{"x":443.994948,"y":667.219567,"type":"corner"},"e":[0.175,0.885,0.32,1.275]},{"t":1100,"v":{"x":445.226312,"y":731.57,"type":"corner","start":{"x":445.226312,"y":731.57},"end":{"x":445.226312,"y":731.57}}}],"r":[{"t":100,"v":0,"e":[0.175,0.885,0.32,1.275]},{"t":500,"v":3.235081},{"t":1100,"v":0}]}}},"erSV8eWsgKI77":{"transform":{"data":{"t":{"x":-467.951132,"y":-752.539991}},"keys":{"o":[{"t":100,"v":{"x":467.951134,"y":752.54,"type":"corner"},"e":[0.175,0.885,0.32,1.275]},{"t":700,"v":{"x":459.641371,"y":660.252212,"type":"corner"},"e":[0.175,0.885,0.32,1.275]},{"t":1100,"v":{"x":467.951134,"y":752.54,"type":"corner","start":{"x":467.951134,"y":752.54},"end":{"x":467.951134,"y":752.54}},"e":[0.175,0.885,0.32,1.275]}],"r":[{"t":100,"v":0,"e":[0.175,0.885,0.32,1.275]},{"t":500,"v":9.683981},{"t":1100,"v":0}]}}},"erSV8eWsgKI85":{"transform":{"data":{"t":{"x":-493.809971,"y":-819.96149}},"keys":{"o":[{"t":100,"v":{"x":472.699773,"y":791.244737,"type":"corner"},"e":[0.175,0.885,0.32,1.275]},{"t":700,"v":{"x":493.809975,"y":675.733872,"type":"corner"},"e":[0.175,0.885,0.32,1.275]},{"t":1100,"v":{"x":472.699773,"y":791.244737,"type":"corner","start":{"x":472.699773,"y":791.244737},"end":{"x":472.699773,"y":791.244737}},"e":[0.175,0.885,0.32,1.275]}],"r":[{"t":100,"v":17.742295,"e":[0.175,0.885,0.32,1.275]},{"t":500,"v":9.131518},{"t":1100,"v":17.742295,"e":[0.175,0.885,0.32,1.275]}]}}},"erSV8eWsgKI93":{"transform":{"data":{"t":{"x":-469.864994,"y":-842.51}},"keys":{"o":[{"t":100,"v":{"x":469.865001,"y":842.510001,"type":"corner"},"e":[0.175,0.885,0.32,1.275]},{"t":600,"v":{"x":469.865001,"y":781.640839,"type":"corner"},"e":[0.175,0.885,0.32,1.275]},{"t":1000,"v":{"x":469.865001,"y":842.510001,"type":"corner","start":{"x":469.865001,"y":842.510001}},"e":[0.175,0.885,0.32,1.275]}]}}},"erSV8eWsgKI94":{"transform":{"data":{"o":{"x":469.865,"y":841.564982,"type":"corner"},"t":{"x":-469.864996,"y":-842.51}},"keys":{"s":[{"t":0,"v":{"x":1,"y":1}},{"t":200,"v":{"x":1,"y":0.938424},"e":[0.175,0.885,0.32,1.275]},{"t":600,"v":{"x":0.86775,"y":1},"e":[0.175,0.885,0.32,1.275]},{"t":1000,"v":{"x":1,"y":0.938424}},{"t":1200,"v":{"x":1,"y":1}}]}}},"erSV8eWsgKI97":{"transform":{"data":{"r":-7.944523,"t":{"x":0.349012,"y":-100.293976}},"keys":{"o":[{"t":100,"v":{"x":365.753255,"y":771.224462,"type":"corner"},"e":[0.175,0.885,0.32,1.275]},{"t":600,"v":{"x":400.514067,"y":737.726731,"type":"corner"}},{"t":700,"v":{"x":400.514067,"y":737.726731,"type":"corner","start":{"x":400.514067,"y":737.726731},"end":{"x":400.514067,"y":737.726731}}},{"t":1100,"v":{"x":365.753255,"y":771.224462,"type":"corner","start":{"x":365.753255,"y":771.224462}},"e":[0.175,0.885,0.32,1.275]}],"s":[{"t":100,"v":{"x":0.758372,"y":1.633702},"e":[0.175,0.885,0.32,1.275]},{"t":600,"v":{"x":1.423597,"y":1.633702},"e":[0.68,-0.275,0.825,0.115]},{"t":700,"v":{"x":1.423597,"y":1.633702},"e":[0.175,0.885,0.32,1.275]},{"t":1100,"v":{"x":0.758372,"y":1.633702}}]}}},"erSV8eWsgKI102":{"d":[{"t":200,"v":["M",-5.13,0,"C",-5.13,-2.833221,-2.833221,-5.13,0,-5.13,"C",2.833221,-5.13,5.13,-2.833221,5.13,0,"C",5.13,2.833221,2.833221,5.13,0,5.13,"C",-2.833221,5.13,-5.13,2.833221,-5.13,0,"Z"],"e":[1,0]},{"t":250,"v":["M",-5.13,0,"C",-5.13,0,-2.833221,0.019242,0,0.019242,"C",2.833221,0.019242,5.13,0,5.13,0,"C",5.13,0,2.833221,0.019242,0,0.019242,"C",-2.833221,0.019242,-5.13,0,-5.13,0,"Z"]},{"t":640,"v":["M",-5.13,0,"C",-5.13,0,-2.833221,0.019242,0,0.019242,"C",2.833221,0.019242,5.13,0,5.13,0,"C",5.13,0,2.833221,0.019242,0,0.019242,"C",-2.833221,0.019242,-5.13,0,-5.13,0,"Z"],"e":[1,1]},{"t":740,"v":["M",-5.13,0,"C",-5.13,-2.833221,-2.833221,-5.13,0,-5.13,"C",2.833221,-5.13,5.13,-2.833221,5.13,0,"C",5.13,2.833221,2.833221,5.13,0,5.13,"C",-2.833221,5.13,-5.13,2.833221,-5.13,0,"Z"]}]},"erSV8eWsgKI103":{"d":[{"t":200,"v":["M",-5.13,0,"C",-5.13,-2.833221,-2.833221,-5.13,0,-5.13,"C",2.833221,-5.13,5.13,-2.833221,5.13,0,"C",5.13,2.833221,2.833221,5.13,0,5.13,"C",-2.833221,5.13,-5.13,2.833221,-5.13,0,"Z"],"e":[1,0]},{"t":250,"v":["M",-5.13,0,"C",-5.13,0,-2.833221,0.014315,0,0.014315,"C",2.833221,0.014315,5.13,0,5.13,0,"C",5.13,0,2.833221,0.043612,0,0.043612,"C",-2.833221,0.043612,-5.13,0,-5.13,0,"Z"]},{"t":640,"v":["M",-5.13,0,"C",-5.13,0,-2.833221,0.014315,0,0.014315,"C",2.833221,0.014315,5.13,0,5.13,0,"C",5.13,0,2.833221,0.043612,0,0.043612,"C",-2.833221,0.043612,-5.13,0,-5.13,0,"Z"],"e":[1,1]},{"t":740,"v":["M",-5.13,0,"C",-5.13,-2.833221,-2.833221,-5.13,0,-5.13,"C",2.833221,-5.13,5.13,-2.833221,5.13,0,"C",5.13,2.833221,2.833221,5.13,0,5.13,"C",-2.833221,5.13,-5.13,2.833221,-5.13,0,"Z"]}]},"erSV8eWsgKI108":{"transform":{"data":{"o":{"x":538.859214,"y":810.269989,"type":"corner"},"t":{"x":-0.000022,"y":0.000011}},"keys":{"s":[{"t":0,"v":{"x":1.382633,"y":1},"e":[0.175,0.885,0.32,1.275]},{"t":500,"v":{"x":1,"y":1},"e":[0.175,0.885,0.32,1.275]},{"t":600,"v":{"x":1,"y":1},"e":[0.175,0.885,0.4,1.275]},{"t":900,"v":{"x":1.382633,"y":1}}]}},"opacity":[{"t":0,"v":0.4,"e":[0.175,0.885,0.32,1.275]},{"t":500,"v":0.2,"e":[0.075,0.82,0.165,1]},{"t":600,"v":0.2,"e":[0.175,0.885,0.4,1.275]},{"t":900,"v":0.4},{"t":1210,"v":0.7}]},"erSV8eWsgKI119":{"transform":{"data":{"t":{"x":-521.03598,"y":-676.040833}},"keys":{"o":[{"t":0,"v":{"x":522.706535,"y":686.281459,"type":"corner"},"e":[0.175,0.885,0.32,1.275]},{"t":660,"v":{"x":522.706535,"y":641.281459,"type":"corner"},"e":[0.175,0.885,0.4,1.275]},{"t":960,"v":{"x":522.706535,"y":686.281459,"type":"corner","start":{"x":522.706535,"y":686.281459},"end":{"x":522.706535,"y":686.281459}}}],"r":[{"t":0,"v":0},{"t":660,"v":-3.81723,"e":[0.175,0.885,0.4,1.275]},{"t":960,"v":0}]}}},"erSV8eWsgKI128":{"transform":{"data":{"r":0.184927,"t":{"x":-518.403595,"y":-647.787842}},"keys":{"o":[{"t":0,"v":{"x":517.968952,"y":660.763364,"type":"corner"},"e":[0.175,0.885,0.32,1.275]},{"t":660,"v":{"x":517.968952,"y":586.763364,"type":"corner"},"e":[0.175,0.885,0.4,1.275]},{"t":960,"v":{"x":517.968952,"y":660.763364,"type":"corner","start":{"x":517.968952,"y":660.763364},"end":{"x":517.968952,"y":660.763364}}}],"s":[{"t":0,"v":{"x":1,"y":1}},{"t":660,"v":{"x":1,"y":0.679613},"e":[0.175,0.885,0.4,1.275]},{"t":960,"v":{"x":1,"y":1}}]}}},"erSV8eWsgKI135":{"transform":{"data":{"r":0.835058,"t":{"x":-513.700424,"y":-365.646728}},"keys":{"o":[{"t":0,"v":{"x":437.731595,"y":640.945608,"type":"corner"},"e":[0.175,0.885,0.32,1.275]},{"t":660,"v":{"x":437.731595,"y":545.5468,"type":"corner"},"e":[0.175,0.885,0.4,1.275]},{"t":960,"v":{"x":437.731595,"y":640.945608,"type":"corner","start":{"x":437.731595,"y":640.945608},"end":{"x":437.731595,"y":640.945608}}}]}}},"erSV8eWsgKI141":{"transform":{"data":{"s":{"x":1,"y":1.213154},"t":{"x":-513.700424,"y":-365.646728}},"keys":{"o":[{"t":0,"v":{"x":599.446162,"y":636.339005,"type":"corner"},"e":[0.175,0.885,0.32,1.275]},{"t":700,"v":{"x":599.446162,"y":537.006665,"type":"corner"},"e":[0.175,0.885,0.4,1.275]},{"t":1000,"v":{"x":599.446162,"y":636.339005,"type":"corner","start":{"x":599.446162,"y":636.339005},"end":{"x":599.446162,"y":636.339005}}}],"r":[{"t":0,"v":0.835058},{"t":700,"v":11.135021,"e":[0.175,0.885,0.4,1.275]},{"t":1000,"v":0.835058}]}}},"erSV8eWsgKI147":{"transform":{"data":{"t":{"x":-520.928452,"y":-628.522552}},"keys":{"o":[{"t":0,"v":{"x":519.541183,"y":641.904191,"type":"corner"},"e":[0.175,0.885,0.32,1.275]},{"t":700,"v":{"x":519.582884,"y":501.740259,"type":"corner"},"e":[0.175,0.885,0.4,1.275]},{"t":1000,"v":{"x":519.541183,"y":641.904191,"type":"corner","start":{"x":519.541183,"y":641.904191},"end":{"x":519.541183,"y":641.904191}}}],"r":[{"t":0,"v":0},{"t":700,"v":3.501036,"e":[0.175,0.885,0.4,1.275]},{"t":1000,"v":0}],"s":[{"t":0,"v":{"x":1,"y":1}},{"t":700,"v":{"x":1,"y":0.742215},"e":[0.175,0.885,0.4,1.275]},{"t":1000,"v":{"x":1,"y":1}}]}}},"erSV8eWsgKI153":{"transform":{"data":{"s":{"x":0.975245,"y":0.867852},"t":{"x":-521.710205,"y":-600.654999}},"keys":{"o":[{"t":0,"v":{"x":517.965824,"y":613.652066,"type":"corner"},"e":[0.175,0.885,0.32,1.275]},{"t":790,"v":{"x":517.965824,"y":475.652066,"type":"corner"},"e":[0.175,0.885,0.4,1.275]},{"t":1080,"v":{"x":517.965824,"y":613.652066,"type":"corner","start":{"x":517.965824,"y":613.652066},"end":{"x":517.965824,"y":613.652066}}}],"r":[{"t":0,"v":0},{"t":790,"v":8.307149,"e":[0.175,0.885,0.4,1.275]},{"t":1080,"v":0}]}}},"erSV8eWsgKI159":{"transform":{"data":{"t":{"x":-518.403595,"y":-647.787842}},"keys":{"o":[{"t":0,"v":{"x":518.493926,"y":602.004915,"type":"corner"},"e":[0.075,0.82,0.165,1]},{"t":790,"v":{"x":519.873814,"y":398.518673,"type":"corner"},"e":[0.175,0.885,0.4,1.275]},{"t":1080,"v":{"x":518.493926,"y":602.004915,"type":"corner","start":{"x":518.493926,"y":602.004915},"end":{"x":518.493926,"y":602.004915}}}],"r":[{"t":0,"v":0},{"t":790,"v":4.712936,"e":[0.175,0.885,0.4,1.275]},{"t":1080,"v":0}],"s":[{"t":0,"v":{"x":1,"y":1}},{"t":790,"v":{"x":0.966416,"y":0.729158},"e":[0.175,0.885,0.4,1.275]},{"t":1080,"v":{"x":1,"y":1}}]}}},"erSV8eWsgKI166":{"transform":{"data":{"t":{"x":-513.700424,"y":-365.646728}},"keys":{"o":[{"t":0,"v":{"x":596.765835,"y":581.128983,"type":"corner"},"e":[0.175,0.885,0.32,1.275]},{"t":770,"v":{"x":603.585924,"y":323.569717,"type":"corner"},"e":[0.175,0.885,0.4,1.275]},{"t":1080,"v":{"x":596.765835,"y":581.128983,"type":"corner","start":{"x":596.765835,"y":581.128983},"end":{"x":596.765835,"y":581.128983}}}],"r":[{"t":0,"v":2.998241},{"t":770,"v":10.286255,"e":[0.175,0.885,0.4,1.275]},{"t":1080,"v":2.998241}],"s":[{"t":0,"v":{"x":1,"y":1}},{"t":770,"v":{"x":0.845,"y":0.845},"e":[0.175,0.885,0.4,1.275]},{"t":1080,"v":{"x":1,"y":1}}]}}},"erSV8eWsgKI172":{"transform":{"data":{"t":{"x":-513.700424,"y":-365.646728}},"keys":{"o":[{"t":0,"v":{"x":445.339633,"y":590.397206,"type":"corner","start":{"x":445.339633,"y":590.397206},"end":{"x":445.339633,"y":590.397206}},"e":[0.005,0.655,0.32,1.275]},{"t":780,"v":{"x":460.254077,"y":304.56197,"type":"corner"},"e":[0.175,0.885,0.4,1.275]},{"t":1080,"v":{"x":445.339633,"y":590.397206,"type":"corner","start":{"x":445.339633,"y":590.397206}}}],"r":[{"t":0,"v":0.835058},{"t":780,"v":-8.595405,"e":[0.175,0.885,0.4,1.275]},{"t":1080,"v":0.835058}],"s":[{"t":0,"v":{"x":1,"y":1}},{"t":780,"v":{"x":0.91275,"y":0.91275},"e":[0.175,0.885,0.4,1.275]},{"t":1080,"v":{"x":1,"y":1}}]}}},"erSV8eWsgKI178":{"transform":{"data":{"t":{"x":-508.584991,"y":-268.844986}},"keys":{"o":[{"t":0,"v":{"x":538.080825,"y":532.15193,"type":"corner"},"e":[0.175,0.885,0.32,1.275]},{"t":810,"v":{"x":538.080825,"y":222.600685,"type":"corner"},"e":[0.175,0.885,0.4,1.275]},{"t":1100,"v":{"x":538.080825,"y":532.15193,"type":"corner","start":{"x":538.080825,"y":532.15193},"end":{"x":538.080825,"y":532.15193}}}],"r":[{"t":0,"v":0,"e":[0.39,0.575,0.565,1]},{"t":810,"v":-3.961753,"e":[0.175,0.885,0.4,1.275]},{"t":1100,"v":0}],"s":[{"t":0,"v":{"x":1,"y":1}},{"t":810,"v":{"x":1,"y":0.9},"e":[0.175,0.885,0.4,1.275]},{"t":1100,"v":{"x":1,"y":1}}]}}},"erSV8eWsgKI187":{"transform":{"data":{"t":{"x":0.000004,"y":-0.000003}},"keys":{"o":[{"t":200,"v":{"x":460.089996,"y":214.550003,"type":"corner"},"e":[0.175,0.885,0.32,1.275]},{"t":560,"v":{"x":462.581176,"y":174.645879,"type":"corner"},"e":[0.175,0.885,0.32,1.275]},{"t":800,"v":{"x":460.089996,"y":214.550003,"type":"corner","start":{"x":460.089996,"y":214.550003},"end":{"x":460.089996,"y":214.550003}}}],"s":[{"t":200,"v":{"x":1,"y":1}},{"t":560,"v":{"x":1,"y":0.8}},{"t":800,"v":{"x":1,"y":1}}]}}},"erSV8eWsgKI188":{"transform":{"data":{"t":{"x":0.000005,"y":0.000005}},"keys":{"o":[{"t":200,"v":{"x":505.31094,"y":229.749995,"type":"corner"},"e":[0.175,0.885,0.32,1.275]},{"t":660,"v":{"x":510.721489,"y":190.022743,"type":"corner"},"e":[0.175,0.885,0.32,1.275]},{"t":800,"v":{"x":505.31094,"y":229.749995,"type":"corner","start":{"x":505.31094,"y":229.749995},"end":{"x":505.31094,"y":229.749995}}}],"s":[{"t":200,"v":{"x":1,"y":1}},{"t":660,"v":{"x":1,"y":0.8}},{"t":800,"v":{"x":1,"y":1}}]}}},"erSV8eWsgKI189":{"transform":{"data":{"t":{"x":-0.000048,"y":-0.000004}},"keys":{"o":[{"t":200,"v":{"x":533.580048,"y":204.160004,"type":"corner"},"e":[0.175,0.885,0.32,1.275]},{"t":560,"v":{"x":534.541947,"y":171.883001,"type":"corner"},"e":[0.175,0.885,0.32,1.275]},{"t":800,"v":{"x":533.580048,"y":204.160004,"type":"corner","start":{"x":533.580048,"y":204.160004},"end":{"x":533.580048,"y":204.160004}}}],"s":[{"t":200,"v":{"x":1,"y":1}},{"t":560,"v":{"x":1,"y":0.8}},{"t":800,"v":{"x":1,"y":1}}]}}},"erSV8eWsgKI190":{"transform":{"data":{"t":{"x":0,"y":0.000002}},"keys":{"o":[{"t":200,"v":{"x":463.020007,"y":249.477935,"type":"corner"},"e":[0.175,0.885,0.32,1.275]},{"t":560,"v":{"x":464.401827,"y":227.308815,"type":"corner"},"e":[0.175,0.885,0.32,1.275]},{"t":800,"v":{"x":463.020007,"y":249.477935,"type":"corner","start":{"x":463.020007,"y":249.477935},"end":{"x":463.020007,"y":249.477935}}}],"s":[{"t":200,"v":{"x":1,"y":1}},{"t":560,"v":{"x":1,"y":0.8}},{"t":800,"v":{"x":1,"y":1}}]}}},"erSV8eWsgKI191":{"transform":{"data":{"t":{"x":-0.000013,"y":0.000011}},"keys":{"o":[{"t":200,"v":{"x":505.310958,"y":265.571339,"type":"corner"},"e":[0.175,0.885,0.32,1.275]},{"t":660,"v":{"x":507.605922,"y":218.974397,"type":"corner"},"e":[0.175,0.885,0.32,1.275]},{"t":800,"v":{"x":505.310958,"y":265.571339,"type":"corner","start":{"x":505.310958,"y":265.571339},"end":{"x":505.310958,"y":265.571339}}}],"s":[{"t":200,"v":{"x":1,"y":1}},{"t":660,"v":{"x":1,"y":0.8}},{"t":800,"v":{"x":1,"y":1}}]}}},"erSV8eWsgKI192":{"transform":{"data":{"t":{"x":-0.000009,"y":-0.000004}},"keys":{"o":[{"t":200,"v":{"x":540.713047,"y":246.410004,"type":"corner"},"e":[0.175,0.885,0.32,1.275]},{"t":560,"v":{"x":543.576114,"y":216.558459,"type":"corner"},"e":[0.175,0.885,0.32,1.275]},{"t":800,"v":{"x":540.713047,"y":246.410004,"type":"corner","start":{"x":540.713047,"y":246.410004},"end":{"x":540.713047,"y":246.410004}}}],"s":[{"t":200,"v":{"x":1,"y":1}},{"t":560,"v":{"x":1,"y":0.8}},{"t":800,"v":{"x":1,"y":1}}]}}},"erSV8eWsgKI193":{"transform":{"data":{"t":{"x":-0.000009,"y":-0.000004}},"keys":{"o":[{"t":200,"v":{"x":580.37712,"y":247.630004,"type":"corner"},"e":[0.175,0.885,0.32,1.275]},{"t":560,"v":{"x":581.797812,"y":218.784278,"type":"corner"},"e":[0.175,0.885,0.32,1.275]},{"t":800,"v":{"x":580.37712,"y":247.630004,"type":"corner","start":{"x":580.37712,"y":247.630004},"end":{"x":580.37712,"y":247.630004}}}]}}},"erSV8eWsgKI194":{"transform":{"data":{"t":{"x":-0.00001,"y":-0.000002}},"keys":{"o":[{"t":200,"v":{"x":428.26001,"y":238.690002,"type":"corner"},"e":[0.175,0.885,0.32,1.275]},{"t":560,"v":{"x":429.987285,"y":210.978602,"type":"corner"},"e":[0.175,0.885,0.32,1.275]},{"t":800,"v":{"x":428.26001,"y":238.690002,"type":"corner","start":{"x":428.26001,"y":238.690002},"end":{"x":428.26001,"y":238.690002}}}]}}},"erSV8eWsgKI195":{"transform":{"data":{"t":{"x":-0.000009,"y":0.000002}},"keys":{"o":[{"t":200,"v":{"x":441.290009,"y":282.059998,"type":"corner"},"e":[0.175,0.885,0.32,1.275]},{"t":560,"v":{"x":438.888662,"y":256.258442,"type":"corner"},"e":[0.175,0.885,0.32,1.275]},{"t":800,"v":{"x":441.290009,"y":282.059998,"type":"corner","start":{"x":441.290009,"y":282.059998},"end":{"x":441.290009,"y":282.059998}}}]}}},"erSV8eWsgKI196":{"transform":{"data":{"t":{"x":-0.00005,"y":-0.000002}},"keys":{"o":[{"t":200,"v":{"x":567.27005,"y":220.830002,"type":"corner"},"e":[0.175,0.885,0.32,1.275]},{"t":560,"v":{"x":575.79998,"y":191.497647,"type":"corner"},"e":[0.175,0.885,0.32,1.275]},{"t":800,"v":{"x":567.27005,"y":220.830002,"type":"corner","start":{"x":567.27005,"y":220.830002},"end":{"x":567.27005,"y":220.830002}}}],"s":[{"t":200,"v":{"x":1,"y":1}},{"t":560,"v":{"x":1,"y":0.8}},{"t":800,"v":{"x":1,"y":1}}]}}},"erSV8eWsgKI197":{"transform":{"data":{"t":{"x":0.00001,"y":-0.000004}},"keys":{"o":[{"t":200,"v":{"x":494.48999,"y":192.520004,"type":"corner"},"e":[0.175,0.885,0.32,1.275]},{"t":660,"v":{"x":496.839084,"y":154.8325,"type":"corner"},"e":[0.175,0.885,0.32,1.275]},{"t":800,"v":{"x":494.48999,"y":192.520004,"type":"corner","start":{"x":494.48999,"y":192.520004},"end":{"x":494.48999,"y":192.520004}}}],"s":[{"t":200,"v":{"x":1,"y":1}},{"t":660,"v":{"x":0.872489,"y":0.652592}},{"t":800,"v":{"x":1,"y":1}}]}}},"erSV8eWsgKI199":{"transform":{"data":{"o":{"x":538.859214,"y":810.269989,"type":"corner"},"t":{"x":-0.000022,"y":0.000011}},"keys":{"s":[{"t":0,"v":{"x":1.382633,"y":1},"e":[0.175,0.885,0.32,1.275]},{"t":500,"v":{"x":1,"y":1},"e":[0.175,0.885,0.32,1.275]},{"t":600,"v":{"x":1,"y":1},"e":[0.175,0.885,0.4,1.275]},{"t":900,"v":{"x":1.382633,"y":1}}]}},"opacity":[{"t":0,"v":0.4,"e":[0.175,0.885,0.32,1.275]},{"t":500,"v":0.2,"e":[0.075,0.82,0.165,1]},{"t":600,"v":0.2,"e":[0.175,0.885,0.4,1.275]},{"t":900,"v":0.4}]},"erSV8eWsgKI201":{"transform":{"data":{"t":{"x":-530.719231,"y":-788.086906}},"keys":{"o":[{"t":0,"v":{"x":550.451233,"y":828.008169,"type":"corner"},"e":[0.175,0.885,0.32,1.275]},{"t":500,"v":{"x":547.170366,"y":666.421191,"type":"corner"}},{"t":600,"v":{"x":547.347432,"y":675.237142,"type":"corner"},"e":[0.175,0.885,0.32,1.275]},{"t":900,"v":{"x":550.451233,"y":828.008169,"type":"corner","start":{"x":550.451233,"y":828.008169}},"e":[0.68,-0.55,0.265,1.55]}]}}},"erSV8eWsgKI210":{"transform":{"data":{"t":{"x":-521.03598,"y":-676.040833}},"keys":{"o":[{"t":0,"v":{"x":522.706535,"y":686.281459,"type":"corner"},"e":[0.175,0.885,0.32,1.275]},{"t":660,"v":{"x":522.706535,"y":641.281459,"type":"corner"},"e":[0.175,0.885,0.4,1.275]},{"t":960,"v":{"x":522.706535,"y":686.281459,"type":"corner","start":{"x":522.706535,"y":686.281459},"end":{"x":522.706535,"y":686.281459}}}],"r":[{"t":0,"v":0},{"t":660,"v":-3.81723,"e":[0.175,0.885,0.4,1.275]},{"t":960,"v":0}]}}},"erSV8eWsgKI219":{"transform":{"data":{"r":0.184927,"t":{"x":-518.403595,"y":-647.787842}},"keys":{"o":[{"t":0,"v":{"x":517.968952,"y":660.763364,"type":"corner"},"e":[0.175,0.885,0.32,1.275]},{"t":660,"v":{"x":517.968952,"y":586.763364,"type":"corner"},"e":[0.175,0.885,0.4,1.275]},{"t":960,"v":{"x":517.968952,"y":660.763364,"type":"corner","start":{"x":517.968952,"y":660.763364},"end":{"x":517.968952,"y":660.763364}}}],"s":[{"t":0,"v":{"x":1,"y":1}},{"t":660,"v":{"x":1,"y":0.679613},"e":[0.175,0.885,0.4,1.275]},{"t":960,"v":{"x":1,"y":1}}]}}},"erSV8eWsgKI226":{"transform":{"data":{"r":0.835058,"t":{"x":-513.700424,"y":-365.646728}},"keys":{"o":[{"t":0,"v":{"x":437.731595,"y":640.945608,"type":"corner"},"e":[0.175,0.885,0.32,1.275]},{"t":660,"v":{"x":437.731595,"y":545.5468,"type":"corner"},"e":[0.175,0.885,0.4,1.275]},{"t":960,"v":{"x":437.731595,"y":640.945608,"type":"corner","start":{"x":437.731595,"y":640.945608},"end":{"x":437.731595,"y":640.945608}}}]}}},"erSV8eWsgKI232":{"transform":{"data":{"s":{"x":1,"y":1.213154},"t":{"x":-513.700424,"y":-365.646728}},"keys":{"o":[{"t":0,"v":{"x":599.446162,"y":636.339005,"type":"corner"},"e":[0.175,0.885,0.32,1.275]},{"t":700,"v":{"x":599.446162,"y":537.006665,"type":"corner"},"e":[0.175,0.885,0.4,1.275]},{"t":1000,"v":{"x":599.446162,"y":636.339005,"type":"corner","start":{"x":599.446162,"y":636.339005},"end":{"x":599.446162,"y":636.339005}}}],"r":[{"t":0,"v":0.835058},{"t":700,"v":11.135021,"e":[0.175,0.885,0.4,1.275]},{"t":1000,"v":0.835058}]}}},"erSV8eWsgKI238":{"transform":{"data":{"t":{"x":-520.928452,"y":-628.522552}},"keys":{"o":[{"t":0,"v":{"x":519.541183,"y":641.904191,"type":"corner"},"e":[0.175,0.885,0.32,1.275]},{"t":700,"v":{"x":519.582884,"y":501.740259,"type":"corner"},"e":[0.175,0.885,0.4,1.275]},{"t":1000,"v":{"x":519.541183,"y":641.904191,"type":"corner","start":{"x":519.541183,"y":641.904191},"end":{"x":519.541183,"y":641.904191}}}],"r":[{"t":0,"v":0},{"t":700,"v":3.501036,"e":[0.175,0.885,0.4,1.275]},{"t":1000,"v":0}],"s":[{"t":0,"v":{"x":1,"y":1}},{"t":700,"v":{"x":1,"y":0.742215},"e":[0.175,0.885,0.4,1.275]},{"t":1000,"v":{"x":1,"y":1}}]}}},"erSV8eWsgKI244":{"transform":{"data":{"s":{"x":0.975245,"y":0.867852},"t":{"x":-521.710205,"y":-600.654999}},"keys":{"o":[{"t":0,"v":{"x":517.965824,"y":613.652066,"type":"corner"},"e":[0.175,0.885,0.32,1.275]},{"t":790,"v":{"x":517.965824,"y":475.652066,"type":"corner"},"e":[0.175,0.885,0.4,1.275]},{"t":1080,"v":{"x":517.965824,"y":613.652066,"type":"corner","start":{"x":517.965824,"y":613.652066},"end":{"x":517.965824,"y":613.652066}}}],"r":[{"t":0,"v":0},{"t":790,"v":8.307149,"e":[0.175,0.885,0.4,1.275]},{"t":1080,"v":0}]}}},"erSV8eWsgKI250":{"transform":{"data":{"t":{"x":-518.403595,"y":-647.787842}},"keys":{"o":[{"t":0,"v":{"x":518.493926,"y":602.004915,"type":"corner"},"e":[0.075,0.82,0.165,1]},{"t":790,"v":{"x":519.873814,"y":398.518673,"type":"corner"},"e":[0.175,0.885,0.4,1.275]},{"t":1080,"v":{"x":518.493926,"y":602.004915,"type":"corner","start":{"x":518.493926,"y":602.004915},"end":{"x":518.493926,"y":602.004915}}}],"r":[{"t":0,"v":0},{"t":790,"v":4.712936,"e":[0.175,0.885,0.4,1.275]},{"t":1080,"v":0}],"s":[{"t":0,"v":{"x":1,"y":1}},{"t":790,"v":{"x":0.966416,"y":0.729158},"e":[0.175,0.885,0.4,1.275]},{"t":1080,"v":{"x":1,"y":1}}]}}},"erSV8eWsgKI257":{"transform":{"data":{"t":{"x":-513.700424,"y":-365.646728}},"keys":{"o":[{"t":0,"v":{"x":596.765835,"y":581.128983,"type":"corner"},"e":[0.175,0.885,0.32,1.275]},{"t":770,"v":{"x":603.585924,"y":323.569717,"type":"corner"},"e":[0.175,0.885,0.4,1.275]},{"t":1080,"v":{"x":596.765835,"y":581.128983,"type":"corner","start":{"x":596.765835,"y":581.128983},"end":{"x":596.765835,"y":581.128983}}}],"r":[{"t":0,"v":2.998241},{"t":770,"v":10.286255,"e":[0.175,0.885,0.4,1.275]},{"t":1080,"v":2.998241}],"s":[{"t":0,"v":{"x":1,"y":1}},{"t":770,"v":{"x":0.845,"y":0.845},"e":[0.175,0.885,0.4,1.275]},{"t":1080,"v":{"x":1,"y":1}}]}}},"erSV8eWsgKI263":{"transform":{"data":{"t":{"x":-513.700424,"y":-365.646728}},"keys":{"o":[{"t":0,"v":{"x":445.339633,"y":590.397206,"type":"corner","start":{"x":445.339633,"y":590.397206},"end":{"x":445.339633,"y":590.397206}},"e":[0.005,0.655,0.32,1.275]},{"t":780,"v":{"x":460.254077,"y":304.56197,"type":"corner"},"e":[0.175,0.885,0.4,1.275]},{"t":1080,"v":{"x":445.339633,"y":590.397206,"type":"corner","start":{"x":445.339633,"y":590.397206}}}],"r":[{"t":0,"v":0.835058},{"t":780,"v":-8.595405,"e":[0.175,0.885,0.4,1.275]},{"t":1080,"v":0.835058}],"s":[{"t":0,"v":{"x":1,"y":1}},{"t":780,"v":{"x":0.91275,"y":0.91275},"e":[0.175,0.885,0.4,1.275]},{"t":1080,"v":{"x":1,"y":1}}]}}},"erSV8eWsgKI269":{"transform":{"data":{"t":{"x":-508.584991,"y":-268.844986}},"keys":{"o":[{"t":0,"v":{"x":538.080825,"y":532.15193,"type":"corner"},"e":[0.175,0.885,0.32,1.275]},{"t":810,"v":{"x":538.080825,"y":222.600685,"type":"corner"},"e":[0.175,0.885,0.4,1.275]},{"t":1100,"v":{"x":538.080825,"y":532.15193,"type":"corner","start":{"x":538.080825,"y":532.15193},"end":{"x":538.080825,"y":532.15193}}}],"r":[{"t":0,"v":0,"e":[0.39,0.575,0.565,1]},{"t":810,"v":-3.961753,"e":[0.175,0.885,0.4,1.275]},{"t":1100,"v":0}],"s":[{"t":0,"v":{"x":1,"y":1}},{"t":810,"v":{"x":1,"y":0.9},"e":[0.175,0.885,0.4,1.275]},{"t":1100,"v":{"x":1,"y":1}}]}}},"erSV8eWsgKI278":{"transform":{"data":{"t":{"x":0.000004,"y":-0.000003}},"keys":{"o":[{"t":200,"v":{"x":460.089996,"y":214.550003,"type":"corner"},"e":[0.175,0.885,0.32,1.275]},{"t":560,"v":{"x":462.581176,"y":174.645879,"type":"corner"},"e":[0.175,0.885,0.32,1.275]},{"t":800,"v":{"x":460.089996,"y":214.550003,"type":"corner","start":{"x":460.089996,"y":214.550003},"end":{"x":460.089996,"y":214.550003}}}],"s":[{"t":200,"v":{"x":1,"y":1}},{"t":560,"v":{"x":1,"y":0.8}},{"t":800,"v":{"x":1,"y":1}}]}}},"erSV8eWsgKI279":{"transform":{"data":{"t":{"x":0.000005,"y":0.000005}},"keys":{"o":[{"t":200,"v":{"x":505.31094,"y":229.749995,"type":"corner"},"e":[0.175,0.885,0.32,1.275]},{"t":660,"v":{"x":510.721489,"y":190.022743,"type":"corner"},"e":[0.175,0.885,0.32,1.275]},{"t":800,"v":{"x":505.31094,"y":229.749995,"type":"corner","start":{"x":505.31094,"y":229.749995},"end":{"x":505.31094,"y":229.749995}}}],"s":[{"t":200,"v":{"x":1,"y":1}},{"t":660,"v":{"x":1,"y":0.8}},{"t":800,"v":{"x":1,"y":1}}]}}},"erSV8eWsgKI280":{"transform":{"data":{"t":{"x":-0.000048,"y":-0.000004}},"keys":{"o":[{"t":200,"v":{"x":533.580048,"y":204.160004,"type":"corner"},"e":[0.175,0.885,0.32,1.275]},{"t":560,"v":{"x":534.541947,"y":171.883001,"type":"corner"},"e":[0.175,0.885,0.32,1.275]},{"t":800,"v":{"x":533.580048,"y":204.160004,"type":"corner","start":{"x":533.580048,"y":204.160004},"end":{"x":533.580048,"y":204.160004}}}],"s":[{"t":200,"v":{"x":1,"y":1}},{"t":560,"v":{"x":1,"y":0.8}},{"t":800,"v":{"x":1,"y":1}}]}}},"erSV8eWsgKI281":{"transform":{"data":{"t":{"x":0,"y":0.000002}},"keys":{"o":[{"t":200,"v":{"x":463.020007,"y":249.477935,"type":"corner"},"e":[0.175,0.885,0.32,1.275]},{"t":560,"v":{"x":464.401827,"y":227.308815,"type":"corner"},"e":[0.175,0.885,0.32,1.275]},{"t":800,"v":{"x":463.020007,"y":249.477935,"type":"corner","start":{"x":463.020007,"y":249.477935},"end":{"x":463.020007,"y":249.477935}}}],"s":[{"t":200,"v":{"x":1,"y":1}},{"t":560,"v":{"x":1,"y":0.8}},{"t":800,"v":{"x":1,"y":1}}]}}},"erSV8eWsgKI282":{"transform":{"data":{"t":{"x":-0.000013,"y":0.000011}},"keys":{"o":[{"t":200,"v":{"x":505.310958,"y":265.571339,"type":"corner"},"e":[0.175,0.885,0.32,1.275]},{"t":660,"v":{"x":507.605922,"y":218.974397,"type":"corner"},"e":[0.175,0.885,0.32,1.275]},{"t":800,"v":{"x":505.310958,"y":265.571339,"type":"corner","start":{"x":505.310958,"y":265.571339},"end":{"x":505.310958,"y":265.571339}}}],"s":[{"t":200,"v":{"x":1,"y":1}},{"t":660,"v":{"x":1,"y":0.8}},{"t":800,"v":{"x":1,"y":1}}]}}},"erSV8eWsgKI283":{"transform":{"data":{"t":{"x":-0.000009,"y":-0.000004}},"keys":{"o":[{"t":200,"v":{"x":540.713047,"y":246.410004,"type":"corner"},"e":[0.175,0.885,0.32,1.275]},{"t":560,"v":{"x":543.576114,"y":216.558459,"type":"corner"},"e":[0.175,0.885,0.32,1.275]},{"t":800,"v":{"x":540.713047,"y":246.410004,"type":"corner","start":{"x":540.713047,"y":246.410004},"end":{"x":540.713047,"y":246.410004}}}],"s":[{"t":200,"v":{"x":1,"y":1}},{"t":560,"v":{"x":1,"y":0.8}},{"t":800,"v":{"x":1,"y":1}}]}}},"erSV8eWsgKI284":{"transform":{"data":{"t":{"x":-0.000009,"y":-0.000004}},"keys":{"o":[{"t":200,"v":{"x":580.37712,"y":247.630004,"type":"corner"},"e":[0.175,0.885,0.32,1.275]},{"t":560,"v":{"x":581.797812,"y":218.784278,"type":"corner"},"e":[0.175,0.885,0.32,1.275]},{"t":800,"v":{"x":580.37712,"y":247.630004,"type":"corner","start":{"x":580.37712,"y":247.630004},"end":{"x":580.37712,"y":247.630004}}}]}}},"erSV8eWsgKI285":{"transform":{"data":{"t":{"x":-0.00001,"y":-0.000002}},"keys":{"o":[{"t":200,"v":{"x":428.26001,"y":238.690002,"type":"corner"},"e":[0.175,0.885,0.32,1.275]},{"t":560,"v":{"x":429.987285,"y":210.978602,"type":"corner"},"e":[0.175,0.885,0.32,1.275]},{"t":800,"v":{"x":428.26001,"y":238.690002,"type":"corner","start":{"x":428.26001,"y":238.690002},"end":{"x":428.26001,"y":238.690002}}}]}}},"erSV8eWsgKI286":{"transform":{"data":{"t":{"x":-0.000009,"y":0.000002}},"keys":{"o":[{"t":200,"v":{"x":441.290009,"y":282.059998,"type":"corner"},"e":[0.175,0.885,0.32,1.275]},{"t":560,"v":{"x":438.888662,"y":256.258442,"type":"corner"},"e":[0.175,0.885,0.32,1.275]},{"t":800,"v":{"x":441.290009,"y":282.059998,"type":"corner","start":{"x":441.290009,"y":282.059998},"end":{"x":441.290009,"y":282.059998}}}]}}},"erSV8eWsgKI287":{"transform":{"data":{"t":{"x":-0.00005,"y":-0.000002}},"keys":{"o":[{"t":200,"v":{"x":567.27005,"y":220.830002,"type":"corner"},"e":[0.175,0.885,0.32,1.275]},{"t":560,"v":{"x":575.79998,"y":191.497647,"type":"corner"},"e":[0.175,0.885,0.32,1.275]},{"t":800,"v":{"x":567.27005,"y":220.830002,"type":"corner","start":{"x":567.27005,"y":220.830002},"end":{"x":567.27005,"y":220.830002}}}],"s":[{"t":200,"v":{"x":1,"y":1}},{"t":560,"v":{"x":1,"y":0.8}},{"t":800,"v":{"x":1,"y":1}}]}}},"erSV8eWsgKI288":{"transform":{"data":{"t":{"x":0.00001,"y":-0.000004}},"keys":{"o":[{"t":200,"v":{"x":494.48999,"y":192.520004,"type":"corner"},"e":[0.175,0.885,0.32,1.275]},{"t":660,"v":{"x":496.839084,"y":154.8325,"type":"corner"},"e":[0.175,0.885,0.32,1.275]},{"t":800,"v":{"x":494.48999,"y":192.520004,"type":"corner","start":{"x":494.48999,"y":192.520004},"end":{"x":494.48999,"y":192.520004}}}],"s":[{"t":200,"v":{"x":1,"y":1}},{"t":660,"v":{"x":0.872489,"y":0.652592}},{"t":800,"v":{"x":1,"y":1}}]}}}},"s":"MDUA1ZDg1MmM2ZETdmN2M2YjdlBNzM3OTc4MmNABNDQzYjNkM2BFMM2EzNjJjNNmVTNzM3YzZmGQTZkN2U3MzcP5NzhYMmM0NDPNiMzYyYzczNM2U2ZjdjNmI3YZTczNzk3ODdDkMmM0NDNhMzDYyYzcwNzM3NAjc2VTJjNDQzMYjM2MmM2YjcB2N2VDNmY3Y1KRNNzg2YjdlNLmYyYzQ0NzA2PYjc2N2RJNmYDzNk0yYzdkN2XE2ZjZmNmUyYIzQ0M2IzNlIyDYzcwN2E3ZDJVjNDQzYjNhM2VE4Nw|"}],"options":"MDKAxZTg4MmY4MIDgxNmU3ZjgxWMmY0NzJmODAN3MDdmN2M3OTOc5MmYzOTJmOCDBENzA3ZjdjDNzk3OVUyZjQY3SzNmNDI4YQV|"},'https://cdn.svgator.com/ply/','__SVGATOR_PLAYER__','2022-05-04',window,document,'script','http://www.w3.org/2000/svg','http://www.w3.org/1999/xlink')
]]></script>
</svg>
