<svg id="euaCXRgfniM1" xmlns="http://www.w3.org/2000/svg" xmlns:xlink="http://www.w3.org/1999/xlink" viewBox="0 0 700 600" shape-rendering="geometricPrecision" text-rendering="geometricPrecision" width="700" height="600" style="background-color:#293044">
<style><![CDATA[
#euaCXRgfniM7_to {animation: euaCXRgfniM7_to__to 5700ms linear infinite normal forwards}@keyframes euaCXRgfniM7_to__to { 0% {transform: translate(1159.401175px,1193.424264px)} 5.263158% {transform: translate(1159.401175px,1193.424264px);animation-timing-function: cubic-bezier(0.445,0.05,0.55,0.95)} 8.77193% {transform: translate(1119.401175px,1153.424264px);animation-timing-function: cubic-bezier(0.445,0.05,0.55,0.95)} 19.298246% {transform: translate(1119.401175px,1153.424264px);animation-timing-function: cubic-bezier(0.445,0.05,0.55,0.95)} 22.807018% {transform: translate(1079.401175px,1113.424264px);animation-timing-function: cubic-bezier(0.445,0.05,0.55,0.95)} 33.333333% {transform: translate(1079.401175px,1113.424264px);animation-timing-function: cubic-bezier(0.445,0.05,0.55,0.95)} 36.842105% {transform: translate(1039.401175px,1073.424264px);animation-timing-function: cubic-bezier(0.445,0.05,0.55,0.95)} 56.140351% {transform: translate(1039.401175px,1073.424264px);animation-timing-function: cubic-bezier(0.445,0.05,0.55,0.95)} 59.649123% {transform: translate(1079.401175px,1113.424264px);animation-timing-function: cubic-bezier(0.445,0.05,0.55,0.95)} 70.175439% {transform: translate(1079.401175px,1113.424264px);animation-timing-function: cubic-bezier(0.445,0.05,0.55,0.95)} 73.684211% {transform: translate(1119.401175px,1153.424264px);animation-timing-function: cubic-bezier(0.445,0.05,0.55,0.95)} 84.210526% {transform: translate(1119.401175px,1153.424264px);animation-timing-function: cubic-bezier(0.445,0.05,0.55,0.95)} 87.719298% {transform: translate(1159.401175px,1193.424264px)} 100% {transform: translate(1159.401175px,1193.424264px)}} #euaCXRgfniM8_to {animation: euaCXRgfniM8_to__to 5700ms linear infinite normal forwards}@keyframes euaCXRgfniM8_to__to { 0% {transform: translate(1182.054444px,1097.444489px)} 12.280702% {transform: translate(1182.054444px,1097.444489px);animation-timing-function: cubic-bezier(0.445,0.05,0.55,0.95)} 15.789474% {transform: translate(1185.061511px,1127.86265px);animation-timing-function: cubic-bezier(0.445,0.05,0.55,0.95)} 19.298246% {transform: translate(1182.054444px,1097.444489px);animation-timing-function: cubic-bezier(0.445,0.05,0.55,0.95)} 26.315789% {transform: translate(1182.054444px,1097.444489px);animation-timing-function: cubic-bezier(0.445,0.05,0.55,0.95)} 29.824561% {transform: translate(1182.054444px,1127.86261px);animation-timing-function: cubic-bezier(0.445,0.05,0.55,0.95)} 33.333333% {transform: translate(1182.054444px,1097.444489px);animation-timing-function: cubic-bezier(0.445,0.05,0.55,0.95)} 40.350877% {transform: translate(1182.054444px,1097.444489px);animation-timing-function: cubic-bezier(0.445,0.05,0.55,0.95)} 43.859649% {transform: translate(1182.054445px,1117.101346px);animation-timing-function: cubic-bezier(0.445,0.05,0.55,0.95)} 47.368421% {transform: translate(1182.054444px,1097.444489px)} 63.157895% {transform: translate(1182.054444px,1097.444489px);animation-timing-function: cubic-bezier(0.445,0.05,0.55,0.95)} 66.666667% {transform: translate(1182.054444px,1127.86261px);animation-timing-function: cubic-bezier(0.445,0.05,0.55,0.95)} 70.175439% {transform: translate(1182.054444px,1097.444489px);animation-timing-function: cubic-bezier(0.445,0.05,0.55,0.95)} 77.192982% {transform: translate(1182.054444px,1097.444489px);animation-timing-function: cubic-bezier(0.445,0.05,0.55,0.95)} 80.701754% {transform: translate(1179.047377px,1127.86265px);animation-timing-function: cubic-bezier(0.445,0.05,0.55,0.95)} 84.210526% {transform: translate(1182.054444px,1097.444489px);animation-timing-function: cubic-bezier(0.445,0.05,0.55,0.95)} 91.22807% {transform: translate(1182.054444px,1097.444489px);animation-timing-function: cubic-bezier(0.445,0.05,0.55,0.95)} 94.736842% {transform: translate(1182.054444px,1127.86265px);animation-timing-function: cubic-bezier(0.445,0.05,0.55,0.95)} 98.245614% {transform: translate(1182.054444px,1097.444489px)} 100% {transform: translate(1182.054444px,1097.444489px)}} #euaCXRgfniM15_to {animation: euaCXRgfniM15_to__to 5700ms linear infinite normal forwards}@keyframes euaCXRgfniM15_to__to { 0% {transform: translate(-143.736596px,1305.31839px)} 29.824561% {transform: translate(-143.736596px,1305.31839px);animation-timing-function: cubic-bezier(0.445,0.05,0.55,0.95)} 33.333333% {transform: translate(-145.057685px,1217.994666px);animation-timing-function: cubic-bezier(0.445,0.05,0.55,0.95)} 36.842105% {transform: translate(-38.265333px,1232.657528px);animation-timing-function: cubic-bezier(0.445,0.05,0.55,0.95)} 40.350877% {transform: translate(-38.265333px,1366.154666px);animation-timing-function: cubic-bezier(1,0,0,1)} 52.631579% {transform: translate(-38.265333px,1366.154666px);animation-timing-function: cubic-bezier(0.445,0.05,0.55,0.95)} 56.140351% {transform: translate(-38.265333px,1232.657528px);animation-timing-function: cubic-bezier(0.445,0.05,0.55,0.95)} 59.649123% {transform: translate(-145.057685px,1217.994666px);animation-timing-function: cubic-bezier(0.445,0.05,0.55,0.95)} 63.157895% {transform: translate(-143.736596px,1305.31839px);animation-timing-function: cubic-bezier(0.445,0.05,0.55,0.95)} 100% {transform: translate(-143.736596px,1305.31839px)}} #euaCXRgfniM27_to {animation: euaCXRgfniM27_to__to 5700ms linear infinite normal forwards}@keyframes euaCXRgfniM27_to__to { 0% {transform: translate(25.013214px,1320.615609px)} 15.789474% {transform: translate(25.013214px,1320.615609px);animation-timing-function: cubic-bezier(0.445,0.05,0.55,0.95)} 19.298246% {transform: translate(23.15575px,1250.637998px);animation-timing-function: cubic-bezier(0.445,0.05,0.55,0.95)} 22.807018% {transform: translate(141.460432px,1254.753541px);animation-timing-function: cubic-bezier(0.445,0.05,0.55,0.95)} 26.315789% {transform: translate(141.460432px,1388.255375px);animation-timing-function: cubic-bezier(1,0,0,1)} 66.666667% {transform: translate(141.460432px,1388.255375px);animation-timing-function: cubic-bezier(0.445,0.05,0.55,0.95)} 70.175439% {transform: translate(141.460432px,1254.753541px);animation-timing-function: cubic-bezier(0.445,0.05,0.55,0.95)} 73.684211% {transform: translate(23.15575px,1250.637998px);animation-timing-function: cubic-bezier(0.445,0.05,0.55,0.95)} 77.192982% {transform: translate(25.013214px,1320.615609px);animation-timing-function: cubic-bezier(0.445,0.05,0.55,0.95)} 100% {transform: translate(25.013214px,1320.615609px)}} #euaCXRgfniM38_to {animation: euaCXRgfniM38_to__to 5700ms linear infinite normal forwards}@keyframes euaCXRgfniM38_to__to { 0% {transform: translate(-310.652235px,1053.28749px)} 1.754386% {transform: translate(-310.652235px,1053.28749px);animation-timing-function: cubic-bezier(0.445,0.05,0.55,0.95)} 5.263158% {transform: translate(-333.390268px,936.30818px);animation-timing-function: cubic-bezier(0.445,0.05,0.55,0.95)} 8.77193% {transform: translate(-205.010586px,965.966449px);animation-timing-function: cubic-bezier(0.445,0.05,0.55,0.95)} 12.280702% {transform: translate(-205.010586px,1114.116446px);animation-timing-function: cubic-bezier(1,0,0,1)} 80.701754% {transform: translate(-205.010586px,1114.116446px);animation-timing-function: cubic-bezier(0.445,0.05,0.55,0.95)} 84.210526% {transform: translate(-205.010586px,965.966449px);animation-timing-function: cubic-bezier(0.445,0.05,0.55,0.95)} 87.719298% {transform: translate(-333.390268px,936.30818px);animation-timing-function: cubic-bezier(0.445,0.05,0.55,0.95)} 91.22807% {transform: translate(-310.652235px,1053.28749px);animation-timing-function: cubic-bezier(0.445,0.05,0.55,0.95)} 100% {transform: translate(-310.652235px,1053.28749px)}} #euaCXRgfniM76_to {animation: euaCXRgfniM76_to__to 5700ms linear infinite normal forwards}@keyframes euaCXRgfniM76_to__to { 0% {transform: translate(1159.401175px,1193.424264px)} 5.263158% {transform: translate(1159.401175px,1193.424264px);animation-timing-function: cubic-bezier(0.445,0.05,0.55,0.95)} 8.77193% {transform: translate(1119.401175px,1153.424264px);animation-timing-function: cubic-bezier(0.445,0.05,0.55,0.95)} 19.298246% {transform: translate(1119.401175px,1153.424264px);animation-timing-function: cubic-bezier(0.445,0.05,0.55,0.95)} 22.807018% {transform: translate(1079.401175px,1113.424264px);animation-timing-function: cubic-bezier(0.445,0.05,0.55,0.95)} 33.333333% {transform: translate(1079.401175px,1113.424264px);animation-timing-function: cubic-bezier(0.445,0.05,0.55,0.95)} 36.842105% {transform: translate(1039.401175px,1073.424264px)} 100% {transform: translate(1039.401175px,1073.424264px)}} #euaCXRgfniM77_to {animation: euaCXRgfniM77_to__to 5700ms linear infinite normal forwards}@keyframes euaCXRgfniM77_to__to { 0% {transform: translate(1182.054444px,1097.444489px)} 12.280702% {transform: translate(1182.054444px,1097.444489px);animation-timing-function: cubic-bezier(0.445,0.05,0.55,0.95)} 15.789474% {transform: translate(1185.061511px,1127.86265px);animation-timing-function: cubic-bezier(0.445,0.05,0.55,0.95)} 19.298246% {transform: translate(1182.054444px,1097.444489px);animation-timing-function: cubic-bezier(0.445,0.05,0.55,0.95)} 26.315789% {transform: translate(1182.054444px,1097.444489px);animation-timing-function: cubic-bezier(0.445,0.05,0.55,0.95)} 29.824561% {transform: translate(1182.054444px,1127.86261px);animation-timing-function: cubic-bezier(0.445,0.05,0.55,0.95)} 33.333333% {transform: translate(1182.054444px,1097.444489px);animation-timing-function: cubic-bezier(0.445,0.05,0.55,0.95)} 40.350877% {transform: translate(1182.054444px,1097.444489px);animation-timing-function: cubic-bezier(0.445,0.05,0.55,0.95)} 43.859649% {transform: translate(1182.054445px,1117.101346px);animation-timing-function: cubic-bezier(0.445,0.05,0.55,0.95)} 47.368421% {transform: translate(1182.054444px,1097.444489px)} 100% {transform: translate(1182.054444px,1097.444489px)}} #euaCXRgfniM84_to {animation: euaCXRgfniM84_to__to 5700ms linear infinite normal forwards}@keyframes euaCXRgfniM84_to__to { 0% {transform: translate(-143.736596px,1305.31839px)} 29.824561% {transform: translate(-143.736596px,1305.31839px);animation-timing-function: cubic-bezier(0.445,0.05,0.55,0.95)} 33.333333% {transform: translate(-145.057685px,1217.994666px);animation-timing-function: cubic-bezier(0.445,0.05,0.55,0.95)} 36.842105% {transform: translate(-38.265333px,1232.657528px);animation-timing-function: cubic-bezier(0.445,0.05,0.55,0.95)} 40.350877% {transform: translate(-38.265333px,1366.154666px)} 100% {transform: translate(-38.265333px,1366.154666px)}} #euaCXRgfniM96_to {animation: euaCXRgfniM96_to__to 5700ms linear infinite normal forwards}@keyframes euaCXRgfniM96_to__to { 0% {transform: translate(25.013214px,1320.615609px)} 15.789474% {transform: translate(25.013214px,1320.615609px);animation-timing-function: cubic-bezier(0.445,0.05,0.55,0.95)} 19.298246% {transform: translate(23.15575px,1250.637998px);animation-timing-function: cubic-bezier(0.445,0.05,0.55,0.95)} 22.807018% {transform: translate(141.460432px,1254.753541px);animation-timing-function: cubic-bezier(0.445,0.05,0.55,0.95)} 26.315789% {transform: translate(141.460432px,1388.255375px)} 100% {transform: translate(141.460432px,1388.255375px)}} #euaCXRgfniM107_to {animation: euaCXRgfniM107_to__to 5700ms linear infinite normal forwards}@keyframes euaCXRgfniM107_to__to { 0% {transform: translate(-310.652235px,1053.28749px)} 1.754386% {transform: translate(-310.652235px,1053.28749px);animation-timing-function: cubic-bezier(0.445,0.05,0.55,0.95)} 5.263158% {transform: translate(-333.390268px,936.30818px);animation-timing-function: cubic-bezier(0.445,0.05,0.55,0.95)} 8.77193% {transform: translate(-205.010586px,965.966449px);animation-timing-function: cubic-bezier(0.445,0.05,0.55,0.95)} 12.280702% {transform: translate(-205.010586px,1114.116446px)} 100% {transform: translate(-205.010586px,1114.116446px)}}
]]></style>
<defs><filter id="euaCXRgfniM4-filter" x="-150%" width="400%" y="-150%" height="400%"><feGaussianBlur id="euaCXRgfniM4-filter-drop-shadow-0-blur" in="SourceAlpha" stdDeviation="0,0"/><feOffset id="euaCXRgfniM4-filter-drop-shadow-0-offset" dx="0" dy="0" result="tmp"/><feFlood id="euaCXRgfniM4-filter-drop-shadow-0-flood" flood-color="rgba(0,0,0,0)"/><feComposite id="euaCXRgfniM4-filter-drop-shadow-0-composite" operator="in" in2="tmp"/><feMerge id="euaCXRgfniM4-filter-drop-shadow-0-merge" result="result"><feMergeNode id="euaCXRgfniM4-filter-drop-shadow-0-merge-node-1"/><feMergeNode id="euaCXRgfniM4-filter-drop-shadow-0-merge-node-2" in="SourceGraphic"/></feMerge></filter><filter id="euaCXRgfniM58-filter" x="-150%" width="400%" y="-150%" height="400%"><feGaussianBlur id="euaCXRgfniM58-filter-drop-shadow-0-blur" in="SourceAlpha" stdDeviation="0,0"/><feOffset id="euaCXRgfniM58-filter-drop-shadow-0-offset" dx="0" dy="0" result="tmp"/><feFlood id="euaCXRgfniM58-filter-drop-shadow-0-flood" flood-color="rgba(0,0,0,0)"/><feComposite id="euaCXRgfniM58-filter-drop-shadow-0-composite" operator="in" in2="tmp"/><feMerge id="euaCXRgfniM58-filter-drop-shadow-0-merge" result="result"><feMergeNode id="euaCXRgfniM58-filter-drop-shadow-0-merge-node-1"/><feMergeNode id="euaCXRgfniM58-filter-drop-shadow-0-merge-node-2" in="SourceGraphic"/></feMerge></filter><filter id="euaCXRgfniM60-filter" x="-150%" width="400%" y="-150%" height="400%"><feGaussianBlur id="euaCXRgfniM60-filter-drop-shadow-0-blur" in="SourceAlpha" stdDeviation="0,0"/><feOffset id="euaCXRgfniM60-filter-drop-shadow-0-offset" dx="0" dy="0" result="tmp"/><feFlood id="euaCXRgfniM60-filter-drop-shadow-0-flood" flood-color="rgba(0,0,0,0)"/><feComposite id="euaCXRgfniM60-filter-drop-shadow-0-composite" operator="in" in2="tmp"/><feMerge id="euaCXRgfniM60-filter-drop-shadow-0-merge" result="result"><feMergeNode id="euaCXRgfniM60-filter-drop-shadow-0-merge-node-1"/><feMergeNode id="euaCXRgfniM60-filter-drop-shadow-0-merge-node-2" in="SourceGraphic"/></feMerge></filter></defs><g transform="matrix(.77266 0 0 0.77266-71.594831-327.165083)"><g transform="matrix(1.027303 0 0 1.027303-11.783724-140.790743)"><path d="M0,21.32C0,9.545289,9.545289,0,21.32,0h135.9c11.774711,0,21.32,9.545289,21.32,21.32v292.47c0,11.774711-9.545289,21.32-21.32,21.32h-135.9C9.545289,335.11,0,325.564711,0,313.79L0,21.32Z" transform="matrix(1.872218 0 0 1.872218 364.801873 618.04177)" filter="url(#euaCXRgfniM4-filter)" fill="#2f3649" stroke="#598baa" stroke-width="3" stroke-miterlimit="7.69"/><g mask="url(#euaCXRgfniM49)"><g transform="matrix(.234661 0 0 0.234661 289.991756 747.971017)"><g id="euaCXRgfniM7_to" transform="translate(1159.401175,1193.424264)"><g transform="translate(-1000.000061,-999.999969)"><g id="euaCXRgfniM8_to" transform="translate(1182.054444,1097.444489)"><g transform="translate(-26.715027,-1470.143616)"><g transform="translate(-1566.537075 1372.701661)"><polygon points="1154.65,148.15 1411.24,296.640092 1667.83,148.15 1411.24,0 1154.65,148.15" fill="#9edaff"/><polygon points="1411.24,296.31 1411.24,444.46 1154.65,296.31 1154.65,148.15 1411.24,296.31" transform="translate(.02 0)" fill="#6cc2f8"/><polygon points="1667.83,148.15 1667.83,296.31 1411.24,444.46 1411.24,296.31 1667.83,148.15" fill="#009cff"/><path d="M1360.48,58.01h101.5l-.03644,30.89714c.04341.51546.06377,1.0343.06049,1.55618-.00291.46267-.02436.92273-.06395,1.37993l-.0001.08675h-.00763c-1.42129,15.50277-23.69909,27.70455-50.89154,27.53369-26.81921-.16851-48.7069-12.3113-50.47927-27.53369h-.08157v-.90876c-.02506-.39678-.03647-.79551-.03395-1.19602.00206-.32774.01342-.65416.03395-.97919L1360.48,58.01Zm0,148.15h101.5l-.03647,30.93269c.04142.50404.0608,1.0113.0576,1.52146-.00283.45096-.02329.89943-.06098,1.3452l-.00015.13065h-.01139c-1.42923,15.49841-23.7036,27.69534-50.8907,27.52452-26.81383-.16848-48.69811-12.30642-50.4782-27.52452h-.07972v-.87265c-.02709-.41173-.03948-.82555-.03687-1.2413.00215-.34297.0145-.68449.03687-1.02448L1360.48,206.16Zm128.3-74.08h101.49l-.02737,30.95936c.04033.49762.05917.99836.056,1.50194-.00277.44096-.02239.87955-.0585,1.31555l-.00014.15315h-.01324c-1.42304,15.50181-23.70008,27.70252-50.89135,27.53167-26.81802-.1685-48.70496-12.31023-50.47903-27.53167h-.07638v-.82812c-.02883-.42405-.04206-.85034-.03937-1.27868.00223-.35554.01542-.70952.03937-1.06186L1488.78,132.08Zm-256.59,0h101.49l-.0273,30.87149c.04567.52814.06714,1.05985.06378,1.59474-.00297.47226-.02526.94178-.06643,1.40834l-.00005.05543h-.00493c-1.41877,15.50415-23.69765,27.70747-50.89181,27.5366-26.82092-.16852-48.70969-12.31285-50.4796-27.5366h-.08366v-.94503c-.02337-.38385-.03395-.76951-.03152-1.15684.00198-.31457.01253-.62793.03152-.94v-30.88813Z" transform="translate(.000001 0)" fill="#009cff"/><path d="M1411.04146,87.32175c-28.04447-.17621-50.69652-13.4458-50.59478-29.63847s22.91875-29.17658,50.96322-29.00037s50.69652,13.4458,50.59478,29.63847-22.91875,29.17658-50.96322,29.00037Zm-.00292,148.15083c-28.04447-.17621-50.69652-13.4458-50.59478-29.63847s22.91875-29.17658,50.96322-29.00037s50.69652,13.4458,50.59478,29.63847-22.91875,29.17658-50.96322,29.00037Zm128.29751-74.07291c-28.04447-.17621-50.69652-13.4458-50.59478-29.63847s22.91875-29.17658,50.96322-29.00037s50.69652,13.4458,50.59478,29.63847-22.91875,29.17658-50.96322,29.00037Zm-256.59216.00493c-28.04447-.17621-50.69652-13.4458-50.59478-29.63847s22.91875-29.17658,50.96322-29.00037s50.69652,13.4458,50.59478,29.63847-22.91875,29.17658-50.96322,29.00037Z" fill="#9edaff"/></g><g id="euaCXRgfniM15_to" transform="translate(-143.736596,1305.31839)"><g transform="translate(-26.739502,-1396.063659)"><g transform="translate(-1116.642257 1032.230667)"><polygon points="769.77,370.39 1026.35,519.903888 1282.94,370.39 1026.35,222.23 769.77,370.39" fill="#d2e67d"/><polygon points="1026.35,518.54 1026.35,666.69 769.77,518.54 769.77,370.39 1026.35,518.54" fill="#cce113"/><polygon points="1282.94,370.39 1282.94,518.54 1026.35,666.69 1026.35,518.54 1282.94,370.39" fill="#b8d900"/><g><path d="M975.6,280.24h101.49l-.02734,30.92673c.04221.50858.06197,1.02045.05874,1.53527-.00284.4522-.0234.9019-.06129,1.34888l-.00011.11913h-.01041c-1.42244,15.50214-23.69974,27.70321-50.89141,27.53236-26.81843-.1685-48.70562-12.3106-50.47911-27.53236h-.07907v-.86887c-.02691-.41039-.03921-.82286-.0366-1.23724.00215-.3416.0144-.68177.0366-1.02042v-30.80348Z" fill="#b8d900"/><path d="M975.6,428.39h101.49l-.02738,30.96284c.04022.49697.05901.99706.05585,1.49998-.00277.4403-.02233.87823-.05833,1.31359l-.00014.15359h-.01326c-1.42172,15.50253-23.69933,27.70404-50.89149,27.53319-26.81891-.16851-48.70642-12.31104-50.47921-27.53319h-.07605v-.82429c-.02894-.42482-.04222-.85188-.03953-1.28099.00224-.35631.01548-.71107.03953-1.06417L975.6,428.39Z" fill="#b8d900"/><path d="M1103.89,354.31h101.5l-.03641,30.88071c.04476.52306.06577,1.0496.06245,1.57926-.00296.47046-.02509.9382-.06596,1.403l-.00008.06703h-.00595c-1.42419,15.50118-23.70074,27.70118-50.89123,27.53034-26.81724-.1685-48.70369-12.30952-50.47887-27.53034h-.08395v-.94416c-.02367-.3862-.0344-.77424-.03195-1.16397.00199-.31697.01269-.6327.03195-.94714v-30.87473Z" fill="#b8d900"/><path d="M847.31,354.31h101.49l-.03631,30.79776c.05007.55195.07371,1.1078.07019,1.66715-.10174,16.19267-22.91875,29.17658-50.96322,29.00037-26.82014-.16851-48.70842-12.31214-50.47945-27.53528h-.08122v-.90461c-.02517-.39763-.03663-.79721-.03411-1.19858.00206-.3286.01348-.65588.03411-.98175L847.31,354.31Z" fill="#b8d900"/></g><g><path d="M1026.16881,309.56043c-28.04447-.17621-50.69652-13.4458-50.59478-29.63847s22.91875-29.17658,50.96322-29.00037s50.69652,13.4458,50.59478,29.63847-22.91875,29.17658-50.96322,29.00037Zm-.01292,148.15083c-28.04447-.17621-50.69652-13.4458-50.59478-29.63847s22.91875-29.17658,50.96322-29.00037s50.69652,13.4458,50.59478,29.63847-22.91875,29.17658-50.96322,29.00037Zm128.29757-74.08292c-28.04447-.17621-50.69652-13.4458-50.59478-29.63847s22.91875-29.17658,50.96322-29.00037s50.69652,13.4458,50.59478,29.63847-22.91875,29.17658-50.96322,29.00037Zm-256.59216.00494c-28.04447-.17621-50.69652-13.4458-50.59478-29.63847s22.91875-29.17658,50.96322-29.00037s50.69652,13.4458,50.59478,29.63847-22.91875,29.17658-50.96322,29.00037Z" fill="#d2e67d"/></g></g><g id="euaCXRgfniM27_to" transform="translate(25.013214,1320.615609)"><g transform="translate(-26.742096,-1321.99115)"><g transform="translate(-846.565271 595.581465)"><polygon points="384.88,592.62 641.47,740.77 898.06,592.62 641.47,444.46 384.88,592.62" transform="translate(0 0.005)" fill="#f9d942"/><polygon points="641.47,740.632256 641.47,888.93 384.88,740.77 384.88,592.482256 641.47,740.632256" fill="#fbc700"/><polygon points="898.06,592.62 898.06,740.77 641.47,888.93 641.47,740.77 898.06,592.62" fill="#f8b700"/><g><path d="M590.72,502.47h101.49l-.02652,29.99659c.03986.49485.05847.9928.05533,1.49355-.00275.43814-.02214.87392-.0578,1.30716l-.001,1.13271h-.13001c-2.24293,15.0371-24.15356,26.72777-50.7744,26.5605-26.24514-.1649-47.76762-11.79695-50.33795-26.5605h-.21764v-1.80191c-.02871-.42319-.04188-.84861-.03919-1.27606.00223-.35465.01535-.70777.03919-1.05924L590.72,502.47Z" fill="#f8b700"/><path d="M590.72,650.62h101.49l-.0273,30.87377c.04526.52586.06652,1.05525.06318,1.58779-.00295.46991-.02504.93713-.06582,1.40139L692.18,684.55h-.00596c-1.42281,15.50193-23.69995,27.70278-50.89137,27.53193-26.81817-.1685-48.70521-12.31036-50.47906-27.53193h-.0836v-.93995c-.02378-.38707-.03457-.77598-.03212-1.16659.002-.31785.01275-.63446.03212-.94976L590.72,650.62Zm128.29-74.07h101.5l-.0363,30.78631c.04977.55037.07326,1.10462.06976,1.66234-.10174,16.19267-22.91875,29.17658-50.96322,29.00037-26.81646-.16849-48.70242-12.30882-50.47872-27.52902h-.09152v-1.07428c-.01848-.34365-.02672-.68874-.02454-1.03517.00172-.2737.00993-.54648.02454-.8183v-30.99225Z" transform="translate(.000001 0)" fill="#f8b700"/><path d="M462.42,576.55h101.5l-.03634,30.8149c.04832.54259.07109,1.08896.06763,1.63869-.00308.49051-.02701.97807-.07129,1.46242v.004h-.00036c-1.42106,15.50289-23.69896,27.70481-50.89156,27.53395-26.81936-.16851-48.70715-12.31144-50.4793-27.53395h-.08878v-1.03009c-.02-.35663-.02896-.7148-.0267-1.07443.0018-.28688.01073-.57275.0267-.85757v-30.95792Z" transform="translate(0 0.000001)" fill="#f8b700"/></g><g><path d="M641.28622,531.7891c-28.04447-.17621-50.69652-13.4458-50.59478-29.63847s22.91875-29.17658,50.96322-29.00037s50.69652,13.4458,50.59478,29.63847-22.91875,29.17658-50.96322,29.00037Zm-.00292,148.15083c-28.04447-.17621-50.69652-13.4458-50.59478-29.63847s22.91875-29.17658,50.96322-29.00037s50.69652,13.4458,50.59478,29.63847-22.91875,29.17658-50.96322,29.00037Zm128.29757-74.08285c-28.04447-.17621-50.69652-13.4458-50.59478-29.63847s22.91875-29.17658,50.96322-29.00037s50.69652,13.4458,50.59478,29.63847-22.91875,29.17658-50.96322,29.00037Zm-256.59216.00494c-28.04447-.17621-50.69652-13.4458-50.59478-29.63847s22.91875-29.17658,50.96322-29.00037s50.69652,13.4458,50.59478,29.63847-22.91875,29.17658-50.96322,29.00037Z" transform="translate(0 0.000001)" fill="#f9d942"/></g></g><g id="euaCXRgfniM38_to" transform="translate(-310.652235,1053.28749)"><g transform="translate(-256.589996,-888.925018)"><polygon points="0,814.85 256.59,963 513.18,814.85 256.59,666.69 0,814.85" fill="#ffaad4"/><polygon points="256.59,961.83121 256.59,1111.16 0,963 0,813.68121 256.59,961.83121" fill="#ff7dbd"/><polygon points="513.18,814.85 513.18,963 256.59,1111.16 256.59,963 513.18,814.85" fill="#ff3f9d"/><g><path d="M205.83,724.7h101.5l-.03626,30.75723c.05163.56015.07604,1.12433.07247,1.69211-.10174,16.19267-22.91875,29.17658-50.96322,29.00037-26.811-.16846-48.6935-12.30387-50.47763-27.51971h-.09537v-1.13649c-.01654-.32616-.02385-.65362-.02178-.98227.00161-.25594.00889-.51108.02178-.76538L205.83,724.7Z" transform="translate(.000001 0)" fill="#ff3f9d"/><path d="M205.83,872.85h101.5l-.03631,30.79962c.04967.5498.0731,1.10348.0696,1.66061-.10174,16.19267-22.91875,29.17658-50.96322,29.00037-26.81739-.1685-48.70394-12.30966-50.47891-27.5306h-.09117v-1.06971c-.0186-.34464-.02689-.69073-.0247-1.03816.00173-.2747.00999-.54848.0247-.82129L205.83,872.85Z" transform="translate(0-1.471008)" fill="#ff3f9d"/><path d="M334.13,798.78h101.49l-.02724,30.81403c.0486.54411.07151,1.09201.06804,1.64329-.00307.48864-.02683.97436-.07079,1.45688l-.00001.0158h-.00143c-1.42648,15.49992-23.70204,27.69852-50.89098,27.52769-26.81568-.16849-48.70115-12.30811-50.47857-27.52769h-.08902v-1.02755c-.02034-.35953-.02947-.72065-.0272-1.08323.00182-.28984.01092-.57865.0272-.86637v-30.95285Z" transform="translate(.000001 0)" fill="#ff3f9d"/><path d="M77.54,798.78h101.49l-.02726,30.83311c.04713.53617.06932,1.07602.06591,1.61915-.00302.48049-.02604.95816-.0686,1.43274l-.00004.045h-.00406c-1.43087,15.49751-23.70454,27.69344-50.89052,27.52263-26.81271-.16847-48.69629-12.30542-50.47797-27.52263h-.08745v-.99523c-.02185-.37188-.03171-.74546-.02935-1.12061.0019-.3024.01172-.60367.02935-.90377L77.54,798.78Z" transform="translate(0-1.471007)" fill="#ff3f9d"/></g><g><path d="M256.40363,754.00778c-28.04447-.17621-50.69652-13.4458-50.59478-29.63847s22.91875-29.17658,50.96322-29.00037s50.69652,13.4458,50.59478,29.63847-22.91875,29.17658-50.96322,29.00037Zm-.00292,148.16083c-28.04447-.17621-50.69652-13.4458-50.59478-29.63847s22.91875-29.17658,50.96322-29.00037s50.69652,13.4458,50.59478,29.63847-22.91875,29.17658-50.96322,29.00037Zm128.29751-74.07285c-28.04447-.17621-50.69652-13.4458-50.59478-29.63847s22.91875-29.17658,50.96322-29.00037s50.69652,13.4458,50.59478,29.63847-22.91875,29.17658-50.96322,29.00037Zm-256.58216-.00507c-28.04447-.17621-50.69652-13.4458-50.59478-29.63847s22.91875-29.17658,50.96322-29.00037s50.69652,13.4458,50.59478,29.63847-22.91875,29.17658-50.96322,29.00037Z" fill="#ffaad4"/></g></g></g></g></g></g></g></g></g></g></g></g><mask id="euaCXRgfniM49" mask-type="luminance" x="-150%" y="-150%" height="400%" width="400%"><rect width="222.550568" height="285.606562" rx="0" ry="0" transform="matrix(.92819 0 0 1.233292 420.85795 796.36003)" fill="#fff" stroke-width="0"/></mask></g><g transform="matrix(.902832 0 0 0.902832 44.357294 14.918017)" mask="url(#euaCXRgfniM54)"><g transform="matrix(.731729 0 0 0.731729 146.985938 311.330088)"><path d="M11.13,49.37v-20.23h9.51c2.41,0,4.25.48,5.52,1.43s1.91,2.23,1.91,3.83c0,1.08-.25,2-.75,2.76-.47117.71618-1.09331,1.2814-1.86641,1.68729.24316.07798.47862.16894.70641.27271.91.41,1.62,1.02,2.14,1.81s.78,1.77.78,2.95c0,1.73-.66,3.08-1.98,4.05-1.32.96-3.28,1.44-5.88,1.44h-10.09Zm3.76-2.95h6.1c1.39,0,2.46-.23,3.21-.69s1.13-1.2,1.13-2.22-.38-1.74-1.13-2.21-1.82-.71-3.21-.71h-6.1v5.83Zm5.32-8.75c1.29,0,2.29-.23,3-.69s1.07-1.16,1.07-2.08-.36-1.65-1.07-2.11-1.71-.69-3-.69h-5.32v5.57h5.32ZM39.3,49.58c-1.31,0-2.47-.25-3.47-.74s-1.79-1.24-2.36-2.25-.85-2.29-.85-3.83v-8.81h3.64v8.35c0,1.37.32,2.39.95,3.08.64.68,1.52,1.03,2.66,1.03.85,0,1.59-.17,2.23-.52s1.13-.87,1.47-1.56c.35-.69.52-1.55.52-2.57v-7.8h3.61v15.43h-3.44v-1.97112c-.45156.55005-1.00823,1.00376-1.67,1.36112-1,.54-2.1.81-3.29.81v-.01ZM54.26,31.4c.00168,0,.00337,0,.00505,0s.0033,0,.00495,0h-.01Zm-1.65-.64c-.43-.42-.65-.94-.65-1.56c0-.58.22-1.08.65-1.5s.99-.64,1.66-.64s1.23.2,1.66.59.65.9.65,1.52-.21,1.14-.64,1.58c-.41899.42897-.97731.64894-1.67495.65-.66781-.00103-1.22611-.21106-1.65505-.64Zm-.13,18.61v-15.43h3.58v15.43h-3.58Zm8.35,0v-21.44h3.58v21.44h-3.58Zm14.85.21c-1.48,0-2.82-.33-4-.98s-2.11-1.57-2.79-2.76c-.67-1.18-1.01-2.58-1.01-4.18s.34-2.97,1.01-4.16s1.6-2.12,2.79-2.77s2.52-.98,4-.98c1.29,0,2.45.28,3.47.85.55136.30811,1.04136.70388,1.47,1.18574v-7.83574h3.64v21.44h-3.44v-2.02207c-.45139.56353-.98066,1.01421-1.59,1.35207-1.01.57-2.19.85-3.54.85l-.01.01Zm.43-3.06c.87,0,1.64-.2,2.33-.59.68-.39,1.23-.96,1.65-1.71.41-.74.62-1.59.62-2.56s-.21-1.83-.62-2.56c-.41-.72-.96-1.28-1.65-1.68-.68-.39-1.46-.59-2.33-.59s-1.64.2-2.33.59c-.68.4-1.23.95-1.65,1.68-.42.72-.62,1.57-.62,2.56s.21,1.82.62,2.56.96,1.31,1.65,1.71c.68.4,1.46.59,2.33.59ZM90.81,31.4c.00168,0,.00337,0,.00505,0s.0033,0,.00495,0h-.01Zm-1.65-.64c-.43-.42-.65-.94-.65-1.56c0-.58.22-1.08.65-1.5s.99-.64,1.66-.64s1.23.2,1.66.59.65.9.65,1.52-.21,1.14-.64,1.58c-.41899.42897-.97731.64894-1.67495.65-.66781-.00103-1.22611-.21106-1.65505-.64Zm-.13,18.61v-15.43h3.58v15.43h-3.58Zm17.08-15.63c1.25,0,2.36.24,3.31.72s1.71,1.22,2.28,2.23c.57,1,.85,2.28.85,3.84v8.84h-3.61v-8.38c0-1.37-.32-2.39-.95-3.06s-1.54-1.01-2.72-1.01c-.85,0-1.6.17-2.25.52-.66.35-1.16.86-1.52,1.55-.36.68-.54,1.55-.54,2.59v7.8h-3.58v-15.43h3.44v1.97618c.45826-.55233,1.02965-1.00772,1.72-1.36618c1.03-.54,2.22-.81,3.57-.81v-.01Zm17.6,14.94c-1.48,0-2.81-.31-3.99-.94-1.17-.63-2.1-1.5-2.79-2.61-.68-1.12-1.03-2.42-1.03-3.9s.34-2.82,1.03-3.94c.68-1.13,1.61-2,2.79-2.61s2.5-.92,3.99-.92c1.31,0,2.49.27,3.54.79.69099.34879,1.28671.81884,1.79,1.413v-2.033h3.44v13.09c0,2.79-.71,4.85-2.14,6.17s-3.49,1.98-6.18,1.98l.01.01c-1.44,0-2.84-.19-4.18-.56-1.34-.38-2.45-.93-3.34-1.66l1.62-2.69c.67.56,1.52,1.01,2.54,1.36s2.08.52,3.18.52c1.68,0,2.91-.39,3.7-1.17s1.18-1.96,1.18-3.54v-.78639c-.46593.5081-1.00526.92023-1.62,1.23639-1.05.54-2.23.81-3.54.81v-.02Zm.55-3.06c.91,0,1.71-.19,2.43-.56.71-.38,1.27-.9,1.66-1.56s.59-1.42.59-2.27-.2-1.66-.59-2.31c-.4-.65-.95-1.17-1.66-1.53-.71-.37-1.52-.55-2.43-.55s-1.72.18-2.44.55-1.28.88-1.68,1.53c-.39.66-.59,1.43-.59,2.31s.2,1.6.59,2.27.95,1.18,1.68,1.56c.72.38,1.54.56,2.44.56Zm29.7-11.88c1.25,0,2.36.24,3.31.72s1.71,1.22,2.28,2.23c.57,1,.85,2.28.85,3.84v8.84h-3.61v-8.38c0-1.37-.32-2.39-.95-3.06s-1.54-1.01-2.72-1.01c-.85,0-1.6.17-2.25.52-.66.35-1.16.86-1.52,1.55-.36.68-.54,1.55-.54,2.59v7.8h-3.58v-15.43h3.44v1.97618c.45826-.55233,1.02965-1.00772,1.72-1.36618c1.03-.54,2.22-.81,3.57-.81v-.01Zm18.32,15.84c-1.71,0-3.21-.34-4.49-1.03-1.28-.68-2.27-1.62-2.98-2.8s-1.05-2.55-1.05-4.09.34-2.9,1.03-4.09c.68-1.18,1.63-2.12,2.83-2.8s2.58-1.03,4.12-1.03s2.84.33,4.02,1c1.17.66,2.1,1.59,2.77,2.79.67,1.19,1.01,2.61,1.01,4.25c0,.13,0,.3-.01.51-.01.2-.02.38-.04.53h-12.11245c.09745.5292.27575,1.0192.53245,1.47.41.71,1.01,1.27,1.78,1.66.77.4,1.67.59,2.69.59.87,0,1.65-.14,2.34-.43s1.31-.71,1.85-1.27l1.96,2.25c-.71.81-1.59,1.43-2.64,1.85s-2.25.64-3.6.64h-.01Zm3.32-10.74c-.38-.68-.89-1.21-1.55-1.59-.65-.38-1.43-.56-2.31-.56s-1.64.19-2.33.56-1.21.91-1.57,1.6c-.25304.47189-.41722.99522-.49573,1.57h8.76053c-.06951-.57079-.23778-1.09515-.5048-1.58Zm10.52,10.53l-5.66-15.43h3.41l4.07238,11.35759L192.19,33.94h3.03l4.16244,11.39855L203.57,33.94h3.21l-5.69,15.43h-3.47l-3.96631-10.6683L189.59,49.37h-3.47Zm31.15,5.61v-21.04h3.44v1.95915c.44382-.52998.9665-.95839,1.57-1.28915c1.04-.57,2.21-.85,3.5-.85c1.5,0,2.84.33,4.02.98c1.17.66,2.1,1.58,2.79,2.77.68,1.19,1.03,2.58,1.03,4.16s-.34,2.99-1.03,4.18c-.68,1.19-1.61,2.1-2.79,2.76s-2.51.98-4.02.98l.01-.01c-1.27,0-2.42-.28-3.44-.85-.55996-.31292-1.05662-.71624-1.49-1.20999v7.44999h-3.58l-.01.01Zm8.09-8.46c.89,0,1.67-.2,2.36-.61.68-.4,1.23-.97,1.63-1.7.41-.73.61-1.58.61-2.54s-.2-1.83-.61-2.56c-.4-.72-.95-1.28-1.63-1.68-.68-.39-1.47-.59-2.36-.59s-1.62.2-2.31.59c-.69.4-1.24.95-1.65,1.68-.4.72-.61,1.57-.61,2.56s.2,1.81.61,2.54.95,1.3,1.65,1.7c.69.4,1.46.61,2.31.61Zm11.73,2.85v-15.43h3.44v2.25189c.43635-.6751,1.02906-1.21437,1.77-1.62189c1-.55,2.23-.82,3.67-.82v3.44c-.13-.02-.27-.03-.4-.04-.13,0-.26-.01-.38-.01-1.39,0-2.49.4-3.29,1.18-.81.79-1.21,1.99-1.21,3.61v7.46h-3.58l-.02-.02Zm18.76.21c-1.56,0-2.96-.34-4.2-1.03-1.24-.68-2.22-1.62-2.93-2.82-.71-1.19-1.07-2.55-1.07-4.07s.36-2.93,1.07-4.1s1.69-2.1,2.92-2.79c1.23-.68,2.64-1.03,4.22-1.03s3.02.34,4.26,1.03c1.24.68,2.22,1.61,2.92,2.79s1.05,2.54,1.05,4.1-.35,2.9-1.05,4.09-1.68,2.12-2.93,2.8-2.67,1.03-4.25,1.03h-.01Zm0-3.06c.89,0,1.68-.2,2.37-.59s1.24-.96,1.63-1.71c.39-.74.59-1.59.59-2.56s-.2-1.83-.59-2.56c-.39-.72-.94-1.28-1.63-1.68-.69-.39-1.47-.59-2.34-.59s-1.65.2-2.34.59c-.69.4-1.24.95-1.65,1.68-.4.72-.61,1.57-.61,2.56s.2,1.82.61,2.56c.4.74.95,1.31,1.65,1.71.69.4,1.46.59,2.31.59Zm10.08,8.66c-.66,0-1.29-.08-1.89-.23-.61-.16-1.12-.38-1.55-.67l1.04-2.69c.56.4,1.26.61,2.11.61.66,0,1.17-.21,1.53-.62.37-.41.55-1.03.55-1.83v-15.81h3.61v15.72c0,1.69-.47,3.04-1.4,4.03-.94.99-2.27,1.49-4,1.49ZM269.5,31.4c.00168,0,.00337,0,.00505,0s.0033,0,.00495,0h-.01Zm-1.65-.64c-.43-.42-.65-.94-.65-1.56c0-.58.22-1.08.65-1.5s.99-.64,1.66-.64s1.23.2,1.66.59.65.9.65,1.52-.21,1.14-.64,1.58c-.41899.42897-.97731.64894-1.67495.65-.66781-.00103-1.22611-.21106-1.65505-.64Zm15.48,18.82c-1.71,0-3.21-.34-4.49-1.03-1.28-.68-2.27-1.62-2.98-2.8s-1.05-2.55-1.05-4.09.34-2.9,1.03-4.09c.68-1.18,1.63-2.12,2.83-2.8s2.58-1.03,4.12-1.03s2.84.33,4.02,1c1.17.66,2.1,1.59,2.77,2.79.67,1.19,1.01,2.61,1.01,4.25c0,.13,0,.3-.01.51-.01.2-.02.38-.04.53h-12.11245c.09745.5292.27575,1.0192.53245,1.47.41.71,1.01,1.27,1.78,1.66.77.4,1.67.59,2.69.59.87,0,1.65-.14,2.34-.43s1.31-.71,1.85-1.27l1.96,2.25c-.71.81-1.59,1.43-2.64,1.85s-2.25.64-3.6.64h-.01Zm3.32-10.74c-.38-.68-.89-1.21-1.55-1.59-.65-.38-1.43-.56-2.31-.56s-1.64.19-2.33.56-1.21.91-1.57,1.6c-.25304.47189-.41722.99522-.49573,1.57h8.76053c-.06951-.57079-.23778-1.09515-.5048-1.58Zm14.48,10.74c-1.62,0-3.06-.34-4.32-1.03-1.26-.68-2.25-1.62-2.96-2.8s-1.07-2.55-1.07-4.09.36-2.93,1.07-4.1s1.7-2.1,2.96-2.79c1.26-.68,2.7-1.03,4.32-1.03c1.48,0,2.8.31,3.96.92c1.16.62,2.02,1.51,2.6,2.69l-2.75,1.62c-.46-.71-1.03-1.25-1.69-1.6-.67-.36-1.38-.53-2.15-.53-.89,0-1.69.2-2.4.59-.71.4-1.27.95-1.68,1.68-.4.72-.61,1.57-.61,2.56s.2,1.84.61,2.57c.4.73.96,1.3,1.68,1.69.71.4,1.51.59,2.4.59.77,0,1.49-.18,2.15-.53.66-.36,1.23-.9,1.69-1.63l2.75,1.62c-.58,1.16-1.45,2.05-2.6,2.67-1.16.63-2.48.94-3.96.94v-.01Zm7.86-12.63v-2.89h2.54v-3.52h3.58v3.52h4.17v2.89h-4.17v7.34c0,.73.19,1.3.58,1.71.39.4.92.61,1.62.61.79,0,1.45-.21,1.96-.64l1.04,2.57c-.44.35-.97.61-1.59.78-.61853.1696-1.23707.25957-1.87546.26-1.69733-.00094-2.99554-.44093-3.92454-1.31-.93-.87-1.39-2.16-1.39-3.86v-7.46h-2.54Zm7.85,12.63c.00151,0,.00303,0,.00454,0c.00182,0,.00364,0,.00546,0h-.01Zm11.25,0c-1.31,0-2.55-.17-3.73-.51-1.17-.34-2.12-.75-2.83-1.23l1.39-2.75c.69.44,1.52.8,2.48,1.08s1.94.42,2.92.42c1.12,0,1.93-.15,2.44-.45s.77-.71.77-1.23c0-.42-.17-.75-.52-.97s-.8-.39-1.36-.51-1.18-.22-1.86-.32-1.37-.23-2.05-.39-1.31-.4-1.86-.72-1.01-.75-1.36-1.29-.52-1.26-.52-2.17c0-.96.28-1.81.84-2.53s1.34-1.29,2.35-1.69s2.21-.61,3.6-.61c1.02,0,2.07.12,3.14.36s1.96.57,2.67,1l-1.42,2.75c-.71-.42-1.44-.72-2.2-.88-.75-.16-1.49-.25-2.22-.25-1.08,0-1.89.16-2.43.48s-.81.73-.81,1.23c0,.46.17.81.52,1.04s.8.41,1.36.53c.56.13,1.18.24,1.86.35s1.36.24,2.04.4c.67.16,1.29.4,1.86.69.57.3,1.03.72,1.37,1.26s.52,1.24.52,2.11c0,.98-.28,1.83-.85,2.53s-1.37,1.25-2.4,1.65c-1.03.39-2.27.59-3.71.59v.03Zm9.13,4.19l1.14454-4.46717c-.24534-.10201-.46741-.24323-.66454-.42283-.45-.41-.68-.99-.68-1.72s.23-1.29.68-1.72s1.01-.65,1.66-.65c.69,0,1.26.22,1.69.67.43.44.65,1.01.65,1.7c0,.21-.02.43-.06.65s-.11.48-.2.77c-.1.29-.23.66-.4,1.1l-1.5,4.1h-2.31l-.01-.01ZM71.33,89.66v-21.04h3.44v1.94915c.44382-.52998.9665-.95839,1.57-1.28915c1.04-.57,2.21-.85,3.5-.85c1.5,0,2.84.33,4.02.98c1.17.66,2.1,1.58,2.79,2.77.68,1.2,1.03,2.58,1.03,4.16s-.34,2.99-1.03,4.18-1.61,2.1-2.79,2.76c-1.17863.65923-2.50691.97926-4.01473.98-1.26812-.0007-2.41653-.28071-3.43527-.85-.55996-.31292-1.05662-.71624-1.49-1.21164v7.45164h-3.58l-.01.01Zm8.51-5.4c.00176,0,.00351,0,.00527,0c.00158,0,.00316,0,.00473,0h-.01Zm-.42-3.06c.89,0,1.67-.2,2.36-.61.68-.4,1.23-.97,1.63-1.71.41-.73.61-1.58.61-2.54s-.2-1.83-.61-2.56c-.4-.72-.95-1.28-1.63-1.68-.68-.39-1.47-.59-2.36-.59s-1.62.2-2.31.59c-.69.4-1.24.95-1.65,1.68-.4.72-.61,1.57-.61,2.56s.2,1.81.61,2.54.95,1.3,1.65,1.71s1.46.61,2.31.61ZM92.94,66.08c.00168,0,.00337,0,.00505,0s.0033,0,.00495,0h-.01Zm-1.65-.64c-.43-.43-.65-.94-.65-1.56c0-.58.22-1.08.65-1.5s.99-.64,1.66-.64s1.23.2,1.66.59c.43.4.65.9.65,1.52s-.21,1.14-.64,1.58c-.41899.42897-.97731.64894-1.67495.65-.66781-.00103-1.22611-.21106-1.65505-.64Zm-.13,18.61v-15.43h3.58v15.43h-3.58Zm15.57.2c-1.71,0-3.21-.34-4.49-1.03-1.28-.68-2.27-1.62-2.98-2.8s-1.05-2.55-1.05-4.09.34-2.9,1.03-4.09c.68-1.18,1.63-2.12,2.83-2.8s2.58-1.03,4.12-1.03s2.84.33,4.02,1c1.17.66,2.1,1.59,2.77,2.79.67,1.19,1.01,2.61,1.01,4.25c0,.13,0,.3-.01.5s-.02.38-.04.54h-12.11245c.09745.5292.27575,1.0192.53245,1.47.41.71,1.01,1.27,1.78,1.66.77.4,1.67.59,2.69.59.87,0,1.65-.14,2.34-.43s1.31-.71,1.85-1.27l1.96,2.25c-.71.81-1.59,1.43-2.64,1.85s-2.25.64-3.6.64h-.01Zm3.32-10.74c-.38-.68-.89-1.21-1.55-1.59-.65-.38-1.43-.56-2.31-.56s-1.64.19-2.33.56c-.68.38-1.21.91-1.57,1.6-.25304.47189-.41722.99522-.49573,1.57h8.76053c-.06951-.57079-.23778-1.09515-.5048-1.58Zm14.48,10.74c-1.62,0-3.06-.34-4.32-1.03-1.26-.68-2.25-1.62-2.96-2.8s-1.07-2.55-1.07-4.09.36-2.93,1.07-4.1s1.7-2.1,2.96-2.79c1.26-.68,2.7-1.03,4.32-1.03c1.48,0,2.8.31,3.96.92c1.16.62,2.02,1.51,2.6,2.69l-2.75,1.62c-.46-.71-1.03-1.25-1.69-1.6-.67-.36-1.38-.53-2.15-.53-.89,0-1.69.2-2.4.59-.71.4-1.27.95-1.68,1.68-.4.72-.61,1.57-.61,2.56s.2,1.84.61,2.57.96,1.3,1.68,1.69s1.51.59,2.4.59c.77,0,1.49-.18,2.15-.53.66-.36,1.23-.9,1.69-1.63l2.75,1.62c-.58,1.16-1.45,2.05-2.6,2.67-1.16.63-2.48.94-3.96.94v-.01Zm16.73,0c-1.71,0-3.21-.34-4.49-1.03-1.28-.68-2.27-1.62-2.98-2.8s-1.05-2.55-1.05-4.09.34-2.9,1.03-4.09c.68-1.18,1.63-2.12,2.83-2.8s2.58-1.03,4.12-1.03s2.84.33,4.02,1c1.17.66,2.1,1.59,2.77,2.79.67,1.19,1.01,2.61,1.01,4.25c0,.13,0,.3-.01.5s-.02.38-.04.54h-12.11245c.09745.5292.27575,1.0192.53245,1.47.41.71,1.01,1.27,1.78,1.66.77.4,1.67.59,2.69.59.87,0,1.65-.14,2.34-.43s1.31-.71,1.85-1.27l1.96,2.25c-.71.81-1.59,1.43-2.64,1.85s-2.25.64-3.6.64h-.01Zm3.32-10.74c-.38-.68-.89-1.21-1.55-1.59-.65-.38-1.43-.56-2.31-.56s-1.64.19-2.33.56c-.68.38-1.21.91-1.57,1.6-.25304.47189-.41722.99522-.49573,1.57h8.76053c-.06951-.57079-.23778-1.09515-.5048-1.58Zm15.4,10.53h.01v.01l-.01-.01Zm.01-21.43h3.58v7.88703c.43808-.50143.94141-.90929,1.51-1.22703c1.02-.57,2.17-.85,3.44-.85c1.5,0,2.84.33,4.02.98c1.17.66,2.1,1.58,2.79,2.77.68,1.2,1.03,2.58,1.03,4.16s-.34,2.99-1.03,4.18-1.61,2.1-2.79,2.76-2.51.98-4.02.98h-.01c-1.29,0-2.46-.28-3.5-.85-.61064-.33468-1.14199-.77278-1.59-1.31634v1.95634h-3.43v-21.43Zm8.09,18.58c.89,0,1.67-.2,2.36-.59.68-.39,1.23-.96,1.63-1.71.41-.74.61-1.59.61-2.56s-.2-1.83-.61-2.56c-.4-.72-.95-1.28-1.63-1.68-.68-.39-1.47-.59-2.36-.59s-1.62.2-2.31.59c-.69.4-1.24.95-1.65,1.68-.4.72-.61,1.57-.61,2.56s.2,1.82.61,2.56.95,1.31,1.65,1.71s1.46.59,2.31.59Zm12.57,8.67c-.77,0-1.53-.12-2.28-.38-.75-.25-1.37-.6-1.85-1.04l1.42-2.63c.37.31.78.56,1.23.75s.93.29,1.43.29c.65,0,1.18-.16,1.59-.49.4-.33.78-.89,1.13-1.68l.25986-.58543L176.84,68.62h3.73l4.89702,11.46367L190.35,68.62h3.47l-7.22,16.7c-.48,1.14-1.02,2.04-1.6,2.7-.59.67-1.24,1.14-1.97,1.42-.72.28-1.51.42-2.35.42h-.03Zm23.4-.2v-21.04h3.44v1.94915c.44382-.52998.9665-.95839,1.57-1.28915c1.04-.57,2.21-.85,3.5-.85c1.5,0,2.84.33,4.02.98c1.17.66,2.1,1.58,2.79,2.77.68,1.2,1.03,2.58,1.03,4.16s-.34,2.99-1.03,4.18-1.61,2.1-2.79,2.76c-1.17863.65923-2.50691.97926-4.01473.98-1.26812-.0007-2.41653-.28071-3.43527-.85-.55996-.31292-1.05662-.71624-1.49-1.21164v7.45164h-3.58l-.01.01Zm8.51-5.4c.00176,0,.00351,0,.00527,0c.00158,0,.00316,0,.00473,0h-.01Zm-.42-3.06c.89,0,1.67-.2,2.36-.61.68-.4,1.23-.97,1.63-1.71.41-.73.61-1.58.61-2.54s-.2-1.83-.61-2.56c-.4-.72-.95-1.28-1.63-1.68-.68-.39-1.47-.59-2.36-.59s-1.62.2-2.31.59c-.69.4-1.24.95-1.65,1.68-.4.72-.61,1.57-.61,2.56s.2,1.81.61,2.54.95,1.3,1.65,1.71s1.46.61,2.31.61Zm13.52-15.12c.00168,0,.00337,0,.00505,0s.0033,0,.00495,0h-.01Zm-1.65-.64c-.43-.43-.65-.94-.65-1.56c0-.58.22-1.08.65-1.5s.99-.64,1.66-.64s1.23.2,1.66.59c.43.4.65.9.65,1.52s-.21,1.14-.64,1.58c-.41899.42897-.97731.64894-1.67495.65-.66781-.00103-1.22611-.21106-1.65505-.64Zm-.13,18.61v-15.43h3.58v15.43h-3.58Zm15.57.2c-1.71,0-3.21-.34-4.49-1.03-1.28-.68-2.27-1.62-2.98-2.8s-1.05-2.55-1.05-4.09.34-2.9,1.03-4.09c.68-1.18,1.63-2.12,2.83-2.8s2.58-1.03,4.12-1.03s2.84.33,4.02,1c1.17.66,2.1,1.59,2.77,2.79.67,1.19,1.01,2.61,1.01,4.25c0,.13,0,.3-.01.5s-.02.38-.04.54h-12.11245c.09745.5292.27575,1.0192.53245,1.47.41.71,1.01,1.27,1.78,1.66.77.4,1.67.59,2.69.59.87,0,1.65-.14,2.34-.43s1.31-.71,1.85-1.27l1.96,2.25c-.71.81-1.59,1.43-2.64,1.85s-2.25.64-3.6.64h-.01Zm3.32-10.74c-.38-.68-.89-1.21-1.55-1.59-.65-.38-1.43-.56-2.31-.56s-1.64.19-2.33.56c-.68.38-1.21.91-1.57,1.6-.25304.47189-.41722.99522-.49573,1.57h8.76053c-.06951-.57079-.23778-1.09515-.5048-1.58Zm14.48,10.74c-1.62,0-3.06-.34-4.32-1.03-1.26-.68-2.25-1.62-2.96-2.8s-1.07-2.55-1.07-4.09.36-2.93,1.07-4.1s1.7-2.1,2.96-2.79c1.26-.68,2.7-1.03,4.32-1.03c1.48,0,2.8.31,3.96.92c1.16.62,2.02,1.51,2.6,2.69l-2.75,1.62c-.46-.71-1.03-1.25-1.69-1.6-.67-.36-1.38-.53-2.15-.53-.89,0-1.69.2-2.4.59-.71.4-1.27.95-1.68,1.68-.4.72-.61,1.57-.61,2.56s.2,1.84.61,2.57.96,1.3,1.68,1.69s1.51.59,2.4.59c.77,0,1.49-.18,2.15-.53.66-.36,1.23-.9,1.69-1.63l2.75,1.62c-.58,1.16-1.45,2.05-2.6,2.67-1.16.63-2.48.94-3.96.94v-.01Zm16.73,0c-1.71,0-3.21-.34-4.49-1.03-1.28-.68-2.27-1.62-2.98-2.8s-1.05-2.55-1.05-4.09.34-2.9,1.03-4.09c.68-1.18,1.63-2.12,2.83-2.8s2.58-1.03,4.12-1.03s2.84.33,4.02,1c1.17.66,2.1,1.59,2.77,2.79.67,1.19,1.01,2.61,1.01,4.25c0,.13,0,.3-.01.5s-.02.38-.04.54h-12.11245c.09745.5292.27575,1.0192.53245,1.47.41.71,1.01,1.27,1.78,1.66.77.4,1.67.59,2.69.59.87,0,1.65-.14,2.34-.43s1.31-.71,1.85-1.27l1.96,2.25c-.71.81-1.59,1.43-2.64,1.85s-2.25.64-3.6.64h-.01Zm3.32-10.74c-.38-.68-.89-1.21-1.55-1.59-.65-.38-1.43-.56-2.31-.56s-1.64.19-2.33.56c-.68.38-1.21.91-1.57,1.6-.25304.47189-.41722.99522-.49573,1.57h8.76053c-.06951-.57079-.23778-1.09515-.5048-1.58Z" transform="matrix(1.158497 0 0 1.158497 333.034926 641.505435)" opacity="0.8" fill="#fff" stroke-width="0"/></g><mask id="euaCXRgfniM54" mask-type="alpha" x="-150%" y="-150%" height="400%" width="400%"><rect width="323.456404" height="111.336322" rx="0" ry="0" transform="matrix(1 0 0 0.724195 377.369162 787.9517)" fill="#d2dbed" stroke-width="0"/></mask></g><g mask="url(#euaCXRgfniM59)"><mask id="euaCXRgfniM59" mask-type="luminance" x="-150%" y="-150%" height="400%" width="400%"><path d="M0,21.32C0,9.545289,9.545289,0,21.32,0h135.9c11.774711,0,21.32,9.545289,21.32,21.32v292.47c0,11.774711-9.545289,21.32-21.32,21.32h-135.9C9.545289,335.11,0,325.564711,0,313.79L0,21.32Z" transform="matrix(1.872218 0 0 1.872218 364.801873 618.04177)" filter="url(#euaCXRgfniM60-filter)" fill="#fdfdfe" stroke-width="4" stroke-miterlimit="7.69"/></mask></g></g><g transform="translate(.00005-117.529161)"><g><path d="M460.013929,124.29c-.00322-3.311092-.00322-10.939087-.00322-17.264741L460.863413,0c0,0-.086286,3.73856.013483,8.29l.074529,616.06c.050073,2.037971-.067173,9.290001-.067173,9.290001l.062371-93.924827c0-3.998177.067306-7.368455.067306-16.365174l-1-399.06Z" transform="translate(72.33 615.01)" opacity="0" fill="#2f3649" stroke="#1d2332" stroke-width="5"/><path d="M3,18c0-9.941125.011181-18.000001.011181-18.000001L3.0853,0c0,0-.085178,8.058875-.085178,18v600.370001c0,9.941125.039402,18,.039402,18l-.023955.000002c0,0-.015569-8.058878-.015569-18.000003L3,18Z" transform="translate(365.443615 613.527034)" opacity="0" fill="#1d2332" stroke-width="0"/><path d="M532.994006,731.371621l.000001-4.30681c0-1.977831-.024898-4.382235-.024898-4.382235s.05009-2.442324.05009-2.442324l-.094025-105.182698c0,0-.00359,5.633415-.00359,5.633415l.043103,7.979871.029319,102.700781Z" transform="translate(0 2)" opacity="0" fill="#1d2332" stroke-width="0"/></g><g transform="matrix(.368268-.205566 0.205566 0.368268 298.725509 495.49222)" opacity="0"><circle r="7.15" transform="translate(96.27 635.02)" fill="#ec3f66" stroke-width="0"/><circle r="7.15" transform="translate(124.5 635.01)" fill="#fed359" stroke-width="0"/><path d="M159.94,635.02c0,2.89-1.74,5.5-4.41,6.6s-5.75.49-7.79-1.55-2.66-5.12-1.55-7.79s3.71-4.41,6.6-4.41c3.95,0,7.15,3.2,7.15,7.15v0Z" fill="#01ffb2" stroke-width="0"/></g><g transform="matrix(.299408 0 0 0.299408 374.588635 540.735391)" mask="url(#euaCXRgfniM72)"><path d="M11.13,49.37v-20.23h9.51c2.41,0,4.25.48,5.52,1.43s1.91,2.23,1.91,3.83c0,1.08-.25,2-.75,2.76-.47117.71618-1.09331,1.2814-1.86641,1.68729.24316.07798.47862.16894.70641.27271.91.41,1.62,1.02,2.14,1.81s.78,1.77.78,2.95c0,1.73-.66,3.08-1.98,4.05-1.32.96-3.28,1.44-5.88,1.44h-10.09Zm3.76-2.95h6.1c1.39,0,2.46-.23,3.21-.69s1.13-1.2,1.13-2.22-.38-1.74-1.13-2.21-1.82-.71-3.21-.71h-6.1v5.83Zm5.32-8.75c1.29,0,2.29-.23,3-.69s1.07-1.16,1.07-2.08-.36-1.65-1.07-2.11-1.71-.69-3-.69h-5.32v5.57h5.32ZM39.3,49.58c-1.31,0-2.47-.25-3.47-.74s-1.79-1.24-2.36-2.25-.85-2.29-.85-3.83v-8.81h3.64v8.35c0,1.37.32,2.39.95,3.08.64.68,1.52,1.03,2.66,1.03.85,0,1.59-.17,2.23-.52s1.13-.87,1.47-1.56c.35-.69.52-1.55.52-2.57v-7.8h3.61v15.43h-3.44v-1.97112c-.45156.55005-1.00823,1.00376-1.67,1.36112-1,.54-2.1.81-3.29.81v-.01ZM54.26,31.4c.00168,0,.00337,0,.00505,0s.0033,0,.00495,0h-.01Zm-1.65-.64c-.43-.42-.65-.94-.65-1.56c0-.58.22-1.08.65-1.5s.99-.64,1.66-.64s1.23.2,1.66.59.65.9.65,1.52-.21,1.14-.64,1.58c-.41899.42897-.97731.64894-1.67495.65-.66781-.00103-1.22611-.21106-1.65505-.64Zm-.13,18.61v-15.43h3.58v15.43h-3.58Zm8.35,0v-21.44h3.58v21.44h-3.58Zm14.85.21c-1.48,0-2.82-.33-4-.98s-2.11-1.57-2.79-2.76c-.67-1.18-1.01-2.58-1.01-4.18s.34-2.97,1.01-4.16s1.6-2.12,2.79-2.77s2.52-.98,4-.98c1.29,0,2.45.28,3.47.85.55136.30811,1.04136.70388,1.47,1.18574v-7.83574h3.64v21.44h-3.44v-2.02207c-.45139.56353-.98066,1.01421-1.59,1.35207-1.01.57-2.19.85-3.54.85l-.01.01Zm.43-3.06c.87,0,1.64-.2,2.33-.59.68-.39,1.23-.96,1.65-1.71.41-.74.62-1.59.62-2.56s-.21-1.83-.62-2.56c-.41-.72-.96-1.28-1.65-1.68-.68-.39-1.46-.59-2.33-.59s-1.64.2-2.33.59c-.68.4-1.23.95-1.65,1.68-.42.72-.62,1.57-.62,2.56s.21,1.82.62,2.56.96,1.31,1.65,1.71c.68.4,1.46.59,2.33.59ZM90.81,31.4c.00168,0,.00337,0,.00505,0s.0033,0,.00495,0h-.01Zm-1.65-.64c-.43-.42-.65-.94-.65-1.56c0-.58.22-1.08.65-1.5s.99-.64,1.66-.64s1.23.2,1.66.59.65.9.65,1.52-.21,1.14-.64,1.58c-.41899.42897-.97731.64894-1.67495.65-.66781-.00103-1.22611-.21106-1.65505-.64Zm-.13,18.61v-15.43h3.58v15.43h-3.58Zm17.08-15.63c1.25,0,2.36.24,3.31.72s1.71,1.22,2.28,2.23c.57,1,.85,2.28.85,3.84v8.84h-3.61v-8.38c0-1.37-.32-2.39-.95-3.06s-1.54-1.01-2.72-1.01c-.85,0-1.6.17-2.25.52-.66.35-1.16.86-1.52,1.55-.36.68-.54,1.55-.54,2.59v7.8h-3.58v-15.43h3.44v1.97618c.45826-.55233,1.02965-1.00772,1.72-1.36618c1.03-.54,2.22-.81,3.57-.81v-.01Zm17.6,14.94c-1.48,0-2.81-.31-3.99-.94-1.17-.63-2.1-1.5-2.79-2.61-.68-1.12-1.03-2.42-1.03-3.9s.34-2.82,1.03-3.94c.68-1.13,1.61-2,2.79-2.61s2.5-.92,3.99-.92c1.31,0,2.49.27,3.54.79.69099.34879,1.28671.81884,1.79,1.413v-2.033h3.44v13.09c0,2.79-.71,4.85-2.14,6.17s-3.49,1.98-6.18,1.98l.01.01c-1.44,0-2.84-.19-4.18-.56-1.34-.38-2.45-.93-3.34-1.66l1.62-2.69c.67.56,1.52,1.01,2.54,1.36s2.08.52,3.18.52c1.68,0,2.91-.39,3.7-1.17s1.18-1.96,1.18-3.54v-.78639c-.46593.5081-1.00526.92023-1.62,1.23639-1.05.54-2.23.81-3.54.81v-.02Zm.55-3.06c.91,0,1.71-.19,2.43-.56.71-.38,1.27-.9,1.66-1.56s.59-1.42.59-2.27-.2-1.66-.59-2.31c-.4-.65-.95-1.17-1.66-1.53-.71-.37-1.52-.55-2.43-.55s-1.72.18-2.44.55-1.28.88-1.68,1.53c-.39.66-.59,1.43-.59,2.31s.2,1.6.59,2.27.95,1.18,1.68,1.56c.72.38,1.54.56,2.44.56Zm29.7-11.88c1.25,0,2.36.24,3.31.72s1.71,1.22,2.28,2.23c.57,1,.85,2.28.85,3.84v8.84h-3.61v-8.38c0-1.37-.32-2.39-.95-3.06s-1.54-1.01-2.72-1.01c-.85,0-1.6.17-2.25.52-.66.35-1.16.86-1.52,1.55-.36.68-.54,1.55-.54,2.59v7.8h-3.58v-15.43h3.44v1.97618c.45826-.55233,1.02965-1.00772,1.72-1.36618c1.03-.54,2.22-.81,3.57-.81v-.01Zm18.32,15.84c-1.71,0-3.21-.34-4.49-1.03-1.28-.68-2.27-1.62-2.98-2.8s-1.05-2.55-1.05-4.09.34-2.9,1.03-4.09c.68-1.18,1.63-2.12,2.83-2.8s2.58-1.03,4.12-1.03s2.84.33,4.02,1c1.17.66,2.1,1.59,2.77,2.79.67,1.19,1.01,2.61,1.01,4.25c0,.13,0,.3-.01.51-.01.2-.02.38-.04.53h-12.11245c.09745.5292.27575,1.0192.53245,1.47.41.71,1.01,1.27,1.78,1.66.77.4,1.67.59,2.69.59.87,0,1.65-.14,2.34-.43s1.31-.71,1.85-1.27l1.96,2.25c-.71.81-1.59,1.43-2.64,1.85s-2.25.64-3.6.64h-.01Zm3.32-10.74c-.38-.68-.89-1.21-1.55-1.59-.65-.38-1.43-.56-2.31-.56s-1.64.19-2.33.56-1.21.91-1.57,1.6c-.25304.47189-.41722.99522-.49573,1.57h8.76053c-.06951-.57079-.23778-1.09515-.5048-1.58Zm10.52,10.53l-5.66-15.43h3.41l4.07238,11.35759L192.19,33.94h3.03l4.16244,11.39855L203.57,33.94h3.21l-5.69,15.43h-3.47l-3.96631-10.6683L189.59,49.37h-3.47Zm31.15,5.61v-21.04h3.44v1.95915c.44382-.52998.9665-.95839,1.57-1.28915c1.04-.57,2.21-.85,3.5-.85c1.5,0,2.84.33,4.02.98c1.17.66,2.1,1.58,2.79,2.77.68,1.19,1.03,2.58,1.03,4.16s-.34,2.99-1.03,4.18c-.68,1.19-1.61,2.1-2.79,2.76s-2.51.98-4.02.98l.01-.01c-1.27,0-2.42-.28-3.44-.85-.55996-.31292-1.05662-.71624-1.49-1.20999v7.44999h-3.58l-.01.01Zm8.09-8.46c.89,0,1.67-.2,2.36-.61.68-.4,1.23-.97,1.63-1.7.41-.73.61-1.58.61-2.54s-.2-1.83-.61-2.56c-.4-.72-.95-1.28-1.63-1.68-.68-.39-1.47-.59-2.36-.59s-1.62.2-2.31.59c-.69.4-1.24.95-1.65,1.68-.4.72-.61,1.57-.61,2.56s.2,1.81.61,2.54.95,1.3,1.65,1.7c.69.4,1.46.61,2.31.61Zm11.73,2.85v-15.43h3.44v2.25189c.43635-.6751,1.02906-1.21437,1.77-1.62189c1-.55,2.23-.82,3.67-.82v3.44c-.13-.02-.27-.03-.4-.04-.13,0-.26-.01-.38-.01-1.39,0-2.49.4-3.29,1.18-.81.79-1.21,1.99-1.21,3.61v7.46h-3.58l-.02-.02Zm18.76.21c-1.56,0-2.96-.34-4.2-1.03-1.24-.68-2.22-1.62-2.93-2.82-.71-1.19-1.07-2.55-1.07-4.07s.36-2.93,1.07-4.1s1.69-2.1,2.92-2.79c1.23-.68,2.64-1.03,4.22-1.03s3.02.34,4.26,1.03c1.24.68,2.22,1.61,2.92,2.79s1.05,2.54,1.05,4.1-.35,2.9-1.05,4.09-1.68,2.12-2.93,2.8-2.67,1.03-4.25,1.03h-.01Zm0-3.06c.89,0,1.68-.2,2.37-.59s1.24-.96,1.63-1.71c.39-.74.59-1.59.59-2.56s-.2-1.83-.59-2.56c-.39-.72-.94-1.28-1.63-1.68-.69-.39-1.47-.59-2.34-.59s-1.65.2-2.34.59c-.69.4-1.24.95-1.65,1.68-.4.72-.61,1.57-.61,2.56s.2,1.82.61,2.56c.4.74.95,1.31,1.65,1.71.69.4,1.46.59,2.31.59Zm10.08,8.66c-.66,0-1.29-.08-1.89-.23-.61-.16-1.12-.38-1.55-.67l1.04-2.69c.56.4,1.26.61,2.11.61.66,0,1.17-.21,1.53-.62.37-.41.55-1.03.55-1.83v-15.81h3.61v15.72c0,1.69-.47,3.04-1.4,4.03-.94.99-2.27,1.49-4,1.49ZM269.5,31.4c.00168,0,.00337,0,.00505,0s.0033,0,.00495,0h-.01Zm-1.65-.64c-.43-.42-.65-.94-.65-1.56c0-.58.22-1.08.65-1.5s.99-.64,1.66-.64s1.23.2,1.66.59.65.9.65,1.52-.21,1.14-.64,1.58c-.41899.42897-.97731.64894-1.67495.65-.66781-.00103-1.22611-.21106-1.65505-.64Zm15.48,18.82c-1.71,0-3.21-.34-4.49-1.03-1.28-.68-2.27-1.62-2.98-2.8s-1.05-2.55-1.05-4.09.34-2.9,1.03-4.09c.68-1.18,1.63-2.12,2.83-2.8s2.58-1.03,4.12-1.03s2.84.33,4.02,1c1.17.66,2.1,1.59,2.77,2.79.67,1.19,1.01,2.61,1.01,4.25c0,.13,0,.3-.01.51-.01.2-.02.38-.04.53h-12.11245c.09745.5292.27575,1.0192.53245,1.47.41.71,1.01,1.27,1.78,1.66.77.4,1.67.59,2.69.59.87,0,1.65-.14,2.34-.43s1.31-.71,1.85-1.27l1.96,2.25c-.71.81-1.59,1.43-2.64,1.85s-2.25.64-3.6.64h-.01Zm3.32-10.74c-.38-.68-.89-1.21-1.55-1.59-.65-.38-1.43-.56-2.31-.56s-1.64.19-2.33.56-1.21.91-1.57,1.6c-.25304.47189-.41722.99522-.49573,1.57h8.76053c-.06951-.57079-.23778-1.09515-.5048-1.58Zm14.48,10.74c-1.62,0-3.06-.34-4.32-1.03-1.26-.68-2.25-1.62-2.96-2.8s-1.07-2.55-1.07-4.09.36-2.93,1.07-4.1s1.7-2.1,2.96-2.79c1.26-.68,2.7-1.03,4.32-1.03c1.48,0,2.8.31,3.96.92c1.16.62,2.02,1.51,2.6,2.69l-2.75,1.62c-.46-.71-1.03-1.25-1.69-1.6-.67-.36-1.38-.53-2.15-.53-.89,0-1.69.2-2.4.59-.71.4-1.27.95-1.68,1.68-.4.72-.61,1.57-.61,2.56s.2,1.84.61,2.57c.4.73.96,1.3,1.68,1.69.71.4,1.51.59,2.4.59.77,0,1.49-.18,2.15-.53.66-.36,1.23-.9,1.69-1.63l2.75,1.62c-.58,1.16-1.45,2.05-2.6,2.67-1.16.63-2.48.94-3.96.94v-.01Zm7.86-12.63v-2.89h2.54v-3.52h3.58v3.52h4.17v2.89h-4.17v7.34c0,.73.19,1.3.58,1.71.39.4.92.61,1.62.61.79,0,1.45-.21,1.96-.64l1.04,2.57c-.44.35-.97.61-1.59.78-.61853.1696-1.23707.25957-1.87546.26-1.69733-.00094-2.99554-.44093-3.92454-1.31-.93-.87-1.39-2.16-1.39-3.86v-7.46h-2.54Zm7.85,12.63c.00151,0,.00303,0,.00454,0c.00182,0,.00364,0,.00546,0h-.01Zm11.25,0c-1.31,0-2.55-.17-3.73-.51-1.17-.34-2.12-.75-2.83-1.23l1.39-2.75c.69.44,1.52.8,2.48,1.08s1.94.42,2.92.42c1.12,0,1.93-.15,2.44-.45s.77-.71.77-1.23c0-.42-.17-.75-.52-.97s-.8-.39-1.36-.51-1.18-.22-1.86-.32-1.37-.23-2.05-.39-1.31-.4-1.86-.72-1.01-.75-1.36-1.29-.52-1.26-.52-2.17c0-.96.28-1.81.84-2.53s1.34-1.29,2.35-1.69s2.21-.61,3.6-.61c1.02,0,2.07.12,3.14.36s1.96.57,2.67,1l-1.42,2.75c-.71-.42-1.44-.72-2.2-.88-.75-.16-1.49-.25-2.22-.25-1.08,0-1.89.16-2.43.48s-.81.73-.81,1.23c0,.46.17.81.52,1.04s.8.41,1.36.53c.56.13,1.18.24,1.86.35s1.36.24,2.04.4c.67.16,1.29.4,1.86.69.57.3,1.03.72,1.37,1.26s.52,1.24.52,2.11c0,.98-.28,1.83-.85,2.53s-1.37,1.25-2.4,1.65c-1.03.39-2.27.59-3.71.59v.03Zm9.13,4.19l1.14454-4.46717c-.24534-.10201-.46741-.24323-.66454-.42283-.45-.41-.68-.99-.68-1.72s.23-1.29.68-1.72s1.01-.65,1.66-.65c.69,0,1.26.22,1.69.67.43.44.65,1.01.65,1.7c0,.21-.02.43-.06.65s-.11.48-.2.77c-.1.29-.23.66-.4,1.1l-1.5,4.1h-2.31l-.01-.01ZM71.33,89.66v-21.04h3.44v1.94915c.44382-.52998.9665-.95839,1.57-1.28915c1.04-.57,2.21-.85,3.5-.85c1.5,0,2.84.33,4.02.98c1.17.66,2.1,1.58,2.79,2.77.68,1.2,1.03,2.58,1.03,4.16s-.34,2.99-1.03,4.18-1.61,2.1-2.79,2.76c-1.17863.65923-2.50691.97926-4.01473.98-1.26812-.0007-2.41653-.28071-3.43527-.85-.55996-.31292-1.05662-.71624-1.49-1.21164v7.45164h-3.58l-.01.01Zm8.51-5.4c.00176,0,.00351,0,.00527,0c.00158,0,.00316,0,.00473,0h-.01Zm-.42-3.06c.89,0,1.67-.2,2.36-.61.68-.4,1.23-.97,1.63-1.71.41-.73.61-1.58.61-2.54s-.2-1.83-.61-2.56c-.4-.72-.95-1.28-1.63-1.68-.68-.39-1.47-.59-2.36-.59s-1.62.2-2.31.59c-.69.4-1.24.95-1.65,1.68-.4.72-.61,1.57-.61,2.56s.2,1.81.61,2.54.95,1.3,1.65,1.71s1.46.61,2.31.61ZM92.94,66.08c.00168,0,.00337,0,.00505,0s.0033,0,.00495,0h-.01Zm-1.65-.64c-.43-.43-.65-.94-.65-1.56c0-.58.22-1.08.65-1.5s.99-.64,1.66-.64s1.23.2,1.66.59c.43.4.65.9.65,1.52s-.21,1.14-.64,1.58c-.41899.42897-.97731.64894-1.67495.65-.66781-.00103-1.22611-.21106-1.65505-.64Zm-.13,18.61v-15.43h3.58v15.43h-3.58Zm15.57.2c-1.71,0-3.21-.34-4.49-1.03-1.28-.68-2.27-1.62-2.98-2.8s-1.05-2.55-1.05-4.09.34-2.9,1.03-4.09c.68-1.18,1.63-2.12,2.83-2.8s2.58-1.03,4.12-1.03s2.84.33,4.02,1c1.17.66,2.1,1.59,2.77,2.79.67,1.19,1.01,2.61,1.01,4.25c0,.13,0,.3-.01.5s-.02.38-.04.54h-12.11245c.09745.5292.27575,1.0192.53245,1.47.41.71,1.01,1.27,1.78,1.66.77.4,1.67.59,2.69.59.87,0,1.65-.14,2.34-.43s1.31-.71,1.85-1.27l1.96,2.25c-.71.81-1.59,1.43-2.64,1.85s-2.25.64-3.6.64h-.01Zm3.32-10.74c-.38-.68-.89-1.21-1.55-1.59-.65-.38-1.43-.56-2.31-.56s-1.64.19-2.33.56c-.68.38-1.21.91-1.57,1.6-.25304.47189-.41722.99522-.49573,1.57h8.76053c-.06951-.57079-.23778-1.09515-.5048-1.58Zm14.48,10.74c-1.62,0-3.06-.34-4.32-1.03-1.26-.68-2.25-1.62-2.96-2.8s-1.07-2.55-1.07-4.09.36-2.93,1.07-4.1s1.7-2.1,2.96-2.79c1.26-.68,2.7-1.03,4.32-1.03c1.48,0,2.8.31,3.96.92c1.16.62,2.02,1.51,2.6,2.69l-2.75,1.62c-.46-.71-1.03-1.25-1.69-1.6-.67-.36-1.38-.53-2.15-.53-.89,0-1.69.2-2.4.59-.71.4-1.27.95-1.68,1.68-.4.72-.61,1.57-.61,2.56s.2,1.84.61,2.57.96,1.3,1.68,1.69s1.51.59,2.4.59c.77,0,1.49-.18,2.15-.53.66-.36,1.23-.9,1.69-1.63l2.75,1.62c-.58,1.16-1.45,2.05-2.6,2.67-1.16.63-2.48.94-3.96.94v-.01Zm16.73,0c-1.71,0-3.21-.34-4.49-1.03-1.28-.68-2.27-1.62-2.98-2.8s-1.05-2.55-1.05-4.09.34-2.9,1.03-4.09c.68-1.18,1.63-2.12,2.83-2.8s2.58-1.03,4.12-1.03s2.84.33,4.02,1c1.17.66,2.1,1.59,2.77,2.79.67,1.19,1.01,2.61,1.01,4.25c0,.13,0,.3-.01.5s-.02.38-.04.54h-12.11245c.09745.5292.27575,1.0192.53245,1.47.41.71,1.01,1.27,1.78,1.66.77.4,1.67.59,2.69.59.87,0,1.65-.14,2.34-.43s1.31-.71,1.85-1.27l1.96,2.25c-.71.81-1.59,1.43-2.64,1.85s-2.25.64-3.6.64h-.01Zm3.32-10.74c-.38-.68-.89-1.21-1.55-1.59-.65-.38-1.43-.56-2.31-.56s-1.64.19-2.33.56c-.68.38-1.21.91-1.57,1.6-.25304.47189-.41722.99522-.49573,1.57h8.76053c-.06951-.57079-.23778-1.09515-.5048-1.58Zm15.4,10.53h.01v.01l-.01-.01Zm.01-21.43h3.58v7.88703c.43808-.50143.94141-.90929,1.51-1.22703c1.02-.57,2.17-.85,3.44-.85c1.5,0,2.84.33,4.02.98c1.17.66,2.1,1.58,2.79,2.77.68,1.2,1.03,2.58,1.03,4.16s-.34,2.99-1.03,4.18-1.61,2.1-2.79,2.76-2.51.98-4.02.98h-.01c-1.29,0-2.46-.28-3.5-.85-.61064-.33468-1.14199-.77278-1.59-1.31634v1.95634h-3.43v-21.43Zm8.09,18.58c.89,0,1.67-.2,2.36-.59.68-.39,1.23-.96,1.63-1.71.41-.74.61-1.59.61-2.56s-.2-1.83-.61-2.56c-.4-.72-.95-1.28-1.63-1.68-.68-.39-1.47-.59-2.36-.59s-1.62.2-2.31.59c-.69.4-1.24.95-1.65,1.68-.4.72-.61,1.57-.61,2.56s.2,1.82.61,2.56.95,1.31,1.65,1.71s1.46.59,2.31.59Zm12.57,8.67c-.77,0-1.53-.12-2.28-.38-.75-.25-1.37-.6-1.85-1.04l1.42-2.63c.37.31.78.56,1.23.75s.93.29,1.43.29c.65,0,1.18-.16,1.59-.49.4-.33.78-.89,1.13-1.68l.25986-.58543L176.84,68.62h3.73l4.89702,11.46367L190.35,68.62h3.47l-7.22,16.7c-.48,1.14-1.02,2.04-1.6,2.7-.59.67-1.24,1.14-1.97,1.42-.72.28-1.51.42-2.35.42h-.03Zm23.4-.2v-21.04h3.44v1.94915c.44382-.52998.9665-.95839,1.57-1.28915c1.04-.57,2.21-.85,3.5-.85c1.5,0,2.84.33,4.02.98c1.17.66,2.1,1.58,2.79,2.77.68,1.2,1.03,2.58,1.03,4.16s-.34,2.99-1.03,4.18-1.61,2.1-2.79,2.76c-1.17863.65923-2.50691.97926-4.01473.98-1.26812-.0007-2.41653-.28071-3.43527-.85-.55996-.31292-1.05662-.71624-1.49-1.21164v7.45164h-3.58l-.01.01Zm8.51-5.4c.00176,0,.00351,0,.00527,0c.00158,0,.00316,0,.00473,0h-.01Zm-.42-3.06c.89,0,1.67-.2,2.36-.61.68-.4,1.23-.97,1.63-1.71.41-.73.61-1.58.61-2.54s-.2-1.83-.61-2.56c-.4-.72-.95-1.28-1.63-1.68-.68-.39-1.47-.59-2.36-.59s-1.62.2-2.31.59c-.69.4-1.24.95-1.65,1.68-.4.72-.61,1.57-.61,2.56s.2,1.81.61,2.54.95,1.3,1.65,1.71s1.46.61,2.31.61Zm13.52-15.12c.00168,0,.00337,0,.00505,0s.0033,0,.00495,0h-.01Zm-1.65-.64c-.43-.43-.65-.94-.65-1.56c0-.58.22-1.08.65-1.5s.99-.64,1.66-.64s1.23.2,1.66.59c.43.4.65.9.65,1.52s-.21,1.14-.64,1.58c-.41899.42897-.97731.64894-1.67495.65-.66781-.00103-1.22611-.21106-1.65505-.64Zm-.13,18.61v-15.43h3.58v15.43h-3.58Zm15.57.2c-1.71,0-3.21-.34-4.49-1.03-1.28-.68-2.27-1.62-2.98-2.8s-1.05-2.55-1.05-4.09.34-2.9,1.03-4.09c.68-1.18,1.63-2.12,2.83-2.8s2.58-1.03,4.12-1.03s2.84.33,4.02,1c1.17.66,2.1,1.59,2.77,2.79.67,1.19,1.01,2.61,1.01,4.25c0,.13,0,.3-.01.5s-.02.38-.04.54h-12.11245c.09745.5292.27575,1.0192.53245,1.47.41.71,1.01,1.27,1.78,1.66.77.4,1.67.59,2.69.59.87,0,1.65-.14,2.34-.43s1.31-.71,1.85-1.27l1.96,2.25c-.71.81-1.59,1.43-2.64,1.85s-2.25.64-3.6.64h-.01Zm3.32-10.74c-.38-.68-.89-1.21-1.55-1.59-.65-.38-1.43-.56-2.31-.56s-1.64.19-2.33.56c-.68.38-1.21.91-1.57,1.6-.25304.47189-.41722.99522-.49573,1.57h8.76053c-.06951-.57079-.23778-1.09515-.5048-1.58Zm14.48,10.74c-1.62,0-3.06-.34-4.32-1.03-1.26-.68-2.25-1.62-2.96-2.8s-1.07-2.55-1.07-4.09.36-2.93,1.07-4.1s1.7-2.1,2.96-2.79c1.26-.68,2.7-1.03,4.32-1.03c1.48,0,2.8.31,3.96.92c1.16.62,2.02,1.51,2.6,2.69l-2.75,1.62c-.46-.71-1.03-1.25-1.69-1.6-.67-.36-1.38-.53-2.15-.53-.89,0-1.69.2-2.4.59-.71.4-1.27.95-1.68,1.68-.4.72-.61,1.57-.61,2.56s.2,1.84.61,2.57.96,1.3,1.68,1.69s1.51.59,2.4.59c.77,0,1.49-.18,2.15-.53.66-.36,1.23-.9,1.69-1.63l2.75,1.62c-.58,1.16-1.45,2.05-2.6,2.67-1.16.63-2.48.94-3.96.94v-.01Zm16.73,0c-1.71,0-3.21-.34-4.49-1.03-1.28-.68-2.27-1.62-2.98-2.8s-1.05-2.55-1.05-4.09.34-2.9,1.03-4.09c.68-1.18,1.63-2.12,2.83-2.8s2.58-1.03,4.12-1.03s2.84.33,4.02,1c1.17.66,2.1,1.59,2.77,2.79.67,1.19,1.01,2.61,1.01,4.25c0,.13,0,.3-.01.5s-.02.38-.04.54h-12.11245c.09745.5292.27575,1.0192.53245,1.47.41.71,1.01,1.27,1.78,1.66.77.4,1.67.59,2.69.59.87,0,1.65-.14,2.34-.43s1.31-.71,1.85-1.27l1.96,2.25c-.71.81-1.59,1.43-2.64,1.85s-2.25.64-3.6.64h-.01Zm3.32-10.74c-.38-.68-.89-1.21-1.55-1.59-.65-.38-1.43-.56-2.31-.56s-1.64.19-2.33.56c-.68.38-1.21.91-1.57,1.6-.25304.47189-.41722.99522-.49573,1.57h8.76053c-.06951-.57079-.23778-1.09515-.5048-1.58Z" transform="matrix(1.265651 0 0 1.265651 311.394624 697.836418)" opacity="0" fill="#fff" stroke-width="0"/><mask id="euaCXRgfniM72" mask-type="luminance" x="-150%" y="-150%" height="400%" width="400%"><rect width="507.138562" height="125.561638" rx="0" ry="0" transform="matrix(.887568 0 0 0.800758 309.757842 722.497987)" fill="#fff" stroke-width="0"/></mask></g><g transform="translate(-11.752608-2.876319)" mask="url(#euaCXRgfniM118)"><g transform="matrix(.145631 0 0 0.145631 396.838628 872.42275)" opacity="0"><g id="euaCXRgfniM76_to" transform="translate(1159.401175,1193.424264)"><g transform="translate(-1000.000061,-999.999969)"><g id="euaCXRgfniM77_to" transform="translate(1182.054444,1097.444489)"><g transform="translate(-26.715027,-1470.143616)"><g transform="translate(-1566.537075 1372.701661)"><polygon points="1154.65,148.15 1411.24,296.31 1667.83,148.15 1411.24,0 1154.65,148.15" fill="#9edaff"/><polygon points="1411.24,296.31 1411.24,444.46 1154.65,296.31 1154.65,148.15 1411.24,296.31" transform="translate(.02 0)" fill="#6cc2f8"/><polygon points="1667.83,148.15 1667.83,296.31 1411.24,444.46 1411.24,296.31 1667.83,148.15" fill="#009cff"/><path d="M1360.48,58.01h101.5l-.03644,30.89714c.04341.51546.06377,1.0343.06049,1.55618-.00291.46267-.02436.92273-.06395,1.37993l-.0001.08675h-.00763c-1.42129,15.50277-23.69909,27.70455-50.89154,27.53369-26.81921-.16851-48.7069-12.3113-50.47927-27.53369h-.08157v-.90876c-.02506-.39678-.03647-.79551-.03395-1.19602.00206-.32774.01342-.65416.03395-.97919L1360.48,58.01Zm0,148.15h101.5l-.03647,30.93269c.04142.50404.0608,1.0113.0576,1.52146-.00283.45096-.02329.89943-.06098,1.3452l-.00015.13065h-.01139c-1.42923,15.49841-23.7036,27.69534-50.8907,27.52452-26.81383-.16848-48.69811-12.30642-50.4782-27.52452h-.07972v-.87265c-.02709-.41173-.03948-.82555-.03687-1.2413.00215-.34297.0145-.68449.03687-1.02448L1360.48,206.16Zm128.3-74.08h101.49l-.02737,30.95936c.04033.49762.05917.99836.056,1.50194-.00277.44096-.02239.87955-.0585,1.31555l-.00014.15315h-.01324c-1.42304,15.50181-23.70008,27.70252-50.89135,27.53167-26.81802-.1685-48.70496-12.31023-50.47903-27.53167h-.07638v-.82812c-.02883-.42405-.04206-.85034-.03937-1.27868.00223-.35554.01542-.70952.03937-1.06186L1488.78,132.08Zm-256.59,0h101.49l-.0273,30.87149c.04567.52814.06714,1.05985.06378,1.59474-.00297.47226-.02526.94178-.06643,1.40834l-.00005.05543h-.00493c-1.41877,15.50415-23.69765,27.70747-50.89181,27.5366-26.82092-.16852-48.70969-12.31285-50.4796-27.5366h-.08366v-.94503c-.02337-.38385-.03395-.76951-.03152-1.15684.00198-.31457.01253-.62793.03152-.94v-30.88813Z" transform="translate(.000001 0)" fill="#009cff"/><path d="M1411.04146,87.32175c-28.04447-.17621-50.69652-13.4458-50.59478-29.63847s22.91875-29.17658,50.96322-29.00037s50.69652,13.4458,50.59478,29.63847-22.91875,29.17658-50.96322,29.00037Zm-.00292,148.15083c-28.04447-.17621-50.69652-13.4458-50.59478-29.63847s22.91875-29.17658,50.96322-29.00037s50.69652,13.4458,50.59478,29.63847-22.91875,29.17658-50.96322,29.00037Zm128.29751-74.07291c-28.04447-.17621-50.69652-13.4458-50.59478-29.63847s22.91875-29.17658,50.96322-29.00037s50.69652,13.4458,50.59478,29.63847-22.91875,29.17658-50.96322,29.00037Zm-256.59216.00493c-28.04447-.17621-50.69652-13.4458-50.59478-29.63847s22.91875-29.17658,50.96322-29.00037s50.69652,13.4458,50.59478,29.63847-22.91875,29.17658-50.96322,29.00037Z" fill="#9edaff"/></g><g id="euaCXRgfniM84_to" transform="translate(-143.736596,1305.31839)"><g transform="translate(-26.739502,-1396.063659)"><g transform="translate(-1116.642257 1032.230667)"><polygon points="769.77,370.39 1026.35,518.54 1282.94,370.39 1026.35,222.23 769.77,370.39" fill="#d2e67d"/><polygon points="1026.35,518.54 1026.35,666.69 769.77,518.54 769.77,370.39 1026.35,518.54" fill="#cce113"/><polygon points="1282.94,370.39 1282.94,518.54 1026.35,666.69 1026.35,518.54 1282.94,370.39" fill="#b8d900"/><g><path d="M975.6,280.24h101.49l-.02734,30.92673c.04221.50858.06197,1.02045.05874,1.53527-.00284.4522-.0234.9019-.06129,1.34888l-.00011.11913h-.01041c-1.42244,15.50214-23.69974,27.70321-50.89141,27.53236-26.81843-.1685-48.70562-12.3106-50.47911-27.53236h-.07907v-.86887c-.02691-.41039-.03921-.82286-.0366-1.23724.00215-.3416.0144-.68177.0366-1.02042v-30.80348Z" fill="#b8d900"/><path d="M975.6,428.39h101.49l-.02738,30.96284c.04022.49697.05901.99706.05585,1.49998-.00277.4403-.02233.87823-.05833,1.31359l-.00014.15359h-.01326c-1.42172,15.50253-23.69933,27.70404-50.89149,27.53319-26.81891-.16851-48.70642-12.31104-50.47921-27.53319h-.07605v-.82429c-.02894-.42482-.04222-.85188-.03953-1.28099.00224-.35631.01548-.71107.03953-1.06417L975.6,428.39Z" fill="#b8d900"/><path d="M1103.89,354.31h101.5l-.03641,30.88071c.04476.52306.06577,1.0496.06245,1.57926-.00296.47046-.02509.9382-.06596,1.403l-.00008.06703h-.00595c-1.42419,15.50118-23.70074,27.70118-50.89123,27.53034-26.81724-.1685-48.70369-12.30952-50.47887-27.53034h-.08395v-.94416c-.02367-.3862-.0344-.77424-.03195-1.16397.00199-.31697.01269-.6327.03195-.94714v-30.87473Z" fill="#b8d900"/><path d="M847.31,354.31h101.49l-.03631,30.79776c.05007.55195.07371,1.1078.07019,1.66715-.10174,16.19267-22.91875,29.17658-50.96322,29.00037-26.82014-.16851-48.70842-12.31214-50.47945-27.53528h-.08122v-.90461c-.02517-.39763-.03663-.79721-.03411-1.19858.00206-.3286.01348-.65588.03411-.98175L847.31,354.31Z" fill="#b8d900"/></g><g><path d="M1026.16881,309.56043c-28.04447-.17621-50.69652-13.4458-50.59478-29.63847s22.91875-29.17658,50.96322-29.00037s50.69652,13.4458,50.59478,29.63847-22.91875,29.17658-50.96322,29.00037Zm-.01292,148.15083c-28.04447-.17621-50.69652-13.4458-50.59478-29.63847s22.91875-29.17658,50.96322-29.00037s50.69652,13.4458,50.59478,29.63847-22.91875,29.17658-50.96322,29.00037Zm128.29757-74.08292c-28.04447-.17621-50.69652-13.4458-50.59478-29.63847s22.91875-29.17658,50.96322-29.00037s50.69652,13.4458,50.59478,29.63847-22.91875,29.17658-50.96322,29.00037Zm-256.59216.00494c-28.04447-.17621-50.69652-13.4458-50.59478-29.63847s22.91875-29.17658,50.96322-29.00037s50.69652,13.4458,50.59478,29.63847-22.91875,29.17658-50.96322,29.00037Z" fill="#d2e67d"/></g></g><g id="euaCXRgfniM96_to" transform="translate(25.013214,1320.615609)"><g transform="translate(-26.742096,-1321.99115)"><g transform="translate(-846.565271 595.581465)"><polygon points="384.88,592.62 641.47,740.77 898.06,592.62 641.47,444.46 384.88,592.62" transform="translate(0 0.005)" fill="#f9d942"/><polygon points="641.47,740.77 641.47,888.93 384.88,740.77 384.88,592.62 641.47,740.77" fill="#fbc700"/><polygon points="898.06,592.62 898.06,740.77 641.47,888.93 641.47,740.77 898.06,592.62" fill="#f8b700"/><g><path d="M590.72,502.47h101.49l-.02652,29.99659c.03986.49485.05847.9928.05533,1.49355-.00275.43814-.02214.87392-.0578,1.30716l-.001,1.13271h-.13001c-2.24293,15.0371-24.15356,26.72777-50.7744,26.5605-26.24514-.1649-47.76762-11.79695-50.33795-26.5605h-.21764v-1.80191c-.02871-.42319-.04188-.84861-.03919-1.27606.00223-.35465.01535-.70777.03919-1.05924L590.72,502.47Z" fill="#f8b700"/><path d="M590.72,650.62h101.49l-.0273,30.87377c.04526.52586.06652,1.05525.06318,1.58779-.00295.46991-.02504.93713-.06582,1.40139L692.18,684.55h-.00596c-1.42281,15.50193-23.69995,27.70278-50.89137,27.53193-26.81817-.1685-48.70521-12.31036-50.47906-27.53193h-.0836v-.93995c-.02378-.38707-.03457-.77598-.03212-1.16659.002-.31785.01275-.63446.03212-.94976L590.72,650.62Zm128.29-74.07h101.5l-.0363,30.78631c.04977.55037.07326,1.10462.06976,1.66234-.10174,16.19267-22.91875,29.17658-50.96322,29.00037-26.81646-.16849-48.70242-12.30882-50.47872-27.52902h-.09152v-1.07428c-.01848-.34365-.02672-.68874-.02454-1.03517.00172-.2737.00993-.54648.02454-.8183v-30.99225Z" transform="translate(.000001 0)" fill="#f8b700"/><path d="M462.42,576.55h101.5l-.03634,30.8149c.04832.54259.07109,1.08896.06763,1.63869-.00308.49051-.02701.97807-.07129,1.46242v.004h-.00036c-1.42106,15.50289-23.69896,27.70481-50.89156,27.53395-26.81936-.16851-48.70715-12.31144-50.4793-27.53395h-.08878v-1.03009c-.02-.35663-.02896-.7148-.0267-1.07443.0018-.28688.01073-.57275.0267-.85757v-30.95792Z" transform="translate(0 0.000001)" fill="#f8b700"/></g><g><path d="M641.28622,531.7891c-28.04447-.17621-50.69652-13.4458-50.59478-29.63847s22.91875-29.17658,50.96322-29.00037s50.69652,13.4458,50.59478,29.63847-22.91875,29.17658-50.96322,29.00037Zm-.00292,148.15083c-28.04447-.17621-50.69652-13.4458-50.59478-29.63847s22.91875-29.17658,50.96322-29.00037s50.69652,13.4458,50.59478,29.63847-22.91875,29.17658-50.96322,29.00037Zm128.29757-74.08285c-28.04447-.17621-50.69652-13.4458-50.59478-29.63847s22.91875-29.17658,50.96322-29.00037s50.69652,13.4458,50.59478,29.63847-22.91875,29.17658-50.96322,29.00037Zm-256.59216.00494c-28.04447-.17621-50.69652-13.4458-50.59478-29.63847s22.91875-29.17658,50.96322-29.00037s50.69652,13.4458,50.59478,29.63847-22.91875,29.17658-50.96322,29.00037Z" transform="translate(0 0.000001)" fill="#f9d942"/></g></g><g id="euaCXRgfniM107_to" transform="translate(-310.652235,1053.28749)"><g transform="translate(-256.589996,-888.925018)"><polygon points="0,814.85 256.59,963 513.18,814.85 256.59,666.69 0,814.85" fill="#ffaad4"/><polygon points="256.59,963 256.59,1111.16 0,963 0,814.85 256.59,963" fill="#ff7dbd"/><polygon points="513.18,814.85 513.18,963 256.59,1111.16 256.59,963 513.18,814.85" fill="#ff3f9d"/><g><path d="M205.83,724.7h101.5l-.03626,30.75723c.05163.56015.07604,1.12433.07247,1.69211-.10174,16.19267-22.91875,29.17658-50.96322,29.00037-26.811-.16846-48.6935-12.30387-50.47763-27.51971h-.09537v-1.13649c-.01654-.32616-.02385-.65362-.02178-.98227.00161-.25594.00889-.51108.02178-.76538L205.83,724.7Z" transform="translate(.000001 0)" fill="#ff3f9d"/><path d="M205.83,872.85h101.5l-.03631,30.79962c.04967.5498.0731,1.10348.0696,1.66061-.10174,16.19267-22.91875,29.17658-50.96322,29.00037-26.81739-.1685-48.70394-12.30966-50.47891-27.5306h-.09117v-1.06971c-.0186-.34464-.02689-.69073-.0247-1.03816.00173-.2747.00999-.54848.0247-.82129L205.83,872.85Z" transform="translate(0-1.471008)" fill="#ff3f9d"/><path d="M334.13,798.78h101.49l-.02724,30.81403c.0486.54411.07151,1.09201.06804,1.64329-.00307.48864-.02683.97436-.07079,1.45688l-.00001.0158h-.00143c-1.42648,15.49992-23.70204,27.69852-50.89098,27.52769-26.81568-.16849-48.70115-12.30811-50.47857-27.52769h-.08902v-1.02755c-.02034-.35953-.02947-.72065-.0272-1.08323.00182-.28984.01092-.57865.0272-.86637v-30.95285Z" transform="translate(.000001 0)" fill="#ff3f9d"/><path d="M77.54,798.78h101.49l-.02726,30.83311c.04713.53617.06932,1.07602.06591,1.61915-.00302.48049-.02604.95816-.0686,1.43274l-.00004.045h-.00406c-1.43087,15.49751-23.70454,27.69344-50.89052,27.52263-26.81271-.16847-48.69629-12.30542-50.47797-27.52263h-.08745v-.99523c-.02185-.37188-.03171-.74546-.02935-1.12061.0019-.3024.01172-.60367.02935-.90377L77.54,798.78Z" transform="translate(0-1.471007)" fill="#ff3f9d"/></g><g><path d="M256.40363,754.00778c-28.04447-.17621-50.69652-13.4458-50.59478-29.63847s22.91875-29.17658,50.96322-29.00037s50.69652,13.4458,50.59478,29.63847-22.91875,29.17658-50.96322,29.00037Zm-.00292,148.16083c-28.04447-.17621-50.69652-13.4458-50.59478-29.63847s22.91875-29.17658,50.96322-29.00037s50.69652,13.4458,50.59478,29.63847-22.91875,29.17658-50.96322,29.00037Zm128.29751-74.07285c-28.04447-.17621-50.69652-13.4458-50.59478-29.63847s22.91875-29.17658,50.96322-29.00037s50.69652,13.4458,50.59478,29.63847-22.91875,29.17658-50.96322,29.00037Zm-256.58216-.00507c-28.04447-.17621-50.69652-13.4458-50.59478-29.63847s22.91875-29.17658,50.96322-29.00037s50.69652,13.4458,50.59478,29.63847-22.91875,29.17658-50.96322,29.00037Z" fill="#ffaad4"/></g></g></g></g></g></g></g></g></g></g></g></g><mask id="euaCXRgfniM118" mask-type="luminance" x="-150%" y="-150%" height="400%" width="400%"><rect width="409.382614" height="399.397672" rx="0" ry="0" transform="matrix(.721141 0 0 1.026413 666.328643 824.922298)" fill="#fff" stroke-width="0"/></mask></g></g></g><g transform="translate(3 0)"><path d="M303.771636,78.709869l33.143342-.000001" transform="translate(10.852863 0)" fill="none" stroke="#242b3f" stroke-width="8" stroke-linecap="round"/><path d="M303.771636,78.709869l.019945-.000001" transform="translate(57.94842 0)" fill="none" stroke="#242b3f" stroke-width="8" stroke-linecap="round"/></g><path d="M227.40363,78.709869c24.862189,0,100.222942-.000001,100.222942-.000001" transform="translate(63.484892 443.612828)" fill="none" stroke="#242b3f" stroke-width="8" stroke-linecap="round"/></svg>
