<svg id="e2DOgAw74vh1" xmlns="http://www.w3.org/2000/svg" xmlns:xlink="http://www.w3.org/1999/xlink" viewBox="0 0 700 400" shape-rendering="geometricPrecision" text-rendering="geometricPrecision" style="background-color:#ffec5f"><g transform="matrix(.318762 0 0 0.318762 94.990403 8.742806)"><rect width="1600" height="1199.8" rx="0" ry="0" transform="matrix(1.03571 0 0 1.045885-28.568-27.42641)" fill="#ffec5f"/><g id="e2DOgAw74vh4" transform="translate(.000014 0.099991)"><g id="e2DOgAw74vh5" transform="translate(.000002 0.000001)"><g id="e2DOgAw74vh6"><g><g id="e2DOgAw74vh8"><path d="M624.56,613.41v0c-25.46,0-46.1,20.64-46.1,46.1v280.49c0,25.46,20.64,46.1,46.1,46.1v0c25.46,0,46.1-20.64,46.1-46.1v-280.49c0-25.46-20.64-46.1-46.1-46.1Z" fill="#edc380"/><path id="e2DOgAw74vh10" d="M650.4,978.13c7.58-8.21,14.21-16.7,14.21-38.19v-279.5h6.06v279.5c0,15.89-8.04,29.9-20.26,38.19v0Z" fill="#d49837"/><path id="e2DOgAw74vh11" d="M598.63,978.13c-7.58-8.21-14.21-16.7-14.21-38.19v-279.5h-6.06v279.5c0,15.89,8.04,29.9,20.26,38.19v0Z" fill="#ffe5c9"/></g><path d="M624.56,294.08v0c95.18,0,172.46,77.28,172.46,172.46v285.22c0,26.49-21.51,48-48,48h-248.92c-26.49,0-48-21.51-48-48v-285.22c0-95.18,77.28-172.46,172.46-172.46Z" fill="#fe6dcb"/><path id="e2DOgAw74vh13" d="M780.45,751.76v-285.22c0-66.01-33.3-129.5-87.77-158.49v0c61.37,26.41,104.35,87.43,104.35,158.49v285.22c0,26.51-21.49,48-48,48h-16.57c26.51,0,48-21.49,48-48Z" fill="#fe33bb"/><path id="e2DOgAw74vh14" d="M468.67,751.76v-285.22c0-66.01,33.3-129.5,87.77-158.49v0c-61.37,26.41-104.35,87.43-104.35,158.49v285.22c0,26.51,21.49,48,48,48h16.57c-26.51,0-48-21.49-48-48Z" fill="#fea7d1"/><g id="e2DOgAw74vh15"><path d="M607.99,556.59c6.49,12.29,26.41,12.29,33.15,0" fill="none" stroke="#000" stroke-width="4" stroke-linecap="round" stroke-linejoin="round"/><circle r="9.74" transform="translate(583.61 550.16)" fill="#fe4eab"/><circle r="9.74" transform="translate(665.51 550.16)" fill="#fe4eab"/><ellipse id="e2DOgAw74vh19" rx="3.84" ry="8.54" transform="translate(611.83 536.57)"/><ellipse id="e2DOgAw74vh20" rx="3.84" ry="8.54" transform="translate(637.29 536.57)"/></g></g><g mask="url(#e2DOgAw74vh32)"><g id="e2DOgAw74vh22"><g><g opacity="0.2"><path d="M772.3,803.26c125.76-125.76-188.71-323,.96-512.67h50.42v512.67h-51.38Z" fill="#fff"/><path d="M748.18,290.58c-189.67,189.67,44.11,386.91-81.65,512.67h-62.67c126.66-126.66-167.18-329.61,15.88-512.67h-63.74C386.35,460.23,719.74,677.01,593.51,803.25h-56.32c127.79-127.79-329.71-257.41-74.45-512.67" fill="#fff"/><path d="M489.93,803.26C549.9,743.29,383.9,634.62,383.9,634.62v168.64h106.03Z" transform="translate(0-.832663)" fill="#fff"/></g><g opacity="0.2"><path d="M769.8,838.48C913.34,694.94,554.4,469.8,770.9,253.3h57.55v585.18h-58.65Z" fill="none" stroke="#fff" stroke-miterlimit="10"/><path d="M742.27,253.31c-216.5,216.5,50.34,441.63-93.2,585.18h-71.53c144.57-144.57-190.82-376.23,18.13-585.18h-72.76C329.27,446.95,709.81,694.4,565.72,838.49h-64.29C647.3,692.62,125.09,544.68,416.46,253.31" fill="none" stroke="#fff" stroke-miterlimit="10"/><path d="M447.49,838.48c68.45-68.45-121.03-192.49-121.03-192.49v192.49h121.03Z" fill="none" stroke="#fff" stroke-miterlimit="10"/></g></g></g><mask id="e2DOgAw74vh32" mask-type="luminance" x="-150%" y="-150%" height="400%" width="400%"><path d="M624.56,294.08v0c95.18,0,172.46,77.28,172.46,172.46v285.22c0,26.49-21.51,48-48,48h-248.92c-26.49,0-48-21.51-48-48v-285.22c0-95.18,77.28-172.46,172.46-172.46Z" fill="#fff"/></mask></g></g><g id="e2DOgAw74vh34" transform="translate(-4 0.000015)"><g id="e2DOgAw74vh35"><g id="e2DOgAw74vh36"><path id="e2DOgAw74vh37" d="M1019.85,660.44h6.06v279.5c0,15.89-8.04,29.9-20.26,38.19v0h-.01c7.58-8.21-8.268617,7.122046-32.635915,7.417678" fill="#d49837"/><path d="M979.8,613.41v0c-25.46,0-46.1,20.64-46.1,46.1v280.49c0,25.46,20.64,46.1,46.1,46.1v0c25.46,0,46.1-20.64,46.1-46.1v-280.49c0-25.46-20.64-46.1-46.1-46.1Z" fill="#edc380"/><path id="e2DOgAw74vh39" d="M953.87,978.13c-7.58-8.21-14.21-16.7-14.21-38.19v-279.5h-6.06v279.5c0,15.89,8.04,29.9,20.26,38.19v0Z" fill="#ffe5c9"/><path id="e2DOgAw74vh40" d="M1005.64,978.13c7.58-8.21,14.21-16.7,14.21-38.19v-279.5h6.06v279.5c0,15.89-8.04,29.9-20.26,38.19v0Z" fill="#d49837"/></g><path id="e2DOgAw74vh41" d="M1047.92,308.05c0,0,0,0,0,0c10.941428,4.70854,21.298312,10.517194,30.9313,17.286723c44.398026,31.200465,73.418701,82.812299,73.4187,141.203277v285.22c0,26.51-21.49,48-48,48h-16.57" fill="#309ebf"/><path d="M979.8,294.08v0c95.18,0,172.46,77.28,172.46,172.46v285.22c0,26.49-21.51,48-48,48h-248.92c-26.49,0-48-21.51-48-48v-285.22c0-95.18,77.28-172.46,172.46-172.46Z" fill="#5fdddd"/><path id="e2DOgAw74vh43" d="M1135.69,751.76v-285.22c0-66.01-33.3-129.5-87.77-158.49v0c61.37,26.41,104.35,87.43,104.35,158.49v285.22c0,26.51-21.49,48-48,48h-16.57c26.51,0,48-21.49,48-48Z" fill="#309ebf"/><path id="e2DOgAw74vh44" d="M823.92,751.76v-285.22c0-66.01,33.3-129.5,87.77-158.49v0c-61.37,26.41-104.35,87.43-104.35,158.49v285.22c0,26.51,21.49,48,48,48h16.57c-26.51,0-48-21.49-48-48Z" fill="#bfffff"/><g id="e2DOgAw74vh45"><path d="M996.38,552.51c0,13.57-7.42,24.58-16.57,24.58s-16.57-11-16.57-24.58c0,0,33.15,0,33.15,0Z"/><circle r="9.74" transform="translate(938.85 550.16)" fill="#40cbdd"/><circle r="9.74" transform="translate(1020.75 550.16)" fill="#40cbdd"/><ellipse id="e2DOgAw74vh49" rx="3.84" ry="8.54" transform="translate(967.07 536.57)"/><ellipse id="e2DOgAw74vh50" rx="3.84" ry="8.54" transform="translate(992.53 536.57)"/></g></g><g id="e2DOgAw74vh51" mask="url(#e2DOgAw74vh62)"><g id="e2DOgAw74vh52"><g><g opacity="0.2"><path d="M792.3,289.56c-125.76,125.76,188.71,323-.96,512.67h-50.42v-512.67h51.38Z" fill="#fff"/><path d="M816.42,802.23c189.67-189.67-44.11-386.91,81.65-512.67h62.67c-126.66,126.66,167.18,329.61-15.88,512.67h63.74c169.65-169.65-163.74-386.43-37.51-512.67h56.32c-127.79,127.79,329.71,257.41,74.45,512.67" fill="#fff"/><path d="M1074.67,289.56C1014.7,349.53,1180.7,458.2,1180.7,458.2v-168.64h-106.03Z" fill="#fff"/></g><g opacity="0.2"><path d="M766.45,247.83c-143.54,143.54,215.4,368.68-1.1,585.18h-57.55c0,0,0-585.18,0-585.18h58.65Z" fill="none" stroke="#fff" stroke-miterlimit="10"/><path d="M793.98,833.01c216.5-216.5-50.34-441.63,93.2-585.18h71.53C814.14,392.4,1149.53,624.06,940.58,833.01h72.76c193.64-193.64-186.9-441.09-42.81-585.18h64.29c-145.87,145.87,376.34,293.81,84.97,585.18" fill="none" stroke="#fff" stroke-miterlimit="10"/><path d="M1088.76,247.83c-68.45,68.45,121.03,192.49,121.03,192.49v-192.49c0,0-121.03,0-121.03,0Z" fill="none" stroke="#fff" stroke-miterlimit="10"/></g></g></g><mask id="e2DOgAw74vh62" mask-type="luminance" x="-150%" y="-150%" height="400%" width="400%"><path d="M979.8,294.08v0c95.18,0,172.46,77.28,172.46,172.46v285.22c0,26.49-21.51,48-48,48h-248.92c-26.49,0-48-21.51-48-48v-285.22c0-95.18,77.28-172.46,172.46-172.46Z" fill="#fff"/></mask></g></g></g><rect id="e2DOgAw74vh64" width="1600" height="1199.8" rx="0" ry="0" transform="matrix(1.03571 0 0 0.196662-28.568 991.371354)" opacity="0" fill="#ffec5f"/></g></g>
<script><![CDATA[
(function(s,i,u,o,c,w,d,t,n,x,e,p,a,b){(a=Array.from(d.querySelectorAll('svg#' + i.root)).filter(n=> !n.svgatorPlayer)[0]||{}).svgatorPlayer={ready:(function(a){b=[];return function(c){return c?(b.push(c),a.svgatorPlayer):b}})(a)};w[o]=w[o]||{};w[o][s]=w[o][s]||[];w[o][s].push(i);e=d.createElementNS(n,t);e.async=true;e.setAttributeNS(x,'href',[u,s,'.','j','s','?','v','=',c].join(''));e.setAttributeNS(null,'src',[u,s,'.','j','s','?','v','=',c].join(''));p=d.getElementsByTagName(t)[0];p.parentNode.insertBefore(e,p);})('91c80d77',{"root":"e2DOgAw74vh1","version":"2022-05-04","animations":[{"elements":{"e2DOgAw74vh4":{"transform":{"data":{"o":{"x":800.000007,"y":612.779466,"type":"corner"},"t":{"x":-799.999993,"y":-612.679475}},"keys":{"s":[{"t":2000,"v":{"x":1,"y":1},"e":[0.39,0.575,0.565,1]},{"t":2150,"v":{"x":1.263863,"y":1.263863},"e":[0.39,0.575,0.565,1]},{"t":2300,"v":{"x":1,"y":1},"e":[0.39,0.575,0.565,1]},{"t":2450,"v":{"x":1.263863,"y":1.263863},"e":[0.39,0.575,0.565,1]},{"t":2600,"v":{"x":1,"y":1},"e":[0.39,0.575,0.565,1]},{"t":2700,"v":{"x":1,"y":1},"e":[0.39,0.575,0.565,1]},{"t":2850,"v":{"x":1.263863,"y":1.263863},"e":[0.39,0.575,0.565,1]},{"t":3000,"v":{"x":1,"y":1},"e":[0.39,0.575,0.565,1]},{"t":3150,"v":{"x":1.263863,"y":1.263863},"e":[0.39,0.575,0.565,1]},{"t":3300,"v":{"x":1,"y":1},"e":[0.39,0.575,0.565,1]}]}}},"e2DOgAw74vh5":{"transform":{"data":{"o":{"x":799.9049,"y":986.073819,"type":"corner"},"t":{"x":-799.904898,"y":-986.073818}},"keys":{"s":[{"t":1850,"v":{"x":1,"y":1},"e":[0.445,0.05,0.55,0.95]},{"t":2150,"v":{"x":1.321116,"y":1.321116},"e":[0.445,0.05,0.55,0.95]},{"t":3150,"v":{"x":1.321116,"y":1.321116},"e":[0.445,0.05,0.55,0.95]},{"t":3450,"v":{"x":1,"y":1},"e":[0.435,0,0.61,0.425]}]}}},"e2DOgAw74vh6":{"transform":{"data":{"t":{"x":-622.31251,"y":-986.1}},"keys":{"o":[{"t":1600,"v":{"x":622.31251,"y":986.1,"type":"corner"},"e":[0.77,0,0.175,1]},{"t":2100,"v":{"x":545.201439,"y":971.249983,"type":"corner"}},{"t":3200,"v":{"x":545.201439,"y":971.249983,"type":"corner"},"e":[0.77,0,0.175,1]},{"t":3700,"v":{"x":622.31251,"y":986.1,"type":"corner"},"e":[0.825,0,0.23,1]},{"t":4300,"v":{"x":622.31251,"y":986.1,"type":"corner","start":{"x":622.31251,"y":986.1},"end":{"x":622.31251,"y":986.1}},"e":[0.6,-0.28,0.735,0.045]},{"t":4700,"v":{"x":622.31251,"y":1724.171517,"type":"corner","start":{"x":622.31251,"y":1724.171517}}},{"t":5100,"v":{"x":622.31251,"y":1724.171517,"type":"corner","start":{"x":622.31251,"y":1724.171517},"end":{"x":622.31251,"y":1724.171517}},"e":[0.175,0.885,0.32,1.275]},{"t":5500,"v":{"x":622.31251,"y":986.1,"type":"corner","start":{"x":622.31251,"y":986.1},"end":{"x":622.31251,"y":986.1}},"e":[0.6,-0.28,0.735,0.045]}],"r":[{"t":1600,"v":0,"e":[0.77,0,0.175,1]},{"t":2100,"v":45},{"t":3200,"v":45,"e":[0.77,0,0.175,1]},{"t":3700,"v":0,"e":[0.825,0,0.23,1]}]}}},"e2DOgAw74vh8":{"opacity":[{"t":1800,"v":1,"e":[0.445,0.05,0.55,0.95]},{"t":2000,"v":0.4},{"t":3300,"v":0.4},{"t":3500,"v":1,"e":[0.45,0.05,0.555,0.95]}]},"e2DOgAw74vh10":{"opacity":[{"t":200,"v":1,"e":[0.25,0.46,0.45,0.94]},{"t":400,"v":0},{"t":1200,"v":0,"e":[0.25,0.46,0.45,0.94]},{"t":1400,"v":1,"e":[0.25,0.46,0.45,0.94]}]},"e2DOgAw74vh11":{"d":[{"t":200,"v":["M",598.63,978.13,"C",591.05,969.92,584.42,961.43,584.42,939.94,"L",584.42,660.44,"L",578.36,660.44,"L",578.36,939.94,"C",578.36,955.83,586.4,969.84,598.62,978.13,"L",598.62,978.13,"Z"],"e":[0.25,0.46,0.45,0.94]},{"t":400,"v":["M",598.63,978.13,"C",591.05,969.92,588.42,961.43,588.42,939.94,"L",588.42,660.44,"L",578.36,660.44,"L",578.36,939.94,"C",578.36,955.83,586.4,969.84,598.62,978.13,"L",598.62,978.13,"Z"]},{"t":1200,"v":["M",598.63,978.13,"C",591.05,969.92,588.42,961.43,588.42,939.94,"L",588.42,660.44,"L",578.36,660.44,"L",578.36,939.94,"C",578.36,955.83,586.4,969.84,598.62,978.13,"L",598.62,978.13,"Z"]},{"t":1400,"v":["M",598.63,978.13,"C",591.05,969.92,584.42,961.43,584.42,939.94,"L",584.42,660.44,"L",578.36,660.44,"L",578.36,939.94,"C",578.36,955.83,586.4,969.84,598.62,978.13,"L",598.62,978.13,"Z"],"e":[0.55,0.06,0.75,0.54]}]},"e2DOgAw74vh13":{"opacity":[{"t":200,"v":1,"e":[0.25,0.46,0.45,0.94]},{"t":400,"v":0},{"t":1200,"v":0,"e":[0.25,0.46,0.45,0.94]},{"t":1400,"v":1,"e":[0.25,0.46,0.45,0.94]}]},"e2DOgAw74vh14":{"d":[{"t":200,"v":["M",468.67,751.76,"L",468.67,466.54,"C",468.67,400.53,501.97,337.04,556.44,308.05,"L",556.44,308.05,"C",495.07,334.46,452.09,395.48,452.09,466.54,"L",452.09,751.76,"C",452.09,778.27,473.58,799.76,500.09,799.76,"L",516.66,799.76,"C",490.15,799.76,468.66,778.27,468.66,751.76,"Z"],"e":[0.25,0.46,0.45,0.94]},{"t":400,"v":["M",482.29404,751.76,"L",482.29404,466.54,"C",482.29404,400.53,501.97,337.04,556.44,308.05,"L",556.44,308.05,"C",495.07,334.46,452.09,395.48,452.09,466.54,"L",452.09,751.76,"C",452.09,778.27,473.58,799.76,500.09,799.76,"L",516.66,799.76,"C",490.15,799.76,482.28404,778.27,482.28404,751.76,"Z"]},{"t":1200,"v":["M",482.29404,751.76,"L",482.29404,466.54,"C",482.29404,400.53,501.97,337.04,556.44,308.05,"L",556.44,308.05,"C",495.07,334.46,452.09,395.48,452.09,466.54,"L",452.09,751.76,"C",452.09,778.27,473.58,799.76,500.09,799.76,"L",516.66,799.76,"C",490.15,799.76,482.28404,778.27,482.28404,751.76,"Z"],"e":[0.25,0.46,0.45,0.94]},{"t":1400,"v":["M",468.67,751.76,"L",468.67,466.54,"C",468.67,400.53,501.97,337.04,556.44,308.05,"L",556.44,308.05,"C",495.07,334.46,452.09,395.48,452.09,466.54,"L",452.09,751.76,"C",452.09,778.27,473.58,799.76,500.09,799.76,"L",516.66,799.76,"C",490.15,799.76,468.66,778.27,468.66,751.76,"Z"],"e":[0.25,0.46,0.45,0.94]}]},"e2DOgAw74vh15":{"transform":{"data":{"t":{"x":-624.559998,"y":-546.918762}},"keys":{"o":[{"t":200,"v":{"x":624.559998,"y":546.918762,"type":"corner"},"e":[0.25,0.46,0.45,0.94]},{"t":400,"v":{"x":650.4,"y":546.918762,"type":"corner"}},{"t":1200,"v":{"x":650.4,"y":546.918762,"type":"corner","start":{"x":650.4,"y":546.918762},"end":{"x":650.4,"y":546.918762}},"e":[0.25,0.46,0.45,0.94]},{"t":1400,"v":{"x":624.559998,"y":546.918762,"type":"corner","start":{"x":624.559998,"y":546.918762},"end":{"x":624.559998,"y":546.918762}},"e":[0.25,0.46,0.45,0.94]}]}}},"e2DOgAw74vh19":{"transform":{"data":{"o":{"x":611.829987,"y":536.570038,"type":"corner"},"t":{"x":0.000013,"y":-0.000038}},"keys":{"s":[{"t":500,"v":{"x":1,"y":1},"e":[0.445,0.05,0.55,0.95]},{"t":600,"v":{"x":1.963528,"y":0.206938},"e":[0.445,0.05,0.55,0.95]},{"t":700,"v":{"x":1,"y":1}},{"t":1700,"v":{"x":1,"y":1},"e":[0.445,0.05,0.55,0.95]},{"t":1800,"v":{"x":1.963528,"y":0.206938},"e":[0.445,0.05,0.55,0.95]},{"t":1900,"v":{"x":1,"y":1}}]}}},"e2DOgAw74vh20":{"transform":{"data":{"o":{"x":637.289948,"y":536.570038,"type":"corner"},"t":{"x":0.000052,"y":-0.000038}},"keys":{"s":[{"t":500,"v":{"x":1,"y":1},"e":[0.445,0.05,0.55,0.95]},{"t":600,"v":{"x":1.963528,"y":0.206939},"e":[0.445,0.05,0.55,0.95]},{"t":700,"v":{"x":1,"y":1}},{"t":1700,"v":{"x":1,"y":1},"e":[0.445,0.05,0.55,0.95]},{"t":1800,"v":{"x":1.963528,"y":0.206939},"e":[0.445,0.05,0.55,0.95]},{"t":1900,"v":{"x":1,"y":1}}]}}},"e2DOgAw74vh22":{"transform":{"data":{"t":{"x":-577.454926,"y":-545.894989}},"keys":{"o":[{"t":200,"v":{"x":577.454926,"y":545.894989,"type":"corner"},"e":[0.25,0.46,0.45,0.94]},{"t":400,"v":{"x":602.651651,"y":545.894989,"type":"corner"}},{"t":1200,"v":{"x":602.651651,"y":545.894989,"type":"corner"}},{"t":1400,"v":{"x":577.454926,"y":545.894989,"type":"corner"},"e":[0.55,0.06,0.75,0.54]}]}}},"e2DOgAw74vh34":{"transform":{"data":{"t":{"x":-979.815,"y":-986.1}},"keys":{"o":[{"t":1600,"v":{"x":975.815,"y":986.100015,"type":"corner"},"e":[0.77,0,0.175,1]},{"t":2100,"v":{"x":1054.381753,"y":973.249987,"type":"corner"}},{"t":3200,"v":{"x":1054.381753,"y":973.249987,"type":"corner"},"e":[0.77,0,0.175,1]},{"t":3700,"v":{"x":975.815,"y":986.100015,"type":"corner"},"e":[0.825,0,0.23,1]},{"t":4400,"v":{"x":975.815,"y":986.100015,"type":"corner","start":{"x":975.815,"y":986.100015},"end":{"x":975.815,"y":986.100015}},"e":[0.6,-0.28,0.735,0.045]},{"t":4800,"v":{"x":975.815,"y":1729.64152,"type":"corner"}},{"t":5200,"v":{"x":975.815,"y":1729.64152,"type":"corner","start":{"x":975.815,"y":1729.64152},"end":{"x":975.815,"y":1729.64152}},"e":[0.175,0.885,0.32,1.275]},{"t":5600,"v":{"x":975.815,"y":986.100015,"type":"corner","start":{"x":975.815,"y":986.100015}}}],"r":[{"t":1600,"v":0,"e":[0.77,0,0.175,1]},{"t":2100,"v":-45},{"t":3200,"v":-45,"e":[0.77,0,0.175,1]},{"t":3700,"v":0,"e":[0.825,0,0.23,1]}]}}},"e2DOgAw74vh35":{"transform":{"data":{"o":{"x":979.804962,"y":640.089996,"type":"corner"},"t":{"x":-979.804962,"y":-640.089996}},"keys":{"s":[{"t":1700,"v":{"x":1,"y":1},"e":[0.55,0.085,0.68,0.53]},{"t":1800,"v":{"x":0.35,"y":1},"e":[0.25,0.46,0.45,0.94]},{"t":1900,"v":{"x":1,"y":1}},{"t":3400,"v":{"x":1,"y":1},"e":[0.25,0.46,0.45,0.94]},{"t":3500,"v":{"x":0.35,"y":1},"e":[0.25,0.46,0.45,0.94]},{"t":3600,"v":{"x":1,"y":1}}]}}},"e2DOgAw74vh36":{"opacity":[{"t":1800,"v":1,"e":[0.445,0.05,0.55,0.95]},{"t":2000,"v":0.4},{"t":3300,"v":0.4},{"t":3500,"v":1,"e":[0.45,0.05,0.555,0.95]}]},"e2DOgAw74vh37":{"d":[{"t":400,"v":["M",1019.85,660.44,"L",1025.91,660.44,"L",1025.91,939.94,"C",1025.91,955.83,1017.87,969.84,1005.65,978.13,"L",1005.65,978.13,"L",1005.64,978.13,"C",1013.22,969.92,997.371383,985.252046,973.004085,985.547678],"e":[0.25,0.46,0.45,0.94]},{"t":600,"v":["M",1015.85,660.44,"L",1025.91,660.44,"L",1025.91,939.94,"C",1025.91,955.83,1017.87,969.84,1005.65,978.13,"L",1005.65,978.13,"L",1005.64,978.13,"C",1013.22,969.92,997.371383,985.252046,973.004085,985.547678]},{"t":1200,"v":["M",1015.85,660.44,"L",1025.91,660.44,"L",1025.91,939.94,"C",1025.91,955.83,1017.87,969.84,1005.65,978.13,"L",1005.65,978.13,"L",1005.64,978.13,"C",1013.22,969.92,997.371383,985.252046,973.004085,985.547678]},{"t":1400,"v":["M",1019.85,660.44,"L",1025.91,660.44,"L",1025.91,939.94,"C",1025.91,955.83,1017.87,969.84,1005.65,978.13,"L",1005.65,978.13,"L",1005.64,978.13,"C",1013.22,969.92,997.371383,985.252046,973.004085,985.547678],"e":[0.55,0.06,0.75,0.54]},{"t":1800,"v":["M",985.198213,660.603236,"L",1025.91,660.44,"L",1025.91,939.94,"C",1025.91,955.83,1017.87,969.84,1005.65,978.13,"L",1005.65,978.13,"L",1005.64,978.13,"C",1001.104962,980.852444,990.61157,985.353998,970.827449,985.925362]}],"transform":{"data":{"t":{"x":-1015.775024,"y":-819.285004}},"keys":{"o":[{"t":1700,"v":{"x":1015.775024,"y":819.285004,"type":"corner"},"e":[0.55,0.085,0.68,0.53]},{"t":1800,"v":{"x":1025.504005,"y":819.441314,"type":"corner"},"e":[0.25,0.46,0.45,0.94]},{"t":1900,"v":{"x":1015.775024,"y":819.285004,"type":"corner"}},{"t":3400,"v":{"x":1015.775024,"y":819.285004,"type":"corner"},"e":[0.55,0.085,0.68,0.53]},{"t":3500,"v":{"x":1025.504005,"y":819.441314,"type":"corner"},"e":[0.25,0.46,0.45,0.94]},{"t":3600,"v":{"x":1015.775024,"y":819.285004,"type":"corner"}}]}}},"e2DOgAw74vh39":{"opacity":[{"t":400,"v":1,"e":[0.25,0.46,0.45,0.94]},{"t":600,"v":0,"e":[0.25,0.46,0.45,0.94]},{"t":1200,"v":0,"e":[0.25,0.46,0.45,0.94]},{"t":1400,"v":1,"e":[0.25,0.46,0.45,0.94]}]},"e2DOgAw74vh40":{"d":[{"t":400,"v":["M",1005.64,978.13,"C",1013.22,969.92,1019.85,961.43,1019.85,939.94,"L",1019.85,660.44,"L",1025.91,660.44,"L",1025.91,939.94,"C",1025.91,955.83,1017.87,969.84,1005.65,978.13,"L",1005.65,978.13,"Z"],"e":[0.25,0.46,0.45,0.94]},{"t":600,"v":["M",1005.64,978.13,"C",1013.22,969.92,1015.85,961.43,1015.85,939.94,"L",1015.85,660.44,"L",1025.91,660.44,"L",1025.91,939.94,"C",1025.91,955.83,1017.87,969.84,1005.65,978.13,"L",1005.65,978.13,"Z"]},{"t":1200,"v":["M",1005.64,978.13,"C",1013.22,969.92,1015.85,961.43,1015.85,939.94,"L",1015.85,660.44,"L",1025.91,660.44,"L",1025.91,939.94,"C",1025.91,955.83,1017.87,969.84,1005.65,978.13,"L",1005.65,978.13,"Z"]},{"t":1400,"v":["M",1005.64,978.13,"C",1013.22,969.92,1019.85,961.43,1019.85,939.94,"L",1019.85,660.44,"L",1025.91,660.44,"L",1025.91,939.94,"C",1025.91,955.83,1017.87,969.84,1005.65,978.13,"L",1005.65,978.13,"Z"],"e":[0.55,0.06,0.75,0.54]}]},"e2DOgAw74vh41":{"d":[{"t":400,"v":["M",1047.92,308.05,"C",1047.92,308.05,1047.92,308.05,1047.92,308.05,"C",1058.861428,312.75854,1069.218312,318.567194,1078.8513,325.336723,"C",1123.249326,356.537188,1152.270001,408.149022,1152.27,466.54,"L",1152.27,751.76,"C",1152.27,778.27,1130.78,799.76,1104.27,799.76,"L",1087.7,799.76],"e":[0.25,0.46,0.45,0.94]},{"t":600,"v":["M",1047.92,308.05,"C",1047.92,308.05,1047.92,308.05,1047.92,308.05,"C",1058.861428,312.75854,1069.218312,318.567194,1078.8513,325.336723,"C",1123.249326,356.537188,1152.270001,408.149022,1152.27,466.54,"L",1152.27,751.76,"C",1152.27,778.27,1130.78,799.76,1104.27,799.76,"L",1087.7,799.76],"e":[0.25,0.46,0.45,0.94]},{"t":1200,"v":["M",1047.92,308.05,"C",1047.92,308.05,1047.92,308.05,1047.92,308.05,"C",1058.861428,312.75854,1069.218312,318.567194,1078.8513,325.336723,"C",1123.249326,356.537188,1152.270001,408.149022,1152.27,466.54,"L",1152.27,751.76,"C",1152.27,778.27,1130.78,799.76,1104.27,799.76,"L",1087.7,799.76],"e":[0.25,0.46,0.45,0.94]},{"t":1400,"v":["M",1047.92,308.05,"C",1047.92,308.05,1047.92,308.05,1047.92,308.05,"C",1058.861428,312.75854,1069.218312,318.567194,1078.8513,325.336723,"C",1123.249326,356.537188,1152.270001,408.149022,1152.27,466.54,"L",1152.27,751.76,"C",1152.27,778.27,1130.78,799.76,1104.27,799.76,"L",1087.7,799.76]},{"t":1700,"v":["M",1047.92,308.05,"C",1047.92,308.05,1047.92,308.05,1047.92,308.05,"C",1058.861428,312.75854,1069.218312,318.567194,1078.8513,325.336723,"C",1123.249326,356.537188,1152.270001,408.149022,1152.27,466.54,"L",1152.27,751.76,"C",1152.27,778.27,1130.78,799.76,1104.27,799.76,"L",1087.7,799.76],"e":[0.55,0.085,0.68,0.53]},{"t":1800,"v":["M",887.274652,297.187511,"C",887.274652,297.187511,946.832612,297.496665,1013.545132,300.136949,"C",1045.796429,301.41336,1069.218312,318.567194,1078.8513,325.336723,"C",1123.249326,356.537188,1152.270001,408.149022,1152.27,466.54,"L",1152.27,751.76,"C",1152.27,778.27,1130.78,799.76,1104.27,799.76,"L",933.483326,802.477308],"e":[0.25,0.46,0.45,0.94]},{"t":1900,"v":["M",1047.92,308.05,"C",1047.92,308.05,1047.92,308.05,1047.92,308.05,"C",1058.861428,312.75854,1069.218312,318.567194,1078.8513,325.336723,"C",1123.249326,356.537188,1152.270001,408.149022,1152.27,466.54,"L",1152.27,751.76,"C",1152.27,778.27,1130.78,799.76,1104.27,799.76,"L",1087.7,799.76]},{"t":3400,"v":["M",1047.92,308.05,"C",1047.92,308.05,1047.92,308.05,1047.92,308.05,"C",1058.861428,312.75854,1069.218312,318.567194,1078.8513,325.336723,"C",1123.249326,356.537188,1152.270001,408.149022,1152.27,466.54,"L",1152.27,751.76,"C",1152.27,778.27,1130.78,799.76,1104.27,799.76,"L",1087.7,799.76],"e":[0.55,0.085,0.68,0.53]},{"t":3500,"v":["M",928.80315,295.359047,"C",928.80315,295.359047,945.707857,295.491881,1012.420377,298.132165,"C",1044.671674,299.408576,1069.218312,318.567194,1078.8513,325.336723,"C",1123.249326,356.537188,1152.270001,408.149022,1152.27,466.54,"L",1152.27,751.76,"C",1152.27,778.27,1130.78,799.76,1104.27,799.76,"L",1035.052965,800.89596],"e":[0.25,0.46,0.45,0.94]},{"t":3600,"v":["M",1047.92,308.05,"C",1047.92,308.05,1047.92,308.05,1047.92,308.05,"C",1058.861428,312.75854,1069.218312,318.567194,1078.8513,325.336723,"C",1123.249326,356.537188,1152.270001,408.149022,1152.27,466.54,"L",1152.27,751.76,"C",1152.27,778.27,1130.78,799.76,1104.27,799.76,"L",1087.7,799.76]}],"transform":{"data":{"t":{"x":-1100.09491,"y":-553.904999}},"keys":{"o":[{"t":1700,"v":{"x":1100.09491,"y":553.904999,"type":"corner"},"e":[0.55,0.085,0.68,0.53]},{"t":1800,"v":{"x":1192.686013,"y":551.227894,"type":"corner"},"e":[0.25,0.46,0.45,0.94]},{"t":1900,"v":{"x":1100.09491,"y":553.904999,"type":"corner"}},{"t":3400,"v":{"x":1100.09491,"y":553.904999,"type":"corner"},"e":[0.55,0.085,0.68,0.53]},{"t":3500,"v":{"x":1154.789266,"y":552.664265,"type":"corner"},"e":[0.25,0.46,0.45,0.94]},{"t":3600,"v":{"x":1100.09491,"y":553.904999,"type":"corner"}}]}}},"e2DOgAw74vh43":{"d":[{"t":400,"v":["M",1135.69,751.76,"L",1135.69,466.54,"C",1135.69,400.53,1102.39,337.04,1047.92,308.05,"L",1047.92,308.05,"C",1109.29,334.46,1152.27,395.48,1152.27,466.54,"L",1152.27,751.76,"C",1152.27,778.27,1130.78,799.76,1104.27,799.76,"L",1087.7,799.76,"C",1114.21,799.76,1135.7,778.27,1135.7,751.76,"Z"],"e":[0.25,0.46,0.45,0.94]},{"t":600,"v":["M",1119.78,751.76,"L",1119.78,466.54,"C",1119.78,400.53,1102.39,337.04,1047.92,308.05,"L",1047.92,308.05,"C",1109.29,334.46,1152.27,395.48,1152.27,466.54,"L",1152.27,751.76,"C",1152.27,778.27,1130.78,799.76,1104.27,799.76,"L",1087.7,799.76,"C",1114.21,799.76,1119.79,778.27,1119.79,751.76,"Z"],"e":[0.25,0.46,0.45,0.94]},{"t":1200,"v":["M",1119.78,751.76,"L",1119.78,466.54,"C",1119.78,400.53,1102.39,337.04,1047.92,308.05,"L",1047.92,308.05,"C",1109.29,334.46,1152.27,395.48,1152.27,466.54,"L",1152.27,751.76,"C",1152.27,778.27,1130.78,799.76,1104.27,799.76,"L",1087.7,799.76,"C",1114.21,799.76,1119.79,778.27,1119.79,751.76,"Z"],"e":[0.25,0.46,0.45,0.94]},{"t":1400,"v":["M",1135.69,751.76,"L",1135.69,466.54,"C",1135.69,400.53,1102.39,337.04,1047.92,308.05,"L",1047.92,308.05,"C",1109.29,334.46,1152.27,395.48,1152.27,466.54,"L",1152.27,751.76,"C",1152.27,778.27,1130.78,799.76,1104.27,799.76,"L",1087.7,799.76,"C",1114.21,799.76,1135.7,778.27,1135.7,751.76,"Z"]}]},"e2DOgAw74vh44":{"opacity":[{"t":400,"v":1,"e":[0.25,0.46,0.45,0.94]},{"t":600,"v":0,"e":[0.25,0.46,0.45,0.94]},{"t":1200,"v":0,"e":[0.25,0.46,0.45,0.94]},{"t":1400,"v":1,"e":[0.25,0.46,0.45,0.94]}]},"e2DOgAw74vh45":{"transform":{"data":{"t":{"x":-979.799988,"y":-543.964996}},"keys":{"o":[{"t":400,"v":{"x":979.799988,"y":543.964996,"type":"corner"},"e":[0.25,0.46,0.45,0.94]},{"t":600,"v":{"x":953.870001,"y":543.964996,"type":"corner"},"e":[0.25,0.46,0.45,0.94]},{"t":1200,"v":{"x":953.870001,"y":543.964996,"type":"corner","start":{"x":953.870001,"y":543.964996},"end":{"x":953.870001,"y":543.964996}},"e":[0.25,0.46,0.45,0.94]},{"t":1400,"v":{"x":979.799988,"y":543.964996,"type":"corner","start":{"x":979.799988,"y":543.964996},"end":{"x":979.799988,"y":543.964996}}}]}},"opacity":[{"t":1700,"v":1},{"t":1800,"v":0},{"t":3500,"v":0},{"t":3600,"v":1}]},"e2DOgAw74vh49":{"transform":{"data":{"o":{"x":967.069977,"y":536.570038,"type":"corner"},"t":{"x":0.000023,"y":-0.000038}},"keys":{"s":[{"t":700,"v":{"x":1,"y":1},"e":[0.445,0.05,0.55,0.95]},{"t":800,"v":{"x":1.963528,"y":0.206939},"e":[0.445,0.05,0.55,0.95]},{"t":900,"v":{"x":1,"y":1}},{"t":4000,"v":{"x":1,"y":1},"e":[0.445,0.05,0.55,0.95]},{"t":4100,"v":{"x":1.963528,"y":0.206939},"e":[0.445,0.05,0.55,0.95]},{"t":4200,"v":{"x":1,"y":1}}]}}},"e2DOgAw74vh50":{"transform":{"data":{"o":{"x":992.529999,"y":536.570038,"type":"corner"},"t":{"x":0.000001,"y":-0.000038}},"keys":{"s":[{"t":700,"v":{"x":1,"y":1},"e":[0.445,0.05,0.55,0.95]},{"t":800,"v":{"x":1.963528,"y":0.206939},"e":[0.445,0.05,0.55,0.95]},{"t":900,"v":{"x":1,"y":1}},{"t":4000,"v":{"x":1,"y":1},"e":[0.445,0.05,0.55,0.95]},{"t":4100,"v":{"x":1.963528,"y":0.206939},"e":[0.445,0.05,0.55,0.95]},{"t":4200,"v":{"x":1,"y":1}}]}}},"e2DOgAw74vh51":{"transform":{"data":{"o":{"x":958.795044,"y":540.419998,"type":"corner"},"t":{"x":-958.795044,"y":-540.419998}},"keys":{"s":[{"t":1700,"v":{"x":1,"y":1},"e":[0.55,0.085,0.68,0.53]},{"t":1800,"v":{"x":0.377159,"y":1},"e":[0.25,0.46,0.45,0.94]},{"t":1900,"v":{"x":1,"y":1}},{"t":3400,"v":{"x":1,"y":1},"e":[0.25,0.46,0.45,0.94]},{"t":3500,"v":{"x":0.377159,"y":1},"e":[0.25,0.46,0.45,0.94]},{"t":3600,"v":{"x":1,"y":1}}]}}},"e2DOgAw74vh52":{"transform":{"data":{"t":{"x":-958.795044,"y":-540.419998}},"keys":{"o":[{"t":400,"v":{"x":958.795044,"y":540.419998,"type":"corner"},"e":[0.25,0.46,0.45,0.94]},{"t":600,"v":{"x":933.59832,"y":540.419998,"type":"corner"}},{"t":1200,"v":{"x":933.59832,"y":540.419998,"type":"corner"}},{"t":1400,"v":{"x":958.795044,"y":540.419998,"type":"corner"},"e":[0.55,0.06,0.75,0.54]}]}}},"e2DOgAw74vh64":{"opacity":[{"t":4490,"v":0},{"t":4500,"v":1}]}},"s":"MDSA1ZGM5NzBiMVmMzYzBhZmMyWYjdiZGJjNzAA4ODgzODQ3ZTSdlN2E3MGIyYJjdjMGIzYjFjRMmI3YmRiYzcCwODg3ZjdhNzMBiN2MyYjNjMIGFmYzJiN2JkIWWJjYzE3MDgC4N2U3YTcwYjFRiN2JhYmFLNGzA4ODdmN2E3AMGFmYmFCYzJUiM2MwYmNhZmEMyYjM3MDg4YGjRhZmJhYzFiLM0U3YTcwYzFSiZWIzYjNiMjEcwVDg4N2Y3YNTcwYjRiZWMxJVDcwODhUN2YC3ZTdlY2I/"}],"options":"MDTAxZTk2M2Q4ZAThmN2M4ZDhmJM2Q1NTNkOGUK3ZThkOGE4NzHg3M2Q0NzNkOFGU3ZThkOGE4QNzg3M2Q1NTRAkNTA5OA|"},'https://cdn.svgator.com/ply/','__SVGATOR_PLAYER__','2022-05-04',window,document,'script','http://www.w3.org/2000/svg','http://www.w3.org/1999/xlink')
]]></script>
</svg>
